G04 EAGLE Gerber RS-274X export*
G75*
%MOMM*%
%FSLAX34Y34*%
%LPD*%
%IN*%
%IPPOS*%
%AMOC8*
5,1,8,0,0,1.08239X$1,22.5*%
G01*
%ADD10C,0.254000*%


D10*
X12700Y228600D02*
X568200Y228600D01*
X568200Y800000D01*
X12700Y800000D01*
X12700Y228600D01*
X68375Y688848D02*
X69487Y688775D01*
X70592Y688630D01*
X71684Y688412D01*
X72761Y688124D01*
X73816Y687766D01*
X74845Y687339D01*
X75845Y686847D01*
X76809Y686289D01*
X77736Y685670D01*
X78620Y684992D01*
X79458Y684257D01*
X80245Y683470D01*
X80980Y682632D01*
X81658Y681748D01*
X82277Y680821D01*
X82835Y679857D01*
X83327Y678857D01*
X83754Y677828D01*
X84112Y676773D01*
X84400Y675696D01*
X84618Y674604D01*
X84763Y673499D01*
X84836Y672387D01*
X84836Y671273D01*
X84763Y670161D01*
X84618Y669056D01*
X84400Y667964D01*
X84112Y666887D01*
X83754Y665832D01*
X83327Y664803D01*
X82835Y663803D01*
X82277Y662839D01*
X81658Y661912D01*
X80980Y661028D01*
X80245Y660190D01*
X79458Y659403D01*
X78620Y658668D01*
X77736Y657990D01*
X76809Y657371D01*
X75845Y656813D01*
X74845Y656321D01*
X73816Y655894D01*
X72761Y655536D01*
X71684Y655248D01*
X70592Y655030D01*
X69487Y654885D01*
X68375Y654812D01*
X67261Y654812D01*
X66149Y654885D01*
X65044Y655030D01*
X63952Y655248D01*
X62875Y655536D01*
X61820Y655894D01*
X60791Y656321D01*
X59791Y656813D01*
X58827Y657371D01*
X57900Y657990D01*
X57016Y658668D01*
X56178Y659403D01*
X55391Y660190D01*
X54656Y661028D01*
X53978Y661912D01*
X53359Y662839D01*
X52801Y663803D01*
X52309Y664803D01*
X51882Y665832D01*
X51524Y666887D01*
X51236Y667964D01*
X51018Y669056D01*
X50873Y670161D01*
X50800Y671273D01*
X50800Y672387D01*
X50873Y673499D01*
X51018Y674604D01*
X51236Y675696D01*
X51524Y676773D01*
X51882Y677828D01*
X52309Y678857D01*
X52801Y679857D01*
X53359Y680821D01*
X53978Y681748D01*
X54656Y682632D01*
X55391Y683470D01*
X56178Y684257D01*
X57016Y684992D01*
X57900Y685670D01*
X58827Y686289D01*
X59791Y686847D01*
X60791Y687339D01*
X61820Y687766D01*
X62875Y688124D01*
X63952Y688412D01*
X65044Y688630D01*
X66149Y688775D01*
X67261Y688848D01*
X68375Y688848D01*
X68375Y742188D02*
X69487Y742115D01*
X70592Y741970D01*
X71684Y741752D01*
X72761Y741464D01*
X73816Y741106D01*
X74845Y740679D01*
X75845Y740187D01*
X76809Y739629D01*
X77736Y739010D01*
X78620Y738332D01*
X79458Y737597D01*
X80245Y736810D01*
X80980Y735972D01*
X81658Y735088D01*
X82277Y734161D01*
X82835Y733197D01*
X83327Y732197D01*
X83754Y731168D01*
X84112Y730113D01*
X84400Y729036D01*
X84618Y727944D01*
X84763Y726839D01*
X84836Y725727D01*
X84836Y724613D01*
X84763Y723501D01*
X84618Y722396D01*
X84400Y721304D01*
X84112Y720227D01*
X83754Y719172D01*
X83327Y718143D01*
X82835Y717143D01*
X82277Y716179D01*
X81658Y715252D01*
X80980Y714368D01*
X80245Y713530D01*
X79458Y712743D01*
X78620Y712008D01*
X77736Y711330D01*
X76809Y710711D01*
X75845Y710153D01*
X74845Y709661D01*
X73816Y709234D01*
X72761Y708876D01*
X71684Y708588D01*
X70592Y708370D01*
X69487Y708225D01*
X68375Y708152D01*
X67261Y708152D01*
X66149Y708225D01*
X65044Y708370D01*
X63952Y708588D01*
X62875Y708876D01*
X61820Y709234D01*
X60791Y709661D01*
X59791Y710153D01*
X58827Y710711D01*
X57900Y711330D01*
X57016Y712008D01*
X56178Y712743D01*
X55391Y713530D01*
X54656Y714368D01*
X53978Y715252D01*
X53359Y716179D01*
X52801Y717143D01*
X52309Y718143D01*
X51882Y719172D01*
X51524Y720227D01*
X51236Y721304D01*
X51018Y722396D01*
X50873Y723501D01*
X50800Y724613D01*
X50800Y725727D01*
X50873Y726839D01*
X51018Y727944D01*
X51236Y729036D01*
X51524Y730113D01*
X51882Y731168D01*
X52309Y732197D01*
X52801Y733197D01*
X53359Y734161D01*
X53978Y735088D01*
X54656Y735972D01*
X55391Y736810D01*
X56178Y737597D01*
X57016Y738332D01*
X57900Y739010D01*
X58827Y739629D01*
X59791Y740187D01*
X60791Y740679D01*
X61820Y741106D01*
X62875Y741464D01*
X63952Y741752D01*
X65044Y741970D01*
X66149Y742115D01*
X67261Y742188D01*
X68375Y742188D01*
M02*
