G04 EAGLE Gerber RS-274X export*
G75*
%MOMM*%
%FSLAX34Y34*%
%LPD*%
%INSilkscreen Top*%
%IPPOS*%
%AMOC8*
5,1,8,0,0,1.08239X$1,22.5*%
G01*
%ADD10C,0.101600*%
%ADD11C,0.100000*%
%ADD12C,0.076200*%
%ADD13C,0.254000*%

G36*
X25424Y659394D02*
X25424Y659394D01*
X25516Y659391D01*
X25620Y659419D01*
X25692Y659428D01*
X41566Y664191D01*
X41686Y664246D01*
X41806Y664298D01*
X41814Y664305D01*
X41824Y664310D01*
X41923Y664396D01*
X42025Y664480D01*
X42031Y664489D01*
X42039Y664496D01*
X42111Y664606D01*
X42185Y664715D01*
X42188Y664725D01*
X42194Y664734D01*
X42232Y664860D01*
X42273Y664985D01*
X42274Y664995D01*
X42277Y665006D01*
X42279Y665138D01*
X42284Y665269D01*
X42281Y665279D01*
X42281Y665290D01*
X42247Y665417D01*
X42215Y665545D01*
X42209Y665554D01*
X42207Y665564D01*
X42138Y665676D01*
X42072Y665790D01*
X42064Y665798D01*
X42059Y665807D01*
X41962Y665896D01*
X41867Y665987D01*
X41858Y665992D01*
X41849Y665999D01*
X41595Y666126D01*
X41578Y666129D01*
X41566Y666135D01*
X25692Y670897D01*
X25629Y670907D01*
X25568Y670926D01*
X25489Y670928D01*
X25411Y670940D01*
X25347Y670932D01*
X25284Y670934D01*
X25207Y670914D01*
X25129Y670903D01*
X25070Y670878D01*
X25009Y670862D01*
X24941Y670821D01*
X24868Y670790D01*
X24819Y670749D01*
X24764Y670717D01*
X24710Y670659D01*
X24649Y670608D01*
X24613Y670556D01*
X24570Y670509D01*
X24534Y670439D01*
X24489Y670373D01*
X24469Y670313D01*
X24440Y670256D01*
X24429Y670191D01*
X24401Y670103D01*
X24397Y669996D01*
X24385Y669925D01*
X24385Y660400D01*
X24394Y660337D01*
X24393Y660273D01*
X24414Y660197D01*
X24425Y660119D01*
X24451Y660060D01*
X24467Y659999D01*
X24509Y659931D01*
X24541Y659859D01*
X24582Y659810D01*
X24615Y659756D01*
X24673Y659702D01*
X24725Y659642D01*
X24778Y659607D01*
X24825Y659564D01*
X24895Y659528D01*
X24961Y659485D01*
X25022Y659465D01*
X25079Y659437D01*
X25157Y659423D01*
X25232Y659399D01*
X25296Y659397D01*
X25359Y659386D01*
X25424Y659394D01*
G37*
G36*
X495912Y646302D02*
X495912Y646302D01*
X495917Y646301D01*
X496008Y646323D01*
X496102Y646344D01*
X496106Y646346D01*
X496110Y646347D01*
X496186Y646403D01*
X496265Y646459D01*
X496267Y646462D01*
X496270Y646465D01*
X496319Y646547D01*
X496369Y646628D01*
X496369Y646632D01*
X496372Y646636D01*
X496399Y646800D01*
X496399Y649500D01*
X496398Y649508D01*
X496399Y649517D01*
X496378Y649605D01*
X496360Y649695D01*
X496355Y649702D01*
X496353Y649710D01*
X496299Y649783D01*
X496247Y649859D01*
X496240Y649863D01*
X496235Y649870D01*
X496157Y649917D01*
X496080Y649966D01*
X496071Y649967D01*
X496064Y649972D01*
X495900Y649999D01*
X493200Y649999D01*
X493196Y649998D01*
X493192Y649999D01*
X493098Y649979D01*
X493005Y649960D01*
X493002Y649957D01*
X492998Y649956D01*
X492920Y649901D01*
X492841Y649847D01*
X492839Y649844D01*
X492836Y649841D01*
X492786Y649760D01*
X492734Y649680D01*
X492733Y649675D01*
X492731Y649672D01*
X492717Y649578D01*
X492701Y649483D01*
X492702Y649479D01*
X492701Y649475D01*
X492725Y649383D01*
X492747Y649290D01*
X492750Y649287D01*
X492751Y649283D01*
X492847Y649147D01*
X495547Y646447D01*
X495551Y646445D01*
X495553Y646441D01*
X495633Y646390D01*
X495713Y646337D01*
X495717Y646336D01*
X495720Y646334D01*
X495814Y646318D01*
X495908Y646301D01*
X495912Y646302D01*
G37*
D10*
X145401Y305308D02*
X142804Y305308D01*
X142705Y305310D01*
X142605Y305316D01*
X142506Y305325D01*
X142408Y305338D01*
X142310Y305355D01*
X142212Y305376D01*
X142116Y305401D01*
X142021Y305429D01*
X141927Y305461D01*
X141834Y305496D01*
X141742Y305535D01*
X141652Y305578D01*
X141564Y305623D01*
X141477Y305673D01*
X141393Y305725D01*
X141310Y305781D01*
X141230Y305839D01*
X141152Y305901D01*
X141077Y305966D01*
X141004Y306034D01*
X140934Y306104D01*
X140866Y306177D01*
X140801Y306252D01*
X140739Y306330D01*
X140681Y306410D01*
X140625Y306493D01*
X140573Y306577D01*
X140523Y306664D01*
X140478Y306752D01*
X140435Y306842D01*
X140396Y306934D01*
X140361Y307027D01*
X140329Y307121D01*
X140301Y307216D01*
X140276Y307312D01*
X140255Y307410D01*
X140238Y307508D01*
X140225Y307606D01*
X140216Y307705D01*
X140210Y307805D01*
X140208Y307904D01*
X140208Y314396D01*
X140210Y314495D01*
X140216Y314595D01*
X140225Y314694D01*
X140238Y314792D01*
X140255Y314890D01*
X140276Y314988D01*
X140301Y315084D01*
X140329Y315179D01*
X140361Y315273D01*
X140396Y315366D01*
X140435Y315458D01*
X140478Y315548D01*
X140523Y315636D01*
X140573Y315723D01*
X140625Y315807D01*
X140681Y315890D01*
X140739Y315970D01*
X140801Y316048D01*
X140866Y316123D01*
X140934Y316196D01*
X141004Y316266D01*
X141077Y316334D01*
X141152Y316399D01*
X141230Y316461D01*
X141310Y316519D01*
X141393Y316575D01*
X141477Y316627D01*
X141564Y316677D01*
X141652Y316722D01*
X141742Y316765D01*
X141834Y316804D01*
X141926Y316839D01*
X142021Y316871D01*
X142116Y316899D01*
X142212Y316924D01*
X142310Y316945D01*
X142408Y316962D01*
X142506Y316975D01*
X142605Y316984D01*
X142705Y316990D01*
X142804Y316992D01*
X145401Y316992D01*
X149766Y305308D02*
X153012Y305308D01*
X153125Y305310D01*
X153238Y305316D01*
X153351Y305326D01*
X153464Y305340D01*
X153576Y305357D01*
X153687Y305379D01*
X153797Y305404D01*
X153907Y305434D01*
X154015Y305467D01*
X154122Y305504D01*
X154228Y305544D01*
X154332Y305589D01*
X154435Y305637D01*
X154536Y305688D01*
X154635Y305743D01*
X154732Y305801D01*
X154827Y305863D01*
X154920Y305928D01*
X155010Y305996D01*
X155098Y306067D01*
X155184Y306142D01*
X155267Y306219D01*
X155347Y306299D01*
X155424Y306382D01*
X155499Y306468D01*
X155570Y306556D01*
X155638Y306646D01*
X155703Y306739D01*
X155765Y306834D01*
X155823Y306931D01*
X155878Y307030D01*
X155929Y307131D01*
X155977Y307234D01*
X156022Y307338D01*
X156062Y307444D01*
X156099Y307551D01*
X156132Y307659D01*
X156162Y307769D01*
X156187Y307879D01*
X156209Y307990D01*
X156226Y308102D01*
X156240Y308215D01*
X156250Y308328D01*
X156256Y308441D01*
X156258Y308554D01*
X156256Y308667D01*
X156250Y308780D01*
X156240Y308893D01*
X156226Y309006D01*
X156209Y309118D01*
X156187Y309229D01*
X156162Y309339D01*
X156132Y309449D01*
X156099Y309557D01*
X156062Y309664D01*
X156022Y309770D01*
X155977Y309874D01*
X155929Y309977D01*
X155878Y310078D01*
X155823Y310177D01*
X155765Y310274D01*
X155703Y310369D01*
X155638Y310462D01*
X155570Y310552D01*
X155499Y310640D01*
X155424Y310726D01*
X155347Y310809D01*
X155267Y310889D01*
X155184Y310966D01*
X155098Y311041D01*
X155010Y311112D01*
X154920Y311180D01*
X154827Y311245D01*
X154732Y311307D01*
X154635Y311365D01*
X154536Y311420D01*
X154435Y311471D01*
X154332Y311519D01*
X154228Y311564D01*
X154122Y311604D01*
X154015Y311641D01*
X153907Y311674D01*
X153797Y311704D01*
X153687Y311729D01*
X153576Y311751D01*
X153464Y311768D01*
X153351Y311782D01*
X153238Y311792D01*
X153125Y311798D01*
X153012Y311800D01*
X153661Y316992D02*
X149766Y316992D01*
X153661Y316992D02*
X153762Y316990D01*
X153862Y316984D01*
X153962Y316974D01*
X154062Y316961D01*
X154161Y316943D01*
X154260Y316922D01*
X154357Y316897D01*
X154454Y316868D01*
X154549Y316835D01*
X154643Y316799D01*
X154735Y316759D01*
X154826Y316716D01*
X154915Y316669D01*
X155002Y316619D01*
X155088Y316565D01*
X155171Y316508D01*
X155251Y316448D01*
X155330Y316385D01*
X155406Y316318D01*
X155479Y316249D01*
X155549Y316177D01*
X155617Y316103D01*
X155682Y316026D01*
X155743Y315946D01*
X155802Y315864D01*
X155857Y315780D01*
X155909Y315694D01*
X155958Y315606D01*
X156003Y315516D01*
X156045Y315424D01*
X156083Y315331D01*
X156117Y315236D01*
X156148Y315141D01*
X156175Y315044D01*
X156198Y314946D01*
X156218Y314847D01*
X156233Y314747D01*
X156245Y314647D01*
X156253Y314547D01*
X156257Y314446D01*
X156257Y314346D01*
X156253Y314245D01*
X156245Y314145D01*
X156233Y314045D01*
X156218Y313945D01*
X156198Y313846D01*
X156175Y313748D01*
X156148Y313651D01*
X156117Y313556D01*
X156083Y313461D01*
X156045Y313368D01*
X156003Y313276D01*
X155958Y313186D01*
X155909Y313098D01*
X155857Y313012D01*
X155802Y312928D01*
X155743Y312846D01*
X155682Y312766D01*
X155617Y312689D01*
X155549Y312615D01*
X155479Y312543D01*
X155406Y312474D01*
X155330Y312407D01*
X155251Y312344D01*
X155171Y312284D01*
X155088Y312227D01*
X155002Y312173D01*
X154915Y312123D01*
X154826Y312076D01*
X154735Y312033D01*
X154643Y311993D01*
X154549Y311957D01*
X154454Y311924D01*
X154357Y311895D01*
X154260Y311870D01*
X154161Y311849D01*
X154062Y311831D01*
X153962Y311818D01*
X153862Y311808D01*
X153762Y311802D01*
X153661Y311800D01*
X153661Y311799D02*
X151064Y311799D01*
X282504Y305308D02*
X285101Y305308D01*
X282504Y305308D02*
X282405Y305310D01*
X282305Y305316D01*
X282206Y305325D01*
X282108Y305338D01*
X282010Y305355D01*
X281912Y305376D01*
X281816Y305401D01*
X281721Y305429D01*
X281627Y305461D01*
X281534Y305496D01*
X281442Y305535D01*
X281352Y305578D01*
X281264Y305623D01*
X281177Y305673D01*
X281093Y305725D01*
X281010Y305781D01*
X280930Y305839D01*
X280852Y305901D01*
X280777Y305966D01*
X280704Y306034D01*
X280634Y306104D01*
X280566Y306177D01*
X280501Y306252D01*
X280439Y306330D01*
X280381Y306410D01*
X280325Y306493D01*
X280273Y306577D01*
X280223Y306664D01*
X280178Y306752D01*
X280135Y306842D01*
X280096Y306934D01*
X280061Y307027D01*
X280029Y307121D01*
X280001Y307216D01*
X279976Y307312D01*
X279955Y307410D01*
X279938Y307508D01*
X279925Y307606D01*
X279916Y307705D01*
X279910Y307805D01*
X279908Y307904D01*
X279908Y314396D01*
X279910Y314495D01*
X279916Y314595D01*
X279925Y314694D01*
X279938Y314792D01*
X279955Y314890D01*
X279976Y314988D01*
X280001Y315084D01*
X280029Y315179D01*
X280061Y315273D01*
X280096Y315366D01*
X280135Y315458D01*
X280178Y315548D01*
X280223Y315636D01*
X280273Y315723D01*
X280325Y315807D01*
X280381Y315890D01*
X280439Y315970D01*
X280501Y316048D01*
X280566Y316123D01*
X280634Y316196D01*
X280704Y316266D01*
X280777Y316334D01*
X280852Y316399D01*
X280930Y316461D01*
X281010Y316519D01*
X281093Y316575D01*
X281177Y316627D01*
X281264Y316677D01*
X281352Y316722D01*
X281442Y316765D01*
X281534Y316804D01*
X281626Y316839D01*
X281721Y316871D01*
X281816Y316899D01*
X281912Y316924D01*
X282010Y316945D01*
X282108Y316962D01*
X282206Y316975D01*
X282305Y316984D01*
X282405Y316990D01*
X282504Y316992D01*
X285101Y316992D01*
X292063Y316992D02*
X289466Y307904D01*
X295957Y307904D01*
X294010Y310501D02*
X294010Y305308D01*
X452656Y471678D02*
X452656Y483362D01*
X451358Y471678D02*
X453954Y471678D01*
X453954Y483362D02*
X451358Y483362D01*
X461118Y471678D02*
X463714Y471678D01*
X461118Y471678D02*
X461019Y471680D01*
X460919Y471686D01*
X460820Y471695D01*
X460722Y471708D01*
X460624Y471725D01*
X460526Y471746D01*
X460430Y471771D01*
X460335Y471799D01*
X460241Y471831D01*
X460148Y471866D01*
X460056Y471905D01*
X459966Y471948D01*
X459878Y471993D01*
X459791Y472043D01*
X459707Y472095D01*
X459624Y472151D01*
X459544Y472209D01*
X459466Y472271D01*
X459391Y472336D01*
X459318Y472404D01*
X459248Y472474D01*
X459180Y472547D01*
X459115Y472622D01*
X459053Y472700D01*
X458995Y472780D01*
X458939Y472863D01*
X458887Y472947D01*
X458837Y473034D01*
X458792Y473122D01*
X458749Y473212D01*
X458710Y473304D01*
X458675Y473397D01*
X458643Y473491D01*
X458615Y473586D01*
X458590Y473682D01*
X458569Y473780D01*
X458552Y473878D01*
X458539Y473976D01*
X458530Y474075D01*
X458524Y474175D01*
X458522Y474274D01*
X458521Y474274D02*
X458521Y480766D01*
X458522Y480766D02*
X458524Y480865D01*
X458530Y480965D01*
X458539Y481064D01*
X458552Y481162D01*
X458569Y481260D01*
X458590Y481358D01*
X458615Y481454D01*
X458643Y481549D01*
X458675Y481643D01*
X458710Y481736D01*
X458749Y481828D01*
X458792Y481918D01*
X458837Y482006D01*
X458887Y482093D01*
X458939Y482177D01*
X458995Y482260D01*
X459053Y482340D01*
X459115Y482418D01*
X459180Y482493D01*
X459248Y482566D01*
X459318Y482636D01*
X459391Y482704D01*
X459466Y482769D01*
X459544Y482831D01*
X459624Y482889D01*
X459707Y482945D01*
X459791Y482997D01*
X459878Y483047D01*
X459966Y483092D01*
X460056Y483135D01*
X460148Y483174D01*
X460240Y483209D01*
X460335Y483241D01*
X460430Y483269D01*
X460526Y483294D01*
X460624Y483315D01*
X460722Y483332D01*
X460820Y483345D01*
X460919Y483354D01*
X461019Y483360D01*
X461118Y483362D01*
X463714Y483362D01*
X468080Y480766D02*
X471325Y483362D01*
X471325Y471678D01*
X468080Y471678D02*
X474571Y471678D01*
D11*
X495900Y649500D02*
X443900Y649500D01*
X443900Y622000D02*
X443900Y620500D01*
X495900Y620500D01*
X495900Y622000D01*
X443900Y648000D02*
X443900Y649500D01*
D12*
X458784Y617119D02*
X458784Y605181D01*
X464089Y605181D01*
X468690Y605181D02*
X473995Y605181D01*
X468690Y605181D02*
X468690Y617119D01*
X473995Y617119D01*
X472669Y611813D02*
X468690Y611813D01*
X478576Y617119D02*
X478576Y605181D01*
X478576Y617119D02*
X481892Y617119D01*
X482005Y617117D01*
X482118Y617111D01*
X482231Y617102D01*
X482344Y617088D01*
X482455Y617071D01*
X482567Y617050D01*
X482677Y617025D01*
X482787Y616996D01*
X482895Y616964D01*
X483002Y616928D01*
X483108Y616888D01*
X483213Y616844D01*
X483316Y616798D01*
X483418Y616747D01*
X483517Y616693D01*
X483615Y616636D01*
X483711Y616576D01*
X483804Y616512D01*
X483896Y616445D01*
X483985Y616375D01*
X484071Y616302D01*
X484155Y616226D01*
X484237Y616148D01*
X484315Y616066D01*
X484391Y615982D01*
X484464Y615896D01*
X484534Y615807D01*
X484601Y615715D01*
X484665Y615622D01*
X484725Y615526D01*
X484782Y615428D01*
X484836Y615329D01*
X484887Y615227D01*
X484933Y615124D01*
X484977Y615019D01*
X485017Y614913D01*
X485053Y614806D01*
X485085Y614698D01*
X485114Y614588D01*
X485139Y614478D01*
X485160Y614366D01*
X485177Y614255D01*
X485191Y614142D01*
X485200Y614029D01*
X485206Y613916D01*
X485208Y613803D01*
X485208Y608497D01*
X485206Y608384D01*
X485200Y608271D01*
X485191Y608158D01*
X485177Y608045D01*
X485160Y607934D01*
X485139Y607822D01*
X485114Y607712D01*
X485085Y607602D01*
X485053Y607494D01*
X485017Y607387D01*
X484977Y607281D01*
X484933Y607176D01*
X484887Y607073D01*
X484836Y606971D01*
X484782Y606872D01*
X484725Y606774D01*
X484665Y606678D01*
X484601Y606585D01*
X484534Y606493D01*
X484464Y606404D01*
X484391Y606318D01*
X484315Y606234D01*
X484237Y606152D01*
X484155Y606074D01*
X484071Y605998D01*
X483985Y605925D01*
X483896Y605855D01*
X483804Y605788D01*
X483711Y605724D01*
X483615Y605664D01*
X483517Y605607D01*
X483418Y605553D01*
X483316Y605502D01*
X483213Y605456D01*
X483108Y605412D01*
X483002Y605372D01*
X482895Y605336D01*
X482787Y605304D01*
X482677Y605275D01*
X482567Y605250D01*
X482455Y605229D01*
X482344Y605212D01*
X482231Y605198D01*
X482118Y605189D01*
X482005Y605183D01*
X481892Y605181D01*
X478576Y605181D01*
X490387Y614466D02*
X493703Y617119D01*
X493703Y605181D01*
X490387Y605181D02*
X497019Y605181D01*
D10*
X286258Y431292D02*
X286258Y419608D01*
X286258Y431292D02*
X289504Y431292D01*
X289617Y431290D01*
X289730Y431284D01*
X289843Y431274D01*
X289956Y431260D01*
X290068Y431243D01*
X290179Y431221D01*
X290289Y431196D01*
X290399Y431166D01*
X290507Y431133D01*
X290614Y431096D01*
X290720Y431056D01*
X290824Y431011D01*
X290927Y430963D01*
X291028Y430912D01*
X291127Y430857D01*
X291224Y430799D01*
X291319Y430737D01*
X291412Y430672D01*
X291502Y430604D01*
X291590Y430533D01*
X291676Y430458D01*
X291759Y430381D01*
X291839Y430301D01*
X291916Y430218D01*
X291991Y430132D01*
X292062Y430044D01*
X292130Y429954D01*
X292195Y429861D01*
X292257Y429766D01*
X292315Y429669D01*
X292370Y429570D01*
X292421Y429469D01*
X292469Y429366D01*
X292514Y429262D01*
X292554Y429156D01*
X292591Y429049D01*
X292624Y428941D01*
X292654Y428831D01*
X292679Y428721D01*
X292701Y428610D01*
X292718Y428498D01*
X292732Y428385D01*
X292742Y428272D01*
X292748Y428159D01*
X292750Y428046D01*
X292748Y427933D01*
X292742Y427820D01*
X292732Y427707D01*
X292718Y427594D01*
X292701Y427482D01*
X292679Y427371D01*
X292654Y427261D01*
X292624Y427151D01*
X292591Y427043D01*
X292554Y426936D01*
X292514Y426830D01*
X292469Y426726D01*
X292421Y426623D01*
X292370Y426522D01*
X292315Y426423D01*
X292257Y426326D01*
X292195Y426231D01*
X292130Y426138D01*
X292062Y426048D01*
X291991Y425960D01*
X291916Y425874D01*
X291839Y425791D01*
X291759Y425711D01*
X291676Y425634D01*
X291590Y425559D01*
X291502Y425488D01*
X291412Y425420D01*
X291319Y425355D01*
X291224Y425293D01*
X291127Y425235D01*
X291028Y425180D01*
X290927Y425129D01*
X290824Y425081D01*
X290720Y425036D01*
X290614Y424996D01*
X290507Y424959D01*
X290399Y424926D01*
X290289Y424896D01*
X290179Y424871D01*
X290068Y424849D01*
X289956Y424832D01*
X289843Y424818D01*
X289730Y424808D01*
X289617Y424802D01*
X289504Y424800D01*
X289504Y424801D02*
X286258Y424801D01*
X290153Y424801D02*
X292749Y419608D01*
X297614Y419608D02*
X300860Y419608D01*
X300973Y419610D01*
X301086Y419616D01*
X301199Y419626D01*
X301312Y419640D01*
X301424Y419657D01*
X301535Y419679D01*
X301645Y419704D01*
X301755Y419734D01*
X301863Y419767D01*
X301970Y419804D01*
X302076Y419844D01*
X302180Y419889D01*
X302283Y419937D01*
X302384Y419988D01*
X302483Y420043D01*
X302580Y420101D01*
X302675Y420163D01*
X302768Y420228D01*
X302858Y420296D01*
X302946Y420367D01*
X303032Y420442D01*
X303115Y420519D01*
X303195Y420599D01*
X303272Y420682D01*
X303347Y420768D01*
X303418Y420856D01*
X303486Y420946D01*
X303551Y421039D01*
X303613Y421134D01*
X303671Y421231D01*
X303726Y421330D01*
X303777Y421431D01*
X303825Y421534D01*
X303870Y421638D01*
X303910Y421744D01*
X303947Y421851D01*
X303980Y421959D01*
X304010Y422069D01*
X304035Y422179D01*
X304057Y422290D01*
X304074Y422402D01*
X304088Y422515D01*
X304098Y422628D01*
X304104Y422741D01*
X304106Y422854D01*
X304104Y422967D01*
X304098Y423080D01*
X304088Y423193D01*
X304074Y423306D01*
X304057Y423418D01*
X304035Y423529D01*
X304010Y423639D01*
X303980Y423749D01*
X303947Y423857D01*
X303910Y423964D01*
X303870Y424070D01*
X303825Y424174D01*
X303777Y424277D01*
X303726Y424378D01*
X303671Y424477D01*
X303613Y424574D01*
X303551Y424669D01*
X303486Y424762D01*
X303418Y424852D01*
X303347Y424940D01*
X303272Y425026D01*
X303195Y425109D01*
X303115Y425189D01*
X303032Y425266D01*
X302946Y425341D01*
X302858Y425412D01*
X302768Y425480D01*
X302675Y425545D01*
X302580Y425607D01*
X302483Y425665D01*
X302384Y425720D01*
X302283Y425771D01*
X302180Y425819D01*
X302076Y425864D01*
X301970Y425904D01*
X301863Y425941D01*
X301755Y425974D01*
X301645Y426004D01*
X301535Y426029D01*
X301424Y426051D01*
X301312Y426068D01*
X301199Y426082D01*
X301086Y426092D01*
X300973Y426098D01*
X300860Y426100D01*
X301509Y431292D02*
X297614Y431292D01*
X301509Y431292D02*
X301610Y431290D01*
X301710Y431284D01*
X301810Y431274D01*
X301910Y431261D01*
X302009Y431243D01*
X302108Y431222D01*
X302205Y431197D01*
X302302Y431168D01*
X302397Y431135D01*
X302491Y431099D01*
X302583Y431059D01*
X302674Y431016D01*
X302763Y430969D01*
X302850Y430919D01*
X302936Y430865D01*
X303019Y430808D01*
X303099Y430748D01*
X303178Y430685D01*
X303254Y430618D01*
X303327Y430549D01*
X303397Y430477D01*
X303465Y430403D01*
X303530Y430326D01*
X303591Y430246D01*
X303650Y430164D01*
X303705Y430080D01*
X303757Y429994D01*
X303806Y429906D01*
X303851Y429816D01*
X303893Y429724D01*
X303931Y429631D01*
X303965Y429536D01*
X303996Y429441D01*
X304023Y429344D01*
X304046Y429246D01*
X304066Y429147D01*
X304081Y429047D01*
X304093Y428947D01*
X304101Y428847D01*
X304105Y428746D01*
X304105Y428646D01*
X304101Y428545D01*
X304093Y428445D01*
X304081Y428345D01*
X304066Y428245D01*
X304046Y428146D01*
X304023Y428048D01*
X303996Y427951D01*
X303965Y427856D01*
X303931Y427761D01*
X303893Y427668D01*
X303851Y427576D01*
X303806Y427486D01*
X303757Y427398D01*
X303705Y427312D01*
X303650Y427228D01*
X303591Y427146D01*
X303530Y427066D01*
X303465Y426989D01*
X303397Y426915D01*
X303327Y426843D01*
X303254Y426774D01*
X303178Y426707D01*
X303099Y426644D01*
X303019Y426584D01*
X302936Y426527D01*
X302850Y426473D01*
X302763Y426423D01*
X302674Y426376D01*
X302583Y426333D01*
X302491Y426293D01*
X302397Y426257D01*
X302302Y426224D01*
X302205Y426195D01*
X302108Y426170D01*
X302009Y426149D01*
X301910Y426131D01*
X301810Y426118D01*
X301710Y426108D01*
X301610Y426102D01*
X301509Y426100D01*
X301509Y426099D02*
X298913Y426099D01*
X146558Y431292D02*
X146558Y419608D01*
X146558Y431292D02*
X149804Y431292D01*
X149917Y431290D01*
X150030Y431284D01*
X150143Y431274D01*
X150256Y431260D01*
X150368Y431243D01*
X150479Y431221D01*
X150589Y431196D01*
X150699Y431166D01*
X150807Y431133D01*
X150914Y431096D01*
X151020Y431056D01*
X151124Y431011D01*
X151227Y430963D01*
X151328Y430912D01*
X151427Y430857D01*
X151524Y430799D01*
X151619Y430737D01*
X151712Y430672D01*
X151802Y430604D01*
X151890Y430533D01*
X151976Y430458D01*
X152059Y430381D01*
X152139Y430301D01*
X152216Y430218D01*
X152291Y430132D01*
X152362Y430044D01*
X152430Y429954D01*
X152495Y429861D01*
X152557Y429766D01*
X152615Y429669D01*
X152670Y429570D01*
X152721Y429469D01*
X152769Y429366D01*
X152814Y429262D01*
X152854Y429156D01*
X152891Y429049D01*
X152924Y428941D01*
X152954Y428831D01*
X152979Y428721D01*
X153001Y428610D01*
X153018Y428498D01*
X153032Y428385D01*
X153042Y428272D01*
X153048Y428159D01*
X153050Y428046D01*
X153048Y427933D01*
X153042Y427820D01*
X153032Y427707D01*
X153018Y427594D01*
X153001Y427482D01*
X152979Y427371D01*
X152954Y427261D01*
X152924Y427151D01*
X152891Y427043D01*
X152854Y426936D01*
X152814Y426830D01*
X152769Y426726D01*
X152721Y426623D01*
X152670Y426522D01*
X152615Y426423D01*
X152557Y426326D01*
X152495Y426231D01*
X152430Y426138D01*
X152362Y426048D01*
X152291Y425960D01*
X152216Y425874D01*
X152139Y425791D01*
X152059Y425711D01*
X151976Y425634D01*
X151890Y425559D01*
X151802Y425488D01*
X151712Y425420D01*
X151619Y425355D01*
X151524Y425293D01*
X151427Y425235D01*
X151328Y425180D01*
X151227Y425129D01*
X151124Y425081D01*
X151020Y425036D01*
X150914Y424996D01*
X150807Y424959D01*
X150699Y424926D01*
X150589Y424896D01*
X150479Y424871D01*
X150368Y424849D01*
X150256Y424832D01*
X150143Y424818D01*
X150030Y424808D01*
X149917Y424802D01*
X149804Y424800D01*
X149804Y424801D02*
X146558Y424801D01*
X150453Y424801D02*
X153049Y419608D01*
X157914Y422204D02*
X160511Y431292D01*
X157914Y422204D02*
X164405Y422204D01*
X162458Y424801D02*
X162458Y419608D01*
D13*
X25400Y658812D02*
X25400Y738188D01*
X25400Y658812D02*
X53975Y658812D01*
X53975Y738188D02*
X25400Y738188D01*
X82550Y658812D02*
X139700Y658812D01*
X139700Y738188D01*
X82550Y738188D01*
D10*
X130556Y653542D02*
X124460Y644398D01*
X130556Y644398D02*
X124460Y653542D01*
X134112Y651510D02*
X136652Y653542D01*
X136652Y644398D01*
X134112Y644398D02*
X139192Y644398D01*
M02*
