M48
;GenerationSoftware,Autodesk,EAGLE,9.6.1*%
;CreationDate,2020-06-05T14:06:40Z*%
FMAT,2
ICI,OFF
METRIC,TZ,000.000
T7C0.610
T6C0.813
T5C1.000
T4C1.100
T3C1.118
T2C1.200
T1C3.302
%
G90
M71
T1
X-7366Y25400
T2
X43240Y24860
X43240Y20860
T3
X7620Y22860
X7620Y25400
X7620Y27940
T4
X38490Y24760
X38490Y20960
X35490Y22860
T5
X41910Y7620
X16510Y34290
X19050Y34290
X5080Y7620
X7620Y7620
X39370Y7620
T6
X24130Y12700
X24130Y15240
X19050Y11430
X13970Y11430
X13970Y25400
X13970Y22860
X21590Y22860
X21590Y25400
X13970Y20320
X30480Y8890
X30480Y16510
X34290Y16510
X34290Y8890
X21590Y17780
X21590Y20320
X13970Y17780
X25400Y36830
X27940Y36830
T7
X41910Y33020
X41910Y35560
X41910Y38100
M30