G04 EAGLE Gerber RS-274X export*
G75*
%MOMM*%
%FSLAX34Y34*%
%LPD*%
%INBottom Copper*%
%IPPOS*%
%AMOC8*
5,1,8,0,0,1.08239X$1,22.5*%
G01*
%ADD10C,0.101600*%
%ADD11C,1.879600*%
%ADD12P,1.732040X8X112.500000*%
%ADD13P,1.732040X8X202.500000*%
%ADD14C,1.574800*%
%ADD15C,1.762000*%
%ADD16P,1.704548X8X22.500000*%
%ADD17P,1.704548X8X112.500000*%
%ADD18P,1.704548X8X292.500000*%
%ADD19C,1.371600*%
%ADD20C,1.862000*%
%ADD21C,0.609600*%
%ADD22C,0.406400*%

G36*
X226149Y25920D02*
X226149Y25920D01*
X226221Y25922D01*
X226270Y25940D01*
X226321Y25948D01*
X226385Y25982D01*
X226452Y26007D01*
X226493Y26039D01*
X226539Y26064D01*
X226588Y26116D01*
X226644Y26160D01*
X226672Y26204D01*
X226708Y26242D01*
X226738Y26307D01*
X226777Y26367D01*
X226790Y26418D01*
X226812Y26465D01*
X226820Y26536D01*
X226837Y26606D01*
X226833Y26658D01*
X226839Y26709D01*
X226824Y26780D01*
X226818Y26851D01*
X226798Y26899D01*
X226787Y26950D01*
X226750Y27011D01*
X226722Y27077D01*
X226677Y27133D01*
X226661Y27161D01*
X226643Y27176D01*
X226617Y27208D01*
X225853Y27972D01*
X148503Y105322D01*
X148487Y105334D01*
X148474Y105349D01*
X148387Y105406D01*
X148303Y105466D01*
X148284Y105472D01*
X148268Y105482D01*
X148167Y105508D01*
X148068Y105538D01*
X148048Y105538D01*
X148029Y105542D01*
X147926Y105534D01*
X147822Y105532D01*
X147804Y105525D01*
X147784Y105523D01*
X147689Y105483D01*
X147591Y105447D01*
X147576Y105435D01*
X147557Y105427D01*
X147426Y105322D01*
X144593Y102488D01*
X134807Y102488D01*
X127888Y109407D01*
X127888Y116351D01*
X127877Y116421D01*
X127875Y116493D01*
X127857Y116542D01*
X127849Y116593D01*
X127815Y116657D01*
X127790Y116724D01*
X127758Y116765D01*
X127733Y116811D01*
X127681Y116860D01*
X127637Y116916D01*
X127593Y116944D01*
X127555Y116980D01*
X127490Y117010D01*
X127430Y117049D01*
X127379Y117062D01*
X127332Y117084D01*
X127261Y117092D01*
X127191Y117109D01*
X127139Y117105D01*
X127088Y117111D01*
X127017Y117096D01*
X126946Y117090D01*
X126898Y117070D01*
X126847Y117059D01*
X126786Y117022D01*
X126720Y116994D01*
X126664Y116949D01*
X126636Y116933D01*
X126621Y116915D01*
X126589Y116889D01*
X89044Y79344D01*
X88991Y79270D01*
X88931Y79201D01*
X88919Y79170D01*
X88900Y79144D01*
X88873Y79057D01*
X88839Y78972D01*
X88835Y78931D01*
X88828Y78909D01*
X88829Y78877D01*
X88821Y78806D01*
X88821Y64880D01*
X86899Y60241D01*
X83349Y56691D01*
X78710Y54769D01*
X73690Y54769D01*
X69051Y56691D01*
X65501Y60241D01*
X63579Y64880D01*
X63579Y65844D01*
X63569Y65907D01*
X63569Y65970D01*
X63549Y66027D01*
X63540Y66086D01*
X63510Y66143D01*
X63489Y66203D01*
X63452Y66251D01*
X63424Y66304D01*
X63378Y66348D01*
X63339Y66398D01*
X63290Y66432D01*
X63246Y66473D01*
X63188Y66500D01*
X63135Y66536D01*
X63077Y66551D01*
X63023Y66577D01*
X62960Y66584D01*
X62898Y66601D01*
X62838Y66597D01*
X62779Y66604D01*
X62716Y66590D01*
X62652Y66587D01*
X62597Y66564D01*
X62538Y66552D01*
X62483Y66519D01*
X62424Y66495D01*
X62379Y66456D01*
X62327Y66425D01*
X62286Y66377D01*
X62237Y66335D01*
X62206Y66284D01*
X62167Y66238D01*
X62143Y66179D01*
X62110Y66124D01*
X62088Y66041D01*
X62075Y66010D01*
X62073Y65986D01*
X62066Y65963D01*
X61871Y64732D01*
X61319Y63033D01*
X60508Y61441D01*
X59458Y59995D01*
X58195Y58732D01*
X56749Y57682D01*
X55157Y56871D01*
X53458Y56319D01*
X52323Y56139D01*
X52323Y75438D01*
X52320Y75458D01*
X52322Y75477D01*
X52300Y75579D01*
X52283Y75681D01*
X52274Y75698D01*
X52270Y75718D01*
X52217Y75807D01*
X52168Y75898D01*
X52154Y75912D01*
X52144Y75929D01*
X52065Y75996D01*
X51990Y76067D01*
X51972Y76076D01*
X51957Y76089D01*
X51861Y76127D01*
X51767Y76171D01*
X51747Y76173D01*
X51729Y76181D01*
X51562Y76199D01*
X50799Y76199D01*
X50799Y76201D01*
X51562Y76201D01*
X51582Y76204D01*
X51601Y76202D01*
X51703Y76224D01*
X51805Y76241D01*
X51822Y76250D01*
X51842Y76254D01*
X51931Y76307D01*
X52022Y76356D01*
X52036Y76370D01*
X52053Y76380D01*
X52120Y76459D01*
X52191Y76534D01*
X52200Y76552D01*
X52213Y76567D01*
X52252Y76663D01*
X52295Y76757D01*
X52297Y76777D01*
X52305Y76795D01*
X52323Y76962D01*
X52323Y96261D01*
X53458Y96081D01*
X55157Y95529D01*
X56749Y94718D01*
X58195Y93668D01*
X59458Y92405D01*
X60508Y90959D01*
X61319Y89367D01*
X61871Y87668D01*
X62066Y86437D01*
X62086Y86377D01*
X62097Y86314D01*
X62125Y86261D01*
X62143Y86204D01*
X62182Y86153D01*
X62212Y86096D01*
X62255Y86055D01*
X62291Y86007D01*
X62344Y85971D01*
X62390Y85927D01*
X62444Y85902D01*
X62494Y85868D01*
X62555Y85850D01*
X62613Y85823D01*
X62673Y85817D01*
X62730Y85800D01*
X62794Y85803D01*
X62857Y85796D01*
X62916Y85809D01*
X62976Y85812D01*
X63035Y85835D01*
X63098Y85848D01*
X63149Y85879D01*
X63205Y85901D01*
X63254Y85942D01*
X63309Y85975D01*
X63348Y86020D01*
X63394Y86059D01*
X63427Y86113D01*
X63469Y86162D01*
X63491Y86217D01*
X63523Y86268D01*
X63537Y86330D01*
X63561Y86390D01*
X63570Y86476D01*
X63578Y86508D01*
X63577Y86532D01*
X63579Y86556D01*
X63579Y87520D01*
X65501Y92159D01*
X69051Y95709D01*
X73690Y97631D01*
X78710Y97631D01*
X83349Y95709D01*
X84141Y94917D01*
X84157Y94906D01*
X84170Y94890D01*
X84257Y94834D01*
X84341Y94774D01*
X84360Y94768D01*
X84377Y94757D01*
X84477Y94732D01*
X84576Y94701D01*
X84596Y94702D01*
X84615Y94697D01*
X84718Y94705D01*
X84822Y94708D01*
X84841Y94715D01*
X84860Y94716D01*
X84955Y94757D01*
X85053Y94792D01*
X85068Y94805D01*
X85087Y94813D01*
X85218Y94917D01*
X135815Y145515D01*
X138336Y146559D01*
X139719Y146559D01*
X139809Y146573D01*
X139900Y146581D01*
X139929Y146593D01*
X139961Y146598D01*
X140042Y146641D01*
X140126Y146677D01*
X140158Y146703D01*
X140179Y146714D01*
X140201Y146737D01*
X140257Y146782D01*
X158018Y164543D01*
X158071Y164617D01*
X158131Y164686D01*
X158143Y164717D01*
X158162Y164743D01*
X158189Y164830D01*
X158223Y164915D01*
X158227Y164956D01*
X158234Y164978D01*
X158233Y165010D01*
X158241Y165081D01*
X158241Y200044D01*
X158227Y200134D01*
X158219Y200225D01*
X158207Y200254D01*
X158202Y200286D01*
X158159Y200367D01*
X158123Y200451D01*
X158097Y200483D01*
X158086Y200504D01*
X158063Y200526D01*
X158018Y200582D01*
X152684Y205916D01*
X152626Y205958D01*
X152574Y206007D01*
X152527Y206029D01*
X152485Y206060D01*
X152416Y206081D01*
X152351Y206111D01*
X152299Y206117D01*
X152249Y206132D01*
X152178Y206130D01*
X152107Y206138D01*
X152056Y206127D01*
X152004Y206126D01*
X151936Y206101D01*
X151866Y206086D01*
X151821Y206059D01*
X151773Y206041D01*
X151717Y205996D01*
X151655Y205960D01*
X151621Y205920D01*
X151581Y205887D01*
X151542Y205827D01*
X151495Y205773D01*
X151476Y205724D01*
X151448Y205680D01*
X151430Y205611D01*
X151403Y205544D01*
X151395Y205473D01*
X151387Y205442D01*
X151389Y205419D01*
X151385Y205378D01*
X151385Y200876D01*
X149606Y196581D01*
X146319Y193294D01*
X142024Y191515D01*
X137376Y191515D01*
X133081Y193294D01*
X129794Y196581D01*
X128015Y200876D01*
X128015Y202203D01*
X128004Y202273D01*
X128002Y202345D01*
X127984Y202394D01*
X127976Y202445D01*
X127942Y202509D01*
X127917Y202576D01*
X127885Y202617D01*
X127860Y202663D01*
X127809Y202712D01*
X127764Y202768D01*
X127720Y202796D01*
X127682Y202832D01*
X127617Y202862D01*
X127557Y202901D01*
X127506Y202914D01*
X127459Y202936D01*
X127388Y202944D01*
X127318Y202961D01*
X127266Y202957D01*
X127215Y202963D01*
X127144Y202948D01*
X127073Y202942D01*
X127025Y202922D01*
X126974Y202911D01*
X126913Y202874D01*
X126847Y202846D01*
X126791Y202801D01*
X126763Y202785D01*
X126748Y202767D01*
X126716Y202741D01*
X97997Y174022D01*
X95960Y171985D01*
X93439Y170941D01*
X90711Y170941D01*
X88190Y171985D01*
X41810Y218365D01*
X40766Y220886D01*
X40766Y261714D01*
X41810Y264235D01*
X53455Y275879D01*
X53522Y275974D01*
X53593Y276068D01*
X53595Y276074D01*
X53598Y276079D01*
X53632Y276191D01*
X53669Y276302D01*
X53669Y276308D01*
X53671Y276314D01*
X53667Y276431D01*
X53666Y276548D01*
X53664Y276555D01*
X53664Y276560D01*
X53658Y276578D01*
X53620Y276709D01*
X53593Y276773D01*
X53593Y282027D01*
X55604Y286882D01*
X59320Y290598D01*
X64175Y292609D01*
X88225Y292609D01*
X93080Y290598D01*
X96796Y286882D01*
X98807Y282027D01*
X98807Y276773D01*
X96796Y271918D01*
X93080Y268202D01*
X89466Y266705D01*
X89380Y266652D01*
X89291Y266604D01*
X89276Y266587D01*
X89257Y266576D01*
X89193Y266498D01*
X89124Y266423D01*
X89115Y266403D01*
X89100Y266386D01*
X89064Y266292D01*
X89022Y266199D01*
X89020Y266177D01*
X89012Y266157D01*
X89008Y266056D01*
X88998Y265955D01*
X89003Y265933D01*
X89002Y265911D01*
X89030Y265813D01*
X89053Y265715D01*
X89064Y265696D01*
X89070Y265675D01*
X89128Y265591D01*
X89181Y265505D01*
X89198Y265491D01*
X89211Y265473D01*
X89292Y265412D01*
X89370Y265347D01*
X89395Y265336D01*
X89408Y265326D01*
X89439Y265316D01*
X89522Y265278D01*
X90181Y265064D01*
X91855Y264211D01*
X93376Y263106D01*
X94704Y261778D01*
X95809Y260257D01*
X96662Y258583D01*
X97243Y256796D01*
X97444Y255523D01*
X76962Y255523D01*
X76942Y255520D01*
X76923Y255522D01*
X76821Y255500D01*
X76719Y255483D01*
X76702Y255474D01*
X76682Y255470D01*
X76593Y255417D01*
X76502Y255368D01*
X76488Y255354D01*
X76471Y255344D01*
X76404Y255265D01*
X76333Y255190D01*
X76324Y255172D01*
X76311Y255157D01*
X76273Y255061D01*
X76229Y254967D01*
X76227Y254947D01*
X76219Y254929D01*
X76201Y254762D01*
X76201Y253238D01*
X76204Y253218D01*
X76202Y253199D01*
X76224Y253097D01*
X76241Y252995D01*
X76250Y252978D01*
X76254Y252958D01*
X76307Y252869D01*
X76356Y252778D01*
X76370Y252764D01*
X76380Y252747D01*
X76459Y252680D01*
X76534Y252609D01*
X76552Y252600D01*
X76567Y252587D01*
X76663Y252548D01*
X76757Y252505D01*
X76777Y252503D01*
X76795Y252495D01*
X76962Y252477D01*
X97444Y252477D01*
X97348Y251871D01*
X97348Y251863D01*
X97346Y251855D01*
X97349Y251739D01*
X97350Y251625D01*
X97352Y251617D01*
X97352Y251609D01*
X97392Y251501D01*
X97429Y251392D01*
X97434Y251385D01*
X97437Y251378D01*
X97508Y251289D01*
X97579Y251197D01*
X97586Y251192D01*
X97590Y251186D01*
X97687Y251124D01*
X97783Y251059D01*
X97791Y251057D01*
X97797Y251053D01*
X97909Y251025D01*
X98020Y250994D01*
X98028Y250995D01*
X98036Y250993D01*
X98150Y251002D01*
X98266Y251008D01*
X98273Y251011D01*
X98281Y251012D01*
X98386Y251056D01*
X98494Y251100D01*
X98500Y251105D01*
X98507Y251108D01*
X98638Y251213D01*
X169495Y322070D01*
X169534Y322124D01*
X169582Y322173D01*
X169606Y322224D01*
X169638Y322269D01*
X169658Y322334D01*
X169687Y322395D01*
X169694Y322451D01*
X169711Y322504D01*
X169709Y322572D01*
X169717Y322639D01*
X169706Y322694D01*
X169704Y322750D01*
X169681Y322814D01*
X169667Y322880D01*
X169639Y322929D01*
X169620Y322981D01*
X169577Y323034D01*
X169543Y323093D01*
X169501Y323130D01*
X169466Y323173D01*
X169409Y323210D01*
X169358Y323255D01*
X169306Y323276D01*
X169259Y323306D01*
X169193Y323323D01*
X169131Y323349D01*
X169075Y323353D01*
X169021Y323366D01*
X168953Y323361D01*
X168885Y323366D01*
X168808Y323350D01*
X168775Y323347D01*
X168756Y323339D01*
X168721Y323332D01*
X167758Y323019D01*
X166623Y322839D01*
X166623Y342138D01*
X166620Y342158D01*
X166622Y342177D01*
X166600Y342279D01*
X166583Y342381D01*
X166574Y342398D01*
X166570Y342418D01*
X166517Y342507D01*
X166468Y342598D01*
X166454Y342612D01*
X166444Y342629D01*
X166365Y342696D01*
X166290Y342767D01*
X166272Y342776D01*
X166257Y342789D01*
X166161Y342827D01*
X166067Y342871D01*
X166047Y342873D01*
X166029Y342881D01*
X165862Y342899D01*
X165099Y342899D01*
X165099Y342901D01*
X165862Y342901D01*
X165882Y342904D01*
X165901Y342902D01*
X166003Y342924D01*
X166105Y342941D01*
X166122Y342950D01*
X166142Y342954D01*
X166231Y343007D01*
X166322Y343056D01*
X166336Y343070D01*
X166353Y343080D01*
X166420Y343159D01*
X166491Y343234D01*
X166500Y343252D01*
X166513Y343267D01*
X166552Y343363D01*
X166595Y343457D01*
X166597Y343477D01*
X166605Y343495D01*
X166623Y343662D01*
X166623Y362961D01*
X167758Y362781D01*
X169457Y362229D01*
X171049Y361418D01*
X172495Y360368D01*
X173758Y359105D01*
X174808Y357659D01*
X175619Y356067D01*
X176171Y354368D01*
X176366Y353137D01*
X176386Y353077D01*
X176397Y353014D01*
X176425Y352961D01*
X176443Y352904D01*
X176482Y352853D01*
X176512Y352796D01*
X176555Y352755D01*
X176591Y352707D01*
X176644Y352671D01*
X176690Y352627D01*
X176744Y352602D01*
X176794Y352568D01*
X176855Y352550D01*
X176913Y352523D01*
X176973Y352517D01*
X177030Y352500D01*
X177094Y352503D01*
X177157Y352496D01*
X177216Y352509D01*
X177276Y352512D01*
X177335Y352535D01*
X177398Y352548D01*
X177449Y352579D01*
X177505Y352601D01*
X177554Y352642D01*
X177609Y352675D01*
X177648Y352720D01*
X177694Y352759D01*
X177727Y352813D01*
X177769Y352861D01*
X177791Y352917D01*
X177823Y352968D01*
X177837Y353030D01*
X177861Y353090D01*
X177870Y353176D01*
X177878Y353208D01*
X177877Y353232D01*
X177879Y353256D01*
X177879Y354220D01*
X179801Y358859D01*
X183351Y362409D01*
X187990Y364331D01*
X193010Y364331D01*
X197649Y362409D01*
X201199Y358859D01*
X203121Y354220D01*
X203121Y331580D01*
X201199Y326941D01*
X197649Y323391D01*
X193010Y321469D01*
X188609Y321469D01*
X188519Y321455D01*
X188428Y321447D01*
X188399Y321435D01*
X188367Y321430D01*
X188286Y321387D01*
X188202Y321351D01*
X188170Y321325D01*
X188149Y321314D01*
X188127Y321291D01*
X188071Y321246D01*
X98945Y232121D01*
X98878Y232026D01*
X98807Y231932D01*
X98805Y231926D01*
X98802Y231921D01*
X98768Y231809D01*
X98731Y231698D01*
X98731Y231692D01*
X98729Y231686D01*
X98733Y231569D01*
X98734Y231452D01*
X98736Y231445D01*
X98736Y231440D01*
X98742Y231422D01*
X98780Y231291D01*
X98807Y231227D01*
X98807Y225973D01*
X96796Y221118D01*
X93080Y217402D01*
X88225Y215391D01*
X66021Y215391D01*
X65951Y215380D01*
X65879Y215378D01*
X65830Y215360D01*
X65779Y215352D01*
X65715Y215318D01*
X65648Y215293D01*
X65607Y215261D01*
X65561Y215236D01*
X65512Y215184D01*
X65456Y215140D01*
X65428Y215096D01*
X65392Y215058D01*
X65362Y214993D01*
X65323Y214933D01*
X65310Y214882D01*
X65288Y214835D01*
X65280Y214764D01*
X65263Y214694D01*
X65267Y214642D01*
X65261Y214591D01*
X65276Y214520D01*
X65282Y214449D01*
X65302Y214401D01*
X65313Y214350D01*
X65350Y214289D01*
X65378Y214223D01*
X65423Y214167D01*
X65439Y214139D01*
X65457Y214124D01*
X65483Y214092D01*
X91537Y188038D01*
X91553Y188026D01*
X91565Y188011D01*
X91653Y187955D01*
X91736Y187894D01*
X91755Y187889D01*
X91772Y187878D01*
X91873Y187853D01*
X91972Y187822D01*
X91991Y187823D01*
X92011Y187818D01*
X92114Y187826D01*
X92217Y187828D01*
X92236Y187835D01*
X92256Y187837D01*
X92351Y187877D01*
X92448Y187913D01*
X92464Y187925D01*
X92482Y187933D01*
X92613Y188038D01*
X128486Y223911D01*
X128554Y224005D01*
X128624Y224100D01*
X128626Y224106D01*
X128630Y224111D01*
X128664Y224221D01*
X128700Y224333D01*
X128700Y224340D01*
X128702Y224346D01*
X128699Y224462D01*
X128698Y224579D01*
X128696Y224587D01*
X128696Y224592D01*
X128689Y224609D01*
X128651Y224740D01*
X128015Y226276D01*
X128015Y230924D01*
X129794Y235219D01*
X133081Y238506D01*
X137376Y240285D01*
X141878Y240285D01*
X141948Y240296D01*
X142020Y240298D01*
X142069Y240316D01*
X142120Y240324D01*
X142184Y240358D01*
X142251Y240383D01*
X142292Y240415D01*
X142338Y240440D01*
X142387Y240492D01*
X142443Y240536D01*
X142471Y240580D01*
X142507Y240618D01*
X142537Y240683D01*
X142576Y240743D01*
X142589Y240794D01*
X142611Y240841D01*
X142619Y240912D01*
X142636Y240982D01*
X142632Y241034D01*
X142638Y241085D01*
X142623Y241156D01*
X142617Y241227D01*
X142597Y241275D01*
X142586Y241326D01*
X142549Y241387D01*
X142521Y241453D01*
X142476Y241509D01*
X142460Y241537D01*
X142442Y241552D01*
X142416Y241584D01*
X141908Y242092D01*
X141834Y242146D01*
X141765Y242205D01*
X141734Y242217D01*
X141708Y242236D01*
X141621Y242263D01*
X141536Y242297D01*
X141495Y242301D01*
X141473Y242308D01*
X141441Y242307D01*
X141370Y242315D01*
X137376Y242315D01*
X133081Y244094D01*
X129794Y247381D01*
X128015Y251676D01*
X128015Y256324D01*
X129794Y260619D01*
X133081Y263906D01*
X137376Y265685D01*
X142024Y265685D01*
X146319Y263906D01*
X149606Y260619D01*
X151385Y256324D01*
X151385Y252330D01*
X151399Y252240D01*
X151407Y252149D01*
X151419Y252120D01*
X151424Y252088D01*
X151467Y252007D01*
X151503Y251923D01*
X151529Y251891D01*
X151540Y251870D01*
X151563Y251848D01*
X151608Y251792D01*
X180183Y223217D01*
X180241Y223175D01*
X180293Y223126D01*
X180340Y223104D01*
X180382Y223073D01*
X180451Y223052D01*
X180516Y223022D01*
X180568Y223016D01*
X180618Y223001D01*
X180689Y223003D01*
X180760Y222995D01*
X180811Y223006D01*
X180863Y223007D01*
X180931Y223032D01*
X181001Y223047D01*
X181046Y223074D01*
X181094Y223092D01*
X181150Y223137D01*
X181212Y223173D01*
X181246Y223213D01*
X181286Y223246D01*
X181325Y223306D01*
X181372Y223360D01*
X181391Y223409D01*
X181419Y223453D01*
X181437Y223522D01*
X181464Y223589D01*
X181472Y223660D01*
X181480Y223691D01*
X181478Y223714D01*
X181482Y223755D01*
X181482Y302787D01*
X182372Y304935D01*
X242092Y364655D01*
X242145Y364729D01*
X242205Y364799D01*
X242217Y364829D01*
X242236Y364855D01*
X242263Y364942D01*
X242297Y365027D01*
X242301Y365068D01*
X242308Y365090D01*
X242307Y365122D01*
X242315Y365193D01*
X242315Y373140D01*
X249160Y379985D01*
X258840Y379985D01*
X265685Y373140D01*
X265685Y363460D01*
X258840Y356615D01*
X250893Y356615D01*
X250803Y356601D01*
X250712Y356593D01*
X250683Y356581D01*
X250651Y356576D01*
X250570Y356533D01*
X250486Y356497D01*
X250454Y356471D01*
X250433Y356460D01*
X250411Y356437D01*
X250355Y356392D01*
X193391Y299428D01*
X193338Y299354D01*
X193278Y299284D01*
X193266Y299254D01*
X193247Y299228D01*
X193220Y299141D01*
X193186Y299056D01*
X193182Y299015D01*
X193175Y298993D01*
X193176Y298961D01*
X193168Y298890D01*
X193168Y186885D01*
X193182Y186795D01*
X193190Y186704D01*
X193202Y186675D01*
X193207Y186643D01*
X193250Y186562D01*
X193286Y186478D01*
X193312Y186446D01*
X193323Y186425D01*
X193346Y186403D01*
X193391Y186347D01*
X204342Y175396D01*
X204348Y175391D01*
X204353Y175385D01*
X204448Y175319D01*
X204542Y175252D01*
X204549Y175250D01*
X204556Y175245D01*
X204667Y175214D01*
X204777Y175180D01*
X204785Y175180D01*
X204792Y175178D01*
X204907Y175183D01*
X205023Y175186D01*
X205030Y175189D01*
X205038Y175189D01*
X205145Y175231D01*
X205254Y175271D01*
X205260Y175276D01*
X205267Y175279D01*
X205356Y175353D01*
X205446Y175425D01*
X205450Y175431D01*
X205456Y175436D01*
X205516Y175535D01*
X205579Y175631D01*
X205581Y175639D01*
X205585Y175646D01*
X205611Y175759D01*
X205639Y175870D01*
X205638Y175878D01*
X205640Y175886D01*
X205632Y176053D01*
X205597Y176277D01*
X215138Y176277D01*
X215158Y176280D01*
X215177Y176278D01*
X215279Y176300D01*
X215381Y176317D01*
X215398Y176326D01*
X215418Y176330D01*
X215507Y176383D01*
X215598Y176432D01*
X215612Y176446D01*
X215629Y176456D01*
X215696Y176535D01*
X215767Y176610D01*
X215776Y176628D01*
X215789Y176643D01*
X215827Y176739D01*
X215871Y176833D01*
X215873Y176853D01*
X215881Y176871D01*
X215899Y177038D01*
X215899Y177801D01*
X215901Y177801D01*
X215901Y177038D01*
X215904Y177018D01*
X215902Y176999D01*
X215924Y176897D01*
X215941Y176795D01*
X215950Y176778D01*
X215954Y176758D01*
X216007Y176669D01*
X216056Y176578D01*
X216070Y176564D01*
X216080Y176547D01*
X216159Y176480D01*
X216234Y176409D01*
X216252Y176400D01*
X216267Y176387D01*
X216363Y176348D01*
X216457Y176305D01*
X216477Y176303D01*
X216495Y176295D01*
X216662Y176277D01*
X226203Y176277D01*
X226168Y176053D01*
X226168Y176045D01*
X226166Y176038D01*
X226169Y175922D01*
X226169Y175807D01*
X226172Y175800D01*
X226172Y175792D01*
X226212Y175684D01*
X226249Y175575D01*
X226254Y175568D01*
X226256Y175561D01*
X226328Y175471D01*
X226398Y175379D01*
X226405Y175375D01*
X226410Y175369D01*
X226507Y175307D01*
X226603Y175242D01*
X226610Y175240D01*
X226617Y175236D01*
X226729Y175208D01*
X226840Y175177D01*
X226848Y175178D01*
X226856Y175176D01*
X226970Y175185D01*
X227085Y175191D01*
X227093Y175194D01*
X227101Y175195D01*
X227206Y175239D01*
X227314Y175283D01*
X227320Y175288D01*
X227327Y175291D01*
X227458Y175396D01*
X272915Y220853D01*
X275063Y221743D01*
X277387Y221743D01*
X279535Y220853D01*
X329222Y171166D01*
X329296Y171113D01*
X329366Y171053D01*
X329396Y171041D01*
X329422Y171022D01*
X329509Y170995D01*
X329594Y170961D01*
X329635Y170957D01*
X329657Y170950D01*
X329689Y170951D01*
X329760Y170943D01*
X331903Y170943D01*
X331993Y170957D01*
X332084Y170965D01*
X332114Y170977D01*
X332145Y170982D01*
X332226Y171025D01*
X332310Y171061D01*
X332342Y171087D01*
X332363Y171098D01*
X332385Y171121D01*
X332441Y171166D01*
X338060Y176785D01*
X347740Y176785D01*
X354585Y169940D01*
X354585Y160260D01*
X347740Y153415D01*
X338060Y153415D01*
X332441Y159034D01*
X332367Y159087D01*
X332298Y159147D01*
X332268Y159159D01*
X332241Y159178D01*
X332154Y159205D01*
X332069Y159239D01*
X332029Y159243D01*
X332006Y159250D01*
X331974Y159249D01*
X331903Y159257D01*
X325863Y159257D01*
X323715Y160147D01*
X317784Y166078D01*
X317726Y166120D01*
X317674Y166169D01*
X317627Y166191D01*
X317585Y166221D01*
X317516Y166243D01*
X317451Y166273D01*
X317399Y166278D01*
X317349Y166294D01*
X317278Y166292D01*
X317207Y166300D01*
X317156Y166289D01*
X317104Y166287D01*
X317036Y166263D01*
X316966Y166248D01*
X316921Y166221D01*
X316873Y166203D01*
X316817Y166158D01*
X316755Y166121D01*
X316721Y166082D01*
X316681Y166049D01*
X316642Y165989D01*
X316595Y165934D01*
X316576Y165886D01*
X316548Y165842D01*
X316530Y165773D01*
X316503Y165706D01*
X316495Y165635D01*
X316487Y165604D01*
X316489Y165581D01*
X316485Y165540D01*
X316485Y160260D01*
X309640Y153415D01*
X299960Y153415D01*
X295357Y158018D01*
X295283Y158071D01*
X295214Y158131D01*
X295183Y158143D01*
X295157Y158162D01*
X295070Y158189D01*
X294985Y158223D01*
X294944Y158227D01*
X294922Y158234D01*
X294890Y158233D01*
X294819Y158241D01*
X257156Y158241D01*
X257066Y158227D01*
X256975Y158219D01*
X256946Y158207D01*
X256914Y158202D01*
X256833Y158159D01*
X256749Y158123D01*
X256717Y158097D01*
X256696Y158086D01*
X256674Y158063D01*
X256618Y158018D01*
X253335Y154735D01*
X253282Y154661D01*
X253222Y154592D01*
X253210Y154561D01*
X253191Y154535D01*
X253164Y154448D01*
X253130Y154363D01*
X253126Y154322D01*
X253119Y154300D01*
X253120Y154268D01*
X253112Y154197D01*
X253112Y147507D01*
X246193Y140588D01*
X236407Y140588D01*
X229488Y147507D01*
X229488Y157293D01*
X236407Y164212D01*
X243097Y164212D01*
X243187Y164226D01*
X243278Y164234D01*
X243307Y164246D01*
X243339Y164251D01*
X243420Y164294D01*
X243504Y164330D01*
X243536Y164356D01*
X243557Y164367D01*
X243579Y164390D01*
X243635Y164435D01*
X250115Y170915D01*
X252636Y171959D01*
X294819Y171959D01*
X294909Y171973D01*
X295000Y171981D01*
X295029Y171993D01*
X295061Y171998D01*
X295142Y172041D01*
X295226Y172077D01*
X295258Y172103D01*
X295279Y172114D01*
X295301Y172137D01*
X295357Y172182D01*
X299960Y176785D01*
X305240Y176785D01*
X305310Y176796D01*
X305382Y176798D01*
X305431Y176816D01*
X305482Y176824D01*
X305546Y176858D01*
X305613Y176883D01*
X305654Y176915D01*
X305700Y176940D01*
X305749Y176991D01*
X305805Y177036D01*
X305833Y177080D01*
X305869Y177118D01*
X305899Y177183D01*
X305938Y177243D01*
X305951Y177294D01*
X305973Y177341D01*
X305981Y177412D01*
X305998Y177482D01*
X305994Y177534D01*
X306000Y177585D01*
X305985Y177656D01*
X305979Y177727D01*
X305959Y177775D01*
X305948Y177826D01*
X305911Y177887D01*
X305883Y177953D01*
X305838Y178009D01*
X305821Y178037D01*
X305804Y178052D01*
X305778Y178084D01*
X276763Y207099D01*
X276747Y207110D01*
X276735Y207126D01*
X276647Y207182D01*
X276564Y207242D01*
X276545Y207248D01*
X276528Y207259D01*
X276427Y207284D01*
X276328Y207315D01*
X276309Y207314D01*
X276289Y207319D01*
X276186Y207311D01*
X276083Y207308D01*
X276064Y207302D01*
X276044Y207300D01*
X275949Y207260D01*
X275852Y207224D01*
X275836Y207211D01*
X275818Y207204D01*
X275687Y207099D01*
X225560Y156972D01*
X223412Y156082D01*
X208388Y156082D01*
X206240Y156972D01*
X185958Y177254D01*
X185900Y177296D01*
X185848Y177345D01*
X185801Y177367D01*
X185759Y177397D01*
X185690Y177418D01*
X185625Y177449D01*
X185573Y177454D01*
X185523Y177470D01*
X185452Y177468D01*
X185381Y177476D01*
X185330Y177465D01*
X185278Y177463D01*
X185210Y177439D01*
X185140Y177424D01*
X185095Y177397D01*
X185047Y177379D01*
X184991Y177334D01*
X184929Y177297D01*
X184895Y177258D01*
X184855Y177225D01*
X184816Y177165D01*
X184769Y177110D01*
X184750Y177062D01*
X184722Y177018D01*
X184704Y176949D01*
X184677Y176882D01*
X184669Y176811D01*
X184661Y176780D01*
X184663Y176757D01*
X184659Y176716D01*
X184659Y130156D01*
X184673Y130066D01*
X184681Y129975D01*
X184693Y129946D01*
X184698Y129914D01*
X184741Y129833D01*
X184777Y129749D01*
X184803Y129717D01*
X184814Y129696D01*
X184837Y129674D01*
X184882Y129618D01*
X188165Y126335D01*
X188239Y126282D01*
X188308Y126222D01*
X188339Y126210D01*
X188365Y126191D01*
X188452Y126164D01*
X188537Y126130D01*
X188578Y126126D01*
X188600Y126119D01*
X188632Y126120D01*
X188703Y126112D01*
X189122Y126112D01*
X189212Y126126D01*
X189303Y126134D01*
X189332Y126146D01*
X189364Y126151D01*
X189445Y126194D01*
X189529Y126230D01*
X189561Y126256D01*
X189582Y126267D01*
X189604Y126290D01*
X189660Y126335D01*
X196140Y132815D01*
X198661Y133859D01*
X231139Y133859D01*
X231229Y133873D01*
X231320Y133881D01*
X231350Y133893D01*
X231382Y133898D01*
X231463Y133941D01*
X231546Y133977D01*
X231579Y134003D01*
X231599Y134014D01*
X231621Y134037D01*
X231677Y134082D01*
X236407Y138812D01*
X246193Y138812D01*
X253112Y131893D01*
X253112Y128124D01*
X253123Y128054D01*
X253125Y127982D01*
X253143Y127933D01*
X253151Y127882D01*
X253185Y127818D01*
X253210Y127751D01*
X253242Y127710D01*
X253267Y127664D01*
X253319Y127615D01*
X253363Y127559D01*
X253407Y127531D01*
X253445Y127495D01*
X253510Y127465D01*
X253570Y127426D01*
X253621Y127413D01*
X253668Y127391D01*
X253739Y127383D01*
X253809Y127366D01*
X253861Y127370D01*
X253912Y127364D01*
X253983Y127379D01*
X254054Y127385D01*
X254102Y127405D01*
X254153Y127416D01*
X254214Y127453D01*
X254280Y127481D01*
X254336Y127526D01*
X254364Y127542D01*
X254379Y127560D01*
X254411Y127586D01*
X272340Y145515D01*
X274861Y146559D01*
X277589Y146559D01*
X280110Y145515D01*
X329643Y95982D01*
X329717Y95929D01*
X329786Y95869D01*
X329817Y95857D01*
X329843Y95838D01*
X329930Y95811D01*
X330015Y95777D01*
X330056Y95773D01*
X330078Y95766D01*
X330110Y95767D01*
X330181Y95759D01*
X332919Y95759D01*
X333009Y95773D01*
X333100Y95781D01*
X333130Y95793D01*
X333161Y95798D01*
X333242Y95841D01*
X333326Y95877D01*
X333358Y95903D01*
X333379Y95914D01*
X333401Y95937D01*
X333457Y95982D01*
X338060Y100585D01*
X347740Y100585D01*
X354585Y93740D01*
X354585Y84060D01*
X347740Y77215D01*
X338060Y77215D01*
X333457Y81818D01*
X333383Y81871D01*
X333314Y81931D01*
X333284Y81943D01*
X333257Y81962D01*
X333170Y81989D01*
X333085Y82023D01*
X333045Y82027D01*
X333022Y82034D01*
X332990Y82033D01*
X332919Y82041D01*
X325661Y82041D01*
X323140Y83085D01*
X316025Y90200D01*
X315951Y90253D01*
X315882Y90313D01*
X315851Y90325D01*
X315825Y90344D01*
X315738Y90371D01*
X315653Y90405D01*
X315613Y90409D01*
X315590Y90416D01*
X315558Y90415D01*
X315487Y90423D01*
X306323Y90423D01*
X306323Y99587D01*
X306308Y99677D01*
X306301Y99768D01*
X306289Y99798D01*
X306283Y99829D01*
X306241Y99910D01*
X306205Y99994D01*
X306179Y100026D01*
X306168Y100047D01*
X306145Y100069D01*
X306100Y100125D01*
X276763Y129462D01*
X276747Y129474D01*
X276735Y129489D01*
X276647Y129545D01*
X276564Y129606D01*
X276545Y129611D01*
X276528Y129622D01*
X276427Y129647D01*
X276328Y129678D01*
X276309Y129677D01*
X276289Y129682D01*
X276186Y129674D01*
X276083Y129672D01*
X276064Y129665D01*
X276044Y129663D01*
X275949Y129623D01*
X275852Y129587D01*
X275836Y129575D01*
X275818Y129567D01*
X275687Y129462D01*
X251535Y105310D01*
X249014Y104266D01*
X212706Y104266D01*
X212616Y104252D01*
X212525Y104244D01*
X212496Y104232D01*
X212464Y104227D01*
X212383Y104184D01*
X212299Y104148D01*
X212267Y104122D01*
X212246Y104111D01*
X212224Y104088D01*
X212168Y104043D01*
X200735Y92610D01*
X198214Y91566D01*
X183496Y91566D01*
X183426Y91555D01*
X183354Y91553D01*
X183305Y91535D01*
X183254Y91527D01*
X183190Y91493D01*
X183123Y91468D01*
X183082Y91436D01*
X183036Y91411D01*
X182987Y91359D01*
X182931Y91315D01*
X182903Y91271D01*
X182867Y91233D01*
X182837Y91168D01*
X182798Y91108D01*
X182785Y91057D01*
X182763Y91010D01*
X182755Y90939D01*
X182738Y90869D01*
X182742Y90817D01*
X182736Y90766D01*
X182751Y90695D01*
X182757Y90624D01*
X182777Y90576D01*
X182788Y90525D01*
X182825Y90464D01*
X182853Y90398D01*
X182898Y90342D01*
X182914Y90314D01*
X182932Y90299D01*
X182958Y90267D01*
X234393Y38832D01*
X234467Y38779D01*
X234536Y38719D01*
X234567Y38707D01*
X234593Y38688D01*
X234680Y38661D01*
X234765Y38627D01*
X234806Y38623D01*
X234828Y38616D01*
X234860Y38617D01*
X234931Y38609D01*
X377844Y38609D01*
X377934Y38623D01*
X378025Y38631D01*
X378054Y38643D01*
X378086Y38648D01*
X378167Y38691D01*
X378251Y38727D01*
X378283Y38753D01*
X378304Y38764D01*
X378326Y38787D01*
X378382Y38832D01*
X395000Y55450D01*
X395053Y55524D01*
X395113Y55593D01*
X395125Y55624D01*
X395144Y55650D01*
X395171Y55737D01*
X395205Y55822D01*
X395209Y55862D01*
X395216Y55885D01*
X395215Y55917D01*
X395223Y55988D01*
X395223Y75438D01*
X395220Y75458D01*
X395222Y75477D01*
X395200Y75579D01*
X395183Y75681D01*
X395174Y75698D01*
X395170Y75718D01*
X395117Y75807D01*
X395068Y75898D01*
X395054Y75912D01*
X395044Y75929D01*
X394965Y75996D01*
X394890Y76067D01*
X394872Y76076D01*
X394857Y76089D01*
X394761Y76127D01*
X394667Y76171D01*
X394647Y76173D01*
X394629Y76181D01*
X394462Y76199D01*
X393699Y76199D01*
X393699Y76201D01*
X394462Y76201D01*
X394482Y76204D01*
X394501Y76202D01*
X394603Y76224D01*
X394705Y76241D01*
X394722Y76250D01*
X394742Y76254D01*
X394831Y76307D01*
X394922Y76356D01*
X394936Y76370D01*
X394953Y76380D01*
X395020Y76459D01*
X395091Y76534D01*
X395100Y76552D01*
X395113Y76567D01*
X395152Y76663D01*
X395195Y76757D01*
X395197Y76777D01*
X395205Y76795D01*
X395223Y76962D01*
X395223Y96261D01*
X396358Y96081D01*
X398057Y95529D01*
X399649Y94718D01*
X401095Y93668D01*
X402358Y92405D01*
X403408Y90959D01*
X404219Y89367D01*
X404771Y87668D01*
X404966Y86437D01*
X404986Y86377D01*
X404997Y86314D01*
X405025Y86261D01*
X405043Y86204D01*
X405082Y86153D01*
X405112Y86096D01*
X405155Y86055D01*
X405191Y86007D01*
X405244Y85971D01*
X405290Y85927D01*
X405344Y85902D01*
X405394Y85868D01*
X405455Y85850D01*
X405513Y85823D01*
X405573Y85817D01*
X405630Y85800D01*
X405694Y85803D01*
X405757Y85796D01*
X405816Y85809D01*
X405876Y85812D01*
X405935Y85835D01*
X405998Y85848D01*
X406049Y85879D01*
X406105Y85901D01*
X406154Y85942D01*
X406209Y85975D01*
X406248Y86020D01*
X406294Y86058D01*
X406327Y86113D01*
X406369Y86161D01*
X406391Y86217D01*
X406423Y86268D01*
X406437Y86330D01*
X406461Y86390D01*
X406470Y86476D01*
X406478Y86508D01*
X406477Y86532D01*
X406479Y86556D01*
X406479Y87520D01*
X408401Y92159D01*
X411951Y95709D01*
X416590Y97631D01*
X421610Y97631D01*
X426249Y95709D01*
X426817Y95142D01*
X426875Y95100D01*
X426927Y95050D01*
X426974Y95029D01*
X427016Y94998D01*
X427085Y94977D01*
X427150Y94947D01*
X427202Y94941D01*
X427252Y94926D01*
X427323Y94928D01*
X427394Y94920D01*
X427445Y94931D01*
X427497Y94932D01*
X427565Y94957D01*
X427635Y94972D01*
X427680Y94999D01*
X427728Y95017D01*
X427784Y95061D01*
X427846Y95098D01*
X427880Y95138D01*
X427920Y95170D01*
X427959Y95231D01*
X428006Y95285D01*
X428025Y95333D01*
X428053Y95377D01*
X428071Y95447D01*
X428098Y95513D01*
X428106Y95585D01*
X428114Y95616D01*
X428112Y95639D01*
X428116Y95680D01*
X428116Y123844D01*
X428102Y123934D01*
X428094Y124025D01*
X428082Y124054D01*
X428077Y124086D01*
X428034Y124167D01*
X427998Y124251D01*
X427972Y124283D01*
X427961Y124304D01*
X427938Y124326D01*
X427893Y124382D01*
X337085Y215190D01*
X336041Y217711D01*
X336041Y220439D01*
X337085Y222960D01*
X341556Y227431D01*
X341609Y227505D01*
X341669Y227574D01*
X341681Y227605D01*
X341700Y227631D01*
X341727Y227718D01*
X341761Y227803D01*
X341765Y227844D01*
X341772Y227866D01*
X341771Y227898D01*
X341779Y227969D01*
X341779Y240520D01*
X343777Y245342D01*
X347468Y249033D01*
X352290Y251031D01*
X357510Y251031D01*
X362332Y249033D01*
X362559Y248807D01*
X362569Y248800D01*
X362576Y248790D01*
X362669Y248728D01*
X362759Y248663D01*
X362770Y248660D01*
X362780Y248653D01*
X362887Y248623D01*
X362994Y248591D01*
X363006Y248591D01*
X363017Y248588D01*
X363128Y248594D01*
X363240Y248597D01*
X363251Y248601D01*
X363263Y248602D01*
X363366Y248643D01*
X363471Y248682D01*
X363480Y248689D01*
X363491Y248693D01*
X363576Y248766D01*
X363663Y248835D01*
X363669Y248845D01*
X363678Y248853D01*
X363736Y248949D01*
X363796Y249042D01*
X363799Y249054D01*
X363805Y249064D01*
X363849Y249226D01*
X364031Y250375D01*
X364608Y252149D01*
X365454Y253811D01*
X366551Y255320D01*
X367870Y256639D01*
X369379Y257736D01*
X371041Y258582D01*
X372815Y259159D01*
X374657Y259451D01*
X383377Y259451D01*
X383377Y248362D01*
X383380Y248342D01*
X383378Y248323D01*
X383400Y248221D01*
X383417Y248119D01*
X383426Y248102D01*
X383430Y248082D01*
X383483Y247993D01*
X383532Y247902D01*
X383546Y247888D01*
X383556Y247871D01*
X383635Y247804D01*
X383710Y247733D01*
X383728Y247724D01*
X383743Y247711D01*
X383839Y247673D01*
X383933Y247629D01*
X383953Y247627D01*
X383971Y247619D01*
X384138Y247601D01*
X384901Y247601D01*
X384901Y247599D01*
X384138Y247599D01*
X384118Y247596D01*
X384099Y247598D01*
X383997Y247576D01*
X383895Y247559D01*
X383878Y247550D01*
X383858Y247546D01*
X383769Y247493D01*
X383678Y247444D01*
X383664Y247430D01*
X383647Y247420D01*
X383580Y247341D01*
X383509Y247266D01*
X383500Y247248D01*
X383487Y247233D01*
X383448Y247137D01*
X383405Y247043D01*
X383403Y247023D01*
X383395Y247005D01*
X383377Y246838D01*
X383377Y235749D01*
X374657Y235749D01*
X372815Y236041D01*
X371041Y236618D01*
X369379Y237464D01*
X369229Y237573D01*
X369219Y237578D01*
X369210Y237587D01*
X369109Y237633D01*
X369010Y237683D01*
X368998Y237685D01*
X368987Y237690D01*
X368877Y237702D01*
X368766Y237718D01*
X368754Y237716D01*
X368743Y237717D01*
X368634Y237694D01*
X368524Y237673D01*
X368514Y237668D01*
X368502Y237665D01*
X368407Y237608D01*
X368309Y237554D01*
X368301Y237545D01*
X368291Y237539D01*
X368219Y237455D01*
X368144Y237372D01*
X368139Y237361D01*
X368131Y237352D01*
X368089Y237249D01*
X368045Y237147D01*
X368044Y237135D01*
X368039Y237124D01*
X368021Y236957D01*
X368021Y221806D01*
X368028Y221761D01*
X368026Y221715D01*
X368048Y221640D01*
X368060Y221563D01*
X368082Y221522D01*
X368095Y221478D01*
X368139Y221414D01*
X368176Y221346D01*
X368209Y221314D01*
X368235Y221276D01*
X368298Y221230D01*
X368354Y221176D01*
X368396Y221157D01*
X368432Y221130D01*
X368506Y221105D01*
X368577Y221073D01*
X368623Y221068D01*
X368666Y221053D01*
X368744Y221054D01*
X368821Y221046D01*
X368866Y221055D01*
X368912Y221056D01*
X369044Y221094D01*
X369062Y221098D01*
X369066Y221100D01*
X369073Y221102D01*
X372980Y222721D01*
X396820Y222721D01*
X401642Y220723D01*
X405333Y217032D01*
X407195Y212538D01*
X407246Y212455D01*
X407292Y212369D01*
X407311Y212351D01*
X407324Y212329D01*
X407399Y212267D01*
X407470Y212200D01*
X407494Y212189D01*
X407514Y212172D01*
X407605Y212137D01*
X407693Y212096D01*
X407719Y212094D01*
X407743Y212084D01*
X407841Y212080D01*
X407937Y212069D01*
X407963Y212075D01*
X407989Y212074D01*
X408083Y212101D01*
X408178Y212122D01*
X408200Y212135D01*
X408225Y212142D01*
X408305Y212198D01*
X408389Y212248D01*
X408406Y212268D01*
X408427Y212283D01*
X408486Y212361D01*
X408549Y212435D01*
X408559Y212459D01*
X408574Y212480D01*
X408604Y212572D01*
X408641Y212663D01*
X408644Y212695D01*
X408650Y212714D01*
X408650Y212747D01*
X408659Y212830D01*
X408659Y217632D01*
X410980Y223233D01*
X415267Y227520D01*
X416175Y227897D01*
X416236Y227934D01*
X416302Y227964D01*
X416340Y227999D01*
X416384Y228026D01*
X416430Y228082D01*
X416483Y228130D01*
X416508Y228176D01*
X416541Y228216D01*
X416567Y228283D01*
X416601Y228346D01*
X416611Y228397D01*
X416629Y228445D01*
X416632Y228517D01*
X416645Y228588D01*
X416637Y228639D01*
X416640Y228691D01*
X416620Y228760D01*
X416609Y228831D01*
X416586Y228877D01*
X416571Y228927D01*
X416530Y228986D01*
X416498Y229050D01*
X416461Y229087D01*
X416431Y229129D01*
X416373Y229172D01*
X416322Y229222D01*
X416259Y229257D01*
X416233Y229276D01*
X416211Y229283D01*
X416175Y229303D01*
X415267Y229680D01*
X410980Y233967D01*
X408659Y239568D01*
X408659Y257632D01*
X410980Y263233D01*
X415267Y267520D01*
X420868Y269841D01*
X437898Y269841D01*
X437918Y269844D01*
X437937Y269842D01*
X438039Y269864D01*
X438141Y269880D01*
X438158Y269890D01*
X438178Y269894D01*
X438267Y269947D01*
X438358Y269996D01*
X438372Y270010D01*
X438389Y270020D01*
X438456Y270099D01*
X438528Y270174D01*
X438536Y270192D01*
X438549Y270207D01*
X438588Y270303D01*
X438631Y270397D01*
X438633Y270417D01*
X438641Y270435D01*
X438659Y270602D01*
X438659Y415698D01*
X438658Y415706D01*
X438658Y415708D01*
X438656Y415718D01*
X438658Y415737D01*
X438636Y415839D01*
X438620Y415941D01*
X438610Y415958D01*
X438606Y415978D01*
X438553Y416067D01*
X438504Y416158D01*
X438490Y416172D01*
X438480Y416189D01*
X438401Y416256D01*
X438326Y416328D01*
X438308Y416336D01*
X438293Y416349D01*
X438197Y416388D01*
X438103Y416431D01*
X438083Y416433D01*
X438065Y416441D01*
X437898Y416459D01*
X265003Y416459D01*
X264933Y416448D01*
X264861Y416446D01*
X264812Y416428D01*
X264761Y416420D01*
X264697Y416386D01*
X264630Y416361D01*
X264589Y416329D01*
X264543Y416304D01*
X264494Y416252D01*
X264438Y416208D01*
X264410Y416164D01*
X264374Y416126D01*
X264344Y416061D01*
X264305Y416001D01*
X264292Y415950D01*
X264270Y415903D01*
X264262Y415832D01*
X264245Y415762D01*
X264249Y415710D01*
X264243Y415659D01*
X264258Y415588D01*
X264264Y415517D01*
X264284Y415469D01*
X264295Y415418D01*
X264332Y415357D01*
X264360Y415291D01*
X264405Y415235D01*
X264421Y415207D01*
X264439Y415192D01*
X264465Y415160D01*
X291543Y388082D01*
X291617Y388029D01*
X291686Y387969D01*
X291717Y387957D01*
X291743Y387938D01*
X291830Y387911D01*
X291915Y387877D01*
X291956Y387873D01*
X291978Y387866D01*
X292010Y387867D01*
X292081Y387859D01*
X410556Y387859D01*
X410646Y387873D01*
X410737Y387881D01*
X410766Y387893D01*
X410798Y387898D01*
X410879Y387941D01*
X410963Y387977D01*
X410995Y388003D01*
X411016Y388014D01*
X411038Y388037D01*
X411094Y388082D01*
X413057Y390045D01*
X416978Y391669D01*
X421222Y391669D01*
X425143Y390045D01*
X428145Y387043D01*
X429769Y383122D01*
X429769Y378878D01*
X428145Y374957D01*
X425143Y371955D01*
X421222Y370331D01*
X416978Y370331D01*
X413057Y371955D01*
X411094Y373918D01*
X411020Y373971D01*
X410950Y374031D01*
X410920Y374043D01*
X410894Y374062D01*
X410807Y374089D01*
X410722Y374123D01*
X410681Y374127D01*
X410659Y374134D01*
X410627Y374133D01*
X410556Y374141D01*
X290125Y374141D01*
X290054Y374130D01*
X289983Y374128D01*
X289934Y374110D01*
X289882Y374102D01*
X289819Y374068D01*
X289752Y374043D01*
X289711Y374011D01*
X289665Y373986D01*
X289616Y373935D01*
X289560Y373890D01*
X289532Y373846D01*
X289496Y373808D01*
X289465Y373743D01*
X289427Y373683D01*
X289414Y373632D01*
X289392Y373585D01*
X289384Y373514D01*
X289367Y373444D01*
X289371Y373392D01*
X289365Y373341D01*
X289380Y373270D01*
X289386Y373199D01*
X289406Y373151D01*
X289417Y373100D01*
X289454Y373039D01*
X289482Y372973D01*
X289527Y372917D01*
X289543Y372889D01*
X289561Y372874D01*
X289587Y372842D01*
X289815Y372614D01*
X289815Y369823D01*
X280923Y369823D01*
X280923Y378987D01*
X280908Y379077D01*
X280901Y379168D01*
X280889Y379198D01*
X280883Y379230D01*
X280841Y379310D01*
X280805Y379394D01*
X280779Y379426D01*
X280768Y379447D01*
X280745Y379469D01*
X280700Y379525D01*
X254557Y405668D01*
X254483Y405721D01*
X254414Y405781D01*
X254383Y405793D01*
X254357Y405812D01*
X254270Y405839D01*
X254185Y405873D01*
X254144Y405877D01*
X254122Y405884D01*
X254090Y405883D01*
X254019Y405891D01*
X161906Y405891D01*
X161816Y405877D01*
X161725Y405869D01*
X161696Y405857D01*
X161664Y405852D01*
X161583Y405809D01*
X161499Y405773D01*
X161467Y405747D01*
X161446Y405736D01*
X161424Y405713D01*
X161368Y405668D01*
X42007Y286307D01*
X41954Y286233D01*
X41894Y286164D01*
X41882Y286133D01*
X41863Y286107D01*
X41836Y286020D01*
X41802Y285935D01*
X41798Y285894D01*
X41791Y285872D01*
X41792Y285840D01*
X41784Y285769D01*
X41784Y278036D01*
X40740Y275515D01*
X29307Y264082D01*
X29254Y264008D01*
X29194Y263939D01*
X29182Y263908D01*
X29163Y263882D01*
X29136Y263795D01*
X29102Y263710D01*
X29098Y263669D01*
X29091Y263647D01*
X29092Y263615D01*
X29084Y263544D01*
X29084Y76181D01*
X29098Y76091D01*
X29106Y76000D01*
X29118Y75971D01*
X29123Y75939D01*
X29166Y75858D01*
X29202Y75774D01*
X29228Y75742D01*
X29239Y75721D01*
X29262Y75699D01*
X29307Y75643D01*
X38150Y66800D01*
X38208Y66758D01*
X38260Y66709D01*
X38307Y66687D01*
X38349Y66656D01*
X38418Y66635D01*
X38483Y66605D01*
X38535Y66599D01*
X38585Y66584D01*
X38656Y66586D01*
X38727Y66578D01*
X38778Y66589D01*
X38830Y66590D01*
X38898Y66615D01*
X38968Y66630D01*
X39013Y66657D01*
X39061Y66675D01*
X39117Y66720D01*
X39179Y66756D01*
X39213Y66796D01*
X39253Y66829D01*
X39292Y66889D01*
X39339Y66943D01*
X39358Y66992D01*
X39386Y67036D01*
X39404Y67105D01*
X39431Y67172D01*
X39439Y67243D01*
X39447Y67274D01*
X39445Y67297D01*
X39449Y67338D01*
X39449Y74677D01*
X49277Y74677D01*
X49277Y55988D01*
X49292Y55898D01*
X49299Y55807D01*
X49311Y55778D01*
X49317Y55746D01*
X49359Y55665D01*
X49395Y55581D01*
X49421Y55549D01*
X49432Y55528D01*
X49455Y55506D01*
X49500Y55450D01*
X78818Y26132D01*
X78892Y26079D01*
X78961Y26019D01*
X78992Y26007D01*
X79018Y25988D01*
X79105Y25961D01*
X79190Y25927D01*
X79231Y25923D01*
X79253Y25916D01*
X79285Y25917D01*
X79356Y25909D01*
X226079Y25909D01*
X226149Y25920D01*
G37*
%LPC*%
G36*
X213576Y216915D02*
X213576Y216915D01*
X209281Y218694D01*
X205994Y221981D01*
X204215Y226276D01*
X204215Y230924D01*
X205994Y235219D01*
X209281Y238506D01*
X213576Y240285D01*
X218224Y240285D01*
X218530Y240158D01*
X218644Y240131D01*
X218758Y240103D01*
X218764Y240103D01*
X218770Y240102D01*
X218886Y240113D01*
X219003Y240122D01*
X219009Y240124D01*
X219015Y240125D01*
X219122Y240173D01*
X219229Y240218D01*
X219235Y240223D01*
X219239Y240225D01*
X219253Y240237D01*
X219360Y240323D01*
X337840Y358803D01*
X339590Y360553D01*
X341738Y361443D01*
X409540Y361443D01*
X409630Y361457D01*
X409721Y361465D01*
X409750Y361477D01*
X409782Y361482D01*
X409863Y361525D01*
X409947Y361561D01*
X409979Y361587D01*
X410000Y361598D01*
X410022Y361621D01*
X410078Y361666D01*
X413057Y364645D01*
X416978Y366269D01*
X421222Y366269D01*
X425143Y364645D01*
X428145Y361643D01*
X429769Y357722D01*
X429769Y353478D01*
X428145Y349557D01*
X425143Y346555D01*
X421222Y344931D01*
X416978Y344931D01*
X413057Y346555D01*
X410078Y349534D01*
X410004Y349587D01*
X409934Y349647D01*
X409904Y349659D01*
X409878Y349678D01*
X409791Y349705D01*
X409706Y349739D01*
X409665Y349743D01*
X409643Y349750D01*
X409611Y349749D01*
X409540Y349757D01*
X345635Y349757D01*
X345545Y349743D01*
X345454Y349735D01*
X345425Y349723D01*
X345393Y349718D01*
X345312Y349675D01*
X345228Y349639D01*
X345196Y349613D01*
X345175Y349602D01*
X345153Y349579D01*
X345097Y349534D01*
X227623Y232060D01*
X227555Y231966D01*
X227485Y231871D01*
X227483Y231865D01*
X227479Y231860D01*
X227445Y231749D01*
X227409Y231637D01*
X227409Y231631D01*
X227407Y231625D01*
X227410Y231508D01*
X227411Y231392D01*
X227413Y231384D01*
X227413Y231379D01*
X227420Y231362D01*
X227458Y231230D01*
X227585Y230924D01*
X227585Y226276D01*
X225806Y221981D01*
X222519Y218694D01*
X218224Y216915D01*
X213576Y216915D01*
G37*
%LPD*%
%LPC*%
G36*
X213576Y191515D02*
X213576Y191515D01*
X209281Y193294D01*
X205994Y196581D01*
X204215Y200876D01*
X204215Y205524D01*
X205994Y209819D01*
X209281Y213106D01*
X213576Y214885D01*
X218224Y214885D01*
X222519Y213106D01*
X225806Y209819D01*
X227585Y205524D01*
X227585Y200876D01*
X225806Y196581D01*
X222519Y193294D01*
X218224Y191515D01*
X213576Y191515D01*
G37*
%LPD*%
%LPC*%
G36*
X386423Y249123D02*
X386423Y249123D01*
X386423Y259451D01*
X395143Y259451D01*
X396985Y259159D01*
X398759Y258582D01*
X400421Y257736D01*
X401930Y256639D01*
X403249Y255320D01*
X404346Y253811D01*
X405192Y252149D01*
X405769Y250375D01*
X405967Y249123D01*
X386423Y249123D01*
G37*
%LPD*%
%LPC*%
G36*
X386423Y235749D02*
X386423Y235749D01*
X386423Y246077D01*
X405967Y246077D01*
X405769Y244825D01*
X405192Y243051D01*
X404346Y241389D01*
X403249Y239880D01*
X401930Y238561D01*
X400421Y237464D01*
X398759Y236618D01*
X396985Y236041D01*
X395143Y235749D01*
X386423Y235749D01*
G37*
%LPD*%
%LPC*%
G36*
X39449Y77723D02*
X39449Y77723D01*
X39449Y85903D01*
X39729Y87668D01*
X40281Y89367D01*
X41092Y90959D01*
X42142Y92405D01*
X43405Y93668D01*
X44851Y94718D01*
X46443Y95529D01*
X48142Y96081D01*
X49277Y96261D01*
X49277Y77723D01*
X39449Y77723D01*
G37*
%LPD*%
%LPC*%
G36*
X153749Y344423D02*
X153749Y344423D01*
X153749Y352603D01*
X154029Y354368D01*
X154581Y356067D01*
X155392Y357659D01*
X156442Y359105D01*
X157705Y360368D01*
X159151Y361418D01*
X160743Y362229D01*
X162442Y362781D01*
X163577Y362961D01*
X163577Y344423D01*
X153749Y344423D01*
G37*
%LPD*%
%LPC*%
G36*
X382349Y77723D02*
X382349Y77723D01*
X382349Y85903D01*
X382629Y87668D01*
X383181Y89367D01*
X383992Y90959D01*
X385042Y92405D01*
X386305Y93668D01*
X387751Y94718D01*
X389343Y95529D01*
X391042Y96081D01*
X392177Y96261D01*
X392177Y77723D01*
X382349Y77723D01*
G37*
%LPD*%
%LPC*%
G36*
X162442Y323019D02*
X162442Y323019D01*
X160743Y323571D01*
X159151Y324382D01*
X157705Y325432D01*
X156442Y326695D01*
X155392Y328141D01*
X154581Y329733D01*
X154029Y331432D01*
X153749Y333197D01*
X153749Y341377D01*
X163577Y341377D01*
X163577Y322839D01*
X162442Y323019D01*
G37*
%LPD*%
%LPC*%
G36*
X391042Y56319D02*
X391042Y56319D01*
X389343Y56871D01*
X387751Y57682D01*
X386305Y58732D01*
X385042Y59995D01*
X383992Y61441D01*
X383181Y63033D01*
X382629Y64732D01*
X382349Y66497D01*
X382349Y74677D01*
X392177Y74677D01*
X392177Y56139D01*
X391042Y56319D01*
G37*
%LPD*%
%LPC*%
G36*
X268985Y369823D02*
X268985Y369823D01*
X268985Y372614D01*
X275086Y378715D01*
X277877Y378715D01*
X277877Y369823D01*
X268985Y369823D01*
G37*
%LPD*%
%LPC*%
G36*
X280923Y357885D02*
X280923Y357885D01*
X280923Y366777D01*
X289815Y366777D01*
X289815Y363986D01*
X283714Y357885D01*
X280923Y357885D01*
G37*
%LPD*%
%LPC*%
G36*
X294385Y90423D02*
X294385Y90423D01*
X294385Y93214D01*
X300486Y99315D01*
X303277Y99315D01*
X303277Y90423D01*
X294385Y90423D01*
G37*
%LPD*%
%LPC*%
G36*
X306323Y78485D02*
X306323Y78485D01*
X306323Y87377D01*
X315215Y87377D01*
X315215Y84586D01*
X309114Y78485D01*
X306323Y78485D01*
G37*
%LPD*%
%LPC*%
G36*
X300486Y78485D02*
X300486Y78485D01*
X294385Y84586D01*
X294385Y87377D01*
X303277Y87377D01*
X303277Y78485D01*
X300486Y78485D01*
G37*
%LPD*%
%LPC*%
G36*
X275086Y357885D02*
X275086Y357885D01*
X268985Y363986D01*
X268985Y366777D01*
X277877Y366777D01*
X277877Y357885D01*
X275086Y357885D01*
G37*
%LPD*%
%LPC*%
G36*
X217423Y179323D02*
X217423Y179323D01*
X217423Y188103D01*
X218339Y187958D01*
X219898Y187452D01*
X221359Y186707D01*
X222685Y185744D01*
X223844Y184585D01*
X224807Y183259D01*
X225552Y181798D01*
X226058Y180239D01*
X226203Y179323D01*
X217423Y179323D01*
G37*
%LPD*%
%LPC*%
G36*
X141223Y179323D02*
X141223Y179323D01*
X141223Y188103D01*
X142139Y187958D01*
X143698Y187452D01*
X145159Y186707D01*
X146485Y185744D01*
X147644Y184585D01*
X148607Y183259D01*
X149352Y181798D01*
X149858Y180239D01*
X150003Y179323D01*
X141223Y179323D01*
G37*
%LPD*%
%LPC*%
G36*
X217423Y255523D02*
X217423Y255523D01*
X217423Y264303D01*
X218339Y264158D01*
X219898Y263652D01*
X221359Y262907D01*
X222685Y261944D01*
X223844Y260785D01*
X224807Y259459D01*
X225552Y257998D01*
X226058Y256439D01*
X226203Y255523D01*
X217423Y255523D01*
G37*
%LPD*%
%LPC*%
G36*
X217423Y252477D02*
X217423Y252477D01*
X226203Y252477D01*
X226058Y251561D01*
X225552Y250002D01*
X224807Y248541D01*
X223844Y247215D01*
X222685Y246056D01*
X221359Y245093D01*
X219898Y244348D01*
X218339Y243842D01*
X217423Y243697D01*
X217423Y252477D01*
G37*
%LPD*%
%LPC*%
G36*
X205597Y255523D02*
X205597Y255523D01*
X205742Y256439D01*
X206248Y257998D01*
X206993Y259459D01*
X207956Y260785D01*
X209115Y261944D01*
X210441Y262907D01*
X211902Y263652D01*
X213461Y264158D01*
X214377Y264303D01*
X214377Y255523D01*
X205597Y255523D01*
G37*
%LPD*%
%LPC*%
G36*
X205597Y179323D02*
X205597Y179323D01*
X205742Y180239D01*
X206248Y181798D01*
X206993Y183259D01*
X207956Y184585D01*
X209115Y185744D01*
X210441Y186707D01*
X211902Y187452D01*
X213461Y187958D01*
X214377Y188103D01*
X214377Y179323D01*
X205597Y179323D01*
G37*
%LPD*%
%LPC*%
G36*
X129397Y179323D02*
X129397Y179323D01*
X129542Y180239D01*
X130048Y181798D01*
X130793Y183259D01*
X131756Y184585D01*
X132915Y185744D01*
X134241Y186707D01*
X135702Y187452D01*
X137261Y187958D01*
X138177Y188103D01*
X138177Y179323D01*
X129397Y179323D01*
G37*
%LPD*%
%LPC*%
G36*
X141223Y176277D02*
X141223Y176277D01*
X150003Y176277D01*
X149858Y175361D01*
X149352Y173802D01*
X148607Y172341D01*
X147644Y171015D01*
X146485Y169856D01*
X145159Y168893D01*
X143698Y168148D01*
X142139Y167642D01*
X141223Y167497D01*
X141223Y176277D01*
G37*
%LPD*%
%LPC*%
G36*
X137261Y167642D02*
X137261Y167642D01*
X135702Y168148D01*
X134241Y168893D01*
X132915Y169856D01*
X131756Y171015D01*
X130793Y172341D01*
X130048Y173802D01*
X129542Y175361D01*
X129397Y176277D01*
X138177Y176277D01*
X138177Y167497D01*
X137261Y167642D01*
G37*
%LPD*%
%LPC*%
G36*
X213461Y243842D02*
X213461Y243842D01*
X211902Y244348D01*
X210441Y245093D01*
X209115Y246056D01*
X207956Y247215D01*
X206993Y248541D01*
X206248Y250002D01*
X205742Y251561D01*
X205597Y252477D01*
X214377Y252477D01*
X214377Y243697D01*
X213461Y243842D01*
G37*
%LPD*%
%LPC*%
G36*
X420623Y331723D02*
X420623Y331723D01*
X420623Y339480D01*
X421841Y339238D01*
X423552Y338529D01*
X425091Y337500D01*
X426400Y336191D01*
X427429Y334652D01*
X428138Y332941D01*
X428380Y331723D01*
X420623Y331723D01*
G37*
%LPD*%
%LPC*%
G36*
X409820Y331723D02*
X409820Y331723D01*
X410062Y332941D01*
X410771Y334652D01*
X411800Y336191D01*
X413109Y337500D01*
X414648Y338529D01*
X416359Y339238D01*
X417577Y339480D01*
X417577Y331723D01*
X409820Y331723D01*
G37*
%LPD*%
%LPC*%
G36*
X420623Y328677D02*
X420623Y328677D01*
X428380Y328677D01*
X428138Y327459D01*
X427429Y325748D01*
X426400Y324209D01*
X425091Y322900D01*
X423552Y321871D01*
X421841Y321162D01*
X420623Y320920D01*
X420623Y328677D01*
G37*
%LPD*%
%LPC*%
G36*
X416359Y321162D02*
X416359Y321162D01*
X414648Y321871D01*
X413109Y322900D01*
X411800Y324209D01*
X410771Y325748D01*
X410062Y327459D01*
X409820Y328677D01*
X417577Y328677D01*
X417577Y320920D01*
X416359Y321162D01*
G37*
%LPD*%
%LPC*%
G36*
X279399Y368299D02*
X279399Y368299D01*
X279399Y368301D01*
X279401Y368301D01*
X279401Y368299D01*
X279399Y368299D01*
G37*
%LPD*%
%LPC*%
G36*
X419099Y330199D02*
X419099Y330199D01*
X419099Y330201D01*
X419101Y330201D01*
X419101Y330199D01*
X419099Y330199D01*
G37*
%LPD*%
%LPC*%
G36*
X215899Y253999D02*
X215899Y253999D01*
X215899Y254001D01*
X215901Y254001D01*
X215901Y253999D01*
X215899Y253999D01*
G37*
%LPD*%
%LPC*%
G36*
X139699Y177799D02*
X139699Y177799D01*
X139699Y177801D01*
X139701Y177801D01*
X139701Y177799D01*
X139699Y177799D01*
G37*
%LPD*%
%LPC*%
G36*
X304799Y88899D02*
X304799Y88899D01*
X304799Y88901D01*
X304801Y88901D01*
X304801Y88899D01*
X304799Y88899D01*
G37*
%LPD*%
D10*
X11684Y278662D02*
X24892Y283064D01*
X11684Y287467D01*
X14986Y286366D02*
X14986Y279762D01*
X13885Y292504D02*
X20489Y292504D01*
X13885Y292504D02*
X13794Y292506D01*
X13703Y292512D01*
X13613Y292521D01*
X13523Y292534D01*
X13433Y292551D01*
X13345Y292571D01*
X13257Y292596D01*
X13170Y292623D01*
X13085Y292655D01*
X13001Y292689D01*
X12918Y292728D01*
X12837Y292769D01*
X12758Y292814D01*
X12681Y292862D01*
X12606Y292914D01*
X12533Y292968D01*
X12462Y293025D01*
X12394Y293086D01*
X12329Y293149D01*
X12266Y293214D01*
X12205Y293282D01*
X12148Y293353D01*
X12094Y293426D01*
X12042Y293501D01*
X11994Y293578D01*
X11949Y293657D01*
X11908Y293738D01*
X11869Y293821D01*
X11835Y293905D01*
X11803Y293990D01*
X11776Y294077D01*
X11751Y294165D01*
X11731Y294253D01*
X11714Y294343D01*
X11701Y294433D01*
X11692Y294523D01*
X11686Y294614D01*
X11684Y294705D01*
X11684Y298374D01*
X20489Y298374D01*
X24892Y309833D02*
X11684Y309833D01*
X11684Y306164D01*
X11686Y306073D01*
X11692Y305982D01*
X11701Y305892D01*
X11714Y305802D01*
X11731Y305712D01*
X11751Y305624D01*
X11776Y305536D01*
X11803Y305449D01*
X11835Y305364D01*
X11869Y305280D01*
X11908Y305197D01*
X11949Y305116D01*
X11994Y305037D01*
X12042Y304960D01*
X12094Y304885D01*
X12148Y304812D01*
X12205Y304741D01*
X12266Y304673D01*
X12329Y304608D01*
X12394Y304545D01*
X12462Y304484D01*
X12533Y304427D01*
X12606Y304373D01*
X12681Y304321D01*
X12758Y304273D01*
X12837Y304228D01*
X12918Y304187D01*
X13001Y304148D01*
X13085Y304114D01*
X13170Y304082D01*
X13257Y304055D01*
X13345Y304030D01*
X13433Y304010D01*
X13523Y303993D01*
X13613Y303980D01*
X13703Y303971D01*
X13794Y303965D01*
X13885Y303963D01*
X18288Y303963D01*
X18379Y303965D01*
X18470Y303971D01*
X18560Y303980D01*
X18650Y303993D01*
X18740Y304010D01*
X18828Y304030D01*
X18916Y304055D01*
X19003Y304082D01*
X19088Y304114D01*
X19172Y304148D01*
X19255Y304187D01*
X19336Y304228D01*
X19415Y304273D01*
X19492Y304321D01*
X19567Y304373D01*
X19640Y304427D01*
X19711Y304484D01*
X19779Y304545D01*
X19844Y304608D01*
X19907Y304673D01*
X19968Y304741D01*
X20025Y304812D01*
X20079Y304885D01*
X20131Y304960D01*
X20179Y305037D01*
X20224Y305116D01*
X20265Y305197D01*
X20304Y305280D01*
X20338Y305364D01*
X20370Y305449D01*
X20397Y305536D01*
X20422Y305624D01*
X20442Y305712D01*
X20459Y305802D01*
X20472Y305892D01*
X20481Y305982D01*
X20487Y306073D01*
X20489Y306164D01*
X20489Y309833D01*
X20489Y315495D02*
X11684Y315495D01*
X24158Y315128D02*
X24892Y315128D01*
X24892Y315862D01*
X24158Y315862D01*
X24158Y315128D01*
X17554Y320667D02*
X14619Y320667D01*
X17554Y320668D02*
X17661Y320670D01*
X17768Y320676D01*
X17875Y320686D01*
X17981Y320699D01*
X18087Y320717D01*
X18192Y320738D01*
X18296Y320763D01*
X18400Y320792D01*
X18502Y320825D01*
X18602Y320862D01*
X18702Y320902D01*
X18800Y320946D01*
X18896Y320993D01*
X18990Y321044D01*
X19083Y321098D01*
X19173Y321155D01*
X19262Y321216D01*
X19348Y321280D01*
X19431Y321347D01*
X19513Y321417D01*
X19591Y321490D01*
X19667Y321566D01*
X19740Y321644D01*
X19810Y321726D01*
X19877Y321809D01*
X19941Y321895D01*
X20002Y321984D01*
X20059Y322074D01*
X20113Y322167D01*
X20164Y322261D01*
X20211Y322357D01*
X20255Y322455D01*
X20295Y322555D01*
X20332Y322655D01*
X20365Y322757D01*
X20394Y322861D01*
X20419Y322965D01*
X20440Y323070D01*
X20458Y323176D01*
X20471Y323282D01*
X20481Y323389D01*
X20487Y323496D01*
X20489Y323603D01*
X20487Y323710D01*
X20481Y323817D01*
X20471Y323924D01*
X20458Y324030D01*
X20440Y324136D01*
X20419Y324241D01*
X20394Y324345D01*
X20365Y324449D01*
X20332Y324551D01*
X20295Y324651D01*
X20255Y324751D01*
X20211Y324849D01*
X20164Y324945D01*
X20113Y325039D01*
X20059Y325132D01*
X20002Y325222D01*
X19941Y325311D01*
X19877Y325397D01*
X19810Y325480D01*
X19740Y325562D01*
X19667Y325640D01*
X19591Y325716D01*
X19513Y325789D01*
X19431Y325859D01*
X19348Y325926D01*
X19262Y325990D01*
X19173Y326051D01*
X19083Y326108D01*
X18990Y326162D01*
X18896Y326213D01*
X18800Y326260D01*
X18702Y326304D01*
X18602Y326344D01*
X18502Y326381D01*
X18400Y326414D01*
X18296Y326443D01*
X18192Y326468D01*
X18087Y326489D01*
X17981Y326507D01*
X17875Y326520D01*
X17768Y326530D01*
X17661Y326536D01*
X17554Y326538D01*
X14619Y326538D01*
X14512Y326536D01*
X14405Y326530D01*
X14298Y326520D01*
X14192Y326507D01*
X14086Y326489D01*
X13981Y326468D01*
X13877Y326443D01*
X13773Y326414D01*
X13671Y326381D01*
X13571Y326344D01*
X13471Y326304D01*
X13373Y326260D01*
X13277Y326213D01*
X13183Y326162D01*
X13090Y326108D01*
X13000Y326051D01*
X12911Y325990D01*
X12825Y325926D01*
X12742Y325859D01*
X12660Y325789D01*
X12582Y325716D01*
X12506Y325640D01*
X12433Y325562D01*
X12363Y325480D01*
X12296Y325397D01*
X12232Y325311D01*
X12171Y325222D01*
X12114Y325132D01*
X12060Y325039D01*
X12009Y324945D01*
X11962Y324849D01*
X11918Y324751D01*
X11878Y324651D01*
X11841Y324551D01*
X11808Y324449D01*
X11779Y324345D01*
X11754Y324241D01*
X11733Y324136D01*
X11715Y324030D01*
X11702Y323924D01*
X11692Y323817D01*
X11686Y323710D01*
X11684Y323603D01*
X11686Y323496D01*
X11692Y323389D01*
X11702Y323282D01*
X11715Y323176D01*
X11733Y323070D01*
X11754Y322965D01*
X11779Y322861D01*
X11808Y322757D01*
X11841Y322655D01*
X11878Y322555D01*
X11918Y322455D01*
X11962Y322357D01*
X12009Y322261D01*
X12060Y322167D01*
X12114Y322074D01*
X12171Y321984D01*
X12232Y321895D01*
X12296Y321809D01*
X12363Y321726D01*
X12433Y321644D01*
X12506Y321566D01*
X12582Y321490D01*
X12660Y321417D01*
X12742Y321347D01*
X12825Y321280D01*
X12911Y321216D01*
X13000Y321155D01*
X13090Y321098D01*
X13183Y321044D01*
X13277Y320993D01*
X13373Y320946D01*
X13471Y320902D01*
X13571Y320862D01*
X13671Y320825D01*
X13773Y320792D01*
X13877Y320763D01*
X13981Y320738D01*
X14086Y320717D01*
X14192Y320699D01*
X14298Y320686D01*
X14405Y320676D01*
X14512Y320670D01*
X14619Y320668D01*
X11684Y337976D02*
X24892Y342378D01*
X11684Y346781D01*
X14986Y345680D02*
X14986Y339076D01*
X11684Y352057D02*
X20489Y352057D01*
X20489Y358661D01*
X20487Y358752D01*
X20481Y358843D01*
X20472Y358933D01*
X20459Y359023D01*
X20442Y359113D01*
X20422Y359201D01*
X20397Y359289D01*
X20370Y359376D01*
X20338Y359461D01*
X20304Y359545D01*
X20265Y359628D01*
X20224Y359709D01*
X20179Y359788D01*
X20131Y359865D01*
X20079Y359940D01*
X20025Y360013D01*
X19968Y360084D01*
X19907Y360152D01*
X19844Y360217D01*
X19779Y360280D01*
X19711Y360341D01*
X19640Y360398D01*
X19567Y360452D01*
X19492Y360504D01*
X19415Y360552D01*
X19336Y360597D01*
X19255Y360638D01*
X19172Y360677D01*
X19088Y360711D01*
X19003Y360743D01*
X18916Y360770D01*
X18828Y360795D01*
X18740Y360815D01*
X18650Y360832D01*
X18560Y360845D01*
X18470Y360854D01*
X18379Y360860D01*
X18288Y360862D01*
X18288Y360863D02*
X11684Y360863D01*
X11684Y356460D02*
X20489Y356460D01*
X20489Y367242D02*
X7281Y367242D01*
X20489Y367242D02*
X20489Y370911D01*
X20487Y371002D01*
X20481Y371093D01*
X20472Y371183D01*
X20459Y371273D01*
X20442Y371363D01*
X20422Y371451D01*
X20397Y371539D01*
X20370Y371626D01*
X20338Y371711D01*
X20304Y371795D01*
X20265Y371878D01*
X20224Y371959D01*
X20179Y372038D01*
X20131Y372115D01*
X20079Y372190D01*
X20025Y372263D01*
X19968Y372334D01*
X19907Y372402D01*
X19844Y372467D01*
X19779Y372530D01*
X19711Y372591D01*
X19640Y372648D01*
X19567Y372702D01*
X19492Y372754D01*
X19415Y372802D01*
X19336Y372847D01*
X19255Y372888D01*
X19172Y372927D01*
X19088Y372961D01*
X19003Y372993D01*
X18916Y373020D01*
X18828Y373045D01*
X18740Y373065D01*
X18650Y373082D01*
X18560Y373095D01*
X18470Y373104D01*
X18379Y373110D01*
X18288Y373112D01*
X18288Y373113D02*
X13885Y373113D01*
X13885Y373112D02*
X13794Y373110D01*
X13703Y373104D01*
X13613Y373095D01*
X13523Y373082D01*
X13433Y373065D01*
X13345Y373045D01*
X13257Y373020D01*
X13170Y372993D01*
X13085Y372961D01*
X13001Y372927D01*
X12918Y372888D01*
X12837Y372847D01*
X12758Y372802D01*
X12681Y372754D01*
X12606Y372702D01*
X12533Y372648D01*
X12462Y372591D01*
X12394Y372530D01*
X12329Y372467D01*
X12266Y372402D01*
X12205Y372334D01*
X12148Y372263D01*
X12094Y372190D01*
X12042Y372115D01*
X11994Y372038D01*
X11949Y371959D01*
X11908Y371878D01*
X11869Y371795D01*
X11835Y371711D01*
X11803Y371626D01*
X11776Y371539D01*
X11751Y371451D01*
X11731Y371363D01*
X11714Y371273D01*
X11701Y371183D01*
X11692Y371093D01*
X11686Y371002D01*
X11684Y370911D01*
X11684Y367242D01*
X13885Y378456D02*
X24892Y378456D01*
X13885Y378456D02*
X13794Y378458D01*
X13703Y378464D01*
X13613Y378473D01*
X13523Y378486D01*
X13433Y378503D01*
X13345Y378523D01*
X13257Y378548D01*
X13170Y378575D01*
X13085Y378607D01*
X13001Y378641D01*
X12918Y378680D01*
X12837Y378721D01*
X12758Y378766D01*
X12681Y378814D01*
X12606Y378866D01*
X12533Y378920D01*
X12462Y378977D01*
X12394Y379038D01*
X12329Y379101D01*
X12266Y379166D01*
X12205Y379234D01*
X12148Y379305D01*
X12094Y379378D01*
X12042Y379453D01*
X11994Y379530D01*
X11949Y379609D01*
X11908Y379690D01*
X11869Y379773D01*
X11835Y379857D01*
X11803Y379942D01*
X11776Y380029D01*
X11751Y380117D01*
X11731Y380205D01*
X11714Y380295D01*
X11701Y380385D01*
X11692Y380475D01*
X11686Y380566D01*
X11684Y380657D01*
X11684Y385050D02*
X20489Y385050D01*
X24158Y384683D02*
X24892Y384683D01*
X24892Y385417D01*
X24158Y385417D01*
X24158Y384683D01*
X22691Y390933D02*
X11684Y390933D01*
X22691Y390933D02*
X22782Y390935D01*
X22873Y390941D01*
X22963Y390950D01*
X23053Y390963D01*
X23143Y390980D01*
X23231Y391000D01*
X23319Y391025D01*
X23406Y391052D01*
X23491Y391084D01*
X23575Y391118D01*
X23658Y391157D01*
X23739Y391198D01*
X23818Y391243D01*
X23895Y391291D01*
X23970Y391343D01*
X24043Y391397D01*
X24114Y391454D01*
X24182Y391515D01*
X24247Y391578D01*
X24310Y391643D01*
X24371Y391712D01*
X24428Y391782D01*
X24482Y391855D01*
X24534Y391930D01*
X24582Y392007D01*
X24627Y392086D01*
X24668Y392167D01*
X24707Y392250D01*
X24741Y392334D01*
X24773Y392419D01*
X24801Y392506D01*
X24825Y392594D01*
X24845Y392682D01*
X24862Y392772D01*
X24875Y392862D01*
X24884Y392952D01*
X24890Y393043D01*
X24892Y393134D01*
X24892Y393868D01*
X20489Y393868D02*
X20489Y389465D01*
X20489Y397425D02*
X11684Y397425D01*
X24158Y397058D02*
X24892Y397058D01*
X24892Y397792D01*
X24158Y397792D01*
X24158Y397058D01*
X11684Y404799D02*
X11684Y408468D01*
X11684Y404799D02*
X11686Y404708D01*
X11692Y404617D01*
X11701Y404527D01*
X11714Y404437D01*
X11731Y404347D01*
X11751Y404259D01*
X11776Y404171D01*
X11803Y404084D01*
X11835Y403999D01*
X11869Y403915D01*
X11908Y403832D01*
X11949Y403751D01*
X11994Y403672D01*
X12042Y403595D01*
X12094Y403520D01*
X12148Y403447D01*
X12205Y403376D01*
X12266Y403308D01*
X12329Y403243D01*
X12394Y403180D01*
X12462Y403119D01*
X12533Y403062D01*
X12606Y403008D01*
X12681Y402956D01*
X12758Y402908D01*
X12837Y402863D01*
X12918Y402822D01*
X13001Y402783D01*
X13085Y402749D01*
X13170Y402717D01*
X13257Y402690D01*
X13345Y402665D01*
X13433Y402645D01*
X13523Y402628D01*
X13613Y402615D01*
X13703Y402606D01*
X13794Y402600D01*
X13885Y402598D01*
X17554Y402598D01*
X17661Y402600D01*
X17768Y402606D01*
X17875Y402616D01*
X17981Y402629D01*
X18087Y402647D01*
X18192Y402668D01*
X18296Y402693D01*
X18400Y402722D01*
X18502Y402755D01*
X18602Y402792D01*
X18702Y402832D01*
X18800Y402876D01*
X18896Y402923D01*
X18990Y402974D01*
X19083Y403028D01*
X19173Y403085D01*
X19262Y403146D01*
X19348Y403210D01*
X19431Y403277D01*
X19513Y403347D01*
X19591Y403420D01*
X19667Y403496D01*
X19740Y403574D01*
X19810Y403656D01*
X19877Y403739D01*
X19941Y403825D01*
X20002Y403914D01*
X20059Y404004D01*
X20113Y404097D01*
X20164Y404191D01*
X20211Y404287D01*
X20255Y404385D01*
X20295Y404485D01*
X20332Y404585D01*
X20365Y404687D01*
X20394Y404791D01*
X20419Y404895D01*
X20440Y405000D01*
X20458Y405106D01*
X20471Y405212D01*
X20481Y405319D01*
X20487Y405426D01*
X20489Y405533D01*
X20487Y405640D01*
X20481Y405747D01*
X20471Y405854D01*
X20458Y405960D01*
X20440Y406066D01*
X20419Y406171D01*
X20394Y406275D01*
X20365Y406379D01*
X20332Y406481D01*
X20295Y406581D01*
X20255Y406681D01*
X20211Y406779D01*
X20164Y406875D01*
X20113Y406969D01*
X20059Y407062D01*
X20002Y407152D01*
X19941Y407241D01*
X19877Y407327D01*
X19810Y407410D01*
X19740Y407492D01*
X19667Y407570D01*
X19591Y407646D01*
X19513Y407719D01*
X19431Y407789D01*
X19348Y407856D01*
X19262Y407920D01*
X19173Y407981D01*
X19083Y408038D01*
X18990Y408092D01*
X18896Y408143D01*
X18800Y408190D01*
X18702Y408234D01*
X18602Y408274D01*
X18502Y408311D01*
X18400Y408344D01*
X18296Y408373D01*
X18192Y408398D01*
X18087Y408419D01*
X17981Y408437D01*
X17875Y408450D01*
X17768Y408460D01*
X17661Y408466D01*
X17554Y408468D01*
X16087Y408468D01*
X16087Y402598D01*
X20489Y414189D02*
X11684Y414189D01*
X20489Y414189D02*
X20489Y418592D01*
X19022Y418592D01*
D11*
X66802Y228600D02*
X85598Y228600D01*
X85598Y254000D02*
X66802Y254000D01*
X66802Y279400D02*
X85598Y279400D01*
D12*
X241300Y127000D03*
X241300Y152400D03*
D13*
X190500Y114300D03*
X139700Y114300D03*
D14*
X139700Y254000D03*
X139700Y228600D03*
X215900Y228600D03*
X215900Y254000D03*
X139700Y203200D03*
X139700Y177800D03*
X215900Y203200D03*
X215900Y177800D03*
D15*
X50800Y85010D02*
X50800Y67390D01*
X76200Y67390D02*
X76200Y85010D01*
D16*
X254000Y368300D03*
X279400Y368300D03*
D15*
X393700Y85010D02*
X393700Y67390D01*
X419100Y67390D02*
X419100Y85010D01*
D17*
X304800Y88900D03*
X304800Y165100D03*
D18*
X342900Y165100D03*
X342900Y88900D03*
D19*
X419100Y330200D03*
X419100Y355600D03*
X419100Y381000D03*
D20*
X354900Y237910D02*
X354900Y219290D01*
X375590Y209600D02*
X394210Y209600D01*
X394210Y247600D02*
X375590Y247600D01*
D15*
X165100Y334090D02*
X165100Y351710D01*
X190500Y351710D02*
X190500Y334090D01*
D21*
X109538Y141288D02*
X60325Y92075D01*
X109538Y141288D02*
X139700Y171450D01*
X60325Y92075D02*
X60325Y85725D01*
X165100Y333375D02*
X165100Y342900D01*
X128588Y296863D02*
X92075Y260350D01*
X128588Y296863D02*
X165100Y333375D01*
X92075Y260350D02*
X82550Y260350D01*
X76200Y254000D01*
X419100Y279400D02*
X419100Y330200D01*
X419100Y279400D02*
X387350Y247650D01*
X384900Y247600D01*
X304800Y88900D02*
X349250Y44450D01*
X361950Y44450D01*
X393700Y76200D01*
X215900Y177800D02*
X196850Y196850D01*
X196850Y234950D01*
X215900Y254000D01*
X279400Y317500D02*
X279400Y368300D01*
X279400Y317500D02*
X215900Y254000D01*
X390525Y142875D02*
X390525Y76200D01*
X312738Y220663D02*
X285750Y247650D01*
X312738Y220663D02*
X390525Y142875D01*
X285750Y247650D02*
X215900Y177800D01*
X390525Y76200D02*
X393700Y76200D01*
X384175Y247650D02*
X361950Y269875D01*
X312738Y220663D01*
X384175Y247650D02*
X384900Y247600D01*
X165100Y342900D02*
X165100Y349250D01*
X184150Y368300D01*
X231775Y368300D01*
X247650Y384175D01*
X263525Y384175D01*
X279400Y368300D01*
X109538Y141288D02*
X34925Y215900D01*
X34925Y263525D01*
X47625Y276225D01*
X47625Y285750D01*
X60325Y298450D01*
X127000Y298450D01*
X128588Y296863D01*
X288925Y381000D02*
X419100Y381000D01*
X288925Y381000D02*
X257175Y412750D01*
X158750Y412750D01*
X34925Y288925D01*
X34925Y279400D01*
X22225Y266700D01*
X22225Y73025D01*
X76200Y19050D01*
X393700Y19050D01*
X434975Y60325D01*
X434975Y127000D01*
X342900Y219075D01*
X352425Y228600D01*
X354900Y228600D01*
X342900Y88900D02*
X327025Y88900D01*
X276225Y139700D01*
X247650Y111125D01*
X209550Y111125D01*
X196850Y98425D01*
X180975Y98425D01*
X141288Y138113D02*
X139700Y139700D01*
X141288Y138113D02*
X180975Y98425D01*
X139700Y139700D02*
X76200Y76200D01*
X165100Y203200D02*
X139700Y228600D01*
X165100Y203200D02*
X165100Y161925D01*
X141288Y138113D01*
X76200Y279400D02*
X66675Y279400D01*
X47625Y260350D01*
X47625Y222250D01*
X92075Y177800D01*
X139700Y225425D01*
X139700Y228600D01*
X139700Y254000D02*
X177800Y215900D01*
X177800Y127000D01*
X190500Y114300D01*
X200025Y127000D02*
X241300Y127000D01*
X200025Y127000D02*
X190500Y117475D01*
X190500Y114300D01*
X254000Y165100D02*
X304800Y165100D01*
X254000Y165100D02*
X241300Y152400D01*
X149225Y114300D02*
X139700Y114300D01*
X149225Y114300D02*
X231775Y31750D01*
X381000Y31750D01*
X409575Y60325D01*
X409575Y66675D01*
X419100Y76200D01*
X190500Y333375D02*
X190500Y342900D01*
X190500Y333375D02*
X92075Y234950D01*
X82550Y234950D01*
X76200Y228600D01*
D22*
X327025Y165100D02*
X342900Y165100D01*
X327025Y165100D02*
X276225Y215900D01*
X222250Y161925D01*
X209550Y161925D01*
X187325Y184150D01*
X187325Y301625D01*
X254000Y368300D01*
X342900Y355600D02*
X215900Y228600D01*
X342900Y355600D02*
X419100Y355600D01*
M02*
