G04 EAGLE Gerber RS-274X export*
G75*
%MOMM*%
%FSLAX34Y34*%
%LPD*%
%INTop Copper*%
%IPPOS*%
%AMOC8*
5,1,8,0,0,1.08239X$1,22.5*%
G01*
%ADD10C,1.676400*%
%ADD11P,1.732040X8X112.500000*%
%ADD12P,1.732040X8X202.500000*%
%ADD13C,1.320800*%
%ADD14C,1.508000*%
%ADD15P,1.429621X8X22.500000*%
%ADD16P,1.429621X8X112.500000*%
%ADD17P,1.429621X8X292.500000*%
%ADD18C,1.117600*%
%ADD19C,1.650000*%


D10*
X84582Y228600D02*
X67818Y228600D01*
X67818Y254000D02*
X84582Y254000D01*
X84582Y279400D02*
X67818Y279400D01*
D11*
X241300Y127000D03*
X241300Y152400D03*
D12*
X190500Y114300D03*
X139700Y114300D03*
D13*
X139700Y254000D03*
X139700Y228600D03*
X215900Y228600D03*
X215900Y254000D03*
X139700Y203200D03*
X139700Y177800D03*
X215900Y203200D03*
X215900Y177800D03*
D14*
X50800Y83740D02*
X50800Y68660D01*
X76200Y68660D02*
X76200Y83740D01*
D15*
X254000Y368300D03*
X279400Y368300D03*
D14*
X393700Y83740D02*
X393700Y68660D01*
X419100Y68660D02*
X419100Y83740D01*
D16*
X304800Y88900D03*
X304800Y165100D03*
D17*
X342900Y165100D03*
X342900Y88900D03*
D18*
X419100Y330200D03*
X419100Y355600D03*
X419100Y381000D03*
D19*
X354900Y236850D02*
X354900Y220350D01*
X376650Y209600D02*
X393150Y209600D01*
X393150Y247600D02*
X376650Y247600D01*
D14*
X165100Y335360D02*
X165100Y350440D01*
X190500Y350440D02*
X190500Y335360D01*
M02*
