M48
INCH
T01C0.0300
T02C0.0400
T03C0.0450
T04C0.0650
%
T01
X-012500Y-001250
X-020500Y-000250
X-020500Y+000537
X-001000Y-000250
X-001000Y+000537
T02
X-011500Y-001250
X-010500Y-001250
X-009500Y-001250
X-009500Y+001750
X-010500Y+001750
X-011500Y+001750
X-012500Y+001750
X-013750Y-005250
X-012750Y-005250
X-008750Y-005250
X-007750Y-005250
X-004000Y-003500
X-004000Y-002500
X-004000Y-001500
X-004500Y+005250
X-004500Y+003250
X-004500Y+004250
T03
X-015250Y-003000
X-019250Y-003000
T04
X+001250Y+006750
X+001250Y+003000
M30
