G04 EAGLE Gerber RS-274X export*
G75*
%MOMM*%
%FSLAX34Y34*%
%LPD*%
%INBottom Copper*%
%IPPOS*%
%AMOC8*
5,1,8,0,0,1.08239X$1,22.5*%
G01*
%ADD10C,0.076200*%
%ADD11P,1.732040X8X202.500000*%
%ADD12P,1.732040X8X22.500000*%
%ADD13C,1.524000*%
%ADD14P,1.429621X8X22.500000*%
%ADD15C,1.508000*%
%ADD16C,0.381000*%
%ADD17C,0.756400*%

G36*
X530801Y22868D02*
X530801Y22868D01*
X530868Y22865D01*
X530995Y22887D01*
X531123Y22901D01*
X531186Y22921D01*
X531252Y22932D01*
X531371Y22980D01*
X531494Y23019D01*
X531552Y23051D01*
X531614Y23076D01*
X531721Y23147D01*
X531834Y23210D01*
X531884Y23254D01*
X531940Y23290D01*
X532031Y23381D01*
X532128Y23466D01*
X532168Y23519D01*
X532215Y23566D01*
X532285Y23674D01*
X532363Y23777D01*
X532391Y23837D01*
X532428Y23893D01*
X532475Y24013D01*
X532530Y24129D01*
X532546Y24194D01*
X532570Y24256D01*
X532582Y24342D01*
X532622Y24508D01*
X532627Y24678D01*
X532639Y24765D01*
X532639Y178855D01*
X532636Y178888D01*
X532638Y178921D01*
X532616Y179082D01*
X532599Y179243D01*
X532589Y179274D01*
X532585Y179307D01*
X532530Y179460D01*
X532481Y179614D01*
X532465Y179643D01*
X532454Y179674D01*
X532370Y179812D01*
X532290Y179954D01*
X532268Y179979D01*
X532251Y180007D01*
X532140Y180125D01*
X532034Y180247D01*
X532007Y180267D01*
X531985Y180292D01*
X531852Y180385D01*
X531723Y180483D01*
X531693Y180497D01*
X531666Y180516D01*
X531517Y180580D01*
X531371Y180650D01*
X531339Y180658D01*
X531308Y180671D01*
X531149Y180703D01*
X530992Y180742D01*
X530959Y180743D01*
X530926Y180749D01*
X530764Y180749D01*
X530602Y180754D01*
X530570Y180749D01*
X530536Y180749D01*
X530378Y180715D01*
X530218Y180688D01*
X530188Y180675D01*
X530155Y180669D01*
X530006Y180604D01*
X529856Y180544D01*
X529828Y180526D01*
X529798Y180512D01*
X529731Y180462D01*
X529531Y180330D01*
X529447Y180245D01*
X529389Y180201D01*
X522766Y173579D01*
X522724Y173528D01*
X522676Y173482D01*
X522602Y173377D01*
X522520Y173277D01*
X522490Y173218D01*
X522452Y173163D01*
X522400Y173045D01*
X522341Y172931D01*
X522323Y172867D01*
X522297Y172806D01*
X522271Y172679D01*
X522236Y172555D01*
X522232Y172489D01*
X522218Y172424D01*
X522219Y172295D01*
X522210Y172166D01*
X522219Y172101D01*
X522219Y172034D01*
X522246Y171908D01*
X522263Y171780D01*
X522285Y171718D01*
X522299Y171653D01*
X522351Y171534D01*
X522394Y171413D01*
X522429Y171356D01*
X522455Y171295D01*
X522508Y171226D01*
X522597Y171080D01*
X522713Y170956D01*
X522766Y170886D01*
X523373Y170280D01*
X524765Y166919D01*
X524765Y163281D01*
X523373Y159920D01*
X520800Y157347D01*
X517439Y155955D01*
X498561Y155955D01*
X495200Y157347D01*
X492627Y159920D01*
X492500Y160227D01*
X492477Y160271D01*
X492460Y160318D01*
X492384Y160442D01*
X492315Y160570D01*
X492283Y160608D01*
X492257Y160651D01*
X492158Y160757D01*
X492064Y160868D01*
X492025Y160899D01*
X491991Y160935D01*
X491872Y161019D01*
X491757Y161109D01*
X491713Y161131D01*
X491672Y161160D01*
X491538Y161217D01*
X491408Y161282D01*
X491360Y161295D01*
X491314Y161314D01*
X491172Y161344D01*
X491031Y161380D01*
X490981Y161383D01*
X490932Y161393D01*
X490787Y161393D01*
X490642Y161400D01*
X490592Y161392D01*
X490542Y161392D01*
X490400Y161362D01*
X490256Y161340D01*
X490210Y161322D01*
X490161Y161312D01*
X490028Y161254D01*
X489892Y161203D01*
X489849Y161176D01*
X489804Y161156D01*
X489733Y161102D01*
X489562Y160994D01*
X489459Y160894D01*
X489394Y160845D01*
X448606Y120056D01*
X446972Y119379D01*
X440780Y119379D01*
X440681Y119369D01*
X440582Y119369D01*
X440488Y119349D01*
X440393Y119339D01*
X440298Y119309D01*
X440200Y119289D01*
X440112Y119250D01*
X440021Y119221D01*
X439934Y119172D01*
X439843Y119133D01*
X439785Y119089D01*
X439681Y119030D01*
X439500Y118872D01*
X439434Y118822D01*
X434489Y113877D01*
X434427Y113800D01*
X434356Y113730D01*
X434304Y113649D01*
X434244Y113575D01*
X434198Y113487D01*
X434143Y113403D01*
X434108Y113314D01*
X434064Y113229D01*
X434037Y113133D01*
X434001Y113040D01*
X433991Y112968D01*
X433959Y112853D01*
X433943Y112613D01*
X433932Y112531D01*
X433932Y111657D01*
X433124Y109706D01*
X431631Y108214D01*
X429681Y107406D01*
X427569Y107406D01*
X426179Y107982D01*
X426131Y107996D01*
X426086Y108017D01*
X425945Y108052D01*
X425805Y108093D01*
X425756Y108098D01*
X425707Y108109D01*
X425562Y108114D01*
X425417Y108127D01*
X425367Y108121D01*
X425317Y108122D01*
X425174Y108097D01*
X425030Y108080D01*
X424983Y108064D01*
X424933Y108055D01*
X424798Y108002D01*
X424660Y107955D01*
X424617Y107930D01*
X424571Y107912D01*
X424450Y107832D01*
X424324Y107758D01*
X424287Y107725D01*
X424245Y107697D01*
X424143Y107594D01*
X424035Y107497D01*
X424006Y107457D01*
X423970Y107421D01*
X423891Y107299D01*
X423805Y107182D01*
X423785Y107137D01*
X423757Y107095D01*
X423704Y106960D01*
X423644Y106827D01*
X423633Y106778D01*
X423615Y106732D01*
X423603Y106644D01*
X423559Y106447D01*
X423557Y106304D01*
X423546Y106223D01*
X423546Y86014D01*
X423556Y85915D01*
X423556Y85816D01*
X423576Y85722D01*
X423586Y85627D01*
X423616Y85532D01*
X423636Y85434D01*
X423675Y85347D01*
X423704Y85255D01*
X423753Y85168D01*
X423792Y85077D01*
X423837Y85019D01*
X423895Y84915D01*
X424053Y84734D01*
X424103Y84668D01*
X428626Y80146D01*
X428626Y72254D01*
X423046Y66674D01*
X415154Y66674D01*
X409574Y72254D01*
X409574Y80146D01*
X414097Y84668D01*
X414159Y84745D01*
X414230Y84816D01*
X414282Y84896D01*
X414342Y84970D01*
X414388Y85059D01*
X414443Y85142D01*
X414478Y85231D01*
X414522Y85316D01*
X414549Y85412D01*
X414585Y85505D01*
X414595Y85577D01*
X414627Y85692D01*
X414643Y85932D01*
X414654Y86014D01*
X414654Y115184D01*
X415331Y116818D01*
X424420Y125908D01*
X424441Y125933D01*
X424466Y125955D01*
X424564Y126084D01*
X424666Y126210D01*
X424682Y126239D01*
X424702Y126266D01*
X424771Y126412D01*
X424846Y126556D01*
X424854Y126588D01*
X424869Y126618D01*
X424907Y126775D01*
X424951Y126931D01*
X424953Y126965D01*
X424961Y126997D01*
X424966Y127159D01*
X424977Y127320D01*
X424972Y127353D01*
X424973Y127387D01*
X424946Y127546D01*
X424924Y127706D01*
X424912Y127738D01*
X424907Y127771D01*
X424847Y127921D01*
X424793Y128074D01*
X424775Y128102D01*
X424763Y128133D01*
X424674Y128268D01*
X424590Y128406D01*
X424567Y128431D01*
X424549Y128459D01*
X424434Y128573D01*
X424323Y128691D01*
X424296Y128710D01*
X424273Y128734D01*
X424137Y128822D01*
X424005Y128915D01*
X423974Y128928D01*
X423946Y128947D01*
X423795Y129006D01*
X423647Y129070D01*
X423614Y129077D01*
X423583Y129089D01*
X423501Y129100D01*
X423265Y129149D01*
X423146Y129148D01*
X423074Y129158D01*
X421131Y129158D01*
X421131Y137669D01*
X429642Y137669D01*
X429642Y135726D01*
X429645Y135693D01*
X429643Y135660D01*
X429665Y135499D01*
X429682Y135338D01*
X429692Y135307D01*
X429696Y135274D01*
X429751Y135121D01*
X429800Y134967D01*
X429816Y134938D01*
X429827Y134907D01*
X429911Y134769D01*
X429991Y134627D01*
X430013Y134602D01*
X430030Y134574D01*
X430141Y134456D01*
X430247Y134334D01*
X430274Y134314D01*
X430296Y134289D01*
X430429Y134196D01*
X430558Y134098D01*
X430588Y134084D01*
X430615Y134065D01*
X430764Y134001D01*
X430910Y133931D01*
X430943Y133923D01*
X430973Y133910D01*
X431132Y133878D01*
X431289Y133839D01*
X431322Y133838D01*
X431355Y133832D01*
X431517Y133832D01*
X431679Y133827D01*
X431711Y133832D01*
X431745Y133832D01*
X431903Y133866D01*
X432063Y133893D01*
X432094Y133906D01*
X432126Y133912D01*
X432274Y133977D01*
X432425Y134037D01*
X432453Y134055D01*
X432483Y134069D01*
X432550Y134119D01*
X432751Y134251D01*
X432834Y134336D01*
X432892Y134380D01*
X434417Y135904D01*
X434479Y135981D01*
X434550Y136051D01*
X434602Y136132D01*
X434662Y136206D01*
X434708Y136294D01*
X434763Y136378D01*
X434798Y136467D01*
X434842Y136552D01*
X434869Y136648D01*
X434905Y136741D01*
X434915Y136813D01*
X434947Y136928D01*
X434963Y137168D01*
X434974Y137250D01*
X434974Y143646D01*
X440554Y149226D01*
X448446Y149226D01*
X454026Y143646D01*
X454026Y142648D01*
X454029Y142615D01*
X454027Y142581D01*
X454049Y142421D01*
X454066Y142260D01*
X454076Y142228D01*
X454080Y142195D01*
X454135Y142043D01*
X454184Y141888D01*
X454200Y141859D01*
X454211Y141828D01*
X454295Y141690D01*
X454375Y141549D01*
X454397Y141524D01*
X454414Y141495D01*
X454525Y141377D01*
X454631Y141255D01*
X454658Y141235D01*
X454680Y141211D01*
X454813Y141117D01*
X454942Y141020D01*
X454972Y141006D01*
X454999Y140986D01*
X455148Y140922D01*
X455294Y140853D01*
X455326Y140845D01*
X455357Y140832D01*
X455516Y140799D01*
X455673Y140761D01*
X455706Y140760D01*
X455739Y140753D01*
X455901Y140753D01*
X456063Y140748D01*
X456095Y140754D01*
X456129Y140754D01*
X456287Y140787D01*
X456447Y140815D01*
X456477Y140827D01*
X456510Y140834D01*
X456659Y140899D01*
X456809Y140958D01*
X456837Y140977D01*
X456867Y140990D01*
X456934Y141041D01*
X457134Y141173D01*
X457218Y141257D01*
X457276Y141301D01*
X483947Y167971D01*
X484009Y168048D01*
X484080Y168119D01*
X484132Y168199D01*
X484192Y168274D01*
X484238Y168362D01*
X484293Y168445D01*
X484328Y168535D01*
X484372Y168620D01*
X484399Y168716D01*
X484435Y168808D01*
X484445Y168881D01*
X484477Y168995D01*
X484493Y169235D01*
X484504Y169318D01*
X484504Y172334D01*
X485181Y173968D01*
X493234Y182021D01*
X493276Y182072D01*
X493324Y182118D01*
X493398Y182223D01*
X493480Y182323D01*
X493510Y182382D01*
X493548Y182437D01*
X493600Y182555D01*
X493659Y182669D01*
X493677Y182733D01*
X493703Y182794D01*
X493729Y182921D01*
X493764Y183045D01*
X493768Y183111D01*
X493782Y183176D01*
X493781Y183305D01*
X493790Y183434D01*
X493781Y183499D01*
X493781Y183566D01*
X493754Y183692D01*
X493737Y183820D01*
X493715Y183882D01*
X493701Y183947D01*
X493649Y184066D01*
X493606Y184187D01*
X493571Y184244D01*
X493545Y184305D01*
X493492Y184374D01*
X493403Y184520D01*
X493287Y184644D01*
X493234Y184714D01*
X492627Y185320D01*
X491235Y188681D01*
X491235Y192319D01*
X492627Y195680D01*
X495200Y198253D01*
X498561Y199645D01*
X517439Y199645D01*
X519971Y198596D01*
X520019Y198582D01*
X520064Y198560D01*
X520205Y198526D01*
X520345Y198484D01*
X520394Y198480D01*
X520443Y198468D01*
X520588Y198464D01*
X520733Y198451D01*
X520783Y198457D01*
X520833Y198456D01*
X520976Y198480D01*
X521120Y198498D01*
X521167Y198514D01*
X521217Y198522D01*
X521352Y198576D01*
X521490Y198622D01*
X521533Y198648D01*
X521579Y198666D01*
X521700Y198746D01*
X521826Y198819D01*
X521863Y198853D01*
X521905Y198880D01*
X522007Y198983D01*
X522115Y199081D01*
X522144Y199121D01*
X522180Y199156D01*
X522259Y199278D01*
X522345Y199396D01*
X522365Y199441D01*
X522393Y199483D01*
X522446Y199618D01*
X522506Y199751D01*
X522517Y199799D01*
X522535Y199846D01*
X522547Y199934D01*
X522591Y200131D01*
X522593Y200274D01*
X522604Y200355D01*
X522604Y206045D01*
X522599Y206094D01*
X522602Y206144D01*
X522579Y206288D01*
X522564Y206433D01*
X522549Y206480D01*
X522542Y206529D01*
X522490Y206666D01*
X522446Y206804D01*
X522422Y206848D01*
X522404Y206894D01*
X522327Y207017D01*
X522255Y207144D01*
X522222Y207181D01*
X522196Y207223D01*
X522094Y207328D01*
X521999Y207437D01*
X521959Y207468D01*
X521924Y207503D01*
X521804Y207585D01*
X521688Y207673D01*
X521643Y207694D01*
X521602Y207722D01*
X521467Y207778D01*
X521336Y207840D01*
X521287Y207852D01*
X521241Y207871D01*
X521098Y207897D01*
X520957Y207932D01*
X520907Y207933D01*
X520858Y207943D01*
X520713Y207940D01*
X520567Y207944D01*
X520518Y207936D01*
X520468Y207935D01*
X520382Y207912D01*
X520183Y207878D01*
X520050Y207825D01*
X519971Y207804D01*
X517439Y206755D01*
X498561Y206755D01*
X495200Y208147D01*
X492451Y210897D01*
X492374Y210959D01*
X492303Y211030D01*
X492223Y211082D01*
X492148Y211142D01*
X492060Y211188D01*
X491977Y211243D01*
X491887Y211278D01*
X491802Y211322D01*
X491706Y211349D01*
X491614Y211385D01*
X491541Y211395D01*
X491427Y211427D01*
X491187Y211443D01*
X491104Y211454D01*
X480468Y211454D01*
X480369Y211444D01*
X480269Y211444D01*
X480175Y211424D01*
X480080Y211414D01*
X479985Y211384D01*
X479888Y211364D01*
X479800Y211325D01*
X479708Y211296D01*
X479622Y211247D01*
X479530Y211208D01*
X479472Y211163D01*
X479369Y211105D01*
X479187Y210947D01*
X479121Y210897D01*
X421717Y153492D01*
X421696Y153467D01*
X421671Y153445D01*
X421573Y153315D01*
X421471Y153190D01*
X421456Y153161D01*
X421436Y153134D01*
X421366Y152987D01*
X421292Y152844D01*
X421283Y152812D01*
X421269Y152782D01*
X421231Y152624D01*
X421187Y152469D01*
X421185Y152435D01*
X421177Y152403D01*
X421172Y152241D01*
X421161Y152080D01*
X421165Y152047D01*
X421164Y152013D01*
X421192Y151854D01*
X421214Y151694D01*
X421225Y151662D01*
X421231Y151629D01*
X421291Y151478D01*
X421345Y151326D01*
X421362Y151298D01*
X421374Y151267D01*
X421464Y151131D01*
X421548Y150994D01*
X421570Y150969D01*
X421589Y150941D01*
X421703Y150827D01*
X421814Y150709D01*
X421841Y150690D01*
X421865Y150666D01*
X422001Y150578D01*
X422133Y150485D01*
X422163Y150471D01*
X422191Y150453D01*
X422343Y150394D01*
X422491Y150330D01*
X422523Y150323D01*
X422554Y150311D01*
X422637Y150300D01*
X422872Y150251D01*
X422991Y150252D01*
X423064Y150242D01*
X423467Y150242D01*
X429642Y144067D01*
X429642Y141731D01*
X419227Y141731D01*
X419161Y141724D01*
X419095Y141727D01*
X418968Y141705D01*
X418839Y141691D01*
X418776Y141671D01*
X418711Y141660D01*
X418591Y141612D01*
X418468Y141573D01*
X418410Y141541D01*
X418348Y141516D01*
X418241Y141445D01*
X418128Y141382D01*
X418078Y141338D01*
X418023Y141302D01*
X417932Y141211D01*
X417835Y141126D01*
X417795Y141073D01*
X417771Y141050D01*
X417768Y141048D01*
X417677Y140956D01*
X417580Y140872D01*
X417540Y140819D01*
X417493Y140772D01*
X417423Y140664D01*
X417345Y140561D01*
X417317Y140501D01*
X417280Y140445D01*
X417233Y140325D01*
X417178Y140209D01*
X417162Y140144D01*
X417138Y140082D01*
X417126Y139995D01*
X417086Y139830D01*
X417081Y139660D01*
X417069Y139573D01*
X417069Y129158D01*
X414733Y129158D01*
X408558Y135333D01*
X408558Y135736D01*
X408555Y135769D01*
X408557Y135803D01*
X408535Y135963D01*
X408518Y136124D01*
X408508Y136156D01*
X408504Y136189D01*
X408449Y136341D01*
X408400Y136496D01*
X408384Y136525D01*
X408373Y136556D01*
X408289Y136694D01*
X408209Y136835D01*
X408187Y136860D01*
X408170Y136889D01*
X408059Y137007D01*
X407953Y137129D01*
X407926Y137149D01*
X407904Y137173D01*
X407771Y137267D01*
X407642Y137364D01*
X407612Y137378D01*
X407585Y137398D01*
X407436Y137462D01*
X407290Y137531D01*
X407258Y137539D01*
X407227Y137552D01*
X407068Y137585D01*
X406911Y137623D01*
X406878Y137624D01*
X406845Y137631D01*
X406683Y137631D01*
X406521Y137636D01*
X406489Y137630D01*
X406455Y137630D01*
X406297Y137597D01*
X406137Y137569D01*
X406107Y137557D01*
X406074Y137550D01*
X405925Y137485D01*
X405775Y137426D01*
X405747Y137407D01*
X405717Y137394D01*
X405650Y137343D01*
X405450Y137211D01*
X405366Y137127D01*
X405308Y137083D01*
X396153Y127928D01*
X396079Y127838D01*
X395999Y127754D01*
X395967Y127700D01*
X395907Y127626D01*
X395771Y127364D01*
X395740Y127310D01*
X395024Y125581D01*
X393531Y124089D01*
X391581Y123281D01*
X389469Y123281D01*
X387519Y124089D01*
X386026Y125581D01*
X385218Y127532D01*
X385218Y129643D01*
X386026Y131594D01*
X387519Y133086D01*
X389248Y133802D01*
X389350Y133858D01*
X389456Y133904D01*
X389506Y133942D01*
X389591Y133988D01*
X389817Y134178D01*
X389865Y134215D01*
X473801Y218150D01*
X473801Y218151D01*
X475319Y219669D01*
X476953Y220346D01*
X491104Y220346D01*
X491203Y220356D01*
X491303Y220356D01*
X491397Y220376D01*
X491492Y220386D01*
X491587Y220416D01*
X491684Y220436D01*
X491772Y220475D01*
X491864Y220504D01*
X491950Y220552D01*
X492042Y220592D01*
X492100Y220637D01*
X492203Y220695D01*
X492384Y220853D01*
X492451Y220903D01*
X494027Y222480D01*
X494069Y222531D01*
X494118Y222577D01*
X494192Y222682D01*
X494273Y222782D01*
X494304Y222841D01*
X494342Y222896D01*
X494393Y223014D01*
X494453Y223128D01*
X494470Y223193D01*
X494497Y223253D01*
X494523Y223380D01*
X494558Y223504D01*
X494562Y223570D01*
X494575Y223635D01*
X494575Y223764D01*
X494584Y223893D01*
X494575Y223958D01*
X494575Y224025D01*
X494548Y224151D01*
X494531Y224279D01*
X494508Y224341D01*
X494495Y224407D01*
X494443Y224525D01*
X494400Y224646D01*
X494365Y224703D01*
X494338Y224764D01*
X494285Y224833D01*
X494197Y224979D01*
X494080Y225103D01*
X494027Y225173D01*
X476554Y242647D01*
X476477Y242709D01*
X476406Y242780D01*
X476326Y242832D01*
X476251Y242892D01*
X476163Y242938D01*
X476080Y242993D01*
X475990Y243028D01*
X475905Y243072D01*
X475809Y243099D01*
X475717Y243135D01*
X475644Y243145D01*
X475530Y243177D01*
X475290Y243193D01*
X475207Y243204D01*
X304255Y243204D01*
X304222Y243201D01*
X304189Y243203D01*
X304028Y243181D01*
X303867Y243164D01*
X303836Y243154D01*
X303803Y243150D01*
X303650Y243095D01*
X303496Y243046D01*
X303467Y243030D01*
X303436Y243019D01*
X303297Y242935D01*
X303156Y242855D01*
X303131Y242833D01*
X303103Y242816D01*
X302984Y242705D01*
X302863Y242599D01*
X302843Y242572D01*
X302818Y242550D01*
X302725Y242417D01*
X302627Y242288D01*
X302613Y242258D01*
X302594Y242231D01*
X302530Y242082D01*
X302460Y241936D01*
X302452Y241904D01*
X302439Y241873D01*
X302407Y241714D01*
X302368Y241557D01*
X302367Y241524D01*
X302361Y241491D01*
X302361Y241329D01*
X302356Y241167D01*
X302361Y241135D01*
X302361Y241101D01*
X302395Y240943D01*
X302422Y240783D01*
X302435Y240753D01*
X302441Y240720D01*
X302506Y240571D01*
X302566Y240421D01*
X302584Y240393D01*
X302598Y240363D01*
X302648Y240296D01*
X302780Y240096D01*
X302865Y240012D01*
X302909Y239954D01*
X321338Y221524D01*
X322856Y220006D01*
X323533Y218372D01*
X323533Y94458D01*
X323538Y94408D01*
X323536Y94359D01*
X323558Y94215D01*
X323573Y94070D01*
X323588Y94023D01*
X323596Y93973D01*
X323647Y93837D01*
X323691Y93699D01*
X323716Y93655D01*
X323733Y93609D01*
X323811Y93486D01*
X323882Y93359D01*
X323915Y93321D01*
X323942Y93279D01*
X324043Y93175D01*
X324139Y93065D01*
X324178Y93035D01*
X324213Y93000D01*
X324333Y92918D01*
X324449Y92830D01*
X324495Y92809D01*
X324536Y92781D01*
X324670Y92725D01*
X324802Y92663D01*
X324850Y92651D01*
X324896Y92632D01*
X325039Y92605D01*
X325180Y92571D01*
X325230Y92570D01*
X325279Y92560D01*
X325425Y92563D01*
X325570Y92558D01*
X325619Y92567D01*
X325669Y92568D01*
X325756Y92591D01*
X325954Y92625D01*
X326087Y92678D01*
X326166Y92699D01*
X327728Y93346D01*
X373161Y93346D01*
X373260Y93356D01*
X373360Y93356D01*
X373454Y93376D01*
X373549Y93386D01*
X373644Y93416D01*
X373741Y93436D01*
X373829Y93475D01*
X373920Y93504D01*
X374007Y93553D01*
X374098Y93592D01*
X374157Y93637D01*
X374260Y93695D01*
X374441Y93853D01*
X374508Y93903D01*
X377633Y97029D01*
X384367Y97029D01*
X389129Y92267D01*
X389129Y85533D01*
X384367Y80771D01*
X377633Y80771D01*
X374508Y83897D01*
X374431Y83959D01*
X374360Y84030D01*
X374280Y84082D01*
X374205Y84142D01*
X374117Y84188D01*
X374034Y84243D01*
X373944Y84278D01*
X373859Y84322D01*
X373763Y84349D01*
X373671Y84385D01*
X373598Y84395D01*
X373484Y84427D01*
X373244Y84443D01*
X373161Y84454D01*
X331243Y84454D01*
X331144Y84444D01*
X331044Y84444D01*
X330950Y84424D01*
X330855Y84414D01*
X330760Y84384D01*
X330663Y84364D01*
X330575Y84325D01*
X330483Y84296D01*
X330397Y84247D01*
X330305Y84208D01*
X330247Y84163D01*
X330144Y84105D01*
X329962Y83947D01*
X329896Y83897D01*
X307894Y61895D01*
X307852Y61843D01*
X307804Y61798D01*
X307729Y61692D01*
X307648Y61592D01*
X307618Y61533D01*
X307579Y61479D01*
X307528Y61360D01*
X307469Y61246D01*
X307451Y61182D01*
X307425Y61121D01*
X307399Y60995D01*
X307364Y60871D01*
X307360Y60804D01*
X307346Y60739D01*
X307346Y60610D01*
X307338Y60482D01*
X307347Y60416D01*
X307347Y60349D01*
X307373Y60223D01*
X307391Y60096D01*
X307413Y60033D01*
X307427Y59968D01*
X307479Y59850D01*
X307522Y59728D01*
X307556Y59672D01*
X307583Y59611D01*
X307636Y59541D01*
X307725Y59396D01*
X307841Y59271D01*
X307894Y59202D01*
X312929Y54167D01*
X312929Y47433D01*
X308167Y42671D01*
X301433Y42671D01*
X296398Y47706D01*
X296347Y47748D01*
X296302Y47796D01*
X296196Y47871D01*
X296096Y47952D01*
X296037Y47982D01*
X295983Y48021D01*
X295865Y48072D01*
X295750Y48131D01*
X295686Y48149D01*
X295625Y48175D01*
X295499Y48201D01*
X295375Y48236D01*
X295308Y48240D01*
X295243Y48254D01*
X295114Y48254D01*
X294986Y48262D01*
X294920Y48253D01*
X294853Y48253D01*
X294727Y48227D01*
X294600Y48209D01*
X294537Y48187D01*
X294472Y48173D01*
X294354Y48121D01*
X294232Y48078D01*
X294176Y48044D01*
X294115Y48017D01*
X294045Y47964D01*
X293900Y47875D01*
X293775Y47759D01*
X293705Y47706D01*
X288199Y42200D01*
X288199Y42199D01*
X286681Y40681D01*
X285047Y40004D01*
X80078Y40004D01*
X78444Y40681D01*
X60629Y58497D01*
X60552Y58559D01*
X60481Y58630D01*
X60401Y58682D01*
X60326Y58742D01*
X60238Y58788D01*
X60155Y58843D01*
X60065Y58878D01*
X59980Y58922D01*
X59884Y58949D01*
X59792Y58985D01*
X59719Y58995D01*
X59605Y59027D01*
X59365Y59043D01*
X59282Y59054D01*
X58639Y59054D01*
X58540Y59044D01*
X58440Y59044D01*
X58346Y59024D01*
X58251Y59014D01*
X58156Y58984D01*
X58059Y58964D01*
X57971Y58925D01*
X57880Y58896D01*
X57793Y58847D01*
X57702Y58808D01*
X57643Y58763D01*
X57540Y58705D01*
X57359Y58547D01*
X57292Y58497D01*
X54167Y55371D01*
X47433Y55371D01*
X42671Y60133D01*
X42671Y66867D01*
X47433Y71629D01*
X54167Y71629D01*
X57292Y68503D01*
X57369Y68441D01*
X57440Y68370D01*
X57520Y68318D01*
X57595Y68258D01*
X57683Y68212D01*
X57766Y68157D01*
X57856Y68122D01*
X57941Y68078D01*
X58037Y68051D01*
X58129Y68015D01*
X58202Y68005D01*
X58316Y67973D01*
X58556Y67957D01*
X58639Y67946D01*
X62797Y67946D01*
X64431Y67269D01*
X65105Y66594D01*
X65157Y66552D01*
X65202Y66504D01*
X65308Y66430D01*
X65408Y66348D01*
X65467Y66318D01*
X65521Y66279D01*
X65640Y66228D01*
X65754Y66169D01*
X65818Y66151D01*
X65879Y66125D01*
X66005Y66099D01*
X66129Y66064D01*
X66196Y66060D01*
X66261Y66046D01*
X66390Y66046D01*
X66518Y66038D01*
X66584Y66047D01*
X66651Y66047D01*
X66777Y66073D01*
X66904Y66091D01*
X66967Y66113D01*
X67032Y66127D01*
X67150Y66179D01*
X67272Y66222D01*
X67328Y66257D01*
X67389Y66283D01*
X67459Y66336D01*
X67604Y66425D01*
X67729Y66541D01*
X67798Y66594D01*
X72833Y71629D01*
X79567Y71629D01*
X84329Y66867D01*
X84329Y60133D01*
X79294Y55098D01*
X79252Y55047D01*
X79204Y55002D01*
X79130Y54896D01*
X79048Y54796D01*
X79018Y54737D01*
X78979Y54683D01*
X78928Y54564D01*
X78869Y54450D01*
X78851Y54386D01*
X78825Y54325D01*
X78799Y54199D01*
X78764Y54075D01*
X78760Y54008D01*
X78746Y53943D01*
X78746Y53814D01*
X78738Y53686D01*
X78747Y53620D01*
X78747Y53553D01*
X78773Y53427D01*
X78791Y53300D01*
X78813Y53237D01*
X78827Y53172D01*
X78879Y53054D01*
X78922Y52932D01*
X78957Y52876D01*
X78983Y52815D01*
X79036Y52745D01*
X79125Y52600D01*
X79241Y52475D01*
X79294Y52405D01*
X82246Y49453D01*
X82323Y49391D01*
X82394Y49320D01*
X82474Y49268D01*
X82549Y49208D01*
X82637Y49162D01*
X82720Y49107D01*
X82810Y49072D01*
X82895Y49028D01*
X82991Y49001D01*
X83083Y48965D01*
X83156Y48955D01*
X83270Y48923D01*
X83510Y48907D01*
X83593Y48896D01*
X156120Y48896D01*
X156153Y48899D01*
X156186Y48897D01*
X156347Y48919D01*
X156508Y48936D01*
X156539Y48946D01*
X156572Y48950D01*
X156725Y49005D01*
X156879Y49054D01*
X156908Y49070D01*
X156939Y49081D01*
X157078Y49165D01*
X157219Y49245D01*
X157244Y49267D01*
X157272Y49284D01*
X157391Y49395D01*
X157512Y49501D01*
X157532Y49528D01*
X157557Y49550D01*
X157650Y49683D01*
X157748Y49812D01*
X157762Y49842D01*
X157781Y49869D01*
X157845Y50018D01*
X157915Y50164D01*
X157923Y50196D01*
X157936Y50227D01*
X157968Y50386D01*
X158007Y50543D01*
X158008Y50576D01*
X158014Y50609D01*
X158014Y50771D01*
X158019Y50933D01*
X158014Y50965D01*
X158014Y50999D01*
X157980Y51157D01*
X157953Y51317D01*
X157940Y51347D01*
X157934Y51380D01*
X157869Y51529D01*
X157809Y51679D01*
X157791Y51707D01*
X157777Y51737D01*
X157727Y51804D01*
X157595Y52004D01*
X157511Y52088D01*
X157466Y52147D01*
X154799Y54814D01*
X154722Y54876D01*
X154651Y54947D01*
X154571Y54999D01*
X154497Y55059D01*
X154409Y55105D01*
X154325Y55160D01*
X154236Y55195D01*
X154151Y55239D01*
X154055Y55266D01*
X153962Y55302D01*
X153890Y55312D01*
X153775Y55344D01*
X153535Y55360D01*
X153453Y55371D01*
X149033Y55371D01*
X144271Y60133D01*
X144271Y66867D01*
X149033Y71629D01*
X155767Y71629D01*
X160529Y66867D01*
X160529Y62447D01*
X160539Y62348D01*
X160539Y62249D01*
X160559Y62155D01*
X160569Y62060D01*
X160599Y61965D01*
X160619Y61867D01*
X160658Y61779D01*
X160687Y61688D01*
X160736Y61601D01*
X160775Y61510D01*
X160820Y61452D01*
X160878Y61348D01*
X161036Y61167D01*
X161086Y61101D01*
X166384Y55803D01*
X166461Y55741D01*
X166532Y55670D01*
X166612Y55618D01*
X166686Y55558D01*
X166774Y55512D01*
X166858Y55457D01*
X166947Y55422D01*
X167032Y55378D01*
X167128Y55351D01*
X167221Y55315D01*
X167293Y55305D01*
X167408Y55273D01*
X167648Y55257D01*
X167730Y55246D01*
X204649Y55246D01*
X204682Y55249D01*
X204715Y55247D01*
X204876Y55269D01*
X205037Y55286D01*
X205068Y55296D01*
X205101Y55300D01*
X205254Y55355D01*
X205408Y55404D01*
X205437Y55420D01*
X205468Y55431D01*
X205607Y55516D01*
X205748Y55595D01*
X205773Y55617D01*
X205801Y55634D01*
X205919Y55745D01*
X206041Y55851D01*
X206061Y55878D01*
X206086Y55900D01*
X206179Y56033D01*
X206277Y56162D01*
X206291Y56192D01*
X206310Y56219D01*
X206374Y56368D01*
X206444Y56514D01*
X206452Y56546D01*
X206465Y56577D01*
X206497Y56736D01*
X206536Y56893D01*
X206537Y56926D01*
X206543Y56959D01*
X206543Y57121D01*
X206548Y57283D01*
X206543Y57315D01*
X206543Y57349D01*
X206509Y57507D01*
X206482Y57667D01*
X206469Y57697D01*
X206463Y57730D01*
X206397Y57879D01*
X206338Y58029D01*
X206320Y58057D01*
X206306Y58087D01*
X206256Y58154D01*
X206124Y58354D01*
X206039Y58438D01*
X205995Y58497D01*
X205358Y59133D01*
X205358Y61469D01*
X215773Y61469D01*
X215839Y61476D01*
X215905Y61473D01*
X216032Y61495D01*
X216161Y61509D01*
X216224Y61529D01*
X216289Y61540D01*
X216409Y61588D01*
X216532Y61627D01*
X216590Y61659D01*
X216652Y61684D01*
X216759Y61754D01*
X216872Y61818D01*
X216922Y61862D01*
X216977Y61898D01*
X217068Y61989D01*
X217165Y62074D01*
X217205Y62127D01*
X217252Y62174D01*
X217323Y62282D01*
X217401Y62385D01*
X217429Y62445D01*
X217465Y62501D01*
X217513Y62621D01*
X217568Y62737D01*
X217583Y62802D01*
X217608Y62864D01*
X217619Y62950D01*
X217660Y63116D01*
X217665Y63286D01*
X217677Y63373D01*
X217677Y63627D01*
X217670Y63693D01*
X217672Y63760D01*
X217650Y63887D01*
X217637Y64015D01*
X217617Y64078D01*
X217606Y64144D01*
X217558Y64263D01*
X217519Y64386D01*
X217486Y64444D01*
X217462Y64506D01*
X217391Y64613D01*
X217328Y64726D01*
X217284Y64776D01*
X217248Y64832D01*
X217156Y64923D01*
X217072Y65020D01*
X217019Y65060D01*
X216972Y65107D01*
X216864Y65177D01*
X216761Y65255D01*
X216701Y65283D01*
X216645Y65320D01*
X216525Y65367D01*
X216409Y65422D01*
X216344Y65438D01*
X216282Y65462D01*
X216195Y65474D01*
X216030Y65514D01*
X215860Y65519D01*
X215773Y65531D01*
X205358Y65531D01*
X205358Y67867D01*
X211533Y74042D01*
X211936Y74042D01*
X211969Y74045D01*
X212003Y74043D01*
X212163Y74065D01*
X212324Y74082D01*
X212356Y74092D01*
X212389Y74096D01*
X212541Y74151D01*
X212696Y74200D01*
X212725Y74216D01*
X212756Y74227D01*
X212894Y74311D01*
X213035Y74391D01*
X213060Y74413D01*
X213089Y74430D01*
X213207Y74541D01*
X213329Y74647D01*
X213349Y74674D01*
X213373Y74696D01*
X213467Y74829D01*
X213564Y74958D01*
X213578Y74988D01*
X213598Y75015D01*
X213662Y75164D01*
X213731Y75310D01*
X213739Y75342D01*
X213752Y75373D01*
X213785Y75532D01*
X213823Y75689D01*
X213824Y75722D01*
X213831Y75755D01*
X213831Y75917D01*
X213836Y76079D01*
X213830Y76111D01*
X213830Y76145D01*
X213797Y76303D01*
X213769Y76463D01*
X213757Y76493D01*
X213750Y76526D01*
X213685Y76675D01*
X213626Y76825D01*
X213607Y76853D01*
X213594Y76883D01*
X213543Y76950D01*
X213411Y77150D01*
X213327Y77234D01*
X213283Y77292D01*
X65574Y225002D01*
X65535Y225033D01*
X65502Y225070D01*
X65384Y225156D01*
X65271Y225248D01*
X65227Y225270D01*
X65187Y225300D01*
X65054Y225360D01*
X64925Y225427D01*
X64877Y225440D01*
X64832Y225461D01*
X64690Y225493D01*
X64550Y225532D01*
X64500Y225535D01*
X64451Y225546D01*
X64306Y225548D01*
X64161Y225558D01*
X64111Y225551D01*
X64062Y225552D01*
X63919Y225525D01*
X63775Y225505D01*
X63728Y225488D01*
X63679Y225479D01*
X63545Y225423D01*
X63408Y225374D01*
X63365Y225348D01*
X63319Y225329D01*
X63199Y225247D01*
X63075Y225171D01*
X63038Y225137D01*
X62997Y225109D01*
X62897Y225004D01*
X62790Y224905D01*
X62761Y224864D01*
X62727Y224828D01*
X62682Y224751D01*
X62566Y224586D01*
X62509Y224454D01*
X62468Y224384D01*
X61425Y221865D01*
X58875Y219315D01*
X55543Y217935D01*
X36857Y217935D01*
X33525Y219315D01*
X30975Y221865D01*
X29595Y225197D01*
X29595Y228803D01*
X30975Y232135D01*
X33525Y234685D01*
X36857Y236065D01*
X55543Y236065D01*
X58009Y235043D01*
X58057Y235029D01*
X58102Y235008D01*
X58243Y234973D01*
X58382Y234932D01*
X58432Y234928D01*
X58480Y234916D01*
X58626Y234911D01*
X58771Y234899D01*
X58820Y234905D01*
X58870Y234903D01*
X59013Y234928D01*
X59158Y234945D01*
X59205Y234961D01*
X59254Y234970D01*
X59389Y235023D01*
X59527Y235070D01*
X59570Y235095D01*
X59616Y235113D01*
X59737Y235193D01*
X59863Y235267D01*
X59900Y235300D01*
X59942Y235328D01*
X60045Y235431D01*
X60152Y235528D01*
X60182Y235569D01*
X60217Y235604D01*
X60297Y235726D01*
X60382Y235843D01*
X60403Y235889D01*
X60430Y235930D01*
X60483Y236066D01*
X60543Y236198D01*
X60554Y236247D01*
X60572Y236293D01*
X60584Y236382D01*
X60629Y236578D01*
X60631Y236722D01*
X60642Y236803D01*
X60642Y292984D01*
X61319Y294618D01*
X68919Y302219D01*
X70553Y302896D01*
X81847Y302896D01*
X83481Y302219D01*
X92327Y293373D01*
X92379Y293331D01*
X92424Y293282D01*
X92529Y293208D01*
X92629Y293127D01*
X92688Y293096D01*
X92743Y293058D01*
X92861Y293007D01*
X92976Y292947D01*
X93040Y292930D01*
X93101Y292903D01*
X93227Y292877D01*
X93351Y292842D01*
X93417Y292838D01*
X93482Y292825D01*
X93611Y292825D01*
X93740Y292816D01*
X93806Y292825D01*
X93872Y292825D01*
X93998Y292852D01*
X94126Y292869D01*
X94189Y292892D01*
X94254Y292905D01*
X94372Y292957D01*
X94493Y293000D01*
X94550Y293035D01*
X94611Y293062D01*
X94681Y293115D01*
X94826Y293203D01*
X94950Y293320D01*
X95020Y293373D01*
X96420Y294773D01*
X99781Y296165D01*
X103419Y296165D01*
X106780Y294773D01*
X107386Y294166D01*
X107438Y294125D01*
X107483Y294076D01*
X107589Y294002D01*
X107689Y293920D01*
X107748Y293890D01*
X107802Y293852D01*
X107920Y293801D01*
X108035Y293741D01*
X108099Y293723D01*
X108160Y293697D01*
X108286Y293671D01*
X108410Y293636D01*
X108476Y293632D01*
X108542Y293618D01*
X108670Y293619D01*
X108799Y293610D01*
X108865Y293619D01*
X108931Y293619D01*
X109058Y293646D01*
X109185Y293663D01*
X109248Y293686D01*
X109313Y293699D01*
X109431Y293751D01*
X109552Y293794D01*
X109609Y293829D01*
X109670Y293855D01*
X109740Y293908D01*
X109885Y293997D01*
X110010Y294113D01*
X110079Y294166D01*
X116613Y300700D01*
X118132Y302219D01*
X119766Y302896D01*
X235834Y302896D01*
X237468Y302219D01*
X245521Y294166D01*
X245572Y294124D01*
X245618Y294076D01*
X245723Y294002D01*
X245823Y293920D01*
X245882Y293890D01*
X245937Y293852D01*
X246055Y293800D01*
X246169Y293741D01*
X246233Y293723D01*
X246294Y293697D01*
X246421Y293671D01*
X246545Y293636D01*
X246611Y293632D01*
X246676Y293618D01*
X246805Y293619D01*
X246934Y293610D01*
X246999Y293619D01*
X247066Y293619D01*
X247192Y293646D01*
X247320Y293663D01*
X247382Y293685D01*
X247447Y293699D01*
X247566Y293751D01*
X247687Y293794D01*
X247744Y293829D01*
X247805Y293855D01*
X247874Y293908D01*
X248020Y293997D01*
X248144Y294113D01*
X248214Y294166D01*
X248820Y294773D01*
X252181Y296165D01*
X255819Y296165D01*
X259180Y294773D01*
X261753Y292200D01*
X263145Y288839D01*
X263145Y269961D01*
X261753Y266600D01*
X259180Y264027D01*
X255819Y262635D01*
X252181Y262635D01*
X248820Y264027D01*
X246247Y266600D01*
X244855Y269961D01*
X244855Y281469D01*
X244845Y281568D01*
X244845Y281667D01*
X244825Y281761D01*
X244815Y281856D01*
X244785Y281951D01*
X244765Y282049D01*
X244726Y282137D01*
X244697Y282228D01*
X244648Y282315D01*
X244609Y282406D01*
X244565Y282464D01*
X244506Y282568D01*
X244348Y282749D01*
X244298Y282815D01*
X240995Y286117D01*
X240970Y286138D01*
X240948Y286163D01*
X240819Y286261D01*
X240693Y286363D01*
X240664Y286379D01*
X240637Y286399D01*
X240491Y286468D01*
X240347Y286543D01*
X240315Y286551D01*
X240285Y286566D01*
X240128Y286604D01*
X239972Y286648D01*
X239938Y286650D01*
X239906Y286658D01*
X239744Y286663D01*
X239583Y286674D01*
X239550Y286669D01*
X239516Y286670D01*
X239357Y286643D01*
X239197Y286621D01*
X239165Y286609D01*
X239132Y286604D01*
X238982Y286544D01*
X238829Y286490D01*
X238801Y286472D01*
X238770Y286460D01*
X238635Y286371D01*
X238497Y286287D01*
X238472Y286264D01*
X238444Y286246D01*
X238330Y286131D01*
X238212Y286020D01*
X238193Y285993D01*
X238169Y285970D01*
X238081Y285834D01*
X237988Y285702D01*
X237975Y285671D01*
X237956Y285643D01*
X237897Y285492D01*
X237833Y285344D01*
X237826Y285311D01*
X237814Y285280D01*
X237803Y285198D01*
X237754Y284962D01*
X237755Y284843D01*
X237745Y284771D01*
X237745Y269961D01*
X236353Y266600D01*
X233780Y264027D01*
X230419Y262635D01*
X226781Y262635D01*
X226154Y262895D01*
X226106Y262909D01*
X226061Y262931D01*
X225920Y262965D01*
X225780Y263007D01*
X225730Y263011D01*
X225682Y263023D01*
X225537Y263027D01*
X225392Y263040D01*
X225342Y263034D01*
X225292Y263035D01*
X225149Y263011D01*
X225005Y262993D01*
X224958Y262977D01*
X224908Y262969D01*
X224773Y262915D01*
X224635Y262869D01*
X224592Y262843D01*
X224546Y262825D01*
X224425Y262745D01*
X224299Y262672D01*
X224262Y262638D01*
X224220Y262611D01*
X224118Y262508D01*
X224010Y262410D01*
X223981Y262370D01*
X223945Y262335D01*
X223866Y262213D01*
X223780Y262095D01*
X223760Y262050D01*
X223732Y262008D01*
X223679Y261873D01*
X223619Y261740D01*
X223608Y261692D01*
X223590Y261645D01*
X223578Y261557D01*
X223534Y261360D01*
X223532Y261217D01*
X223521Y261136D01*
X223521Y216238D01*
X223522Y216221D01*
X223521Y216205D01*
X223542Y216027D01*
X223561Y215850D01*
X223566Y215834D01*
X223568Y215818D01*
X223625Y215648D01*
X223679Y215479D01*
X223687Y215464D01*
X223692Y215448D01*
X223782Y215294D01*
X223870Y215139D01*
X223881Y215126D01*
X223889Y215112D01*
X224009Y214979D01*
X224126Y214845D01*
X224139Y214835D01*
X224151Y214823D01*
X224295Y214718D01*
X224437Y214610D01*
X224452Y214603D01*
X224465Y214593D01*
X224628Y214519D01*
X224789Y214443D01*
X224805Y214439D01*
X224821Y214432D01*
X224996Y214393D01*
X225168Y214351D01*
X225184Y214351D01*
X225201Y214347D01*
X225380Y214344D01*
X225558Y214338D01*
X225574Y214341D01*
X225591Y214341D01*
X225766Y214375D01*
X225942Y214405D01*
X225957Y214411D01*
X225973Y214414D01*
X226139Y214483D01*
X226304Y214549D01*
X226318Y214558D01*
X226333Y214564D01*
X226481Y214665D01*
X226629Y214763D01*
X226641Y214775D01*
X226655Y214784D01*
X226779Y214913D01*
X226905Y215039D01*
X226914Y215053D01*
X226925Y215065D01*
X226956Y215118D01*
X227118Y215366D01*
X227153Y215455D01*
X227184Y215509D01*
X227276Y215731D01*
X228769Y217224D01*
X230719Y218032D01*
X232907Y218032D01*
X233007Y218002D01*
X233057Y217997D01*
X233105Y217986D01*
X233250Y217981D01*
X233395Y217969D01*
X233445Y217975D01*
X233495Y217973D01*
X233638Y217998D01*
X233782Y218015D01*
X233830Y218031D01*
X233879Y218040D01*
X234014Y218093D01*
X234152Y218140D01*
X234195Y218165D01*
X234241Y218183D01*
X234363Y218263D01*
X234488Y218337D01*
X234525Y218370D01*
X234567Y218398D01*
X234670Y218501D01*
X234777Y218598D01*
X234807Y218638D01*
X234842Y218674D01*
X234922Y218796D01*
X235007Y218913D01*
X235028Y218958D01*
X235055Y219000D01*
X235108Y219135D01*
X235168Y219268D01*
X235179Y219317D01*
X235197Y219363D01*
X235209Y219452D01*
X235253Y219648D01*
X235256Y219791D01*
X235267Y219873D01*
X235267Y229145D01*
X235257Y229244D01*
X235256Y229343D01*
X235237Y229437D01*
X235227Y229532D01*
X235197Y229627D01*
X235176Y229725D01*
X235138Y229813D01*
X235109Y229904D01*
X235060Y229991D01*
X235020Y230082D01*
X234976Y230140D01*
X234918Y230244D01*
X234759Y230425D01*
X234709Y230491D01*
X231181Y234019D01*
X230504Y235653D01*
X230504Y243772D01*
X231181Y245406D01*
X237194Y251419D01*
X238828Y252096D01*
X478722Y252096D01*
X480356Y251419D01*
X488465Y243310D01*
X488503Y243279D01*
X488537Y243242D01*
X488654Y243156D01*
X488767Y243064D01*
X488811Y243041D01*
X488852Y243012D01*
X488984Y242952D01*
X489113Y242885D01*
X489161Y242872D01*
X489207Y242851D01*
X489348Y242819D01*
X489488Y242780D01*
X489538Y242777D01*
X489587Y242766D01*
X489732Y242763D01*
X489877Y242754D01*
X489927Y242760D01*
X489977Y242760D01*
X490119Y242787D01*
X490263Y242807D01*
X490311Y242824D01*
X490359Y242833D01*
X490494Y242889D01*
X490631Y242938D01*
X490673Y242964D01*
X490719Y242983D01*
X490839Y243065D01*
X490963Y243141D01*
X491000Y243175D01*
X491041Y243203D01*
X491142Y243308D01*
X491248Y243407D01*
X491277Y243448D01*
X491311Y243484D01*
X491356Y243561D01*
X491472Y243726D01*
X491529Y243857D01*
X491570Y243928D01*
X492627Y246480D01*
X495200Y249053D01*
X498561Y250445D01*
X517439Y250445D01*
X520800Y249053D01*
X523373Y246480D01*
X524765Y243119D01*
X524765Y239481D01*
X523373Y236120D01*
X521568Y234315D01*
X521536Y234276D01*
X521499Y234243D01*
X521414Y234126D01*
X521322Y234013D01*
X521299Y233968D01*
X521269Y233928D01*
X521209Y233796D01*
X521142Y233667D01*
X521129Y233618D01*
X521108Y233573D01*
X521077Y233431D01*
X521037Y233291D01*
X521034Y233241D01*
X521023Y233193D01*
X521021Y233047D01*
X521011Y232902D01*
X521018Y232853D01*
X521017Y232803D01*
X521045Y232660D01*
X521064Y232516D01*
X521081Y232469D01*
X521091Y232420D01*
X521147Y232286D01*
X521195Y232149D01*
X521221Y232106D01*
X521240Y232060D01*
X521323Y231940D01*
X521398Y231816D01*
X521432Y231780D01*
X521460Y231739D01*
X521565Y231638D01*
X521665Y231532D01*
X521705Y231503D01*
X521741Y231468D01*
X521819Y231423D01*
X521983Y231307D01*
X522115Y231250D01*
X522185Y231209D01*
X523218Y230781D01*
X529300Y224700D01*
X529300Y224699D01*
X529388Y224611D01*
X529414Y224590D01*
X529436Y224565D01*
X529565Y224468D01*
X529691Y224365D01*
X529720Y224350D01*
X529747Y224330D01*
X529893Y224260D01*
X530037Y224186D01*
X530069Y224177D01*
X530099Y224163D01*
X530256Y224125D01*
X530412Y224081D01*
X530445Y224079D01*
X530478Y224071D01*
X530640Y224066D01*
X530801Y224055D01*
X530834Y224059D01*
X530868Y224058D01*
X531027Y224086D01*
X531187Y224108D01*
X531219Y224119D01*
X531252Y224125D01*
X531402Y224184D01*
X531554Y224239D01*
X531583Y224256D01*
X531614Y224268D01*
X531749Y224357D01*
X531887Y224442D01*
X531912Y224464D01*
X531940Y224483D01*
X532054Y224597D01*
X532172Y224708D01*
X532191Y224735D01*
X532215Y224759D01*
X532303Y224894D01*
X532396Y225027D01*
X532409Y225057D01*
X532428Y225085D01*
X532487Y225236D01*
X532551Y225384D01*
X532558Y225417D01*
X532570Y225448D01*
X532581Y225531D01*
X532630Y225766D01*
X532629Y225885D01*
X532639Y225958D01*
X532639Y318035D01*
X532633Y318097D01*
X532635Y318152D01*
X532634Y318154D01*
X532635Y318168D01*
X532613Y318295D01*
X532599Y318423D01*
X532579Y318486D01*
X532568Y318552D01*
X532520Y318671D01*
X532481Y318794D01*
X532449Y318852D01*
X532424Y318914D01*
X532353Y319021D01*
X532290Y319134D01*
X532246Y319184D01*
X532210Y319240D01*
X532119Y319331D01*
X532034Y319428D01*
X531981Y319468D01*
X531934Y319515D01*
X531826Y319585D01*
X531723Y319663D01*
X531663Y319691D01*
X531607Y319728D01*
X531487Y319775D01*
X531371Y319830D01*
X531306Y319846D01*
X531244Y319870D01*
X531158Y319882D01*
X530992Y319922D01*
X530822Y319927D01*
X530735Y319939D01*
X498288Y319939D01*
X498255Y319936D01*
X498222Y319938D01*
X498061Y319916D01*
X497900Y319899D01*
X497868Y319889D01*
X497835Y319885D01*
X497683Y319830D01*
X497529Y319781D01*
X497500Y319765D01*
X497468Y319754D01*
X497330Y319669D01*
X497189Y319590D01*
X497164Y319568D01*
X497135Y319551D01*
X497017Y319440D01*
X496895Y319334D01*
X496875Y319307D01*
X496851Y319285D01*
X496758Y319152D01*
X496660Y319023D01*
X496646Y318993D01*
X496627Y318966D01*
X496562Y318817D01*
X496493Y318671D01*
X496485Y318639D01*
X496472Y318608D01*
X496439Y318449D01*
X496401Y318292D01*
X496400Y318259D01*
X496393Y318226D01*
X496394Y318064D01*
X496388Y317902D01*
X496394Y317870D01*
X496394Y317836D01*
X496427Y317678D01*
X496455Y317518D01*
X496467Y317488D01*
X496474Y317455D01*
X496539Y317306D01*
X496599Y317156D01*
X496617Y317128D01*
X496630Y317098D01*
X496681Y317031D01*
X496813Y316831D01*
X496829Y316815D01*
X496897Y316747D01*
X496941Y316688D01*
X497841Y315789D01*
X497841Y305994D01*
X495728Y303085D01*
X492308Y301975D01*
X488781Y303121D01*
X488675Y303192D01*
X488550Y303284D01*
X488514Y303301D01*
X488481Y303323D01*
X488337Y303382D01*
X488195Y303447D01*
X488157Y303456D01*
X488120Y303471D01*
X487967Y303499D01*
X487815Y303534D01*
X487776Y303535D01*
X487737Y303542D01*
X487581Y303538D01*
X487426Y303541D01*
X487387Y303534D01*
X487348Y303533D01*
X487264Y303511D01*
X487042Y303470D01*
X486924Y303421D01*
X486851Y303402D01*
X484109Y302259D01*
X481300Y302259D01*
X480289Y302843D01*
X480278Y302848D01*
X480268Y302855D01*
X480100Y302927D01*
X479934Y303002D01*
X479922Y303005D01*
X479910Y303010D01*
X479732Y303046D01*
X479553Y303086D01*
X479541Y303086D01*
X479528Y303088D01*
X479346Y303088D01*
X479163Y303090D01*
X479151Y303087D01*
X479139Y303087D01*
X478960Y303050D01*
X478781Y303015D01*
X478769Y303010D01*
X478757Y303007D01*
X478589Y302934D01*
X478422Y302863D01*
X478411Y302856D01*
X478400Y302851D01*
X478359Y302820D01*
X478101Y302642D01*
X478038Y302576D01*
X477991Y302540D01*
X477710Y302259D01*
X475888Y302259D01*
X472092Y302259D01*
X470459Y303445D01*
X470362Y303502D01*
X470271Y303566D01*
X470194Y303599D01*
X470122Y303641D01*
X470016Y303676D01*
X469913Y303721D01*
X469831Y303738D01*
X469752Y303764D01*
X469641Y303777D01*
X469531Y303800D01*
X469448Y303799D01*
X469365Y303809D01*
X469253Y303799D01*
X469141Y303799D01*
X469059Y303782D01*
X468977Y303774D01*
X468870Y303742D01*
X468760Y303719D01*
X468683Y303685D01*
X468604Y303661D01*
X468505Y303607D01*
X468403Y303563D01*
X468351Y303523D01*
X468261Y303474D01*
X468048Y303293D01*
X467993Y303251D01*
X467001Y302259D01*
X464581Y302259D01*
X463175Y303665D01*
X463124Y303707D01*
X463078Y303755D01*
X462973Y303830D01*
X462873Y303911D01*
X462814Y303941D01*
X462759Y303980D01*
X462641Y304031D01*
X462527Y304090D01*
X462462Y304108D01*
X462402Y304134D01*
X462275Y304160D01*
X462151Y304195D01*
X462085Y304200D01*
X462020Y304213D01*
X461891Y304213D01*
X461762Y304222D01*
X461697Y304212D01*
X461630Y304212D01*
X461504Y304186D01*
X461376Y304168D01*
X461314Y304146D01*
X461248Y304132D01*
X461130Y304081D01*
X461009Y304037D01*
X460952Y304003D01*
X460891Y303976D01*
X460822Y303923D01*
X460676Y303834D01*
X460552Y303718D01*
X460482Y303665D01*
X459076Y302259D01*
X456656Y302259D01*
X456090Y302826D01*
X456038Y302868D01*
X455993Y302916D01*
X455887Y302990D01*
X455787Y303072D01*
X455728Y303102D01*
X455674Y303140D01*
X455556Y303191D01*
X455441Y303251D01*
X455377Y303269D01*
X455316Y303295D01*
X455190Y303321D01*
X455066Y303356D01*
X454999Y303360D01*
X454934Y303374D01*
X454805Y303373D01*
X454677Y303382D01*
X454611Y303373D01*
X454545Y303373D01*
X454418Y303346D01*
X454291Y303329D01*
X454228Y303307D01*
X454163Y303293D01*
X454045Y303241D01*
X453924Y303198D01*
X453867Y303163D01*
X453806Y303137D01*
X453736Y303084D01*
X453591Y302995D01*
X453466Y302879D01*
X453397Y302826D01*
X452830Y302259D01*
X442485Y302259D01*
X440240Y304504D01*
X440189Y304546D01*
X440143Y304595D01*
X440038Y304669D01*
X439938Y304750D01*
X439879Y304781D01*
X439824Y304819D01*
X439706Y304870D01*
X439592Y304929D01*
X439528Y304947D01*
X439467Y304974D01*
X439340Y305000D01*
X439216Y305034D01*
X439150Y305039D01*
X439085Y305052D01*
X438956Y305052D01*
X438827Y305061D01*
X438762Y305052D01*
X438695Y305052D01*
X438569Y305025D01*
X438441Y305007D01*
X438379Y304985D01*
X438314Y304972D01*
X438195Y304920D01*
X438074Y304877D01*
X438017Y304842D01*
X437956Y304815D01*
X437887Y304762D01*
X437741Y304674D01*
X437617Y304557D01*
X437547Y304504D01*
X435302Y302259D01*
X432882Y302259D01*
X432477Y302664D01*
X432425Y302707D01*
X432379Y302755D01*
X432274Y302829D01*
X432174Y302910D01*
X432115Y302941D01*
X432061Y302979D01*
X431943Y303030D01*
X431828Y303090D01*
X431764Y303108D01*
X431703Y303134D01*
X431577Y303160D01*
X431453Y303195D01*
X431386Y303199D01*
X431321Y303213D01*
X431192Y303212D01*
X431064Y303221D01*
X430998Y303212D01*
X430931Y303212D01*
X430805Y303185D01*
X430678Y303168D01*
X430615Y303145D01*
X430550Y303132D01*
X430432Y303080D01*
X430310Y303037D01*
X430254Y303002D01*
X430193Y302976D01*
X430123Y302923D01*
X429978Y302834D01*
X429853Y302718D01*
X429783Y302664D01*
X429279Y302160D01*
X428127Y302253D01*
X428033Y302251D01*
X427973Y302259D01*
X414616Y302259D01*
X413890Y302787D01*
X413793Y302843D01*
X413701Y302908D01*
X413625Y302941D01*
X413553Y302983D01*
X413446Y303018D01*
X413343Y303062D01*
X413262Y303079D01*
X413183Y303105D01*
X413071Y303118D01*
X412962Y303141D01*
X412878Y303141D01*
X412796Y303150D01*
X412684Y303140D01*
X412572Y303140D01*
X412490Y303123D01*
X412407Y303116D01*
X412300Y303083D01*
X412190Y303060D01*
X412114Y303027D01*
X412034Y303003D01*
X411936Y302949D01*
X411833Y302904D01*
X411781Y302864D01*
X411692Y302816D01*
X411479Y302635D01*
X411424Y302593D01*
X410991Y302160D01*
X409839Y302253D01*
X409745Y302251D01*
X409685Y302259D01*
X403449Y302259D01*
X401737Y303971D01*
X401737Y306391D01*
X402242Y306896D01*
X402301Y306969D01*
X402368Y307036D01*
X402424Y307120D01*
X402488Y307198D01*
X402531Y307282D01*
X402583Y307361D01*
X402621Y307455D01*
X402667Y307544D01*
X402692Y307635D01*
X402727Y307723D01*
X402745Y307823D01*
X402772Y307920D01*
X402778Y308014D01*
X402795Y308107D01*
X402792Y308208D01*
X402798Y308309D01*
X402785Y308402D01*
X402783Y308497D01*
X402762Y308570D01*
X402745Y308695D01*
X402669Y308909D01*
X402646Y308992D01*
X402596Y309108D01*
X402583Y309132D01*
X402574Y309159D01*
X402531Y309225D01*
X402407Y309449D01*
X402368Y309493D01*
X402302Y309780D01*
X402266Y309859D01*
X402250Y309915D01*
X401951Y310613D01*
X401900Y310704D01*
X401858Y310800D01*
X401816Y310856D01*
X401762Y310954D01*
X401737Y310982D01*
X401737Y313642D01*
X403150Y316088D01*
X403665Y316386D01*
X403733Y316435D01*
X403785Y316464D01*
X403786Y316465D01*
X403812Y316480D01*
X403893Y316551D01*
X403981Y316614D01*
X404040Y316679D01*
X404106Y316736D01*
X404171Y316822D01*
X404244Y316902D01*
X404288Y316977D01*
X404341Y317047D01*
X404387Y317145D01*
X404442Y317238D01*
X404471Y317320D01*
X404508Y317399D01*
X404533Y317504D01*
X404568Y317606D01*
X404579Y317693D01*
X404600Y317778D01*
X404603Y317886D01*
X404617Y317993D01*
X404610Y318080D01*
X404613Y318168D01*
X404594Y318274D01*
X404585Y318382D01*
X404561Y318466D01*
X404546Y318552D01*
X404506Y318652D01*
X404476Y318756D01*
X404434Y318833D01*
X404402Y318914D01*
X404343Y319004D01*
X404292Y319100D01*
X404236Y319167D01*
X404188Y319240D01*
X404111Y319316D01*
X404042Y319399D01*
X403974Y319453D01*
X403912Y319515D01*
X403821Y319574D01*
X403737Y319641D01*
X403659Y319680D01*
X403585Y319728D01*
X403485Y319767D01*
X403388Y319816D01*
X403304Y319838D01*
X403222Y319870D01*
X403143Y319881D01*
X403011Y319916D01*
X402801Y319927D01*
X402713Y319939D01*
X24765Y319939D01*
X24699Y319932D01*
X24632Y319935D01*
X24505Y319913D01*
X24377Y319899D01*
X24314Y319879D01*
X24248Y319868D01*
X24129Y319820D01*
X24006Y319781D01*
X23948Y319749D01*
X23886Y319724D01*
X23779Y319653D01*
X23666Y319590D01*
X23616Y319546D01*
X23560Y319510D01*
X23469Y319419D01*
X23372Y319334D01*
X23332Y319281D01*
X23285Y319234D01*
X23215Y319126D01*
X23137Y319023D01*
X23109Y318963D01*
X23072Y318907D01*
X23025Y318787D01*
X22970Y318671D01*
X22954Y318606D01*
X22930Y318544D01*
X22918Y318458D01*
X22878Y318292D01*
X22873Y318122D01*
X22861Y318035D01*
X22861Y24765D01*
X22868Y24699D01*
X22865Y24632D01*
X22887Y24505D01*
X22901Y24377D01*
X22921Y24314D01*
X22932Y24248D01*
X22980Y24129D01*
X23019Y24006D01*
X23051Y23948D01*
X23076Y23886D01*
X23147Y23779D01*
X23210Y23666D01*
X23254Y23616D01*
X23290Y23560D01*
X23381Y23469D01*
X23466Y23372D01*
X23519Y23332D01*
X23566Y23285D01*
X23674Y23215D01*
X23777Y23137D01*
X23837Y23109D01*
X23893Y23072D01*
X24013Y23025D01*
X24129Y22970D01*
X24194Y22954D01*
X24256Y22930D01*
X24342Y22918D01*
X24508Y22878D01*
X24678Y22873D01*
X24765Y22861D01*
X530735Y22861D01*
X530801Y22868D01*
G37*
G36*
X312837Y93253D02*
X312837Y93253D01*
X312870Y93252D01*
X313029Y93279D01*
X313190Y93302D01*
X313221Y93313D01*
X313254Y93318D01*
X313404Y93378D01*
X313557Y93432D01*
X313586Y93450D01*
X313616Y93462D01*
X313752Y93551D01*
X313890Y93635D01*
X313914Y93658D01*
X313942Y93676D01*
X314057Y93791D01*
X314174Y93902D01*
X314194Y93929D01*
X314217Y93952D01*
X314306Y94088D01*
X314399Y94220D01*
X314412Y94251D01*
X314430Y94279D01*
X314489Y94430D01*
X314554Y94578D01*
X314560Y94611D01*
X314572Y94642D01*
X314584Y94724D01*
X314632Y94960D01*
X314632Y95079D01*
X314642Y95151D01*
X314642Y115090D01*
X314637Y115140D01*
X314639Y115190D01*
X314617Y115333D01*
X314602Y115478D01*
X314587Y115525D01*
X314579Y115575D01*
X314528Y115711D01*
X314484Y115849D01*
X314459Y115893D01*
X314442Y115940D01*
X314364Y116062D01*
X314293Y116189D01*
X314260Y116227D01*
X314233Y116269D01*
X314132Y116373D01*
X314036Y116483D01*
X313996Y116513D01*
X313962Y116549D01*
X313841Y116630D01*
X313726Y116718D01*
X313680Y116739D01*
X313639Y116767D01*
X313505Y116823D01*
X313373Y116885D01*
X313325Y116897D01*
X313278Y116916D01*
X313136Y116943D01*
X312995Y116977D01*
X312945Y116978D01*
X312895Y116988D01*
X312750Y116985D01*
X312605Y116990D01*
X312556Y116981D01*
X312506Y116980D01*
X312419Y116957D01*
X312267Y116931D01*
X310094Y116931D01*
X308144Y117739D01*
X306651Y119231D01*
X305843Y121182D01*
X305843Y123293D01*
X306651Y125244D01*
X307734Y126326D01*
X307797Y126404D01*
X307867Y126474D01*
X307920Y126554D01*
X307980Y126629D01*
X308026Y126717D01*
X308080Y126801D01*
X308115Y126890D01*
X308159Y126975D01*
X308186Y127071D01*
X308222Y127163D01*
X308232Y127236D01*
X308264Y127350D01*
X308281Y127590D01*
X308292Y127673D01*
X308292Y211682D01*
X308282Y211781D01*
X308281Y211881D01*
X308262Y211975D01*
X308252Y212070D01*
X308222Y212165D01*
X308201Y212262D01*
X308163Y212350D01*
X308134Y212441D01*
X308085Y212528D01*
X308045Y212619D01*
X308001Y212678D01*
X307943Y212781D01*
X307784Y212962D01*
X307734Y213029D01*
X292404Y228359D01*
X292327Y228422D01*
X292256Y228492D01*
X292176Y228545D01*
X292101Y228605D01*
X292013Y228651D01*
X291930Y228705D01*
X291840Y228740D01*
X291755Y228784D01*
X291659Y228811D01*
X291567Y228847D01*
X291494Y228857D01*
X291380Y228889D01*
X291140Y228906D01*
X291057Y228917D01*
X288380Y228917D01*
X288281Y228907D01*
X288182Y228906D01*
X288088Y228887D01*
X287993Y228877D01*
X287898Y228847D01*
X287800Y228826D01*
X287712Y228788D01*
X287621Y228759D01*
X287534Y228710D01*
X287443Y228670D01*
X287385Y228626D01*
X287281Y228568D01*
X287100Y228409D01*
X287034Y228359D01*
X274878Y216204D01*
X274816Y216127D01*
X274745Y216056D01*
X274693Y215976D01*
X274633Y215901D01*
X274587Y215813D01*
X274532Y215730D01*
X274497Y215640D01*
X274453Y215555D01*
X274426Y215459D01*
X274390Y215367D01*
X274380Y215294D01*
X274348Y215180D01*
X274332Y214940D01*
X274321Y214857D01*
X274321Y211841D01*
X273644Y210207D01*
X237468Y174031D01*
X235834Y173354D01*
X232113Y173354D01*
X231998Y173342D01*
X231881Y173340D01*
X231821Y173324D01*
X231725Y173314D01*
X231444Y173225D01*
X231384Y173209D01*
X229656Y172493D01*
X227544Y172493D01*
X227015Y172713D01*
X226967Y172727D01*
X226922Y172748D01*
X226781Y172783D01*
X226641Y172824D01*
X226592Y172828D01*
X226543Y172840D01*
X226398Y172845D01*
X226253Y172857D01*
X226203Y172851D01*
X226153Y172853D01*
X226010Y172828D01*
X225866Y172811D01*
X225819Y172795D01*
X225769Y172786D01*
X225634Y172733D01*
X225496Y172686D01*
X225453Y172661D01*
X225407Y172643D01*
X225286Y172563D01*
X225160Y172489D01*
X225123Y172456D01*
X225081Y172428D01*
X224979Y172325D01*
X224871Y172228D01*
X224842Y172188D01*
X224806Y172152D01*
X224727Y172030D01*
X224641Y171913D01*
X224621Y171868D01*
X224593Y171826D01*
X224540Y171690D01*
X224480Y171558D01*
X224469Y171509D01*
X224451Y171463D01*
X224439Y171374D01*
X224395Y171178D01*
X224393Y171034D01*
X224382Y170953D01*
X224382Y170394D01*
X223574Y168444D01*
X222081Y166951D01*
X220131Y166143D01*
X218019Y166143D01*
X216069Y166951D01*
X214576Y168444D01*
X213768Y170394D01*
X213768Y172506D01*
X214484Y174234D01*
X214517Y174345D01*
X214560Y174454D01*
X214568Y174516D01*
X214596Y174608D01*
X214621Y174902D01*
X214629Y174963D01*
X214629Y265903D01*
X214628Y265920D01*
X214629Y265936D01*
X214608Y266114D01*
X214589Y266291D01*
X214584Y266307D01*
X214582Y266323D01*
X214525Y266492D01*
X214471Y266662D01*
X214463Y266677D01*
X214458Y266693D01*
X214368Y266847D01*
X214280Y267002D01*
X214269Y267015D01*
X214261Y267029D01*
X214141Y267161D01*
X214024Y267296D01*
X214010Y267306D01*
X213999Y267318D01*
X213855Y267423D01*
X213713Y267531D01*
X213698Y267538D01*
X213684Y267548D01*
X213522Y267622D01*
X213361Y267698D01*
X213345Y267702D01*
X213329Y267709D01*
X213155Y267748D01*
X212982Y267790D01*
X212965Y267790D01*
X212949Y267794D01*
X212770Y267797D01*
X212592Y267803D01*
X212576Y267800D01*
X212559Y267800D01*
X212383Y267766D01*
X212208Y267736D01*
X212193Y267730D01*
X212176Y267727D01*
X212011Y267658D01*
X211846Y267592D01*
X211832Y267583D01*
X211817Y267577D01*
X211669Y267476D01*
X211521Y267378D01*
X211509Y267366D01*
X211495Y267357D01*
X211372Y267229D01*
X211245Y267102D01*
X211236Y267088D01*
X211225Y267076D01*
X211194Y267022D01*
X211032Y266775D01*
X210997Y266686D01*
X210966Y266632D01*
X210952Y266600D01*
X208380Y264027D01*
X205019Y262635D01*
X201381Y262635D01*
X198020Y264027D01*
X195447Y266600D01*
X194055Y269961D01*
X194055Y288839D01*
X195104Y291371D01*
X195118Y291419D01*
X195140Y291464D01*
X195174Y291605D01*
X195216Y291745D01*
X195220Y291794D01*
X195232Y291843D01*
X195236Y291988D01*
X195249Y292133D01*
X195243Y292183D01*
X195245Y292233D01*
X195220Y292376D01*
X195202Y292520D01*
X195186Y292567D01*
X195178Y292617D01*
X195124Y292751D01*
X195078Y292890D01*
X195052Y292933D01*
X195034Y292979D01*
X194954Y293100D01*
X194881Y293226D01*
X194847Y293263D01*
X194820Y293305D01*
X194717Y293407D01*
X194619Y293515D01*
X194579Y293544D01*
X194544Y293580D01*
X194422Y293659D01*
X194304Y293745D01*
X194259Y293765D01*
X194217Y293793D01*
X194082Y293846D01*
X193949Y293906D01*
X193901Y293917D01*
X193854Y293935D01*
X193766Y293947D01*
X193569Y293991D01*
X193426Y293993D01*
X193345Y294004D01*
X137952Y294004D01*
X137828Y293992D01*
X137704Y293988D01*
X137635Y293972D01*
X137565Y293964D01*
X137446Y293927D01*
X137325Y293898D01*
X137261Y293868D01*
X137193Y293846D01*
X137085Y293785D01*
X136972Y293732D01*
X136915Y293690D01*
X136853Y293655D01*
X136760Y293573D01*
X136660Y293499D01*
X136613Y293445D01*
X136560Y293399D01*
X136485Y293300D01*
X136402Y293206D01*
X136367Y293145D01*
X136325Y293088D01*
X136271Y292976D01*
X136210Y292867D01*
X136188Y292800D01*
X136157Y292736D01*
X136128Y292615D01*
X136090Y292496D01*
X136082Y292426D01*
X136066Y292357D01*
X136062Y292233D01*
X136048Y292109D01*
X136055Y292038D01*
X136053Y291967D01*
X136074Y291845D01*
X136086Y291721D01*
X136105Y291667D01*
X136120Y291583D01*
X136243Y291272D01*
X136256Y291235D01*
X136416Y290920D01*
X136911Y289399D01*
X137161Y287820D01*
X137161Y281939D01*
X127635Y281939D01*
X127569Y281932D01*
X127503Y281935D01*
X127376Y281913D01*
X127247Y281899D01*
X127184Y281879D01*
X127119Y281868D01*
X127011Y281825D01*
X127001Y281830D01*
X126936Y281846D01*
X126874Y281870D01*
X126787Y281882D01*
X126622Y281922D01*
X126452Y281927D01*
X126365Y281939D01*
X116839Y281939D01*
X116839Y283755D01*
X116836Y283788D01*
X116838Y283821D01*
X116834Y283852D01*
X116835Y283876D01*
X116816Y283985D01*
X116799Y284143D01*
X116789Y284174D01*
X116785Y284207D01*
X116770Y284250D01*
X116768Y284260D01*
X116750Y284304D01*
X116730Y284360D01*
X116681Y284514D01*
X116665Y284543D01*
X116654Y284574D01*
X116570Y284713D01*
X116490Y284854D01*
X116468Y284879D01*
X116451Y284907D01*
X116340Y285025D01*
X116234Y285147D01*
X116207Y285167D01*
X116185Y285192D01*
X116052Y285285D01*
X115923Y285383D01*
X115893Y285397D01*
X115866Y285416D01*
X115717Y285480D01*
X115571Y285550D01*
X115539Y285558D01*
X115508Y285571D01*
X115349Y285603D01*
X115192Y285642D01*
X115159Y285643D01*
X115126Y285649D01*
X114964Y285649D01*
X114802Y285654D01*
X114770Y285649D01*
X114736Y285649D01*
X114578Y285615D01*
X114418Y285588D01*
X114388Y285575D01*
X114355Y285569D01*
X114207Y285504D01*
X114196Y285499D01*
X114164Y285489D01*
X114149Y285481D01*
X114056Y285444D01*
X114028Y285426D01*
X113998Y285412D01*
X113932Y285362D01*
X113894Y285338D01*
X113824Y285298D01*
X113793Y285271D01*
X113731Y285230D01*
X113647Y285145D01*
X113589Y285101D01*
X111302Y282815D01*
X111240Y282738D01*
X111169Y282668D01*
X111117Y282587D01*
X111057Y282513D01*
X111011Y282425D01*
X110956Y282341D01*
X110921Y282252D01*
X110877Y282167D01*
X110850Y282071D01*
X110814Y281978D01*
X110804Y281906D01*
X110772Y281791D01*
X110756Y281551D01*
X110745Y281469D01*
X110745Y269961D01*
X109353Y266600D01*
X106780Y264027D01*
X103105Y262505D01*
X103061Y262482D01*
X103015Y262465D01*
X102891Y262389D01*
X102762Y262320D01*
X102724Y262288D01*
X102682Y262262D01*
X102576Y262163D01*
X102464Y262069D01*
X102434Y262030D01*
X102397Y261996D01*
X102314Y261877D01*
X102224Y261762D01*
X102202Y261718D01*
X102173Y261677D01*
X102115Y261543D01*
X102051Y261413D01*
X102038Y261365D01*
X102018Y261319D01*
X101989Y261177D01*
X101952Y261036D01*
X101950Y260986D01*
X101940Y260937D01*
X101940Y260792D01*
X101932Y260647D01*
X101940Y260597D01*
X101940Y260547D01*
X101970Y260405D01*
X101993Y260262D01*
X102010Y260215D01*
X102020Y260166D01*
X102079Y260033D01*
X102130Y259897D01*
X102157Y259855D01*
X102177Y259809D01*
X102231Y259738D01*
X102338Y259567D01*
X102438Y259465D01*
X102488Y259400D01*
X267984Y93903D01*
X268061Y93841D01*
X268132Y93770D01*
X268212Y93718D01*
X268286Y93658D01*
X268374Y93612D01*
X268458Y93557D01*
X268547Y93522D01*
X268632Y93478D01*
X268728Y93451D01*
X268821Y93415D01*
X268893Y93405D01*
X269008Y93373D01*
X269248Y93357D01*
X269330Y93346D01*
X296961Y93346D01*
X297060Y93356D01*
X297160Y93356D01*
X297254Y93376D01*
X297349Y93386D01*
X297444Y93416D01*
X297541Y93436D01*
X297629Y93475D01*
X297720Y93504D01*
X297807Y93553D01*
X297898Y93592D01*
X297957Y93637D01*
X298060Y93695D01*
X298241Y93853D01*
X298308Y93903D01*
X301433Y97029D01*
X308167Y97029D01*
X311391Y93805D01*
X311417Y93784D01*
X311439Y93759D01*
X311568Y93661D01*
X311693Y93559D01*
X311723Y93543D01*
X311749Y93523D01*
X311896Y93454D01*
X312040Y93380D01*
X312072Y93371D01*
X312102Y93356D01*
X312259Y93318D01*
X312415Y93275D01*
X312448Y93272D01*
X312480Y93264D01*
X312642Y93259D01*
X312804Y93248D01*
X312837Y93253D01*
G37*
%LPC*%
G36*
X498561Y257555D02*
X498561Y257555D01*
X495200Y258947D01*
X492627Y261520D01*
X491235Y264881D01*
X491235Y268519D01*
X492627Y271880D01*
X495200Y274453D01*
X498561Y275845D01*
X517439Y275845D01*
X520800Y274453D01*
X523373Y271880D01*
X524765Y268519D01*
X524765Y264881D01*
X523373Y261520D01*
X520800Y258947D01*
X517439Y257555D01*
X498561Y257555D01*
G37*
%LPD*%
%LPC*%
G36*
X84857Y144935D02*
X84857Y144935D01*
X81525Y146315D01*
X78975Y148865D01*
X77595Y152197D01*
X77595Y155803D01*
X78975Y159135D01*
X81525Y161685D01*
X84857Y163065D01*
X103543Y163065D01*
X106875Y161685D01*
X109425Y159135D01*
X110805Y155803D01*
X110805Y152197D01*
X109425Y148865D01*
X106875Y146315D01*
X103543Y144935D01*
X84857Y144935D01*
G37*
%LPD*%
%LPC*%
G36*
X36857Y144935D02*
X36857Y144935D01*
X33525Y146315D01*
X30975Y148865D01*
X29595Y152197D01*
X29595Y155803D01*
X30975Y159135D01*
X33525Y161685D01*
X36857Y163065D01*
X55543Y163065D01*
X58875Y161685D01*
X61425Y159135D01*
X62805Y155803D01*
X62805Y152197D01*
X61425Y148865D01*
X58875Y146315D01*
X55543Y144935D01*
X36857Y144935D01*
G37*
%LPD*%
%LPC*%
G36*
X123633Y55371D02*
X123633Y55371D01*
X118871Y60133D01*
X118871Y66867D01*
X123633Y71629D01*
X130367Y71629D01*
X135129Y66867D01*
X135129Y60133D01*
X130367Y55371D01*
X123633Y55371D01*
G37*
%LPD*%
%LPC*%
G36*
X377633Y42671D02*
X377633Y42671D01*
X372871Y47433D01*
X372871Y54167D01*
X377633Y58929D01*
X384367Y58929D01*
X389129Y54167D01*
X389129Y47433D01*
X384367Y42671D01*
X377633Y42671D01*
G37*
%LPD*%
%LPC*%
G36*
X510539Y142239D02*
X510539Y142239D01*
X510539Y149861D01*
X516420Y149861D01*
X517999Y149611D01*
X519520Y149116D01*
X520945Y148390D01*
X522239Y147450D01*
X523370Y146319D01*
X524310Y145025D01*
X525036Y143600D01*
X525479Y142239D01*
X510539Y142239D01*
G37*
%LPD*%
%LPC*%
G36*
X129539Y276861D02*
X129539Y276861D01*
X137161Y276861D01*
X137161Y270980D01*
X136911Y269401D01*
X136416Y267880D01*
X135690Y266455D01*
X134750Y265161D01*
X133619Y264030D01*
X132325Y263090D01*
X130900Y262364D01*
X129539Y261921D01*
X129539Y276861D01*
G37*
%LPD*%
%LPC*%
G36*
X490521Y142239D02*
X490521Y142239D01*
X490964Y143600D01*
X491690Y145025D01*
X492630Y146319D01*
X493761Y147450D01*
X495055Y148390D01*
X496480Y149116D01*
X498001Y149611D01*
X499580Y149861D01*
X505461Y149861D01*
X505461Y142239D01*
X490521Y142239D01*
G37*
%LPD*%
%LPC*%
G36*
X510539Y129539D02*
X510539Y129539D01*
X510539Y137161D01*
X525479Y137161D01*
X525036Y135800D01*
X524310Y134375D01*
X523370Y133081D01*
X522239Y131950D01*
X520945Y131010D01*
X519520Y130284D01*
X517999Y129789D01*
X516420Y129539D01*
X510539Y129539D01*
G37*
%LPD*%
%LPC*%
G36*
X499580Y129539D02*
X499580Y129539D01*
X498001Y129789D01*
X496480Y130284D01*
X495055Y131010D01*
X493761Y131950D01*
X492630Y133081D01*
X491690Y134375D01*
X490964Y135800D01*
X490521Y137161D01*
X505461Y137161D01*
X505461Y129539D01*
X499580Y129539D01*
G37*
%LPD*%
%LPC*%
G36*
X123100Y262364D02*
X123100Y262364D01*
X121675Y263090D01*
X120381Y264030D01*
X119250Y265161D01*
X118310Y266455D01*
X117584Y267880D01*
X117089Y269401D01*
X116839Y270980D01*
X116839Y276861D01*
X124461Y276861D01*
X124461Y261921D01*
X123100Y262364D01*
G37*
%LPD*%
%LPC*%
G36*
X446531Y78231D02*
X446531Y78231D01*
X446531Y86742D01*
X448867Y86742D01*
X455042Y80567D01*
X455042Y78231D01*
X446531Y78231D01*
G37*
%LPD*%
%LPC*%
G36*
X433958Y78231D02*
X433958Y78231D01*
X433958Y80567D01*
X440133Y86742D01*
X442469Y86742D01*
X442469Y78231D01*
X433958Y78231D01*
G37*
%LPD*%
%LPC*%
G36*
X446531Y65658D02*
X446531Y65658D01*
X446531Y74169D01*
X455042Y74169D01*
X455042Y71833D01*
X448867Y65658D01*
X446531Y65658D01*
G37*
%LPD*%
%LPC*%
G36*
X440133Y65658D02*
X440133Y65658D01*
X433958Y71833D01*
X433958Y74169D01*
X442469Y74169D01*
X442469Y65658D01*
X440133Y65658D01*
G37*
%LPD*%
D10*
X494919Y314579D02*
X494919Y307792D01*
X494917Y307691D01*
X494911Y307590D01*
X494901Y307489D01*
X494888Y307389D01*
X494870Y307289D01*
X494849Y307190D01*
X494823Y307092D01*
X494794Y306995D01*
X494762Y306899D01*
X494725Y306805D01*
X494685Y306712D01*
X494641Y306620D01*
X494594Y306531D01*
X494543Y306443D01*
X494489Y306357D01*
X494432Y306274D01*
X494372Y306192D01*
X494308Y306114D01*
X494242Y306037D01*
X494172Y305964D01*
X494100Y305893D01*
X494025Y305825D01*
X493947Y305760D01*
X493867Y305698D01*
X493785Y305639D01*
X493700Y305583D01*
X493613Y305531D01*
X493525Y305482D01*
X493434Y305436D01*
X493342Y305395D01*
X493248Y305356D01*
X493153Y305322D01*
X493057Y305291D01*
X492959Y305264D01*
X492861Y305240D01*
X492761Y305221D01*
X492661Y305205D01*
X492561Y305193D01*
X492460Y305185D01*
X492359Y305181D01*
X492257Y305181D01*
X492156Y305185D01*
X492055Y305193D01*
X491955Y305205D01*
X491855Y305221D01*
X491755Y305240D01*
X491657Y305264D01*
X491559Y305291D01*
X491463Y305322D01*
X491368Y305356D01*
X491274Y305395D01*
X491182Y305436D01*
X491091Y305482D01*
X491003Y305531D01*
X490916Y305583D01*
X490831Y305639D01*
X490749Y305698D01*
X490669Y305760D01*
X490591Y305825D01*
X490516Y305893D01*
X490444Y305964D01*
X490374Y306037D01*
X490308Y306114D01*
X490244Y306192D01*
X490184Y306274D01*
X490127Y306357D01*
X490073Y306443D01*
X490022Y306531D01*
X489975Y306620D01*
X489931Y306712D01*
X489891Y306805D01*
X489854Y306899D01*
X489822Y306995D01*
X489793Y307092D01*
X489767Y307190D01*
X489746Y307289D01*
X489728Y307389D01*
X489715Y307489D01*
X489705Y307590D01*
X489699Y307691D01*
X489697Y307792D01*
X489698Y307792D02*
X489698Y314579D01*
X480554Y307269D02*
X480556Y307180D01*
X480562Y307092D01*
X480571Y307004D01*
X480584Y306916D01*
X480601Y306829D01*
X480621Y306743D01*
X480646Y306658D01*
X480673Y306573D01*
X480705Y306490D01*
X480739Y306409D01*
X480778Y306329D01*
X480819Y306251D01*
X480864Y306174D01*
X480912Y306100D01*
X480963Y306027D01*
X481017Y305957D01*
X481075Y305890D01*
X481135Y305824D01*
X481197Y305762D01*
X481263Y305702D01*
X481330Y305644D01*
X481400Y305590D01*
X481473Y305539D01*
X481547Y305491D01*
X481624Y305446D01*
X481702Y305405D01*
X481782Y305366D01*
X481863Y305332D01*
X481946Y305300D01*
X482031Y305273D01*
X482116Y305248D01*
X482202Y305228D01*
X482289Y305211D01*
X482377Y305198D01*
X482465Y305189D01*
X482553Y305183D01*
X482642Y305181D01*
X482771Y305183D01*
X482900Y305189D01*
X483029Y305198D01*
X483157Y305211D01*
X483285Y305228D01*
X483412Y305249D01*
X483539Y305273D01*
X483665Y305301D01*
X483790Y305333D01*
X483914Y305368D01*
X484037Y305407D01*
X484159Y305450D01*
X484279Y305496D01*
X484398Y305546D01*
X484516Y305599D01*
X484632Y305655D01*
X484746Y305715D01*
X484859Y305778D01*
X484969Y305845D01*
X485078Y305914D01*
X485184Y305987D01*
X485289Y306063D01*
X485391Y306142D01*
X485491Y306224D01*
X485588Y306308D01*
X485683Y306396D01*
X485775Y306486D01*
X485514Y312491D02*
X485512Y312580D01*
X485506Y312668D01*
X485497Y312756D01*
X485484Y312844D01*
X485467Y312931D01*
X485447Y313017D01*
X485422Y313102D01*
X485395Y313187D01*
X485363Y313270D01*
X485329Y313351D01*
X485290Y313431D01*
X485249Y313509D01*
X485204Y313586D01*
X485156Y313660D01*
X485105Y313733D01*
X485051Y313803D01*
X484993Y313870D01*
X484933Y313936D01*
X484871Y313998D01*
X484805Y314058D01*
X484738Y314116D01*
X484668Y314170D01*
X484595Y314221D01*
X484521Y314269D01*
X484444Y314314D01*
X484366Y314355D01*
X484286Y314394D01*
X484205Y314428D01*
X484122Y314460D01*
X484037Y314487D01*
X483952Y314512D01*
X483866Y314532D01*
X483779Y314549D01*
X483691Y314562D01*
X483603Y314571D01*
X483515Y314577D01*
X483426Y314579D01*
X483306Y314577D01*
X483186Y314572D01*
X483067Y314562D01*
X482947Y314550D01*
X482828Y314533D01*
X482710Y314513D01*
X482592Y314489D01*
X482476Y314462D01*
X482360Y314431D01*
X482245Y314397D01*
X482131Y314359D01*
X482018Y314317D01*
X481907Y314272D01*
X481797Y314224D01*
X481689Y314173D01*
X481582Y314118D01*
X481477Y314060D01*
X481374Y313998D01*
X481273Y313934D01*
X481173Y313866D01*
X481076Y313796D01*
X484470Y310664D02*
X484548Y310712D01*
X484624Y310764D01*
X484697Y310818D01*
X484768Y310876D01*
X484837Y310937D01*
X484903Y311001D01*
X484966Y311068D01*
X485026Y311137D01*
X485083Y311209D01*
X485137Y311283D01*
X485187Y311360D01*
X485235Y311439D01*
X485278Y311519D01*
X485319Y311602D01*
X485355Y311686D01*
X485388Y311771D01*
X485417Y311858D01*
X485443Y311947D01*
X485465Y312036D01*
X485482Y312126D01*
X485496Y312216D01*
X485506Y312308D01*
X485512Y312399D01*
X485514Y312491D01*
X481598Y309096D02*
X481520Y309048D01*
X481444Y308996D01*
X481371Y308942D01*
X481300Y308884D01*
X481231Y308823D01*
X481165Y308759D01*
X481102Y308692D01*
X481042Y308623D01*
X480985Y308551D01*
X480931Y308477D01*
X480881Y308400D01*
X480833Y308321D01*
X480790Y308241D01*
X480749Y308158D01*
X480713Y308074D01*
X480680Y307989D01*
X480651Y307902D01*
X480625Y307813D01*
X480603Y307724D01*
X480586Y307634D01*
X480572Y307544D01*
X480562Y307452D01*
X480556Y307361D01*
X480554Y307269D01*
X481598Y309097D02*
X484470Y310663D01*
X476500Y310402D02*
X473889Y310402D01*
X473889Y310403D02*
X473788Y310401D01*
X473687Y310395D01*
X473586Y310385D01*
X473486Y310372D01*
X473386Y310354D01*
X473287Y310333D01*
X473189Y310307D01*
X473092Y310278D01*
X472996Y310246D01*
X472902Y310209D01*
X472809Y310169D01*
X472717Y310125D01*
X472628Y310078D01*
X472540Y310027D01*
X472454Y309973D01*
X472371Y309916D01*
X472289Y309856D01*
X472211Y309792D01*
X472134Y309726D01*
X472061Y309656D01*
X471990Y309584D01*
X471922Y309509D01*
X471857Y309431D01*
X471795Y309351D01*
X471736Y309269D01*
X471680Y309184D01*
X471628Y309098D01*
X471579Y309009D01*
X471533Y308918D01*
X471492Y308826D01*
X471453Y308732D01*
X471419Y308637D01*
X471388Y308541D01*
X471361Y308443D01*
X471337Y308345D01*
X471318Y308245D01*
X471302Y308145D01*
X471290Y308045D01*
X471282Y307944D01*
X471278Y307843D01*
X471278Y307741D01*
X471282Y307640D01*
X471290Y307539D01*
X471302Y307439D01*
X471318Y307339D01*
X471337Y307239D01*
X471361Y307141D01*
X471388Y307043D01*
X471419Y306947D01*
X471453Y306852D01*
X471492Y306758D01*
X471533Y306666D01*
X471579Y306575D01*
X471628Y306487D01*
X471680Y306400D01*
X471736Y306315D01*
X471795Y306233D01*
X471857Y306153D01*
X471922Y306075D01*
X471990Y306000D01*
X472061Y305928D01*
X472134Y305858D01*
X472211Y305792D01*
X472289Y305728D01*
X472371Y305668D01*
X472454Y305611D01*
X472540Y305557D01*
X472628Y305506D01*
X472717Y305459D01*
X472809Y305415D01*
X472902Y305375D01*
X472996Y305338D01*
X473092Y305306D01*
X473189Y305277D01*
X473287Y305251D01*
X473386Y305230D01*
X473486Y305212D01*
X473586Y305199D01*
X473687Y305189D01*
X473788Y305183D01*
X473889Y305181D01*
X476500Y305181D01*
X476500Y314579D01*
X473889Y314579D01*
X473799Y314577D01*
X473710Y314571D01*
X473620Y314562D01*
X473531Y314548D01*
X473443Y314531D01*
X473356Y314510D01*
X473269Y314485D01*
X473184Y314456D01*
X473100Y314424D01*
X473018Y314389D01*
X472937Y314349D01*
X472858Y314307D01*
X472781Y314261D01*
X472706Y314211D01*
X472633Y314159D01*
X472562Y314103D01*
X472494Y314045D01*
X472429Y313983D01*
X472366Y313919D01*
X472306Y313852D01*
X472249Y313783D01*
X472195Y313711D01*
X472144Y313637D01*
X472096Y313561D01*
X472052Y313483D01*
X472011Y313403D01*
X471973Y313321D01*
X471939Y313238D01*
X471909Y313153D01*
X471882Y313067D01*
X471859Y312981D01*
X471840Y312893D01*
X471825Y312804D01*
X471813Y312715D01*
X471805Y312626D01*
X471801Y312536D01*
X471801Y312446D01*
X471805Y312356D01*
X471813Y312267D01*
X471825Y312178D01*
X471840Y312089D01*
X471859Y312001D01*
X471882Y311915D01*
X471909Y311829D01*
X471939Y311744D01*
X471973Y311661D01*
X472011Y311579D01*
X472052Y311499D01*
X472096Y311421D01*
X472144Y311345D01*
X472195Y311271D01*
X472249Y311199D01*
X472306Y311130D01*
X472366Y311063D01*
X472429Y310999D01*
X472494Y310937D01*
X472562Y310879D01*
X472633Y310823D01*
X472706Y310771D01*
X472781Y310721D01*
X472858Y310675D01*
X472937Y310633D01*
X473018Y310593D01*
X473100Y310558D01*
X473184Y310526D01*
X473269Y310497D01*
X473356Y310472D01*
X473443Y310451D01*
X473531Y310434D01*
X473620Y310420D01*
X473710Y310411D01*
X473799Y310405D01*
X473889Y310403D01*
X465791Y314579D02*
X465791Y305181D01*
X468402Y314579D02*
X463180Y314579D01*
X457866Y314579D02*
X457866Y305181D01*
X460477Y314579D02*
X455256Y314579D01*
X451620Y314579D02*
X451620Y305181D01*
X447443Y305181D01*
X443695Y305181D02*
X443695Y314579D01*
X439518Y314579D01*
X439518Y310402D02*
X443695Y310402D01*
X434092Y314579D02*
X434092Y305181D01*
X436702Y314579D02*
X431481Y314579D01*
X425296Y314580D02*
X425201Y314578D01*
X425107Y314572D01*
X425013Y314563D01*
X424919Y314550D01*
X424826Y314533D01*
X424734Y314512D01*
X424642Y314487D01*
X424552Y314459D01*
X424463Y314427D01*
X424375Y314392D01*
X424289Y314353D01*
X424204Y314311D01*
X424121Y314265D01*
X424040Y314216D01*
X423961Y314164D01*
X423884Y314109D01*
X423810Y314050D01*
X423738Y313989D01*
X423668Y313925D01*
X423601Y313858D01*
X423537Y313788D01*
X423476Y313716D01*
X423417Y313642D01*
X423362Y313565D01*
X423310Y313486D01*
X423261Y313405D01*
X423215Y313322D01*
X423173Y313237D01*
X423134Y313151D01*
X423099Y313063D01*
X423067Y312974D01*
X423039Y312884D01*
X423014Y312792D01*
X422993Y312700D01*
X422976Y312607D01*
X422963Y312513D01*
X422954Y312419D01*
X422948Y312325D01*
X422946Y312230D01*
X425296Y314579D02*
X425404Y314577D01*
X425513Y314571D01*
X425621Y314561D01*
X425728Y314548D01*
X425835Y314530D01*
X425942Y314509D01*
X426047Y314484D01*
X426152Y314455D01*
X426255Y314423D01*
X426357Y314386D01*
X426458Y314346D01*
X426557Y314303D01*
X426655Y314256D01*
X426751Y314205D01*
X426845Y314151D01*
X426937Y314094D01*
X427027Y314033D01*
X427115Y313969D01*
X427200Y313903D01*
X427283Y313833D01*
X427363Y313760D01*
X427441Y313684D01*
X427516Y313606D01*
X427588Y313525D01*
X427657Y313441D01*
X427723Y313355D01*
X427786Y313267D01*
X427845Y313176D01*
X427902Y313084D01*
X427955Y312989D01*
X428004Y312892D01*
X428050Y312794D01*
X428093Y312695D01*
X428132Y312593D01*
X428167Y312491D01*
X423730Y310402D02*
X423661Y310471D01*
X423595Y310542D01*
X423531Y310615D01*
X423470Y310691D01*
X423412Y310770D01*
X423358Y310850D01*
X423306Y310933D01*
X423258Y311017D01*
X423212Y311103D01*
X423171Y311191D01*
X423132Y311281D01*
X423097Y311372D01*
X423066Y311464D01*
X423038Y311557D01*
X423014Y311651D01*
X422994Y311746D01*
X422977Y311842D01*
X422964Y311939D01*
X422955Y312036D01*
X422949Y312133D01*
X422947Y312230D01*
X423730Y310402D02*
X428168Y305181D01*
X422947Y305181D01*
X419024Y305181D02*
X416414Y305181D01*
X416313Y305183D01*
X416212Y305189D01*
X416111Y305199D01*
X416011Y305212D01*
X415911Y305230D01*
X415812Y305251D01*
X415714Y305277D01*
X415617Y305306D01*
X415521Y305338D01*
X415427Y305375D01*
X415334Y305415D01*
X415242Y305459D01*
X415153Y305506D01*
X415065Y305557D01*
X414979Y305611D01*
X414896Y305668D01*
X414814Y305728D01*
X414736Y305792D01*
X414659Y305858D01*
X414586Y305928D01*
X414515Y306000D01*
X414447Y306075D01*
X414382Y306153D01*
X414320Y306233D01*
X414261Y306315D01*
X414205Y306400D01*
X414153Y306487D01*
X414104Y306575D01*
X414058Y306666D01*
X414017Y306758D01*
X413978Y306852D01*
X413944Y306947D01*
X413913Y307043D01*
X413886Y307141D01*
X413862Y307239D01*
X413843Y307339D01*
X413827Y307439D01*
X413815Y307539D01*
X413807Y307640D01*
X413803Y307741D01*
X413803Y307843D01*
X413807Y307944D01*
X413815Y308045D01*
X413827Y308145D01*
X413843Y308245D01*
X413862Y308345D01*
X413886Y308443D01*
X413913Y308541D01*
X413944Y308637D01*
X413978Y308732D01*
X414017Y308826D01*
X414058Y308918D01*
X414104Y309009D01*
X414153Y309098D01*
X414205Y309184D01*
X414261Y309269D01*
X414320Y309351D01*
X414382Y309431D01*
X414447Y309509D01*
X414515Y309584D01*
X414586Y309656D01*
X414659Y309726D01*
X414736Y309792D01*
X414814Y309856D01*
X414896Y309916D01*
X414979Y309973D01*
X415065Y310027D01*
X415153Y310078D01*
X415242Y310125D01*
X415334Y310169D01*
X415427Y310209D01*
X415521Y310246D01*
X415617Y310278D01*
X415714Y310307D01*
X415812Y310333D01*
X415911Y310354D01*
X416011Y310372D01*
X416111Y310385D01*
X416212Y310395D01*
X416313Y310401D01*
X416414Y310403D01*
X415891Y314579D02*
X419024Y314579D01*
X415891Y314579D02*
X415801Y314577D01*
X415712Y314571D01*
X415622Y314562D01*
X415533Y314548D01*
X415445Y314531D01*
X415358Y314510D01*
X415271Y314485D01*
X415186Y314456D01*
X415102Y314424D01*
X415020Y314389D01*
X414939Y314349D01*
X414860Y314307D01*
X414783Y314261D01*
X414708Y314211D01*
X414635Y314159D01*
X414564Y314103D01*
X414496Y314045D01*
X414431Y313983D01*
X414368Y313919D01*
X414308Y313852D01*
X414251Y313783D01*
X414197Y313711D01*
X414146Y313637D01*
X414098Y313561D01*
X414054Y313483D01*
X414013Y313403D01*
X413975Y313321D01*
X413941Y313238D01*
X413911Y313153D01*
X413884Y313067D01*
X413861Y312981D01*
X413842Y312893D01*
X413827Y312804D01*
X413815Y312715D01*
X413807Y312626D01*
X413803Y312536D01*
X413803Y312446D01*
X413807Y312356D01*
X413815Y312267D01*
X413827Y312178D01*
X413842Y312089D01*
X413861Y312001D01*
X413884Y311915D01*
X413911Y311829D01*
X413941Y311744D01*
X413975Y311661D01*
X414013Y311579D01*
X414054Y311499D01*
X414098Y311421D01*
X414146Y311345D01*
X414197Y311271D01*
X414251Y311199D01*
X414308Y311130D01*
X414368Y311063D01*
X414431Y310999D01*
X414496Y310937D01*
X414564Y310879D01*
X414635Y310823D01*
X414708Y310771D01*
X414783Y310721D01*
X414860Y310675D01*
X414939Y310633D01*
X415020Y310593D01*
X415102Y310558D01*
X415186Y310526D01*
X415271Y310497D01*
X415358Y310472D01*
X415445Y310451D01*
X415533Y310434D01*
X415622Y310420D01*
X415712Y310411D01*
X415801Y310405D01*
X415891Y310403D01*
X415891Y310402D02*
X417980Y310402D01*
X407009Y314580D02*
X406914Y314578D01*
X406820Y314572D01*
X406726Y314563D01*
X406632Y314550D01*
X406539Y314533D01*
X406447Y314512D01*
X406355Y314487D01*
X406265Y314459D01*
X406176Y314427D01*
X406088Y314392D01*
X406002Y314353D01*
X405917Y314311D01*
X405834Y314265D01*
X405753Y314216D01*
X405674Y314164D01*
X405597Y314109D01*
X405523Y314050D01*
X405451Y313989D01*
X405381Y313925D01*
X405314Y313858D01*
X405250Y313788D01*
X405189Y313716D01*
X405130Y313642D01*
X405075Y313565D01*
X405023Y313486D01*
X404974Y313405D01*
X404928Y313322D01*
X404886Y313237D01*
X404847Y313151D01*
X404812Y313063D01*
X404780Y312974D01*
X404752Y312884D01*
X404727Y312792D01*
X404706Y312700D01*
X404689Y312607D01*
X404676Y312513D01*
X404667Y312419D01*
X404661Y312325D01*
X404659Y312230D01*
X407009Y314579D02*
X407117Y314577D01*
X407226Y314571D01*
X407334Y314561D01*
X407441Y314548D01*
X407548Y314530D01*
X407655Y314509D01*
X407760Y314484D01*
X407865Y314455D01*
X407968Y314423D01*
X408070Y314386D01*
X408171Y314346D01*
X408270Y314303D01*
X408368Y314256D01*
X408464Y314205D01*
X408558Y314151D01*
X408650Y314094D01*
X408740Y314033D01*
X408828Y313969D01*
X408913Y313903D01*
X408996Y313833D01*
X409076Y313760D01*
X409154Y313684D01*
X409229Y313606D01*
X409301Y313525D01*
X409370Y313441D01*
X409436Y313355D01*
X409499Y313267D01*
X409558Y313176D01*
X409615Y313084D01*
X409668Y312989D01*
X409717Y312892D01*
X409763Y312794D01*
X409806Y312695D01*
X409845Y312593D01*
X409880Y312491D01*
X405442Y310402D02*
X405373Y310471D01*
X405307Y310542D01*
X405243Y310615D01*
X405182Y310691D01*
X405124Y310770D01*
X405070Y310850D01*
X405018Y310933D01*
X404970Y311017D01*
X404924Y311103D01*
X404883Y311191D01*
X404844Y311281D01*
X404809Y311372D01*
X404778Y311464D01*
X404750Y311557D01*
X404726Y311651D01*
X404706Y311746D01*
X404689Y311842D01*
X404676Y311939D01*
X404667Y312036D01*
X404661Y312133D01*
X404659Y312230D01*
X405442Y310402D02*
X409880Y305181D01*
X404659Y305181D01*
D11*
X241300Y63500D03*
X215900Y63500D03*
X444500Y139700D03*
X419100Y139700D03*
D12*
X419100Y76200D03*
X444500Y76200D03*
D13*
X203200Y271780D02*
X203200Y287020D01*
X228600Y287020D02*
X228600Y271780D01*
X254000Y271780D02*
X254000Y287020D01*
X76200Y287020D02*
X76200Y271780D01*
X101600Y271780D02*
X101600Y287020D01*
X127000Y287020D02*
X127000Y271780D01*
D14*
X304800Y88900D03*
X381000Y88900D03*
X304800Y50800D03*
X381000Y50800D03*
X127000Y63500D03*
X152400Y63500D03*
D13*
X500380Y139700D02*
X515620Y139700D01*
X515620Y165100D02*
X500380Y165100D01*
X500380Y190500D02*
X515620Y190500D01*
X515620Y215900D02*
X500380Y215900D01*
X500380Y241300D02*
X515620Y241300D01*
X515620Y266700D02*
X500380Y266700D01*
D14*
X50800Y63500D03*
X76200Y63500D03*
D15*
X53740Y227000D02*
X38660Y227000D01*
X38660Y154000D02*
X53740Y154000D01*
X86660Y227000D02*
X101740Y227000D01*
X101740Y154000D02*
X86660Y154000D01*
D16*
X219075Y171450D02*
X219075Y269875D01*
X228600Y279400D01*
D17*
X219075Y171450D03*
D16*
X101600Y279400D02*
X120650Y298450D01*
X234950Y298450D01*
X254000Y279400D01*
X241300Y63500D02*
X233363Y63500D01*
X65088Y231775D01*
X65088Y292100D01*
X71438Y298450D01*
X80963Y298450D01*
X100013Y279400D01*
X101600Y279400D01*
X419100Y114300D02*
X419100Y76200D01*
X419100Y114300D02*
X444500Y139700D01*
X266700Y88900D02*
X76200Y279400D01*
X266700Y88900D02*
X304800Y88900D01*
X230188Y187325D02*
X239713Y196850D01*
X239713Y231775D01*
X234950Y236538D01*
X234950Y242888D01*
X239713Y247650D01*
X477838Y247650D01*
X498475Y227013D01*
X520700Y227013D01*
X527050Y220663D01*
X527050Y184150D01*
X508000Y165100D01*
D17*
X230188Y187325D03*
D16*
X207963Y128588D02*
X206375Y128588D01*
X207963Y128588D02*
X223838Y112713D01*
X223838Y111125D01*
X390525Y128588D02*
X477838Y215900D01*
X508000Y215900D01*
D17*
X206375Y128588D03*
X223838Y111125D03*
X390525Y128588D03*
D16*
X234950Y177800D02*
X228600Y177800D01*
X234950Y177800D02*
X269875Y212725D01*
X269875Y217488D01*
X285750Y233363D01*
X293688Y233363D01*
X312738Y214313D01*
X312738Y123825D01*
X311150Y122238D01*
X428625Y114300D02*
X428625Y112713D01*
X428625Y114300D02*
X438150Y123825D01*
X446088Y123825D01*
X488950Y166688D01*
X488950Y171450D01*
X508000Y190500D01*
D17*
X228600Y177800D03*
X311150Y122238D03*
X428625Y112713D03*
D16*
X231775Y201613D02*
X231775Y212725D01*
X231775Y201613D02*
X227013Y196850D01*
D17*
X231775Y212725D03*
X227013Y196850D03*
D16*
X242888Y239713D02*
X296863Y239713D01*
X319088Y217488D01*
X319088Y88900D01*
X280988Y50800D01*
X165100Y50800D01*
X152400Y63500D01*
D17*
X242888Y239713D03*
D16*
X61913Y63500D02*
X50800Y63500D01*
X61913Y63500D02*
X80963Y44450D01*
X284163Y44450D01*
X328613Y88900D01*
X381000Y88900D01*
M02*
