G04 EAGLE Gerber RS-274X export*
G75*
%MOMM*%
%FSLAX34Y34*%
%LPD*%
%INTop Copper*%
%IPPOS*%
%AMOC8*
5,1,8,0,0,1.08239X$1,22.5*%
G01*
%ADD10P,1.732040X8X202.500000*%
%ADD11P,1.732040X8X22.500000*%
%ADD12C,1.524000*%
%ADD13R,0.400000X1.500000*%
%ADD14P,1.429621X8X22.500000*%
%ADD15C,1.508000*%
%ADD16R,3.100000X0.500000*%
%ADD17C,0.381000*%
%ADD18C,0.756400*%

G36*
X463682Y104491D02*
X463682Y104491D01*
X463749Y104492D01*
X463875Y104518D01*
X464002Y104536D01*
X464065Y104558D01*
X464130Y104572D01*
X464248Y104623D01*
X464370Y104667D01*
X464426Y104701D01*
X464487Y104728D01*
X464557Y104781D01*
X464702Y104870D01*
X464827Y104986D01*
X464897Y105039D01*
X490360Y130502D01*
X490402Y130554D01*
X490450Y130599D01*
X490525Y130705D01*
X490606Y130805D01*
X490636Y130864D01*
X490675Y130918D01*
X490726Y131036D01*
X490785Y131151D01*
X490803Y131215D01*
X490829Y131276D01*
X490855Y131402D01*
X490890Y131526D01*
X490895Y131593D01*
X490908Y131658D01*
X490908Y131787D01*
X490916Y131915D01*
X490907Y131981D01*
X490907Y132047D01*
X490881Y132174D01*
X490863Y132301D01*
X490841Y132364D01*
X490827Y132429D01*
X490776Y132547D01*
X490732Y132668D01*
X490698Y132725D01*
X490671Y132786D01*
X490618Y132856D01*
X490529Y133001D01*
X490490Y133044D01*
X488695Y137376D01*
X488695Y142024D01*
X490474Y146319D01*
X493761Y149606D01*
X496260Y150641D01*
X496289Y150657D01*
X496320Y150667D01*
X496460Y150749D01*
X496603Y150826D01*
X496628Y150847D01*
X496657Y150864D01*
X496777Y150973D01*
X496901Y151077D01*
X496921Y151103D01*
X496946Y151126D01*
X497041Y151256D01*
X497141Y151384D01*
X497156Y151414D01*
X497176Y151440D01*
X497242Y151588D01*
X497314Y151733D01*
X497323Y151765D01*
X497337Y151795D01*
X497372Y151953D01*
X497413Y152110D01*
X497415Y152143D01*
X497422Y152176D01*
X497424Y152337D01*
X497432Y152499D01*
X497427Y152532D01*
X497428Y152566D01*
X497397Y152724D01*
X497372Y152885D01*
X497361Y152916D01*
X497354Y152948D01*
X497292Y153098D01*
X497235Y153249D01*
X497217Y153277D01*
X497205Y153308D01*
X497113Y153442D01*
X497026Y153579D01*
X497003Y153602D01*
X496985Y153630D01*
X496868Y153742D01*
X496755Y153858D01*
X496728Y153877D01*
X496704Y153900D01*
X496632Y153942D01*
X496433Y154077D01*
X496323Y154122D01*
X496260Y154159D01*
X493761Y155194D01*
X490474Y158481D01*
X488695Y162776D01*
X488695Y167424D01*
X490474Y171719D01*
X493761Y175006D01*
X496260Y176041D01*
X496289Y176057D01*
X496320Y176067D01*
X496460Y176149D01*
X496603Y176226D01*
X496628Y176247D01*
X496657Y176264D01*
X496777Y176373D01*
X496901Y176477D01*
X496921Y176503D01*
X496946Y176526D01*
X497041Y176656D01*
X497141Y176784D01*
X497156Y176814D01*
X497176Y176840D01*
X497242Y176988D01*
X497314Y177133D01*
X497323Y177165D01*
X497337Y177195D01*
X497372Y177353D01*
X497413Y177510D01*
X497415Y177543D01*
X497422Y177576D01*
X497424Y177737D01*
X497432Y177899D01*
X497427Y177932D01*
X497428Y177966D01*
X497397Y178124D01*
X497372Y178285D01*
X497361Y178316D01*
X497354Y178348D01*
X497292Y178498D01*
X497235Y178649D01*
X497217Y178677D01*
X497205Y178708D01*
X497113Y178842D01*
X497026Y178979D01*
X497003Y179002D01*
X496985Y179030D01*
X496868Y179142D01*
X496755Y179258D01*
X496728Y179277D01*
X496704Y179300D01*
X496632Y179342D01*
X496433Y179477D01*
X496323Y179522D01*
X496260Y179559D01*
X493761Y180594D01*
X490474Y183881D01*
X488695Y188176D01*
X488695Y192824D01*
X490474Y197119D01*
X493761Y200406D01*
X496260Y201441D01*
X496289Y201457D01*
X496320Y201467D01*
X496460Y201549D01*
X496603Y201626D01*
X496628Y201647D01*
X496657Y201664D01*
X496777Y201773D01*
X496901Y201877D01*
X496921Y201903D01*
X496946Y201926D01*
X497042Y202057D01*
X497141Y202184D01*
X497156Y202213D01*
X497176Y202240D01*
X497243Y202388D01*
X497314Y202533D01*
X497323Y202565D01*
X497337Y202596D01*
X497372Y202753D01*
X497413Y202910D01*
X497415Y202943D01*
X497422Y202976D01*
X497424Y203137D01*
X497432Y203299D01*
X497427Y203332D01*
X497428Y203366D01*
X497397Y203524D01*
X497372Y203685D01*
X497361Y203716D01*
X497354Y203748D01*
X497292Y203898D01*
X497235Y204049D01*
X497217Y204078D01*
X497205Y204108D01*
X497113Y204242D01*
X497026Y204379D01*
X497003Y204403D01*
X496985Y204430D01*
X496868Y204542D01*
X496755Y204659D01*
X496728Y204677D01*
X496704Y204700D01*
X496632Y204742D01*
X496433Y204877D01*
X496323Y204923D01*
X496260Y204959D01*
X493761Y205994D01*
X490474Y209281D01*
X488695Y213576D01*
X488695Y218224D01*
X490474Y222519D01*
X493761Y225806D01*
X496260Y226841D01*
X496289Y226857D01*
X496320Y226867D01*
X496460Y226949D01*
X496603Y227026D01*
X496628Y227047D01*
X496657Y227064D01*
X496776Y227172D01*
X496901Y227277D01*
X496921Y227303D01*
X496946Y227326D01*
X497041Y227456D01*
X497141Y227584D01*
X497156Y227614D01*
X497176Y227640D01*
X497242Y227788D01*
X497314Y227933D01*
X497323Y227965D01*
X497337Y227995D01*
X497372Y228153D01*
X497413Y228310D01*
X497415Y228343D01*
X497422Y228376D01*
X497424Y228537D01*
X497433Y228699D01*
X497427Y228732D01*
X497428Y228766D01*
X497397Y228924D01*
X497372Y229085D01*
X497361Y229116D01*
X497354Y229148D01*
X497292Y229298D01*
X497235Y229449D01*
X497217Y229478D01*
X497205Y229508D01*
X497113Y229642D01*
X497027Y229779D01*
X497003Y229803D01*
X496985Y229830D01*
X496868Y229942D01*
X496755Y230058D01*
X496728Y230077D01*
X496704Y230100D01*
X496631Y230142D01*
X496433Y230277D01*
X496323Y230322D01*
X496260Y230359D01*
X493761Y231394D01*
X490474Y234681D01*
X488695Y238976D01*
X488695Y243624D01*
X490474Y247919D01*
X493761Y251206D01*
X496260Y252241D01*
X496289Y252257D01*
X496320Y252267D01*
X496460Y252349D01*
X496603Y252426D01*
X496628Y252447D01*
X496657Y252464D01*
X496776Y252572D01*
X496901Y252677D01*
X496921Y252703D01*
X496946Y252726D01*
X497041Y252856D01*
X497141Y252984D01*
X497156Y253014D01*
X497176Y253040D01*
X497242Y253188D01*
X497314Y253333D01*
X497323Y253365D01*
X497337Y253395D01*
X497372Y253553D01*
X497413Y253710D01*
X497415Y253743D01*
X497422Y253776D01*
X497424Y253937D01*
X497433Y254099D01*
X497427Y254132D01*
X497428Y254166D01*
X497397Y254324D01*
X497372Y254485D01*
X497361Y254516D01*
X497354Y254548D01*
X497292Y254698D01*
X497235Y254849D01*
X497217Y254878D01*
X497205Y254908D01*
X497113Y255042D01*
X497027Y255179D01*
X497003Y255203D01*
X496985Y255230D01*
X496868Y255342D01*
X496755Y255458D01*
X496728Y255477D01*
X496704Y255500D01*
X496631Y255542D01*
X496433Y255677D01*
X496323Y255722D01*
X496260Y255759D01*
X493761Y256794D01*
X490383Y260173D01*
X490306Y260235D01*
X490235Y260306D01*
X490155Y260358D01*
X490080Y260418D01*
X489992Y260464D01*
X489909Y260519D01*
X489819Y260554D01*
X489734Y260598D01*
X489638Y260625D01*
X489546Y260661D01*
X489473Y260671D01*
X489359Y260703D01*
X489119Y260719D01*
X489036Y260730D01*
X371562Y260730D01*
X371463Y260720D01*
X371363Y260720D01*
X371269Y260700D01*
X371174Y260690D01*
X371079Y260660D01*
X370981Y260640D01*
X370894Y260601D01*
X370802Y260572D01*
X370715Y260523D01*
X370624Y260484D01*
X370566Y260439D01*
X370463Y260381D01*
X370281Y260223D01*
X370215Y260173D01*
X279108Y169065D01*
X279087Y169040D01*
X279062Y169018D01*
X278964Y168889D01*
X278862Y168763D01*
X278847Y168734D01*
X278827Y168707D01*
X278757Y168561D01*
X278683Y168417D01*
X278674Y168385D01*
X278660Y168355D01*
X278621Y168198D01*
X278578Y168042D01*
X278575Y168008D01*
X278568Y167976D01*
X278562Y167814D01*
X278551Y167653D01*
X278556Y167620D01*
X278555Y167586D01*
X278583Y167427D01*
X278605Y167267D01*
X278616Y167235D01*
X278622Y167202D01*
X278681Y167052D01*
X278736Y166899D01*
X278753Y166871D01*
X278765Y166840D01*
X278854Y166705D01*
X278939Y166567D01*
X278961Y166542D01*
X278980Y166514D01*
X279094Y166400D01*
X279205Y166282D01*
X279232Y166263D01*
X279256Y166239D01*
X279391Y166151D01*
X279524Y166058D01*
X279554Y166045D01*
X279582Y166026D01*
X279733Y165967D01*
X279881Y165903D01*
X279914Y165896D01*
X279945Y165884D01*
X280028Y165873D01*
X280263Y165824D01*
X280382Y165825D01*
X280454Y165815D01*
X287234Y165815D01*
X289615Y163434D01*
X289615Y147574D01*
X289622Y147508D01*
X289619Y147441D01*
X289641Y147314D01*
X289655Y147186D01*
X289675Y147123D01*
X289686Y147057D01*
X289734Y146938D01*
X289773Y146815D01*
X289805Y146757D01*
X289830Y146695D01*
X289901Y146588D01*
X289964Y146475D01*
X290008Y146425D01*
X290044Y146369D01*
X290135Y146278D01*
X290220Y146181D01*
X290273Y146141D01*
X290320Y146094D01*
X290428Y146024D01*
X290531Y145946D01*
X290591Y145918D01*
X290647Y145881D01*
X290767Y145834D01*
X290883Y145779D01*
X290948Y145763D01*
X291010Y145739D01*
X291096Y145727D01*
X291262Y145687D01*
X291432Y145682D01*
X291519Y145670D01*
X407217Y145670D01*
X407316Y145680D01*
X407416Y145680D01*
X407510Y145700D01*
X407605Y145710D01*
X407700Y145740D01*
X407798Y145760D01*
X407885Y145799D01*
X407977Y145828D01*
X408064Y145877D01*
X408155Y145916D01*
X408213Y145961D01*
X408316Y146019D01*
X408498Y146177D01*
X408564Y146227D01*
X414102Y151766D01*
X424098Y151766D01*
X431531Y144332D01*
X431583Y144291D01*
X431628Y144242D01*
X431734Y144168D01*
X431834Y144086D01*
X431893Y144056D01*
X431947Y144018D01*
X432065Y143966D01*
X432180Y143907D01*
X432244Y143889D01*
X432305Y143863D01*
X432431Y143837D01*
X432555Y143802D01*
X432621Y143798D01*
X432686Y143784D01*
X432815Y143785D01*
X432944Y143776D01*
X433010Y143785D01*
X433076Y143785D01*
X433202Y143812D01*
X433330Y143829D01*
X433393Y143851D01*
X433458Y143865D01*
X433576Y143917D01*
X433697Y143960D01*
X433754Y143995D01*
X433815Y144021D01*
X433885Y144074D01*
X434030Y144163D01*
X434154Y144279D01*
X434224Y144332D01*
X440133Y150242D01*
X442469Y150242D01*
X442469Y139827D01*
X442476Y139761D01*
X442473Y139695D01*
X442480Y139656D01*
X442469Y139573D01*
X442469Y129137D01*
X442455Y129135D01*
X442294Y129118D01*
X442262Y129108D01*
X442229Y129104D01*
X442076Y129049D01*
X441922Y129000D01*
X441893Y128984D01*
X441862Y128973D01*
X441724Y128889D01*
X441583Y128809D01*
X441557Y128787D01*
X441529Y128770D01*
X441411Y128659D01*
X441289Y128553D01*
X441269Y128526D01*
X441244Y128504D01*
X441151Y128371D01*
X441054Y128242D01*
X441039Y128212D01*
X441020Y128185D01*
X440956Y128036D01*
X440887Y127890D01*
X440879Y127858D01*
X440865Y127827D01*
X440833Y127668D01*
X440795Y127511D01*
X440794Y127478D01*
X440787Y127445D01*
X440787Y127283D01*
X440782Y127121D01*
X440788Y127089D01*
X440788Y127055D01*
X440821Y126897D01*
X440849Y126737D01*
X440861Y126707D01*
X440868Y126674D01*
X440933Y126525D01*
X440992Y126375D01*
X441010Y126347D01*
X441024Y126317D01*
X441074Y126250D01*
X441207Y126050D01*
X441291Y125966D01*
X441335Y125908D01*
X462204Y105039D01*
X462255Y104997D01*
X462300Y104949D01*
X462406Y104874D01*
X462506Y104793D01*
X462565Y104762D01*
X462619Y104724D01*
X462738Y104673D01*
X462852Y104614D01*
X462916Y104596D01*
X462977Y104569D01*
X463103Y104543D01*
X463227Y104509D01*
X463294Y104504D01*
X463359Y104491D01*
X463488Y104491D01*
X463616Y104482D01*
X463682Y104491D01*
G37*
G36*
X293817Y45664D02*
X293817Y45664D01*
X293884Y45662D01*
X294011Y45684D01*
X294139Y45697D01*
X294202Y45717D01*
X294268Y45729D01*
X294387Y45776D01*
X294510Y45815D01*
X294568Y45848D01*
X294630Y45872D01*
X294738Y45943D01*
X294850Y46006D01*
X294900Y46050D01*
X294956Y46087D01*
X295046Y46178D01*
X295144Y46263D01*
X295184Y46316D01*
X295231Y46363D01*
X295301Y46471D01*
X295379Y46573D01*
X295407Y46634D01*
X295444Y46689D01*
X295491Y46809D01*
X295546Y46926D01*
X295562Y46990D01*
X295586Y47052D01*
X295598Y47139D01*
X295638Y47304D01*
X295643Y47475D01*
X295655Y47562D01*
X295655Y48769D01*
X304673Y48769D01*
X304739Y48776D01*
X304805Y48773D01*
X304844Y48780D01*
X304927Y48769D01*
X313945Y48769D01*
X313945Y47561D01*
X313952Y47495D01*
X313949Y47429D01*
X313971Y47302D01*
X313985Y47174D01*
X314005Y47110D01*
X314016Y47045D01*
X314064Y46925D01*
X314103Y46802D01*
X314135Y46744D01*
X314160Y46683D01*
X314230Y46575D01*
X314294Y46463D01*
X314338Y46412D01*
X314374Y46357D01*
X314465Y46266D01*
X314550Y46169D01*
X314603Y46129D01*
X314650Y46082D01*
X314758Y46011D01*
X314861Y45934D01*
X314921Y45905D01*
X314977Y45869D01*
X315097Y45822D01*
X315213Y45767D01*
X315278Y45751D01*
X315340Y45727D01*
X315426Y45715D01*
X315592Y45675D01*
X315762Y45669D01*
X315849Y45657D01*
X352338Y45657D01*
X352437Y45667D01*
X352537Y45668D01*
X352631Y45687D01*
X352726Y45697D01*
X352821Y45727D01*
X352919Y45748D01*
X353006Y45786D01*
X353098Y45815D01*
X353185Y45864D01*
X353276Y45904D01*
X353334Y45948D01*
X353437Y46006D01*
X353619Y46165D01*
X353685Y46215D01*
X376031Y68561D01*
X378225Y69470D01*
X406654Y69470D01*
X406720Y69477D01*
X406787Y69474D01*
X406914Y69496D01*
X407042Y69510D01*
X407105Y69530D01*
X407171Y69541D01*
X407290Y69589D01*
X407413Y69628D01*
X407471Y69660D01*
X407533Y69685D01*
X407640Y69756D01*
X407753Y69819D01*
X407803Y69863D01*
X407859Y69899D01*
X407950Y69990D01*
X408047Y70075D01*
X408087Y70128D01*
X408134Y70175D01*
X408204Y70283D01*
X408282Y70386D01*
X408310Y70446D01*
X408347Y70502D01*
X408394Y70622D01*
X408449Y70738D01*
X408465Y70803D01*
X408489Y70865D01*
X408501Y70951D01*
X408541Y71117D01*
X408546Y71287D01*
X408558Y71374D01*
X408558Y74169D01*
X418973Y74169D01*
X419039Y74176D01*
X419105Y74173D01*
X419232Y74195D01*
X419361Y74209D01*
X419424Y74229D01*
X419489Y74240D01*
X419609Y74288D01*
X419732Y74327D01*
X419790Y74359D01*
X419852Y74384D01*
X419959Y74454D01*
X420072Y74518D01*
X420122Y74562D01*
X420177Y74598D01*
X420268Y74689D01*
X420365Y74774D01*
X420405Y74827D01*
X420429Y74850D01*
X420432Y74852D01*
X420523Y74944D01*
X420620Y75028D01*
X420660Y75081D01*
X420707Y75128D01*
X420777Y75236D01*
X420855Y75339D01*
X420883Y75399D01*
X420920Y75455D01*
X420967Y75575D01*
X421022Y75691D01*
X421038Y75756D01*
X421062Y75818D01*
X421074Y75905D01*
X421114Y76070D01*
X421119Y76240D01*
X421131Y76327D01*
X421131Y86742D01*
X423467Y86742D01*
X429376Y80832D01*
X429427Y80791D01*
X429473Y80742D01*
X429578Y80668D01*
X429678Y80586D01*
X429737Y80556D01*
X429792Y80518D01*
X429910Y80466D01*
X430024Y80407D01*
X430088Y80389D01*
X430149Y80363D01*
X430276Y80337D01*
X430400Y80302D01*
X430466Y80298D01*
X430531Y80284D01*
X430660Y80285D01*
X430789Y80276D01*
X430854Y80285D01*
X430921Y80285D01*
X431047Y80312D01*
X431175Y80329D01*
X431237Y80351D01*
X431302Y80365D01*
X431421Y80417D01*
X431542Y80460D01*
X431599Y80495D01*
X431660Y80521D01*
X431729Y80574D01*
X431875Y80663D01*
X431999Y80779D01*
X432069Y80832D01*
X439502Y88266D01*
X447334Y88266D01*
X447433Y88276D01*
X447533Y88276D01*
X447627Y88296D01*
X447722Y88306D01*
X447817Y88336D01*
X447915Y88356D01*
X448002Y88395D01*
X448094Y88424D01*
X448181Y88473D01*
X448272Y88512D01*
X448330Y88556D01*
X448433Y88615D01*
X448615Y88773D01*
X448681Y88823D01*
X453761Y93903D01*
X453803Y93955D01*
X453851Y94000D01*
X453926Y94106D01*
X454007Y94206D01*
X454038Y94265D01*
X454076Y94319D01*
X454127Y94437D01*
X454186Y94552D01*
X454204Y94616D01*
X454231Y94677D01*
X454257Y94803D01*
X454291Y94927D01*
X454296Y94994D01*
X454309Y95059D01*
X454309Y95188D01*
X454318Y95316D01*
X454309Y95382D01*
X454308Y95449D01*
X454282Y95575D01*
X454264Y95702D01*
X454242Y95765D01*
X454228Y95830D01*
X454177Y95948D01*
X454133Y96070D01*
X454099Y96126D01*
X454072Y96187D01*
X454019Y96257D01*
X453930Y96402D01*
X453814Y96527D01*
X453761Y96596D01*
X439288Y111070D01*
X439249Y111101D01*
X439216Y111138D01*
X439098Y111224D01*
X438985Y111316D01*
X438941Y111339D01*
X438901Y111368D01*
X438768Y111428D01*
X438639Y111495D01*
X438591Y111508D01*
X438546Y111529D01*
X438404Y111561D01*
X438264Y111600D01*
X438214Y111603D01*
X438165Y111614D01*
X438020Y111617D01*
X437875Y111626D01*
X437825Y111620D01*
X437776Y111620D01*
X437633Y111593D01*
X437489Y111573D01*
X437442Y111556D01*
X437393Y111547D01*
X437259Y111491D01*
X437122Y111442D01*
X437079Y111416D01*
X437033Y111397D01*
X436913Y111315D01*
X436789Y111239D01*
X436752Y111205D01*
X436711Y111177D01*
X436611Y111072D01*
X436504Y110973D01*
X436475Y110932D01*
X436441Y110896D01*
X436396Y110819D01*
X436280Y110654D01*
X436223Y110523D01*
X436182Y110452D01*
X435277Y108268D01*
X433070Y106060D01*
X430186Y104866D01*
X427064Y104866D01*
X424180Y106060D01*
X424056Y106185D01*
X423978Y106248D01*
X423908Y106318D01*
X423827Y106371D01*
X423753Y106431D01*
X423665Y106477D01*
X423581Y106531D01*
X423492Y106566D01*
X423407Y106610D01*
X423311Y106637D01*
X423218Y106673D01*
X423146Y106683D01*
X423032Y106715D01*
X422792Y106732D01*
X422709Y106743D01*
X394100Y106743D01*
X391906Y107652D01*
X382260Y117298D01*
X382183Y117360D01*
X382112Y117431D01*
X382032Y117483D01*
X381958Y117543D01*
X381869Y117589D01*
X381786Y117644D01*
X381697Y117679D01*
X381611Y117723D01*
X381516Y117750D01*
X381423Y117786D01*
X381351Y117796D01*
X381236Y117828D01*
X380996Y117844D01*
X380913Y117855D01*
X318653Y117855D01*
X318555Y117845D01*
X318455Y117845D01*
X318361Y117825D01*
X318266Y117815D01*
X318171Y117785D01*
X318073Y117765D01*
X317986Y117726D01*
X317894Y117697D01*
X317807Y117648D01*
X317716Y117609D01*
X317658Y117564D01*
X317555Y117506D01*
X317373Y117348D01*
X317307Y117298D01*
X315595Y115585D01*
X312711Y114391D01*
X309589Y114391D01*
X306705Y115585D01*
X304498Y117793D01*
X303303Y120677D01*
X303303Y122301D01*
X303296Y122367D01*
X303299Y122434D01*
X303277Y122561D01*
X303263Y122689D01*
X303243Y122752D01*
X303232Y122818D01*
X303184Y122937D01*
X303145Y123060D01*
X303113Y123118D01*
X303088Y123180D01*
X303017Y123287D01*
X302954Y123400D01*
X302910Y123450D01*
X302874Y123506D01*
X302783Y123597D01*
X302698Y123694D01*
X302645Y123734D01*
X302598Y123781D01*
X302490Y123851D01*
X302387Y123929D01*
X302327Y123957D01*
X302271Y123994D01*
X302151Y124041D01*
X302035Y124096D01*
X301970Y124112D01*
X301908Y124136D01*
X301822Y124148D01*
X301656Y124188D01*
X301486Y124193D01*
X301399Y124205D01*
X242974Y124205D01*
X242875Y124195D01*
X242775Y124195D01*
X242681Y124175D01*
X242586Y124165D01*
X242491Y124135D01*
X242394Y124115D01*
X242306Y124076D01*
X242215Y124047D01*
X242128Y123998D01*
X242037Y123959D01*
X241979Y123914D01*
X241875Y123856D01*
X241694Y123698D01*
X241627Y123648D01*
X232242Y114262D01*
X232179Y114185D01*
X232109Y114114D01*
X232056Y114034D01*
X231996Y113960D01*
X231950Y113871D01*
X231896Y113788D01*
X231861Y113699D01*
X231817Y113613D01*
X231790Y113518D01*
X231754Y113425D01*
X231744Y113353D01*
X231712Y113238D01*
X231695Y112998D01*
X231684Y112916D01*
X231684Y109564D01*
X230490Y106680D01*
X228282Y104473D01*
X225398Y103278D01*
X223774Y103278D01*
X223708Y103271D01*
X223641Y103274D01*
X223514Y103252D01*
X223386Y103238D01*
X223323Y103218D01*
X223257Y103207D01*
X223138Y103159D01*
X223015Y103120D01*
X222957Y103088D01*
X222895Y103063D01*
X222788Y102992D01*
X222675Y102929D01*
X222625Y102885D01*
X222569Y102849D01*
X222478Y102758D01*
X222381Y102673D01*
X222341Y102620D01*
X222294Y102573D01*
X222224Y102465D01*
X222146Y102362D01*
X222118Y102302D01*
X222081Y102246D01*
X222034Y102126D01*
X221979Y102010D01*
X221963Y101945D01*
X221939Y101883D01*
X221927Y101797D01*
X221887Y101631D01*
X221882Y101461D01*
X221870Y101374D01*
X221870Y75383D01*
X221880Y75284D01*
X221880Y75184D01*
X221900Y75090D01*
X221910Y74995D01*
X221940Y74900D01*
X221960Y74802D01*
X221999Y74715D01*
X222028Y74623D01*
X222077Y74536D01*
X222116Y74445D01*
X222161Y74387D01*
X222219Y74284D01*
X222377Y74102D01*
X222427Y74036D01*
X227254Y69210D01*
X227305Y69168D01*
X227350Y69120D01*
X227456Y69045D01*
X227556Y68964D01*
X227615Y68933D01*
X227669Y68895D01*
X227788Y68844D01*
X227902Y68785D01*
X227966Y68767D01*
X228027Y68741D01*
X228153Y68715D01*
X228277Y68680D01*
X228344Y68675D01*
X228409Y68662D01*
X228538Y68662D01*
X228666Y68653D01*
X228732Y68663D01*
X228799Y68663D01*
X228925Y68689D01*
X229052Y68707D01*
X229115Y68729D01*
X229180Y68743D01*
X229298Y68794D01*
X229420Y68838D01*
X229476Y68872D01*
X229537Y68899D01*
X229607Y68952D01*
X229752Y69041D01*
X229877Y69157D01*
X229947Y69210D01*
X236302Y75566D01*
X246298Y75566D01*
X253366Y68498D01*
X253366Y58502D01*
X246298Y51434D01*
X236302Y51434D01*
X229947Y57790D01*
X229895Y57832D01*
X229850Y57880D01*
X229744Y57955D01*
X229644Y58036D01*
X229585Y58067D01*
X229531Y58105D01*
X229412Y58156D01*
X229298Y58215D01*
X229234Y58233D01*
X229173Y58259D01*
X229047Y58285D01*
X228923Y58320D01*
X228856Y58325D01*
X228791Y58338D01*
X228662Y58338D01*
X228534Y58347D01*
X228468Y58337D01*
X228401Y58337D01*
X228275Y58311D01*
X228148Y58293D01*
X228085Y58271D01*
X228020Y58257D01*
X227902Y58206D01*
X227780Y58162D01*
X227724Y58128D01*
X227663Y58101D01*
X227593Y58048D01*
X227448Y57959D01*
X227323Y57843D01*
X227254Y57790D01*
X221268Y51805D01*
X221226Y51753D01*
X221178Y51708D01*
X221103Y51602D01*
X221022Y51502D01*
X220992Y51443D01*
X220953Y51389D01*
X220902Y51271D01*
X220843Y51156D01*
X220825Y51092D01*
X220799Y51031D01*
X220773Y50905D01*
X220738Y50781D01*
X220734Y50715D01*
X220720Y50649D01*
X220720Y50520D01*
X220712Y50392D01*
X220721Y50326D01*
X220721Y50260D01*
X220747Y50133D01*
X220765Y50006D01*
X220787Y49943D01*
X220801Y49878D01*
X220853Y49760D01*
X220896Y49639D01*
X220930Y49582D01*
X220957Y49521D01*
X221010Y49451D01*
X221099Y49306D01*
X221215Y49181D01*
X221268Y49112D01*
X224165Y46215D01*
X224242Y46152D01*
X224313Y46082D01*
X224393Y46029D01*
X224467Y45969D01*
X224556Y45923D01*
X224639Y45869D01*
X224728Y45834D01*
X224814Y45790D01*
X224909Y45763D01*
X225002Y45727D01*
X225074Y45717D01*
X225189Y45685D01*
X225429Y45668D01*
X225512Y45657D01*
X293751Y45657D01*
X293817Y45664D01*
G37*
%LPC*%
G36*
X376581Y78231D02*
X376581Y78231D01*
X370331Y84481D01*
X370331Y93319D01*
X376581Y99569D01*
X385419Y99569D01*
X391669Y93319D01*
X391669Y84481D01*
X385419Y78231D01*
X376581Y78231D01*
G37*
%LPD*%
G36*
X73127Y239366D02*
X73127Y239366D01*
X73160Y239366D01*
X73319Y239399D01*
X73478Y239427D01*
X73509Y239439D01*
X73542Y239446D01*
X73690Y239511D01*
X73840Y239570D01*
X73868Y239588D01*
X73899Y239602D01*
X73965Y239652D01*
X74166Y239785D01*
X74250Y239869D01*
X74308Y239913D01*
X80785Y246390D01*
X80848Y246467D01*
X80918Y246538D01*
X80971Y246618D01*
X81031Y246692D01*
X81077Y246781D01*
X81131Y246864D01*
X81166Y246953D01*
X81210Y247039D01*
X81237Y247134D01*
X81273Y247227D01*
X81283Y247299D01*
X81315Y247414D01*
X81332Y247654D01*
X81343Y247737D01*
X81343Y260146D01*
X81325Y260316D01*
X81312Y260485D01*
X81305Y260509D01*
X81303Y260534D01*
X81251Y260696D01*
X81204Y260860D01*
X81192Y260882D01*
X81185Y260906D01*
X81101Y261054D01*
X81022Y261204D01*
X81006Y261223D01*
X80994Y261245D01*
X80882Y261374D01*
X80773Y261504D01*
X80754Y261520D01*
X80737Y261539D01*
X80602Y261642D01*
X80469Y261748D01*
X80447Y261759D01*
X80427Y261774D01*
X80273Y261847D01*
X80121Y261924D01*
X80097Y261931D01*
X80074Y261941D01*
X79910Y261981D01*
X79745Y262026D01*
X79720Y262027D01*
X79696Y262033D01*
X79526Y262039D01*
X79356Y262049D01*
X79335Y262045D01*
X79306Y262046D01*
X78922Y261979D01*
X78881Y261963D01*
X78850Y261957D01*
X78739Y261921D01*
X78739Y278765D01*
X78732Y278831D01*
X78735Y278897D01*
X78713Y279024D01*
X78699Y279153D01*
X78679Y279216D01*
X78668Y279281D01*
X78620Y279401D01*
X78581Y279524D01*
X78549Y279582D01*
X78524Y279644D01*
X78453Y279751D01*
X78390Y279864D01*
X78346Y279914D01*
X78310Y279969D01*
X78219Y280060D01*
X78134Y280157D01*
X78081Y280197D01*
X78034Y280244D01*
X77926Y280315D01*
X77823Y280393D01*
X77763Y280421D01*
X77707Y280457D01*
X77587Y280505D01*
X77471Y280560D01*
X77406Y280575D01*
X77344Y280600D01*
X77258Y280611D01*
X77092Y280652D01*
X76922Y280657D01*
X76835Y280669D01*
X75565Y280669D01*
X75499Y280662D01*
X75432Y280664D01*
X75305Y280642D01*
X75177Y280629D01*
X75114Y280609D01*
X75048Y280598D01*
X74929Y280550D01*
X74806Y280511D01*
X74748Y280478D01*
X74686Y280454D01*
X74579Y280383D01*
X74466Y280320D01*
X74416Y280276D01*
X74360Y280240D01*
X74269Y280148D01*
X74172Y280064D01*
X74132Y280011D01*
X74085Y279964D01*
X74015Y279856D01*
X73937Y279753D01*
X73909Y279693D01*
X73872Y279637D01*
X73825Y279517D01*
X73770Y279401D01*
X73754Y279336D01*
X73730Y279274D01*
X73718Y279187D01*
X73678Y279022D01*
X73673Y278852D01*
X73661Y278765D01*
X73661Y261921D01*
X73550Y261957D01*
X73384Y261993D01*
X73219Y262033D01*
X73193Y262034D01*
X73169Y262039D01*
X72999Y262040D01*
X72829Y262046D01*
X72804Y262042D01*
X72779Y262042D01*
X72612Y262008D01*
X72445Y261979D01*
X72422Y261970D01*
X72397Y261965D01*
X72240Y261898D01*
X72083Y261836D01*
X72062Y261822D01*
X72039Y261812D01*
X71899Y261715D01*
X71757Y261621D01*
X71739Y261604D01*
X71719Y261589D01*
X71602Y261466D01*
X71482Y261345D01*
X71468Y261324D01*
X71451Y261306D01*
X71362Y261161D01*
X71269Y261019D01*
X71260Y260995D01*
X71246Y260974D01*
X71189Y260814D01*
X71127Y260656D01*
X71124Y260635D01*
X71114Y260608D01*
X71059Y260222D01*
X71062Y260178D01*
X71057Y260146D01*
X71057Y241259D01*
X71061Y241226D01*
X71058Y241193D01*
X71081Y241033D01*
X71097Y240872D01*
X71107Y240840D01*
X71112Y240807D01*
X71166Y240654D01*
X71215Y240500D01*
X71231Y240471D01*
X71243Y240440D01*
X71327Y240302D01*
X71406Y240161D01*
X71428Y240135D01*
X71446Y240107D01*
X71556Y239989D01*
X71663Y239867D01*
X71689Y239847D01*
X71712Y239822D01*
X71844Y239729D01*
X71973Y239632D01*
X72004Y239617D01*
X72031Y239598D01*
X72179Y239534D01*
X72326Y239465D01*
X72358Y239457D01*
X72389Y239443D01*
X72547Y239411D01*
X72704Y239373D01*
X72738Y239372D01*
X72770Y239365D01*
X72932Y239365D01*
X73094Y239360D01*
X73127Y239366D01*
G37*
%LPC*%
G36*
X446531Y141731D02*
X446531Y141731D01*
X446531Y150242D01*
X448867Y150242D01*
X455042Y144067D01*
X455042Y141731D01*
X446531Y141731D01*
G37*
%LPD*%
%LPC*%
G36*
X408558Y78231D02*
X408558Y78231D01*
X408558Y80567D01*
X414733Y86742D01*
X417069Y86742D01*
X417069Y78231D01*
X408558Y78231D01*
G37*
%LPD*%
%LPC*%
G36*
X446531Y129158D02*
X446531Y129158D01*
X446531Y137669D01*
X455042Y137669D01*
X455042Y135333D01*
X448867Y129158D01*
X446531Y129158D01*
G37*
%LPD*%
%LPC*%
G36*
X306831Y90931D02*
X306831Y90931D01*
X306831Y98045D01*
X308588Y98045D01*
X313945Y92688D01*
X313945Y90931D01*
X306831Y90931D01*
G37*
%LPD*%
%LPC*%
G36*
X306831Y52831D02*
X306831Y52831D01*
X306831Y59945D01*
X308588Y59945D01*
X313945Y54588D01*
X313945Y52831D01*
X306831Y52831D01*
G37*
%LPD*%
%LPC*%
G36*
X295655Y90931D02*
X295655Y90931D01*
X295655Y92688D01*
X301012Y98045D01*
X302769Y98045D01*
X302769Y90931D01*
X295655Y90931D01*
G37*
%LPD*%
%LPC*%
G36*
X295655Y52831D02*
X295655Y52831D01*
X295655Y54588D01*
X301012Y59945D01*
X302769Y59945D01*
X302769Y52831D01*
X295655Y52831D01*
G37*
%LPD*%
%LPC*%
G36*
X306831Y79755D02*
X306831Y79755D01*
X306831Y86869D01*
X313945Y86869D01*
X313945Y85112D01*
X308588Y79755D01*
X306831Y79755D01*
G37*
%LPD*%
%LPC*%
G36*
X301012Y79755D02*
X301012Y79755D01*
X295655Y85112D01*
X295655Y86869D01*
X302769Y86869D01*
X302769Y79755D01*
X301012Y79755D01*
G37*
%LPD*%
D10*
X241300Y63500D03*
X215900Y63500D03*
X444500Y139700D03*
X419100Y139700D03*
D11*
X419100Y76200D03*
X444500Y76200D03*
D12*
X203200Y271780D02*
X203200Y287020D01*
X228600Y287020D02*
X228600Y271780D01*
X254000Y271780D02*
X254000Y287020D01*
D13*
X199050Y154250D03*
X205550Y154250D03*
X212050Y154250D03*
X218550Y154250D03*
X225050Y154250D03*
X231550Y154250D03*
X238050Y154250D03*
X244550Y154250D03*
X251050Y154250D03*
X257550Y154250D03*
X264050Y154250D03*
X270550Y154250D03*
X277050Y154250D03*
X283550Y154250D03*
X283550Y226750D03*
X277050Y226750D03*
X270550Y226750D03*
X264050Y226750D03*
X257550Y226750D03*
X251050Y226750D03*
X244550Y226750D03*
X238050Y226750D03*
X231550Y226750D03*
X225050Y226750D03*
X218550Y226750D03*
X212050Y226750D03*
X205550Y226750D03*
X199050Y226750D03*
D12*
X76200Y271780D02*
X76200Y287020D01*
X101600Y287020D02*
X101600Y271780D01*
X127000Y271780D02*
X127000Y287020D01*
D14*
X304800Y88900D03*
X381000Y88900D03*
X304800Y50800D03*
X381000Y50800D03*
X127000Y63500D03*
X152400Y63500D03*
D12*
X500380Y139700D02*
X515620Y139700D01*
X515620Y165100D02*
X500380Y165100D01*
X500380Y190500D02*
X515620Y190500D01*
X515620Y215900D02*
X500380Y215900D01*
X500380Y241300D02*
X515620Y241300D01*
X515620Y266700D02*
X500380Y266700D01*
D14*
X50800Y63500D03*
X76200Y63500D03*
D15*
X53740Y227000D02*
X38660Y227000D01*
X38660Y154000D02*
X53740Y154000D01*
X86660Y227000D02*
X101740Y227000D01*
X101740Y154000D02*
X86660Y154000D01*
D16*
X106200Y206500D03*
X106200Y198500D03*
X106200Y190500D03*
X106200Y182500D03*
X106200Y174500D03*
D17*
X177800Y279400D02*
X203200Y279400D01*
X177800Y279400D02*
X158750Y298450D01*
X122238Y298450D01*
X112713Y288925D01*
X112713Y214313D01*
X106363Y207963D01*
X106200Y206500D01*
X251039Y226762D02*
X251050Y226750D01*
X251039Y226762D02*
X251039Y241759D01*
X238798Y254000D01*
X215900Y254000D01*
X203200Y266700D01*
X203200Y279400D01*
X219075Y171450D02*
X219075Y155575D01*
X218550Y154250D01*
D18*
X219075Y171450D03*
D17*
X444500Y76200D02*
X463550Y95250D01*
X508000Y139700D01*
X463550Y95250D02*
X419100Y139700D01*
X217488Y227013D02*
X212725Y227013D01*
X212050Y226750D01*
X217488Y227013D02*
X218550Y226750D01*
X238125Y207963D02*
X238125Y204788D01*
X238125Y155575D01*
X238125Y207963D02*
X244475Y214313D01*
X244475Y225425D01*
X238125Y155575D02*
X238050Y154250D01*
X244475Y225425D02*
X244550Y226750D01*
X263525Y225425D02*
X263525Y217488D01*
X260350Y214313D01*
X244475Y214313D01*
X263525Y225425D02*
X264050Y226750D01*
X219075Y225425D02*
X219075Y214313D01*
X228600Y204788D01*
X238125Y204788D01*
X219075Y225425D02*
X218550Y226750D01*
X168275Y279400D02*
X127000Y279400D01*
X168275Y279400D02*
X212725Y234950D01*
X212725Y228600D01*
X212050Y226750D01*
X122238Y174625D02*
X106363Y174625D01*
X122238Y174625D02*
X127000Y179388D01*
X127000Y279400D01*
X106363Y174625D02*
X106200Y174500D01*
X215900Y115888D02*
X215900Y63500D01*
X215900Y115888D02*
X238125Y138113D01*
X238125Y139700D02*
X238125Y152400D01*
X238125Y139700D02*
X238125Y138113D01*
X238125Y152400D02*
X238050Y154250D01*
X238125Y139700D02*
X419100Y139700D01*
X304800Y88900D02*
X304800Y76200D01*
X304800Y50800D01*
X304800Y76200D02*
X419100Y76200D01*
X284163Y227013D02*
X284163Y273050D01*
X246063Y311150D01*
X84138Y311150D01*
X65088Y292100D01*
X65088Y214313D01*
X88900Y190500D01*
X106200Y190500D01*
X283550Y226750D02*
X284163Y227013D01*
X276225Y227013D02*
X276225Y236538D01*
X252413Y260350D01*
X223838Y260350D01*
X214313Y269875D01*
X214313Y292100D01*
X201613Y304800D01*
X103188Y304800D01*
X87313Y288925D01*
X87313Y244475D01*
X74613Y231775D01*
X74613Y214313D01*
X88900Y200025D01*
X104775Y200025D01*
X276225Y227013D02*
X277050Y226750D01*
X106200Y198500D02*
X104775Y200025D01*
X196850Y155575D02*
X198438Y153988D01*
X196850Y155575D02*
X196850Y173038D01*
X211138Y187325D01*
X230188Y187325D01*
X199050Y154250D02*
X198438Y153988D01*
D18*
X230188Y187325D03*
D17*
X225425Y153988D02*
X225425Y134938D01*
X203200Y112713D01*
X203200Y58738D01*
X222250Y39688D01*
X355600Y39688D01*
X379413Y63500D01*
X455613Y63500D01*
X527050Y134938D01*
X527050Y222250D01*
X508000Y241300D01*
X225425Y153988D02*
X225050Y154250D01*
X211138Y153988D02*
X211138Y152400D01*
X212725Y150813D01*
X212725Y134938D01*
X206375Y128588D01*
X223838Y114300D02*
X223838Y111125D01*
X223838Y114300D02*
X239713Y130175D01*
X388938Y130175D01*
X390525Y128588D01*
X212050Y154250D02*
X211138Y153988D01*
D18*
X206375Y128588D03*
X223838Y111125D03*
X390525Y128588D03*
D17*
X265113Y155575D02*
X265113Y163513D01*
X368300Y266700D01*
X508000Y266700D01*
X265113Y155575D02*
X264050Y154250D01*
X204788Y155575D02*
X204788Y171450D01*
X214313Y180975D01*
X225425Y180975D01*
X228600Y177800D01*
X311150Y122238D02*
X312738Y123825D01*
X384175Y123825D01*
X395288Y112713D01*
X428625Y112713D01*
X205550Y154250D02*
X204788Y155575D01*
D18*
X228600Y177800D03*
X311150Y122238D03*
X428625Y112713D03*
D17*
X231775Y212725D02*
X231775Y225425D01*
X227013Y196850D02*
X209550Y196850D01*
X76200Y63500D01*
X231775Y225425D02*
X231550Y226750D01*
D18*
X231775Y212725D03*
X227013Y196850D03*
D17*
X238125Y227013D02*
X238125Y234950D01*
X242888Y239713D01*
X238125Y227013D02*
X238050Y226750D01*
D18*
X242888Y239713D03*
D17*
X138113Y63500D02*
X127000Y63500D01*
X138113Y63500D02*
X168275Y33338D01*
X363538Y33338D01*
X381000Y50800D01*
M02*
