G04 EAGLE Gerber RS-274X export*
G75*
%MOMM*%
%FSLAX34Y34*%
%LPD*%
%IN*%
%IPPOS*%
%AMOC8*
5,1,8,0,0,1.08239X$1,22.5*%
G01*
%ADD10C,0.254000*%


D10*
X12700Y12700D02*
X542800Y12700D01*
X542800Y330100D01*
X12700Y330100D01*
X12700Y12700D01*
X84200Y154000D02*
X84219Y153564D01*
X84276Y153132D01*
X84370Y152706D01*
X84502Y152290D01*
X84668Y151887D01*
X84870Y151500D01*
X85104Y151132D01*
X85370Y150786D01*
X85664Y150464D01*
X85986Y150170D01*
X86332Y149904D01*
X86700Y149670D01*
X87087Y149468D01*
X87490Y149302D01*
X87906Y149170D01*
X88332Y149076D01*
X88764Y149019D01*
X89200Y149000D01*
X99200Y149000D01*
X99636Y149019D01*
X100068Y149076D01*
X100494Y149170D01*
X100910Y149302D01*
X101313Y149468D01*
X101700Y149670D01*
X102068Y149904D01*
X102414Y150170D01*
X102736Y150464D01*
X103030Y150786D01*
X103296Y151132D01*
X103530Y151500D01*
X103732Y151887D01*
X103898Y152290D01*
X104030Y152706D01*
X104124Y153132D01*
X104181Y153564D01*
X104200Y154000D01*
X104181Y154436D01*
X104124Y154868D01*
X104030Y155294D01*
X103898Y155710D01*
X103732Y156113D01*
X103530Y156500D01*
X103296Y156868D01*
X103030Y157214D01*
X102736Y157536D01*
X102414Y157830D01*
X102068Y158096D01*
X101700Y158330D01*
X101313Y158532D01*
X100910Y158698D01*
X100494Y158830D01*
X100068Y158924D01*
X99636Y158981D01*
X99200Y159000D01*
X89200Y159000D01*
X88764Y158981D01*
X88332Y158924D01*
X87906Y158830D01*
X87490Y158698D01*
X87087Y158532D01*
X86700Y158330D01*
X86332Y158096D01*
X85986Y157830D01*
X85664Y157536D01*
X85370Y157214D01*
X85104Y156868D01*
X84870Y156500D01*
X84668Y156113D01*
X84502Y155710D01*
X84370Y155294D01*
X84276Y154868D01*
X84219Y154436D01*
X84200Y154000D01*
X84200Y227000D02*
X84219Y226564D01*
X84276Y226132D01*
X84370Y225706D01*
X84502Y225290D01*
X84668Y224887D01*
X84870Y224500D01*
X85104Y224132D01*
X85370Y223786D01*
X85664Y223464D01*
X85986Y223170D01*
X86332Y222904D01*
X86700Y222670D01*
X87087Y222468D01*
X87490Y222302D01*
X87906Y222170D01*
X88332Y222076D01*
X88764Y222019D01*
X89200Y222000D01*
X99200Y222000D01*
X99636Y222019D01*
X100068Y222076D01*
X100494Y222170D01*
X100910Y222302D01*
X101313Y222468D01*
X101700Y222670D01*
X102068Y222904D01*
X102414Y223170D01*
X102736Y223464D01*
X103030Y223786D01*
X103296Y224132D01*
X103530Y224500D01*
X103732Y224887D01*
X103898Y225290D01*
X104030Y225706D01*
X104124Y226132D01*
X104181Y226564D01*
X104200Y227000D01*
X104181Y227436D01*
X104124Y227868D01*
X104030Y228294D01*
X103898Y228710D01*
X103732Y229113D01*
X103530Y229500D01*
X103296Y229868D01*
X103030Y230214D01*
X102736Y230536D01*
X102414Y230830D01*
X102068Y231096D01*
X101700Y231330D01*
X101313Y231532D01*
X100910Y231698D01*
X100494Y231830D01*
X100068Y231924D01*
X99636Y231981D01*
X99200Y232000D01*
X89200Y232000D01*
X88764Y231981D01*
X88332Y231924D01*
X87906Y231830D01*
X87490Y231698D01*
X87087Y231532D01*
X86700Y231330D01*
X86332Y231096D01*
X85986Y230830D01*
X85664Y230536D01*
X85370Y230214D01*
X85104Y229868D01*
X84870Y229500D01*
X84668Y229113D01*
X84502Y228710D01*
X84370Y228294D01*
X84276Y227868D01*
X84219Y227436D01*
X84200Y227000D01*
X36200Y154000D02*
X36219Y153564D01*
X36276Y153132D01*
X36370Y152706D01*
X36502Y152290D01*
X36668Y151887D01*
X36870Y151500D01*
X37104Y151132D01*
X37370Y150786D01*
X37664Y150464D01*
X37986Y150170D01*
X38332Y149904D01*
X38700Y149670D01*
X39087Y149468D01*
X39490Y149302D01*
X39906Y149170D01*
X40332Y149076D01*
X40764Y149019D01*
X41200Y149000D01*
X51200Y149000D01*
X51636Y149019D01*
X52068Y149076D01*
X52494Y149170D01*
X52910Y149302D01*
X53313Y149468D01*
X53700Y149670D01*
X54068Y149904D01*
X54414Y150170D01*
X54736Y150464D01*
X55030Y150786D01*
X55296Y151132D01*
X55530Y151500D01*
X55732Y151887D01*
X55898Y152290D01*
X56030Y152706D01*
X56124Y153132D01*
X56181Y153564D01*
X56200Y154000D01*
X56181Y154436D01*
X56124Y154868D01*
X56030Y155294D01*
X55898Y155710D01*
X55732Y156113D01*
X55530Y156500D01*
X55296Y156868D01*
X55030Y157214D01*
X54736Y157536D01*
X54414Y157830D01*
X54068Y158096D01*
X53700Y158330D01*
X53313Y158532D01*
X52910Y158698D01*
X52494Y158830D01*
X52068Y158924D01*
X51636Y158981D01*
X51200Y159000D01*
X41200Y159000D01*
X40764Y158981D01*
X40332Y158924D01*
X39906Y158830D01*
X39490Y158698D01*
X39087Y158532D01*
X38700Y158330D01*
X38332Y158096D01*
X37986Y157830D01*
X37664Y157536D01*
X37370Y157214D01*
X37104Y156868D01*
X36870Y156500D01*
X36668Y156113D01*
X36502Y155710D01*
X36370Y155294D01*
X36276Y154868D01*
X36219Y154436D01*
X36200Y154000D01*
X36200Y227000D02*
X36219Y226564D01*
X36276Y226132D01*
X36370Y225706D01*
X36502Y225290D01*
X36668Y224887D01*
X36870Y224500D01*
X37104Y224132D01*
X37370Y223786D01*
X37664Y223464D01*
X37986Y223170D01*
X38332Y222904D01*
X38700Y222670D01*
X39087Y222468D01*
X39490Y222302D01*
X39906Y222170D01*
X40332Y222076D01*
X40764Y222019D01*
X41200Y222000D01*
X51200Y222000D01*
X51636Y222019D01*
X52068Y222076D01*
X52494Y222170D01*
X52910Y222302D01*
X53313Y222468D01*
X53700Y222670D01*
X54068Y222904D01*
X54414Y223170D01*
X54736Y223464D01*
X55030Y223786D01*
X55296Y224132D01*
X55530Y224500D01*
X55732Y224887D01*
X55898Y225290D01*
X56030Y225706D01*
X56124Y226132D01*
X56181Y226564D01*
X56200Y227000D01*
X56181Y227436D01*
X56124Y227868D01*
X56030Y228294D01*
X55898Y228710D01*
X55732Y229113D01*
X55530Y229500D01*
X55296Y229868D01*
X55030Y230214D01*
X54736Y230536D01*
X54414Y230830D01*
X54068Y231096D01*
X53700Y231330D01*
X53313Y231532D01*
X52910Y231698D01*
X52494Y231830D01*
X52068Y231924D01*
X51636Y231981D01*
X51200Y232000D01*
X41200Y232000D01*
X40764Y231981D01*
X40332Y231924D01*
X39906Y231830D01*
X39490Y231698D01*
X39087Y231532D01*
X38700Y231330D01*
X38332Y231096D01*
X37986Y230830D01*
X37664Y230536D01*
X37370Y230214D01*
X37104Y229868D01*
X36870Y229500D01*
X36668Y229113D01*
X36502Y228710D01*
X36370Y228294D01*
X36276Y227868D01*
X36219Y227436D01*
X36200Y227000D01*
M02*
