G04 EAGLE Gerber RS-274X export*
G75*
%MOMM*%
%FSLAX34Y34*%
%LPD*%
%INSilkscreen Top*%
%IPPOS*%
%AMOC8*
5,1,8,0,0,1.08239X$1,22.5*%
G01*
%ADD10C,0.152400*%
%ADD11C,0.254000*%
%ADD12C,0.127000*%
%ADD13C,0.203200*%
%ADD14C,0.884400*%
%ADD15C,0.101600*%
%ADD16R,0.381000X0.508000*%


D10*
X250190Y48260D02*
X207010Y48260D01*
X207010Y78740D02*
X250190Y78740D01*
X204470Y76200D02*
X204470Y50800D01*
X252730Y50800D02*
X252730Y76200D01*
X207010Y48260D02*
X206910Y48262D01*
X206811Y48268D01*
X206711Y48278D01*
X206613Y48291D01*
X206514Y48309D01*
X206417Y48330D01*
X206321Y48355D01*
X206225Y48384D01*
X206131Y48417D01*
X206038Y48453D01*
X205947Y48493D01*
X205857Y48537D01*
X205769Y48584D01*
X205683Y48634D01*
X205599Y48688D01*
X205517Y48745D01*
X205438Y48805D01*
X205360Y48869D01*
X205286Y48935D01*
X205214Y49004D01*
X205145Y49076D01*
X205079Y49150D01*
X205015Y49228D01*
X204955Y49307D01*
X204898Y49389D01*
X204844Y49473D01*
X204794Y49559D01*
X204747Y49647D01*
X204703Y49737D01*
X204663Y49828D01*
X204627Y49921D01*
X204594Y50015D01*
X204565Y50111D01*
X204540Y50207D01*
X204519Y50304D01*
X204501Y50403D01*
X204488Y50501D01*
X204478Y50601D01*
X204472Y50700D01*
X204470Y50800D01*
X250190Y48260D02*
X250290Y48262D01*
X250389Y48268D01*
X250489Y48278D01*
X250587Y48291D01*
X250686Y48309D01*
X250783Y48330D01*
X250879Y48355D01*
X250975Y48384D01*
X251069Y48417D01*
X251162Y48453D01*
X251253Y48493D01*
X251343Y48537D01*
X251431Y48584D01*
X251517Y48634D01*
X251601Y48688D01*
X251683Y48745D01*
X251762Y48805D01*
X251840Y48869D01*
X251914Y48935D01*
X251986Y49004D01*
X252055Y49076D01*
X252121Y49150D01*
X252185Y49228D01*
X252245Y49307D01*
X252302Y49389D01*
X252356Y49473D01*
X252406Y49559D01*
X252453Y49647D01*
X252497Y49737D01*
X252537Y49828D01*
X252573Y49921D01*
X252606Y50015D01*
X252635Y50111D01*
X252660Y50207D01*
X252681Y50304D01*
X252699Y50403D01*
X252712Y50501D01*
X252722Y50601D01*
X252728Y50700D01*
X252730Y50800D01*
X207010Y78740D02*
X206910Y78738D01*
X206811Y78732D01*
X206711Y78722D01*
X206613Y78709D01*
X206514Y78691D01*
X206417Y78670D01*
X206321Y78645D01*
X206225Y78616D01*
X206131Y78583D01*
X206038Y78547D01*
X205947Y78507D01*
X205857Y78463D01*
X205769Y78416D01*
X205683Y78366D01*
X205599Y78312D01*
X205517Y78255D01*
X205438Y78195D01*
X205360Y78131D01*
X205286Y78065D01*
X205214Y77996D01*
X205145Y77924D01*
X205079Y77850D01*
X205015Y77772D01*
X204955Y77693D01*
X204898Y77611D01*
X204844Y77527D01*
X204794Y77441D01*
X204747Y77353D01*
X204703Y77263D01*
X204663Y77172D01*
X204627Y77079D01*
X204594Y76985D01*
X204565Y76889D01*
X204540Y76793D01*
X204519Y76696D01*
X204501Y76597D01*
X204488Y76499D01*
X204478Y76399D01*
X204472Y76300D01*
X204470Y76200D01*
X250190Y78740D02*
X250290Y78738D01*
X250389Y78732D01*
X250489Y78722D01*
X250587Y78709D01*
X250686Y78691D01*
X250783Y78670D01*
X250879Y78645D01*
X250975Y78616D01*
X251069Y78583D01*
X251162Y78547D01*
X251253Y78507D01*
X251343Y78463D01*
X251431Y78416D01*
X251517Y78366D01*
X251601Y78312D01*
X251683Y78255D01*
X251762Y78195D01*
X251840Y78131D01*
X251914Y78065D01*
X251986Y77996D01*
X252055Y77924D01*
X252121Y77850D01*
X252185Y77772D01*
X252245Y77693D01*
X252302Y77611D01*
X252356Y77527D01*
X252406Y77441D01*
X252453Y77353D01*
X252497Y77263D01*
X252537Y77172D01*
X252573Y77079D01*
X252606Y76985D01*
X252635Y76889D01*
X252660Y76793D01*
X252681Y76696D01*
X252699Y76597D01*
X252712Y76499D01*
X252722Y76399D01*
X252728Y76300D01*
X252730Y76200D01*
X226060Y63500D02*
X224790Y63500D01*
D11*
X226060Y63500D02*
X226060Y55880D01*
X226060Y63500D02*
X226060Y71120D01*
X231140Y63500D02*
X231140Y55880D01*
X231140Y63500D02*
X231140Y71120D01*
D10*
X231140Y63500D02*
X232410Y63500D01*
D12*
X233643Y33655D02*
X231103Y33655D01*
X231003Y33657D01*
X230904Y33663D01*
X230804Y33673D01*
X230706Y33686D01*
X230607Y33704D01*
X230510Y33725D01*
X230414Y33750D01*
X230318Y33779D01*
X230224Y33812D01*
X230131Y33848D01*
X230040Y33888D01*
X229950Y33932D01*
X229862Y33979D01*
X229776Y34029D01*
X229692Y34083D01*
X229610Y34140D01*
X229531Y34200D01*
X229453Y34264D01*
X229379Y34330D01*
X229307Y34399D01*
X229238Y34471D01*
X229172Y34545D01*
X229108Y34623D01*
X229048Y34702D01*
X228991Y34784D01*
X228937Y34868D01*
X228887Y34954D01*
X228840Y35042D01*
X228796Y35132D01*
X228756Y35223D01*
X228720Y35316D01*
X228687Y35410D01*
X228658Y35506D01*
X228633Y35602D01*
X228612Y35699D01*
X228594Y35798D01*
X228581Y35896D01*
X228571Y35996D01*
X228565Y36095D01*
X228563Y36195D01*
X228563Y42545D01*
X228565Y42645D01*
X228571Y42744D01*
X228581Y42844D01*
X228594Y42942D01*
X228612Y43041D01*
X228633Y43138D01*
X228658Y43234D01*
X228687Y43330D01*
X228720Y43424D01*
X228756Y43517D01*
X228796Y43608D01*
X228840Y43698D01*
X228887Y43786D01*
X228937Y43872D01*
X228991Y43956D01*
X229048Y44038D01*
X229108Y44117D01*
X229172Y44195D01*
X229238Y44269D01*
X229307Y44341D01*
X229379Y44410D01*
X229453Y44476D01*
X229531Y44540D01*
X229610Y44600D01*
X229692Y44657D01*
X229776Y44711D01*
X229862Y44761D01*
X229950Y44808D01*
X230040Y44852D01*
X230131Y44892D01*
X230224Y44928D01*
X230318Y44961D01*
X230414Y44990D01*
X230510Y45015D01*
X230607Y45036D01*
X230706Y45054D01*
X230804Y45067D01*
X230904Y45077D01*
X231003Y45083D01*
X231103Y45085D01*
X233643Y45085D01*
X238125Y42545D02*
X241300Y45085D01*
X241300Y33655D01*
X238125Y33655D02*
X244475Y33655D01*
D10*
X410210Y124460D02*
X453390Y124460D01*
X453390Y154940D02*
X410210Y154940D01*
X407670Y152400D02*
X407670Y127000D01*
X455930Y127000D02*
X455930Y152400D01*
X410210Y124460D02*
X410110Y124462D01*
X410011Y124468D01*
X409911Y124478D01*
X409813Y124491D01*
X409714Y124509D01*
X409617Y124530D01*
X409521Y124555D01*
X409425Y124584D01*
X409331Y124617D01*
X409238Y124653D01*
X409147Y124693D01*
X409057Y124737D01*
X408969Y124784D01*
X408883Y124834D01*
X408799Y124888D01*
X408717Y124945D01*
X408638Y125005D01*
X408560Y125069D01*
X408486Y125135D01*
X408414Y125204D01*
X408345Y125276D01*
X408279Y125350D01*
X408215Y125428D01*
X408155Y125507D01*
X408098Y125589D01*
X408044Y125673D01*
X407994Y125759D01*
X407947Y125847D01*
X407903Y125937D01*
X407863Y126028D01*
X407827Y126121D01*
X407794Y126215D01*
X407765Y126311D01*
X407740Y126407D01*
X407719Y126504D01*
X407701Y126603D01*
X407688Y126701D01*
X407678Y126801D01*
X407672Y126900D01*
X407670Y127000D01*
X453390Y124460D02*
X453490Y124462D01*
X453589Y124468D01*
X453689Y124478D01*
X453787Y124491D01*
X453886Y124509D01*
X453983Y124530D01*
X454079Y124555D01*
X454175Y124584D01*
X454269Y124617D01*
X454362Y124653D01*
X454453Y124693D01*
X454543Y124737D01*
X454631Y124784D01*
X454717Y124834D01*
X454801Y124888D01*
X454883Y124945D01*
X454962Y125005D01*
X455040Y125069D01*
X455114Y125135D01*
X455186Y125204D01*
X455255Y125276D01*
X455321Y125350D01*
X455385Y125428D01*
X455445Y125507D01*
X455502Y125589D01*
X455556Y125673D01*
X455606Y125759D01*
X455653Y125847D01*
X455697Y125937D01*
X455737Y126028D01*
X455773Y126121D01*
X455806Y126215D01*
X455835Y126311D01*
X455860Y126407D01*
X455881Y126504D01*
X455899Y126603D01*
X455912Y126701D01*
X455922Y126801D01*
X455928Y126900D01*
X455930Y127000D01*
X410210Y154940D02*
X410110Y154938D01*
X410011Y154932D01*
X409911Y154922D01*
X409813Y154909D01*
X409714Y154891D01*
X409617Y154870D01*
X409521Y154845D01*
X409425Y154816D01*
X409331Y154783D01*
X409238Y154747D01*
X409147Y154707D01*
X409057Y154663D01*
X408969Y154616D01*
X408883Y154566D01*
X408799Y154512D01*
X408717Y154455D01*
X408638Y154395D01*
X408560Y154331D01*
X408486Y154265D01*
X408414Y154196D01*
X408345Y154124D01*
X408279Y154050D01*
X408215Y153972D01*
X408155Y153893D01*
X408098Y153811D01*
X408044Y153727D01*
X407994Y153641D01*
X407947Y153553D01*
X407903Y153463D01*
X407863Y153372D01*
X407827Y153279D01*
X407794Y153185D01*
X407765Y153089D01*
X407740Y152993D01*
X407719Y152896D01*
X407701Y152797D01*
X407688Y152699D01*
X407678Y152599D01*
X407672Y152500D01*
X407670Y152400D01*
X453390Y154940D02*
X453490Y154938D01*
X453589Y154932D01*
X453689Y154922D01*
X453787Y154909D01*
X453886Y154891D01*
X453983Y154870D01*
X454079Y154845D01*
X454175Y154816D01*
X454269Y154783D01*
X454362Y154747D01*
X454453Y154707D01*
X454543Y154663D01*
X454631Y154616D01*
X454717Y154566D01*
X454801Y154512D01*
X454883Y154455D01*
X454962Y154395D01*
X455040Y154331D01*
X455114Y154265D01*
X455186Y154196D01*
X455255Y154124D01*
X455321Y154050D01*
X455385Y153972D01*
X455445Y153893D01*
X455502Y153811D01*
X455556Y153727D01*
X455606Y153641D01*
X455653Y153553D01*
X455697Y153463D01*
X455737Y153372D01*
X455773Y153279D01*
X455806Y153185D01*
X455835Y153089D01*
X455860Y152993D01*
X455881Y152896D01*
X455899Y152797D01*
X455912Y152699D01*
X455922Y152599D01*
X455928Y152500D01*
X455930Y152400D01*
X429260Y139700D02*
X427990Y139700D01*
D11*
X429260Y139700D02*
X429260Y132080D01*
X429260Y139700D02*
X429260Y147320D01*
X434340Y139700D02*
X434340Y132080D01*
X434340Y139700D02*
X434340Y147320D01*
D10*
X434340Y139700D02*
X435610Y139700D01*
D12*
X436843Y109855D02*
X434303Y109855D01*
X434203Y109857D01*
X434104Y109863D01*
X434004Y109873D01*
X433906Y109886D01*
X433807Y109904D01*
X433710Y109925D01*
X433614Y109950D01*
X433518Y109979D01*
X433424Y110012D01*
X433331Y110048D01*
X433240Y110088D01*
X433150Y110132D01*
X433062Y110179D01*
X432976Y110229D01*
X432892Y110283D01*
X432810Y110340D01*
X432731Y110400D01*
X432653Y110464D01*
X432579Y110530D01*
X432507Y110599D01*
X432438Y110671D01*
X432372Y110745D01*
X432308Y110823D01*
X432248Y110902D01*
X432191Y110984D01*
X432137Y111068D01*
X432087Y111154D01*
X432040Y111242D01*
X431996Y111332D01*
X431956Y111423D01*
X431920Y111516D01*
X431887Y111610D01*
X431858Y111706D01*
X431833Y111802D01*
X431812Y111899D01*
X431794Y111998D01*
X431781Y112096D01*
X431771Y112196D01*
X431765Y112295D01*
X431763Y112395D01*
X431763Y118745D01*
X431765Y118845D01*
X431771Y118944D01*
X431781Y119044D01*
X431794Y119142D01*
X431812Y119241D01*
X431833Y119338D01*
X431858Y119434D01*
X431887Y119530D01*
X431920Y119624D01*
X431956Y119717D01*
X431996Y119808D01*
X432040Y119898D01*
X432087Y119986D01*
X432137Y120072D01*
X432191Y120156D01*
X432248Y120238D01*
X432308Y120317D01*
X432372Y120395D01*
X432438Y120469D01*
X432507Y120541D01*
X432579Y120610D01*
X432653Y120676D01*
X432731Y120740D01*
X432810Y120800D01*
X432892Y120857D01*
X432976Y120911D01*
X433062Y120961D01*
X433150Y121008D01*
X433240Y121052D01*
X433331Y121092D01*
X433424Y121128D01*
X433518Y121161D01*
X433614Y121190D01*
X433710Y121215D01*
X433807Y121236D01*
X433906Y121254D01*
X434004Y121267D01*
X434104Y121277D01*
X434203Y121283D01*
X434303Y121285D01*
X436843Y121285D01*
X444818Y121286D02*
X444922Y121284D01*
X445027Y121278D01*
X445131Y121269D01*
X445234Y121256D01*
X445337Y121238D01*
X445439Y121218D01*
X445541Y121193D01*
X445641Y121165D01*
X445741Y121133D01*
X445839Y121097D01*
X445936Y121058D01*
X446031Y121016D01*
X446125Y120970D01*
X446217Y120920D01*
X446307Y120868D01*
X446395Y120812D01*
X446481Y120752D01*
X446565Y120690D01*
X446646Y120625D01*
X446725Y120557D01*
X446802Y120485D01*
X446875Y120412D01*
X446947Y120335D01*
X447015Y120256D01*
X447080Y120175D01*
X447142Y120091D01*
X447202Y120005D01*
X447258Y119917D01*
X447310Y119827D01*
X447360Y119735D01*
X447406Y119641D01*
X447448Y119546D01*
X447487Y119449D01*
X447523Y119351D01*
X447555Y119251D01*
X447583Y119151D01*
X447608Y119049D01*
X447628Y118947D01*
X447646Y118844D01*
X447659Y118741D01*
X447668Y118637D01*
X447674Y118532D01*
X447676Y118428D01*
X444818Y121285D02*
X444700Y121283D01*
X444581Y121277D01*
X444463Y121268D01*
X444346Y121255D01*
X444229Y121237D01*
X444112Y121217D01*
X443996Y121192D01*
X443881Y121164D01*
X443768Y121131D01*
X443655Y121096D01*
X443543Y121056D01*
X443433Y121014D01*
X443324Y120967D01*
X443216Y120917D01*
X443111Y120864D01*
X443007Y120807D01*
X442905Y120747D01*
X442805Y120684D01*
X442707Y120617D01*
X442611Y120548D01*
X442518Y120475D01*
X442427Y120399D01*
X442338Y120321D01*
X442252Y120239D01*
X442169Y120155D01*
X442088Y120069D01*
X442011Y119979D01*
X441936Y119888D01*
X441864Y119794D01*
X441795Y119697D01*
X441730Y119599D01*
X441667Y119498D01*
X441608Y119395D01*
X441552Y119291D01*
X441500Y119185D01*
X441451Y119077D01*
X441406Y118968D01*
X441364Y118857D01*
X441326Y118745D01*
X446723Y116206D02*
X446799Y116281D01*
X446874Y116360D01*
X446945Y116441D01*
X447014Y116525D01*
X447079Y116611D01*
X447141Y116699D01*
X447201Y116789D01*
X447257Y116881D01*
X447310Y116976D01*
X447359Y117072D01*
X447405Y117170D01*
X447448Y117269D01*
X447487Y117370D01*
X447522Y117472D01*
X447554Y117575D01*
X447582Y117679D01*
X447607Y117784D01*
X447628Y117891D01*
X447645Y117997D01*
X447658Y118104D01*
X447667Y118212D01*
X447673Y118320D01*
X447675Y118428D01*
X446723Y116205D02*
X441325Y109855D01*
X447675Y109855D01*
D10*
X453390Y91440D02*
X410210Y91440D01*
X410210Y60960D02*
X453390Y60960D01*
X455930Y63500D02*
X455930Y88900D01*
X407670Y88900D02*
X407670Y63500D01*
X453390Y91440D02*
X453490Y91438D01*
X453589Y91432D01*
X453689Y91422D01*
X453787Y91409D01*
X453886Y91391D01*
X453983Y91370D01*
X454079Y91345D01*
X454175Y91316D01*
X454269Y91283D01*
X454362Y91247D01*
X454453Y91207D01*
X454543Y91163D01*
X454631Y91116D01*
X454717Y91066D01*
X454801Y91012D01*
X454883Y90955D01*
X454962Y90895D01*
X455040Y90831D01*
X455114Y90765D01*
X455186Y90696D01*
X455255Y90624D01*
X455321Y90550D01*
X455385Y90472D01*
X455445Y90393D01*
X455502Y90311D01*
X455556Y90227D01*
X455606Y90141D01*
X455653Y90053D01*
X455697Y89963D01*
X455737Y89872D01*
X455773Y89779D01*
X455806Y89685D01*
X455835Y89589D01*
X455860Y89493D01*
X455881Y89396D01*
X455899Y89297D01*
X455912Y89199D01*
X455922Y89099D01*
X455928Y89000D01*
X455930Y88900D01*
X410210Y91440D02*
X410110Y91438D01*
X410011Y91432D01*
X409911Y91422D01*
X409813Y91409D01*
X409714Y91391D01*
X409617Y91370D01*
X409521Y91345D01*
X409425Y91316D01*
X409331Y91283D01*
X409238Y91247D01*
X409147Y91207D01*
X409057Y91163D01*
X408969Y91116D01*
X408883Y91066D01*
X408799Y91012D01*
X408717Y90955D01*
X408638Y90895D01*
X408560Y90831D01*
X408486Y90765D01*
X408414Y90696D01*
X408345Y90624D01*
X408279Y90550D01*
X408215Y90472D01*
X408155Y90393D01*
X408098Y90311D01*
X408044Y90227D01*
X407994Y90141D01*
X407947Y90053D01*
X407903Y89963D01*
X407863Y89872D01*
X407827Y89779D01*
X407794Y89685D01*
X407765Y89589D01*
X407740Y89493D01*
X407719Y89396D01*
X407701Y89297D01*
X407688Y89199D01*
X407678Y89099D01*
X407672Y89000D01*
X407670Y88900D01*
X453390Y60960D02*
X453490Y60962D01*
X453589Y60968D01*
X453689Y60978D01*
X453787Y60991D01*
X453886Y61009D01*
X453983Y61030D01*
X454079Y61055D01*
X454175Y61084D01*
X454269Y61117D01*
X454362Y61153D01*
X454453Y61193D01*
X454543Y61237D01*
X454631Y61284D01*
X454717Y61334D01*
X454801Y61388D01*
X454883Y61445D01*
X454962Y61505D01*
X455040Y61569D01*
X455114Y61635D01*
X455186Y61704D01*
X455255Y61776D01*
X455321Y61850D01*
X455385Y61928D01*
X455445Y62007D01*
X455502Y62089D01*
X455556Y62173D01*
X455606Y62259D01*
X455653Y62347D01*
X455697Y62437D01*
X455737Y62528D01*
X455773Y62621D01*
X455806Y62715D01*
X455835Y62811D01*
X455860Y62907D01*
X455881Y63004D01*
X455899Y63103D01*
X455912Y63201D01*
X455922Y63301D01*
X455928Y63400D01*
X455930Y63500D01*
X410210Y60960D02*
X410110Y60962D01*
X410011Y60968D01*
X409911Y60978D01*
X409813Y60991D01*
X409714Y61009D01*
X409617Y61030D01*
X409521Y61055D01*
X409425Y61084D01*
X409331Y61117D01*
X409238Y61153D01*
X409147Y61193D01*
X409057Y61237D01*
X408969Y61284D01*
X408883Y61334D01*
X408799Y61388D01*
X408717Y61445D01*
X408638Y61505D01*
X408560Y61569D01*
X408486Y61635D01*
X408414Y61704D01*
X408345Y61776D01*
X408279Y61850D01*
X408215Y61928D01*
X408155Y62007D01*
X408098Y62089D01*
X408044Y62173D01*
X407994Y62259D01*
X407947Y62347D01*
X407903Y62437D01*
X407863Y62528D01*
X407827Y62621D01*
X407794Y62715D01*
X407765Y62811D01*
X407740Y62907D01*
X407719Y63004D01*
X407701Y63103D01*
X407688Y63201D01*
X407678Y63301D01*
X407672Y63400D01*
X407670Y63500D01*
X434340Y76200D02*
X435610Y76200D01*
D11*
X434340Y76200D02*
X434340Y83820D01*
X434340Y76200D02*
X434340Y68580D01*
X429260Y76200D02*
X429260Y83820D01*
X429260Y76200D02*
X429260Y68580D01*
D10*
X429260Y76200D02*
X427990Y76200D01*
D12*
X421005Y94615D02*
X418465Y94615D01*
X418365Y94617D01*
X418266Y94623D01*
X418166Y94633D01*
X418068Y94646D01*
X417969Y94664D01*
X417872Y94685D01*
X417776Y94710D01*
X417680Y94739D01*
X417586Y94772D01*
X417493Y94808D01*
X417402Y94848D01*
X417312Y94892D01*
X417224Y94939D01*
X417138Y94989D01*
X417054Y95043D01*
X416972Y95100D01*
X416893Y95160D01*
X416815Y95224D01*
X416741Y95290D01*
X416669Y95359D01*
X416600Y95431D01*
X416534Y95505D01*
X416470Y95583D01*
X416410Y95662D01*
X416353Y95744D01*
X416299Y95828D01*
X416249Y95914D01*
X416202Y96002D01*
X416158Y96092D01*
X416118Y96183D01*
X416082Y96276D01*
X416049Y96370D01*
X416020Y96466D01*
X415995Y96562D01*
X415974Y96659D01*
X415956Y96758D01*
X415943Y96856D01*
X415933Y96956D01*
X415927Y97055D01*
X415925Y97155D01*
X415925Y103505D01*
X415927Y103605D01*
X415933Y103704D01*
X415943Y103804D01*
X415956Y103902D01*
X415974Y104001D01*
X415995Y104098D01*
X416020Y104194D01*
X416049Y104290D01*
X416082Y104384D01*
X416118Y104477D01*
X416158Y104568D01*
X416202Y104658D01*
X416249Y104746D01*
X416299Y104832D01*
X416353Y104916D01*
X416410Y104998D01*
X416470Y105077D01*
X416534Y105155D01*
X416600Y105229D01*
X416669Y105301D01*
X416741Y105370D01*
X416815Y105436D01*
X416893Y105500D01*
X416972Y105560D01*
X417054Y105617D01*
X417138Y105671D01*
X417224Y105721D01*
X417312Y105768D01*
X417402Y105812D01*
X417493Y105852D01*
X417586Y105888D01*
X417680Y105921D01*
X417776Y105950D01*
X417872Y105975D01*
X417969Y105996D01*
X418068Y106014D01*
X418166Y106027D01*
X418266Y106037D01*
X418365Y106043D01*
X418465Y106045D01*
X421005Y106045D01*
X425487Y94615D02*
X428662Y94615D01*
X428773Y94617D01*
X428883Y94623D01*
X428994Y94632D01*
X429104Y94646D01*
X429213Y94663D01*
X429322Y94684D01*
X429430Y94709D01*
X429537Y94738D01*
X429643Y94770D01*
X429748Y94806D01*
X429851Y94846D01*
X429953Y94889D01*
X430054Y94936D01*
X430153Y94987D01*
X430250Y95040D01*
X430344Y95097D01*
X430437Y95158D01*
X430528Y95221D01*
X430617Y95288D01*
X430703Y95358D01*
X430786Y95431D01*
X430868Y95506D01*
X430946Y95584D01*
X431021Y95666D01*
X431094Y95749D01*
X431164Y95835D01*
X431231Y95924D01*
X431294Y96015D01*
X431355Y96108D01*
X431412Y96202D01*
X431465Y96299D01*
X431516Y96398D01*
X431563Y96499D01*
X431606Y96601D01*
X431646Y96704D01*
X431682Y96809D01*
X431714Y96915D01*
X431743Y97022D01*
X431768Y97130D01*
X431789Y97239D01*
X431806Y97348D01*
X431820Y97458D01*
X431829Y97569D01*
X431835Y97679D01*
X431837Y97790D01*
X431835Y97901D01*
X431829Y98011D01*
X431820Y98122D01*
X431806Y98232D01*
X431789Y98341D01*
X431768Y98450D01*
X431743Y98558D01*
X431714Y98665D01*
X431682Y98771D01*
X431646Y98876D01*
X431606Y98979D01*
X431563Y99081D01*
X431516Y99182D01*
X431465Y99281D01*
X431412Y99377D01*
X431355Y99472D01*
X431294Y99565D01*
X431231Y99656D01*
X431164Y99745D01*
X431094Y99831D01*
X431021Y99914D01*
X430946Y99996D01*
X430868Y100074D01*
X430786Y100149D01*
X430703Y100222D01*
X430617Y100292D01*
X430528Y100359D01*
X430437Y100422D01*
X430344Y100483D01*
X430250Y100540D01*
X430153Y100593D01*
X430054Y100644D01*
X429953Y100691D01*
X429851Y100734D01*
X429748Y100774D01*
X429643Y100810D01*
X429537Y100842D01*
X429430Y100871D01*
X429322Y100896D01*
X429213Y100917D01*
X429104Y100934D01*
X428994Y100948D01*
X428883Y100957D01*
X428773Y100963D01*
X428662Y100965D01*
X429297Y106045D02*
X425487Y106045D01*
X429297Y106045D02*
X429397Y106043D01*
X429496Y106037D01*
X429596Y106027D01*
X429694Y106014D01*
X429793Y105996D01*
X429890Y105975D01*
X429986Y105950D01*
X430082Y105921D01*
X430176Y105888D01*
X430269Y105852D01*
X430360Y105812D01*
X430450Y105768D01*
X430538Y105721D01*
X430624Y105671D01*
X430708Y105617D01*
X430790Y105560D01*
X430869Y105500D01*
X430947Y105436D01*
X431021Y105370D01*
X431093Y105301D01*
X431162Y105229D01*
X431228Y105155D01*
X431292Y105077D01*
X431352Y104998D01*
X431409Y104916D01*
X431463Y104832D01*
X431513Y104746D01*
X431560Y104658D01*
X431604Y104568D01*
X431644Y104477D01*
X431680Y104384D01*
X431713Y104290D01*
X431742Y104194D01*
X431767Y104098D01*
X431788Y104001D01*
X431806Y103902D01*
X431819Y103804D01*
X431829Y103704D01*
X431835Y103605D01*
X431837Y103505D01*
X431835Y103405D01*
X431829Y103306D01*
X431819Y103206D01*
X431806Y103108D01*
X431788Y103009D01*
X431767Y102912D01*
X431742Y102816D01*
X431713Y102720D01*
X431680Y102626D01*
X431644Y102533D01*
X431604Y102442D01*
X431560Y102352D01*
X431513Y102264D01*
X431463Y102178D01*
X431409Y102094D01*
X431352Y102012D01*
X431292Y101933D01*
X431228Y101855D01*
X431162Y101781D01*
X431093Y101709D01*
X431021Y101640D01*
X430947Y101574D01*
X430869Y101510D01*
X430790Y101450D01*
X430708Y101393D01*
X430624Y101339D01*
X430538Y101289D01*
X430450Y101242D01*
X430360Y101198D01*
X430269Y101158D01*
X430176Y101122D01*
X430082Y101089D01*
X429986Y101060D01*
X429890Y101035D01*
X429793Y101014D01*
X429694Y100996D01*
X429596Y100983D01*
X429496Y100973D01*
X429397Y100967D01*
X429297Y100965D01*
X426757Y100965D01*
D10*
X209550Y292100D02*
X196850Y292100D01*
X209550Y292100D02*
X215900Y285750D01*
X215900Y273050D02*
X209550Y266700D01*
X215900Y285750D02*
X222250Y292100D01*
X234950Y292100D01*
X241300Y285750D01*
X241300Y273050D02*
X234950Y266700D01*
X222250Y266700D01*
X215900Y273050D01*
X190500Y273050D02*
X190500Y285750D01*
X196850Y292100D01*
X190500Y273050D02*
X196850Y266700D01*
X209550Y266700D01*
X241300Y285750D02*
X247650Y292100D01*
X260350Y292100D01*
X266700Y285750D01*
X266700Y273050D02*
X260350Y266700D01*
X247650Y266700D01*
X241300Y273050D01*
X266700Y273050D02*
X266700Y285750D01*
D12*
X181610Y285115D02*
X178435Y282575D01*
X181610Y285115D02*
X181610Y273685D01*
X178435Y273685D02*
X184785Y273685D01*
X192405Y296545D02*
X192405Y307975D01*
X191135Y296545D02*
X193675Y296545D01*
X193675Y307975D02*
X191135Y307975D01*
X202946Y309245D02*
X197866Y295275D01*
X207518Y299720D02*
X207518Y304800D01*
X207520Y304911D01*
X207526Y305021D01*
X207535Y305132D01*
X207549Y305242D01*
X207566Y305351D01*
X207587Y305460D01*
X207612Y305568D01*
X207641Y305675D01*
X207673Y305781D01*
X207709Y305886D01*
X207749Y305989D01*
X207792Y306091D01*
X207839Y306192D01*
X207890Y306291D01*
X207943Y306388D01*
X208000Y306482D01*
X208061Y306575D01*
X208124Y306666D01*
X208191Y306755D01*
X208261Y306841D01*
X208334Y306924D01*
X208409Y307006D01*
X208487Y307084D01*
X208569Y307159D01*
X208652Y307232D01*
X208738Y307302D01*
X208827Y307369D01*
X208918Y307432D01*
X209011Y307493D01*
X209106Y307550D01*
X209202Y307603D01*
X209301Y307654D01*
X209402Y307701D01*
X209504Y307744D01*
X209607Y307784D01*
X209712Y307820D01*
X209818Y307852D01*
X209925Y307881D01*
X210033Y307906D01*
X210142Y307927D01*
X210251Y307944D01*
X210361Y307958D01*
X210472Y307967D01*
X210582Y307973D01*
X210693Y307975D01*
X210804Y307973D01*
X210914Y307967D01*
X211025Y307958D01*
X211135Y307944D01*
X211244Y307927D01*
X211353Y307906D01*
X211461Y307881D01*
X211568Y307852D01*
X211674Y307820D01*
X211779Y307784D01*
X211882Y307744D01*
X211984Y307701D01*
X212085Y307654D01*
X212184Y307603D01*
X212281Y307550D01*
X212375Y307493D01*
X212468Y307432D01*
X212559Y307369D01*
X212648Y307302D01*
X212734Y307232D01*
X212817Y307159D01*
X212899Y307084D01*
X212977Y307006D01*
X213052Y306924D01*
X213125Y306841D01*
X213195Y306755D01*
X213262Y306666D01*
X213325Y306575D01*
X213386Y306482D01*
X213443Y306388D01*
X213496Y306291D01*
X213547Y306192D01*
X213594Y306091D01*
X213637Y305989D01*
X213677Y305886D01*
X213713Y305781D01*
X213745Y305675D01*
X213774Y305568D01*
X213799Y305460D01*
X213820Y305351D01*
X213837Y305242D01*
X213851Y305132D01*
X213860Y305021D01*
X213866Y304911D01*
X213868Y304800D01*
X213868Y299720D01*
X213866Y299609D01*
X213860Y299499D01*
X213851Y299388D01*
X213837Y299278D01*
X213820Y299169D01*
X213799Y299060D01*
X213774Y298952D01*
X213745Y298845D01*
X213713Y298739D01*
X213677Y298634D01*
X213637Y298531D01*
X213594Y298429D01*
X213547Y298328D01*
X213496Y298229D01*
X213443Y298132D01*
X213386Y298038D01*
X213325Y297945D01*
X213262Y297854D01*
X213195Y297765D01*
X213125Y297679D01*
X213052Y297596D01*
X212977Y297514D01*
X212899Y297436D01*
X212817Y297361D01*
X212734Y297288D01*
X212648Y297218D01*
X212559Y297151D01*
X212468Y297088D01*
X212375Y297027D01*
X212280Y296970D01*
X212184Y296917D01*
X212085Y296866D01*
X211984Y296819D01*
X211882Y296776D01*
X211779Y296736D01*
X211674Y296700D01*
X211568Y296668D01*
X211461Y296639D01*
X211353Y296614D01*
X211244Y296593D01*
X211135Y296576D01*
X211025Y296562D01*
X210914Y296553D01*
X210804Y296547D01*
X210693Y296545D01*
X210582Y296547D01*
X210472Y296553D01*
X210361Y296562D01*
X210251Y296576D01*
X210142Y296593D01*
X210033Y296614D01*
X209925Y296639D01*
X209818Y296668D01*
X209712Y296700D01*
X209607Y296736D01*
X209504Y296776D01*
X209402Y296819D01*
X209301Y296866D01*
X209202Y296917D01*
X209106Y296970D01*
X209011Y297027D01*
X208918Y297088D01*
X208827Y297151D01*
X208738Y297218D01*
X208652Y297288D01*
X208569Y297361D01*
X208487Y297436D01*
X208409Y297514D01*
X208334Y297596D01*
X208261Y297679D01*
X208191Y297765D01*
X208124Y297854D01*
X208061Y297945D01*
X208000Y298038D01*
X207943Y298133D01*
X207890Y298229D01*
X207839Y298328D01*
X207792Y298429D01*
X207749Y298531D01*
X207709Y298634D01*
X207673Y298739D01*
X207641Y298845D01*
X207612Y298952D01*
X207587Y299060D01*
X207566Y299169D01*
X207549Y299278D01*
X207535Y299388D01*
X207526Y299499D01*
X207520Y299609D01*
X207518Y299720D01*
X218440Y295275D02*
X223520Y295275D01*
X231521Y296545D02*
X231621Y296547D01*
X231720Y296553D01*
X231820Y296563D01*
X231918Y296576D01*
X232017Y296594D01*
X232114Y296615D01*
X232210Y296640D01*
X232306Y296669D01*
X232400Y296702D01*
X232493Y296738D01*
X232584Y296778D01*
X232674Y296822D01*
X232762Y296869D01*
X232848Y296919D01*
X232932Y296973D01*
X233014Y297030D01*
X233093Y297090D01*
X233171Y297154D01*
X233245Y297220D01*
X233317Y297289D01*
X233386Y297361D01*
X233452Y297435D01*
X233516Y297513D01*
X233576Y297592D01*
X233633Y297674D01*
X233687Y297758D01*
X233737Y297844D01*
X233784Y297932D01*
X233828Y298022D01*
X233868Y298113D01*
X233904Y298206D01*
X233937Y298300D01*
X233966Y298396D01*
X233991Y298492D01*
X234012Y298589D01*
X234030Y298688D01*
X234043Y298786D01*
X234053Y298886D01*
X234059Y298985D01*
X234061Y299085D01*
X231521Y296545D02*
X231380Y296547D01*
X231239Y296552D01*
X231098Y296562D01*
X230957Y296575D01*
X230817Y296591D01*
X230677Y296612D01*
X230538Y296636D01*
X230399Y296664D01*
X230262Y296695D01*
X230125Y296730D01*
X229989Y296768D01*
X229854Y296810D01*
X229721Y296856D01*
X229588Y296905D01*
X229457Y296958D01*
X229328Y297014D01*
X229199Y297073D01*
X229073Y297136D01*
X228948Y297202D01*
X228825Y297271D01*
X228704Y297344D01*
X228585Y297420D01*
X228467Y297499D01*
X228352Y297580D01*
X228240Y297665D01*
X228129Y297753D01*
X228021Y297844D01*
X227915Y297937D01*
X227812Y298034D01*
X227711Y298133D01*
X228029Y305435D02*
X228031Y305535D01*
X228037Y305634D01*
X228047Y305734D01*
X228060Y305832D01*
X228078Y305931D01*
X228099Y306028D01*
X228124Y306124D01*
X228153Y306220D01*
X228186Y306314D01*
X228222Y306407D01*
X228262Y306498D01*
X228306Y306588D01*
X228353Y306676D01*
X228403Y306762D01*
X228457Y306846D01*
X228514Y306928D01*
X228574Y307007D01*
X228638Y307085D01*
X228704Y307159D01*
X228773Y307231D01*
X228845Y307300D01*
X228919Y307366D01*
X228997Y307430D01*
X229076Y307490D01*
X229158Y307547D01*
X229242Y307601D01*
X229328Y307651D01*
X229416Y307698D01*
X229506Y307742D01*
X229597Y307782D01*
X229690Y307818D01*
X229784Y307851D01*
X229880Y307880D01*
X229976Y307905D01*
X230073Y307926D01*
X230172Y307944D01*
X230270Y307957D01*
X230370Y307967D01*
X230469Y307973D01*
X230569Y307975D01*
X230569Y307976D02*
X230702Y307974D01*
X230835Y307969D01*
X230968Y307959D01*
X231101Y307946D01*
X231233Y307929D01*
X231365Y307909D01*
X231496Y307885D01*
X231626Y307857D01*
X231756Y307826D01*
X231884Y307791D01*
X232012Y307752D01*
X232138Y307710D01*
X232263Y307664D01*
X232387Y307615D01*
X232510Y307563D01*
X232631Y307507D01*
X232750Y307447D01*
X232868Y307385D01*
X232983Y307319D01*
X233097Y307250D01*
X233209Y307177D01*
X233319Y307102D01*
X233427Y307023D01*
X229298Y303212D02*
X229214Y303264D01*
X229131Y303319D01*
X229051Y303378D01*
X228973Y303439D01*
X228898Y303503D01*
X228825Y303571D01*
X228754Y303641D01*
X228687Y303713D01*
X228622Y303788D01*
X228560Y303866D01*
X228501Y303946D01*
X228445Y304028D01*
X228393Y304112D01*
X228344Y304198D01*
X228298Y304286D01*
X228255Y304376D01*
X228216Y304467D01*
X228181Y304560D01*
X228149Y304654D01*
X228121Y304749D01*
X228096Y304845D01*
X228076Y304942D01*
X228058Y305040D01*
X228045Y305138D01*
X228036Y305237D01*
X228030Y305336D01*
X228028Y305435D01*
X232791Y301308D02*
X232875Y301256D01*
X232958Y301201D01*
X233038Y301142D01*
X233116Y301081D01*
X233191Y301017D01*
X233264Y300949D01*
X233335Y300879D01*
X233402Y300807D01*
X233467Y300732D01*
X233529Y300654D01*
X233588Y300574D01*
X233644Y300492D01*
X233696Y300408D01*
X233745Y300322D01*
X233791Y300234D01*
X233834Y300144D01*
X233873Y300053D01*
X233908Y299960D01*
X233940Y299866D01*
X233968Y299771D01*
X233993Y299675D01*
X234013Y299578D01*
X234031Y299480D01*
X234044Y299382D01*
X234053Y299283D01*
X234059Y299184D01*
X234061Y299085D01*
X232791Y301308D02*
X229299Y303213D01*
X239166Y296545D02*
X244246Y296545D01*
X239166Y296545D02*
X239166Y307975D01*
X244246Y307975D01*
X242976Y302895D02*
X239166Y302895D01*
X249072Y307975D02*
X249072Y296545D01*
X254152Y296545D01*
X258978Y296545D02*
X264058Y296545D01*
X258978Y296545D02*
X258978Y307975D01*
X264058Y307975D01*
X262788Y302895D02*
X258978Y302895D01*
X270981Y296545D02*
X273521Y296545D01*
X270981Y296545D02*
X270881Y296547D01*
X270782Y296553D01*
X270682Y296563D01*
X270584Y296576D01*
X270485Y296594D01*
X270388Y296615D01*
X270292Y296640D01*
X270196Y296669D01*
X270102Y296702D01*
X270009Y296738D01*
X269918Y296778D01*
X269828Y296822D01*
X269740Y296869D01*
X269654Y296919D01*
X269570Y296973D01*
X269488Y297030D01*
X269409Y297090D01*
X269331Y297154D01*
X269257Y297220D01*
X269185Y297289D01*
X269116Y297361D01*
X269050Y297435D01*
X268986Y297513D01*
X268926Y297592D01*
X268869Y297674D01*
X268815Y297758D01*
X268765Y297844D01*
X268718Y297932D01*
X268674Y298022D01*
X268634Y298113D01*
X268598Y298206D01*
X268565Y298300D01*
X268536Y298396D01*
X268511Y298492D01*
X268490Y298589D01*
X268472Y298688D01*
X268459Y298786D01*
X268449Y298886D01*
X268443Y298985D01*
X268441Y299085D01*
X268441Y305435D01*
X268443Y305535D01*
X268449Y305634D01*
X268459Y305734D01*
X268472Y305832D01*
X268490Y305931D01*
X268511Y306028D01*
X268536Y306124D01*
X268565Y306220D01*
X268598Y306314D01*
X268634Y306407D01*
X268674Y306498D01*
X268718Y306588D01*
X268765Y306676D01*
X268815Y306762D01*
X268869Y306846D01*
X268926Y306928D01*
X268986Y307007D01*
X269050Y307085D01*
X269116Y307159D01*
X269185Y307231D01*
X269257Y307300D01*
X269331Y307366D01*
X269409Y307430D01*
X269488Y307490D01*
X269570Y307547D01*
X269654Y307601D01*
X269740Y307651D01*
X269828Y307698D01*
X269918Y307742D01*
X270009Y307782D01*
X270102Y307818D01*
X270196Y307851D01*
X270292Y307880D01*
X270388Y307905D01*
X270485Y307926D01*
X270584Y307944D01*
X270682Y307957D01*
X270782Y307967D01*
X270881Y307973D01*
X270981Y307975D01*
X273521Y307975D01*
X280416Y307975D02*
X280416Y296545D01*
X277241Y307975D02*
X283591Y307975D01*
D13*
X292300Y164500D02*
X190300Y164500D01*
X292300Y164500D02*
X292300Y216500D01*
X190300Y216500D01*
X190300Y164500D01*
D14*
X199300Y174250D03*
D15*
X186032Y166007D02*
X174348Y166007D01*
X186032Y164709D02*
X186032Y167305D01*
X174348Y167305D02*
X174348Y164709D01*
X186032Y174469D02*
X186032Y177065D01*
X186032Y174469D02*
X186030Y174370D01*
X186024Y174270D01*
X186015Y174171D01*
X186002Y174073D01*
X185985Y173975D01*
X185964Y173877D01*
X185939Y173781D01*
X185911Y173686D01*
X185879Y173592D01*
X185844Y173499D01*
X185805Y173407D01*
X185762Y173317D01*
X185717Y173229D01*
X185667Y173142D01*
X185615Y173058D01*
X185559Y172975D01*
X185501Y172895D01*
X185439Y172817D01*
X185374Y172742D01*
X185306Y172669D01*
X185236Y172599D01*
X185163Y172531D01*
X185088Y172466D01*
X185010Y172404D01*
X184930Y172346D01*
X184847Y172290D01*
X184763Y172238D01*
X184676Y172188D01*
X184588Y172143D01*
X184498Y172100D01*
X184406Y172061D01*
X184313Y172026D01*
X184219Y171994D01*
X184124Y171966D01*
X184028Y171941D01*
X183930Y171920D01*
X183832Y171903D01*
X183734Y171890D01*
X183635Y171881D01*
X183535Y171875D01*
X183436Y171873D01*
X183436Y171872D02*
X176944Y171872D01*
X176845Y171874D01*
X176745Y171880D01*
X176646Y171889D01*
X176548Y171902D01*
X176450Y171920D01*
X176352Y171940D01*
X176256Y171965D01*
X176160Y171993D01*
X176066Y172025D01*
X175973Y172060D01*
X175882Y172099D01*
X175792Y172142D01*
X175703Y172187D01*
X175617Y172237D01*
X175532Y172289D01*
X175450Y172345D01*
X175370Y172404D01*
X175292Y172465D01*
X175216Y172530D01*
X175143Y172598D01*
X175073Y172668D01*
X175005Y172741D01*
X174940Y172817D01*
X174879Y172895D01*
X174820Y172975D01*
X174764Y173057D01*
X174712Y173142D01*
X174663Y173228D01*
X174617Y173317D01*
X174574Y173407D01*
X174535Y173498D01*
X174500Y173591D01*
X174468Y173685D01*
X174440Y173781D01*
X174415Y173877D01*
X174395Y173975D01*
X174377Y174073D01*
X174364Y174171D01*
X174355Y174270D01*
X174349Y174369D01*
X174347Y174469D01*
X174348Y174469D02*
X174348Y177065D01*
X176944Y181431D02*
X174348Y184676D01*
X186032Y184676D01*
X186032Y181431D02*
X186032Y187922D01*
D10*
X82550Y292100D02*
X69850Y292100D01*
X82550Y292100D02*
X88900Y285750D01*
X88900Y273050D02*
X82550Y266700D01*
X88900Y285750D02*
X95250Y292100D01*
X107950Y292100D01*
X114300Y285750D01*
X114300Y273050D02*
X107950Y266700D01*
X95250Y266700D01*
X88900Y273050D01*
X63500Y273050D02*
X63500Y285750D01*
X69850Y292100D01*
X63500Y273050D02*
X69850Y266700D01*
X82550Y266700D01*
X114300Y285750D02*
X120650Y292100D01*
X133350Y292100D01*
X139700Y285750D01*
X139700Y273050D02*
X133350Y266700D01*
X120650Y266700D01*
X114300Y273050D01*
X139700Y273050D02*
X139700Y285750D01*
D12*
X54610Y285115D02*
X51435Y282575D01*
X54610Y285115D02*
X54610Y273685D01*
X51435Y273685D02*
X57785Y273685D01*
X64135Y296545D02*
X64135Y307975D01*
X67310Y307975D01*
X67421Y307973D01*
X67531Y307967D01*
X67642Y307958D01*
X67752Y307944D01*
X67861Y307927D01*
X67970Y307906D01*
X68078Y307881D01*
X68185Y307852D01*
X68291Y307820D01*
X68396Y307784D01*
X68499Y307744D01*
X68601Y307701D01*
X68702Y307654D01*
X68801Y307603D01*
X68898Y307550D01*
X68992Y307493D01*
X69085Y307432D01*
X69176Y307369D01*
X69265Y307302D01*
X69351Y307232D01*
X69434Y307159D01*
X69516Y307084D01*
X69594Y307006D01*
X69669Y306924D01*
X69742Y306841D01*
X69812Y306755D01*
X69879Y306666D01*
X69942Y306575D01*
X70003Y306482D01*
X70060Y306387D01*
X70113Y306291D01*
X70164Y306192D01*
X70211Y306091D01*
X70254Y305989D01*
X70294Y305886D01*
X70330Y305781D01*
X70362Y305675D01*
X70391Y305568D01*
X70416Y305460D01*
X70437Y305351D01*
X70454Y305242D01*
X70468Y305132D01*
X70477Y305021D01*
X70483Y304911D01*
X70485Y304800D01*
X70483Y304689D01*
X70477Y304579D01*
X70468Y304468D01*
X70454Y304358D01*
X70437Y304249D01*
X70416Y304140D01*
X70391Y304032D01*
X70362Y303925D01*
X70330Y303819D01*
X70294Y303714D01*
X70254Y303611D01*
X70211Y303509D01*
X70164Y303408D01*
X70113Y303309D01*
X70060Y303212D01*
X70003Y303118D01*
X69942Y303025D01*
X69879Y302934D01*
X69812Y302845D01*
X69742Y302759D01*
X69669Y302676D01*
X69594Y302594D01*
X69516Y302516D01*
X69434Y302441D01*
X69351Y302368D01*
X69265Y302298D01*
X69176Y302231D01*
X69085Y302168D01*
X68992Y302107D01*
X68897Y302050D01*
X68801Y301997D01*
X68702Y301946D01*
X68601Y301899D01*
X68499Y301856D01*
X68396Y301816D01*
X68291Y301780D01*
X68185Y301748D01*
X68078Y301719D01*
X67970Y301694D01*
X67861Y301673D01*
X67752Y301656D01*
X67642Y301642D01*
X67531Y301633D01*
X67421Y301627D01*
X67310Y301625D01*
X64135Y301625D01*
X74994Y299720D02*
X74994Y304800D01*
X74996Y304911D01*
X75002Y305021D01*
X75011Y305132D01*
X75025Y305242D01*
X75042Y305351D01*
X75063Y305460D01*
X75088Y305568D01*
X75117Y305675D01*
X75149Y305781D01*
X75185Y305886D01*
X75225Y305989D01*
X75268Y306091D01*
X75315Y306192D01*
X75366Y306291D01*
X75419Y306388D01*
X75476Y306482D01*
X75537Y306575D01*
X75600Y306666D01*
X75667Y306755D01*
X75737Y306841D01*
X75810Y306924D01*
X75885Y307006D01*
X75963Y307084D01*
X76045Y307159D01*
X76128Y307232D01*
X76214Y307302D01*
X76303Y307369D01*
X76394Y307432D01*
X76487Y307493D01*
X76582Y307550D01*
X76678Y307603D01*
X76777Y307654D01*
X76878Y307701D01*
X76980Y307744D01*
X77083Y307784D01*
X77188Y307820D01*
X77294Y307852D01*
X77401Y307881D01*
X77509Y307906D01*
X77618Y307927D01*
X77727Y307944D01*
X77837Y307958D01*
X77948Y307967D01*
X78058Y307973D01*
X78169Y307975D01*
X78280Y307973D01*
X78390Y307967D01*
X78501Y307958D01*
X78611Y307944D01*
X78720Y307927D01*
X78829Y307906D01*
X78937Y307881D01*
X79044Y307852D01*
X79150Y307820D01*
X79255Y307784D01*
X79358Y307744D01*
X79460Y307701D01*
X79561Y307654D01*
X79660Y307603D01*
X79757Y307550D01*
X79851Y307493D01*
X79944Y307432D01*
X80035Y307369D01*
X80124Y307302D01*
X80210Y307232D01*
X80293Y307159D01*
X80375Y307084D01*
X80453Y307006D01*
X80528Y306924D01*
X80601Y306841D01*
X80671Y306755D01*
X80738Y306666D01*
X80801Y306575D01*
X80862Y306482D01*
X80919Y306388D01*
X80972Y306291D01*
X81023Y306192D01*
X81070Y306091D01*
X81113Y305989D01*
X81153Y305886D01*
X81189Y305781D01*
X81221Y305675D01*
X81250Y305568D01*
X81275Y305460D01*
X81296Y305351D01*
X81313Y305242D01*
X81327Y305132D01*
X81336Y305021D01*
X81342Y304911D01*
X81344Y304800D01*
X81344Y299720D01*
X81342Y299609D01*
X81336Y299499D01*
X81327Y299388D01*
X81313Y299278D01*
X81296Y299169D01*
X81275Y299060D01*
X81250Y298952D01*
X81221Y298845D01*
X81189Y298739D01*
X81153Y298634D01*
X81113Y298531D01*
X81070Y298429D01*
X81023Y298328D01*
X80972Y298229D01*
X80919Y298132D01*
X80862Y298038D01*
X80801Y297945D01*
X80738Y297854D01*
X80671Y297765D01*
X80601Y297679D01*
X80528Y297596D01*
X80453Y297514D01*
X80375Y297436D01*
X80293Y297361D01*
X80210Y297288D01*
X80124Y297218D01*
X80035Y297151D01*
X79944Y297088D01*
X79851Y297027D01*
X79756Y296970D01*
X79660Y296917D01*
X79561Y296866D01*
X79460Y296819D01*
X79358Y296776D01*
X79255Y296736D01*
X79150Y296700D01*
X79044Y296668D01*
X78937Y296639D01*
X78829Y296614D01*
X78720Y296593D01*
X78611Y296576D01*
X78501Y296562D01*
X78390Y296553D01*
X78280Y296547D01*
X78169Y296545D01*
X78058Y296547D01*
X77948Y296553D01*
X77837Y296562D01*
X77727Y296576D01*
X77618Y296593D01*
X77509Y296614D01*
X77401Y296639D01*
X77294Y296668D01*
X77188Y296700D01*
X77083Y296736D01*
X76980Y296776D01*
X76878Y296819D01*
X76777Y296866D01*
X76678Y296917D01*
X76582Y296970D01*
X76487Y297027D01*
X76394Y297088D01*
X76303Y297151D01*
X76214Y297218D01*
X76128Y297288D01*
X76045Y297361D01*
X75963Y297436D01*
X75885Y297514D01*
X75810Y297596D01*
X75737Y297679D01*
X75667Y297765D01*
X75600Y297854D01*
X75537Y297945D01*
X75476Y298038D01*
X75419Y298133D01*
X75366Y298229D01*
X75315Y298328D01*
X75268Y298429D01*
X75225Y298531D01*
X75185Y298634D01*
X75149Y298739D01*
X75117Y298845D01*
X75088Y298952D01*
X75063Y299060D01*
X75042Y299169D01*
X75025Y299278D01*
X75011Y299388D01*
X75002Y299499D01*
X74996Y299609D01*
X74994Y299720D01*
X86043Y307975D02*
X88583Y296545D01*
X91123Y304165D01*
X93663Y296545D01*
X96203Y307975D01*
X101308Y296545D02*
X106388Y296545D01*
X101308Y296545D02*
X101308Y307975D01*
X106388Y307975D01*
X105118Y302895D02*
X101308Y302895D01*
X111271Y307975D02*
X111271Y296545D01*
X111271Y307975D02*
X114446Y307975D01*
X114557Y307973D01*
X114667Y307967D01*
X114778Y307958D01*
X114888Y307944D01*
X114997Y307927D01*
X115106Y307906D01*
X115214Y307881D01*
X115321Y307852D01*
X115427Y307820D01*
X115532Y307784D01*
X115635Y307744D01*
X115737Y307701D01*
X115838Y307654D01*
X115937Y307603D01*
X116034Y307550D01*
X116128Y307493D01*
X116221Y307432D01*
X116312Y307369D01*
X116401Y307302D01*
X116487Y307232D01*
X116570Y307159D01*
X116652Y307084D01*
X116730Y307006D01*
X116805Y306924D01*
X116878Y306841D01*
X116948Y306755D01*
X117015Y306666D01*
X117078Y306575D01*
X117139Y306482D01*
X117196Y306387D01*
X117249Y306291D01*
X117300Y306192D01*
X117347Y306091D01*
X117390Y305989D01*
X117430Y305886D01*
X117466Y305781D01*
X117498Y305675D01*
X117527Y305568D01*
X117552Y305460D01*
X117573Y305351D01*
X117590Y305242D01*
X117604Y305132D01*
X117613Y305021D01*
X117619Y304911D01*
X117621Y304800D01*
X117619Y304689D01*
X117613Y304579D01*
X117604Y304468D01*
X117590Y304358D01*
X117573Y304249D01*
X117552Y304140D01*
X117527Y304032D01*
X117498Y303925D01*
X117466Y303819D01*
X117430Y303714D01*
X117390Y303611D01*
X117347Y303509D01*
X117300Y303408D01*
X117249Y303309D01*
X117196Y303212D01*
X117139Y303118D01*
X117078Y303025D01*
X117015Y302934D01*
X116948Y302845D01*
X116878Y302759D01*
X116805Y302676D01*
X116730Y302594D01*
X116652Y302516D01*
X116570Y302441D01*
X116487Y302368D01*
X116401Y302298D01*
X116312Y302231D01*
X116221Y302168D01*
X116128Y302107D01*
X116033Y302050D01*
X115937Y301997D01*
X115838Y301946D01*
X115737Y301899D01*
X115635Y301856D01*
X115532Y301816D01*
X115427Y301780D01*
X115321Y301748D01*
X115214Y301719D01*
X115106Y301694D01*
X114997Y301673D01*
X114888Y301656D01*
X114778Y301642D01*
X114667Y301633D01*
X114557Y301627D01*
X114446Y301625D01*
X111271Y301625D01*
X115081Y301625D02*
X117621Y296545D01*
D10*
X317500Y96520D02*
X317502Y96620D01*
X317508Y96719D01*
X317518Y96819D01*
X317531Y96917D01*
X317549Y97016D01*
X317570Y97113D01*
X317595Y97209D01*
X317624Y97305D01*
X317657Y97399D01*
X317693Y97492D01*
X317733Y97583D01*
X317777Y97673D01*
X317824Y97761D01*
X317874Y97847D01*
X317928Y97931D01*
X317985Y98013D01*
X318045Y98092D01*
X318109Y98170D01*
X318175Y98244D01*
X318244Y98316D01*
X318316Y98385D01*
X318390Y98451D01*
X318468Y98515D01*
X318547Y98575D01*
X318629Y98632D01*
X318713Y98686D01*
X318799Y98736D01*
X318887Y98783D01*
X318977Y98827D01*
X319068Y98867D01*
X319161Y98903D01*
X319255Y98936D01*
X319351Y98965D01*
X319447Y98990D01*
X319544Y99011D01*
X319643Y99029D01*
X319741Y99042D01*
X319841Y99052D01*
X319940Y99058D01*
X320040Y99060D01*
X317500Y81280D02*
X317502Y81180D01*
X317508Y81081D01*
X317518Y80981D01*
X317531Y80883D01*
X317549Y80784D01*
X317570Y80687D01*
X317595Y80591D01*
X317624Y80495D01*
X317657Y80401D01*
X317693Y80308D01*
X317733Y80217D01*
X317777Y80127D01*
X317824Y80039D01*
X317874Y79953D01*
X317928Y79869D01*
X317985Y79787D01*
X318045Y79708D01*
X318109Y79630D01*
X318175Y79556D01*
X318244Y79484D01*
X318316Y79415D01*
X318390Y79349D01*
X318468Y79285D01*
X318547Y79225D01*
X318629Y79168D01*
X318713Y79114D01*
X318799Y79064D01*
X318887Y79017D01*
X318977Y78973D01*
X319068Y78933D01*
X319161Y78897D01*
X319255Y78864D01*
X319351Y78835D01*
X319447Y78810D01*
X319544Y78789D01*
X319643Y78771D01*
X319741Y78758D01*
X319841Y78748D01*
X319940Y78742D01*
X320040Y78740D01*
X365760Y78740D02*
X365860Y78742D01*
X365959Y78748D01*
X366059Y78758D01*
X366157Y78771D01*
X366256Y78789D01*
X366353Y78810D01*
X366449Y78835D01*
X366545Y78864D01*
X366639Y78897D01*
X366732Y78933D01*
X366823Y78973D01*
X366913Y79017D01*
X367001Y79064D01*
X367087Y79114D01*
X367171Y79168D01*
X367253Y79225D01*
X367332Y79285D01*
X367410Y79349D01*
X367484Y79415D01*
X367556Y79484D01*
X367625Y79556D01*
X367691Y79630D01*
X367755Y79708D01*
X367815Y79787D01*
X367872Y79869D01*
X367926Y79953D01*
X367976Y80039D01*
X368023Y80127D01*
X368067Y80217D01*
X368107Y80308D01*
X368143Y80401D01*
X368176Y80495D01*
X368205Y80591D01*
X368230Y80687D01*
X368251Y80784D01*
X368269Y80883D01*
X368282Y80981D01*
X368292Y81081D01*
X368298Y81180D01*
X368300Y81280D01*
X368300Y96520D02*
X368298Y96620D01*
X368292Y96719D01*
X368282Y96819D01*
X368269Y96917D01*
X368251Y97016D01*
X368230Y97113D01*
X368205Y97209D01*
X368176Y97305D01*
X368143Y97399D01*
X368107Y97492D01*
X368067Y97583D01*
X368023Y97673D01*
X367976Y97761D01*
X367926Y97847D01*
X367872Y97931D01*
X367815Y98013D01*
X367755Y98092D01*
X367691Y98170D01*
X367625Y98244D01*
X367556Y98316D01*
X367484Y98385D01*
X367410Y98451D01*
X367332Y98515D01*
X367253Y98575D01*
X367171Y98632D01*
X367087Y98686D01*
X367001Y98736D01*
X366913Y98783D01*
X366823Y98827D01*
X366732Y98867D01*
X366639Y98903D01*
X366545Y98936D01*
X366449Y98965D01*
X366353Y98990D01*
X366256Y99011D01*
X366157Y99029D01*
X366059Y99042D01*
X365959Y99052D01*
X365860Y99058D01*
X365760Y99060D01*
X317500Y96520D02*
X317500Y81280D01*
X320040Y99060D02*
X323850Y99060D01*
X325120Y97790D01*
X323850Y78740D02*
X320040Y78740D01*
X323850Y78740D02*
X325120Y80010D01*
X360680Y97790D02*
X361950Y99060D01*
X360680Y97790D02*
X325120Y97790D01*
X360680Y80010D02*
X361950Y78740D01*
X360680Y80010D02*
X325120Y80010D01*
X361950Y99060D02*
X365760Y99060D01*
X365760Y78740D02*
X361950Y78740D01*
X368300Y81280D02*
X368300Y96520D01*
D16*
X370205Y88900D03*
X315595Y88900D03*
D15*
X318008Y102362D02*
X318008Y111252D01*
X320477Y111252D01*
X320575Y111250D01*
X320673Y111244D01*
X320771Y111234D01*
X320868Y111221D01*
X320965Y111203D01*
X321061Y111182D01*
X321155Y111157D01*
X321249Y111128D01*
X321342Y111096D01*
X321433Y111059D01*
X321523Y111020D01*
X321611Y110976D01*
X321697Y110929D01*
X321782Y110879D01*
X321864Y110826D01*
X321944Y110769D01*
X322022Y110709D01*
X322097Y110646D01*
X322170Y110580D01*
X322240Y110511D01*
X322307Y110440D01*
X322372Y110366D01*
X322433Y110289D01*
X322492Y110210D01*
X322547Y110129D01*
X322599Y110046D01*
X322647Y109960D01*
X322692Y109873D01*
X322734Y109784D01*
X322772Y109694D01*
X322806Y109602D01*
X322837Y109509D01*
X322864Y109414D01*
X322887Y109319D01*
X322907Y109222D01*
X322922Y109126D01*
X322934Y109028D01*
X322942Y108930D01*
X322946Y108832D01*
X322946Y108734D01*
X322942Y108636D01*
X322934Y108538D01*
X322922Y108440D01*
X322907Y108344D01*
X322887Y108247D01*
X322864Y108152D01*
X322837Y108057D01*
X322806Y107964D01*
X322772Y107872D01*
X322734Y107782D01*
X322692Y107693D01*
X322647Y107606D01*
X322599Y107520D01*
X322547Y107437D01*
X322492Y107356D01*
X322433Y107277D01*
X322372Y107200D01*
X322307Y107126D01*
X322240Y107055D01*
X322170Y106986D01*
X322097Y106920D01*
X322022Y106857D01*
X321944Y106797D01*
X321864Y106740D01*
X321782Y106687D01*
X321697Y106637D01*
X321611Y106590D01*
X321523Y106546D01*
X321433Y106507D01*
X321342Y106470D01*
X321249Y106438D01*
X321155Y106409D01*
X321061Y106384D01*
X320965Y106363D01*
X320868Y106345D01*
X320771Y106332D01*
X320673Y106322D01*
X320575Y106316D01*
X320477Y106314D01*
X320477Y106313D02*
X318008Y106313D01*
X320971Y106313D02*
X322947Y102362D01*
X326858Y109276D02*
X329327Y111252D01*
X329327Y102362D01*
X326858Y102362D02*
X331797Y102362D01*
D10*
X320040Y60960D02*
X319940Y60958D01*
X319841Y60952D01*
X319741Y60942D01*
X319643Y60929D01*
X319544Y60911D01*
X319447Y60890D01*
X319351Y60865D01*
X319255Y60836D01*
X319161Y60803D01*
X319068Y60767D01*
X318977Y60727D01*
X318887Y60683D01*
X318799Y60636D01*
X318713Y60586D01*
X318629Y60532D01*
X318547Y60475D01*
X318468Y60415D01*
X318390Y60351D01*
X318316Y60285D01*
X318244Y60216D01*
X318175Y60144D01*
X318109Y60070D01*
X318045Y59992D01*
X317985Y59913D01*
X317928Y59831D01*
X317874Y59747D01*
X317824Y59661D01*
X317777Y59573D01*
X317733Y59483D01*
X317693Y59392D01*
X317657Y59299D01*
X317624Y59205D01*
X317595Y59109D01*
X317570Y59013D01*
X317549Y58916D01*
X317531Y58817D01*
X317518Y58719D01*
X317508Y58619D01*
X317502Y58520D01*
X317500Y58420D01*
X317500Y43180D02*
X317502Y43080D01*
X317508Y42981D01*
X317518Y42881D01*
X317531Y42783D01*
X317549Y42684D01*
X317570Y42587D01*
X317595Y42491D01*
X317624Y42395D01*
X317657Y42301D01*
X317693Y42208D01*
X317733Y42117D01*
X317777Y42027D01*
X317824Y41939D01*
X317874Y41853D01*
X317928Y41769D01*
X317985Y41687D01*
X318045Y41608D01*
X318109Y41530D01*
X318175Y41456D01*
X318244Y41384D01*
X318316Y41315D01*
X318390Y41249D01*
X318468Y41185D01*
X318547Y41125D01*
X318629Y41068D01*
X318713Y41014D01*
X318799Y40964D01*
X318887Y40917D01*
X318977Y40873D01*
X319068Y40833D01*
X319161Y40797D01*
X319255Y40764D01*
X319351Y40735D01*
X319447Y40710D01*
X319544Y40689D01*
X319643Y40671D01*
X319741Y40658D01*
X319841Y40648D01*
X319940Y40642D01*
X320040Y40640D01*
X365760Y40640D02*
X365860Y40642D01*
X365959Y40648D01*
X366059Y40658D01*
X366157Y40671D01*
X366256Y40689D01*
X366353Y40710D01*
X366449Y40735D01*
X366545Y40764D01*
X366639Y40797D01*
X366732Y40833D01*
X366823Y40873D01*
X366913Y40917D01*
X367001Y40964D01*
X367087Y41014D01*
X367171Y41068D01*
X367253Y41125D01*
X367332Y41185D01*
X367410Y41249D01*
X367484Y41315D01*
X367556Y41384D01*
X367625Y41456D01*
X367691Y41530D01*
X367755Y41608D01*
X367815Y41687D01*
X367872Y41769D01*
X367926Y41853D01*
X367976Y41939D01*
X368023Y42027D01*
X368067Y42117D01*
X368107Y42208D01*
X368143Y42301D01*
X368176Y42395D01*
X368205Y42491D01*
X368230Y42587D01*
X368251Y42684D01*
X368269Y42783D01*
X368282Y42881D01*
X368292Y42981D01*
X368298Y43080D01*
X368300Y43180D01*
X368300Y58420D02*
X368298Y58520D01*
X368292Y58619D01*
X368282Y58719D01*
X368269Y58817D01*
X368251Y58916D01*
X368230Y59013D01*
X368205Y59109D01*
X368176Y59205D01*
X368143Y59299D01*
X368107Y59392D01*
X368067Y59483D01*
X368023Y59573D01*
X367976Y59661D01*
X367926Y59747D01*
X367872Y59831D01*
X367815Y59913D01*
X367755Y59992D01*
X367691Y60070D01*
X367625Y60144D01*
X367556Y60216D01*
X367484Y60285D01*
X367410Y60351D01*
X367332Y60415D01*
X367253Y60475D01*
X367171Y60532D01*
X367087Y60586D01*
X367001Y60636D01*
X366913Y60683D01*
X366823Y60727D01*
X366732Y60767D01*
X366639Y60803D01*
X366545Y60836D01*
X366449Y60865D01*
X366353Y60890D01*
X366256Y60911D01*
X366157Y60929D01*
X366059Y60942D01*
X365959Y60952D01*
X365860Y60958D01*
X365760Y60960D01*
X317500Y58420D02*
X317500Y43180D01*
X320040Y60960D02*
X323850Y60960D01*
X325120Y59690D01*
X323850Y40640D02*
X320040Y40640D01*
X323850Y40640D02*
X325120Y41910D01*
X360680Y59690D02*
X361950Y60960D01*
X360680Y59690D02*
X325120Y59690D01*
X360680Y41910D02*
X361950Y40640D01*
X360680Y41910D02*
X325120Y41910D01*
X361950Y60960D02*
X365760Y60960D01*
X365760Y40640D02*
X361950Y40640D01*
X368300Y43180D02*
X368300Y58420D01*
D16*
X370205Y50800D03*
X315595Y50800D03*
D15*
X318008Y64262D02*
X318008Y73152D01*
X320477Y73152D01*
X320575Y73150D01*
X320673Y73144D01*
X320771Y73134D01*
X320868Y73121D01*
X320965Y73103D01*
X321061Y73082D01*
X321155Y73057D01*
X321249Y73028D01*
X321342Y72996D01*
X321433Y72959D01*
X321523Y72920D01*
X321611Y72876D01*
X321697Y72829D01*
X321782Y72779D01*
X321864Y72726D01*
X321944Y72669D01*
X322022Y72609D01*
X322097Y72546D01*
X322170Y72480D01*
X322240Y72411D01*
X322307Y72340D01*
X322372Y72266D01*
X322433Y72189D01*
X322492Y72110D01*
X322547Y72029D01*
X322599Y71946D01*
X322647Y71860D01*
X322692Y71773D01*
X322734Y71684D01*
X322772Y71594D01*
X322806Y71502D01*
X322837Y71409D01*
X322864Y71314D01*
X322887Y71219D01*
X322907Y71122D01*
X322922Y71026D01*
X322934Y70928D01*
X322942Y70830D01*
X322946Y70732D01*
X322946Y70634D01*
X322942Y70536D01*
X322934Y70438D01*
X322922Y70340D01*
X322907Y70244D01*
X322887Y70147D01*
X322864Y70052D01*
X322837Y69957D01*
X322806Y69864D01*
X322772Y69772D01*
X322734Y69682D01*
X322692Y69593D01*
X322647Y69506D01*
X322599Y69420D01*
X322547Y69337D01*
X322492Y69256D01*
X322433Y69177D01*
X322372Y69100D01*
X322307Y69026D01*
X322240Y68955D01*
X322170Y68886D01*
X322097Y68820D01*
X322022Y68757D01*
X321944Y68697D01*
X321864Y68640D01*
X321782Y68587D01*
X321697Y68537D01*
X321611Y68490D01*
X321523Y68446D01*
X321433Y68407D01*
X321342Y68370D01*
X321249Y68338D01*
X321155Y68309D01*
X321061Y68284D01*
X320965Y68263D01*
X320868Y68245D01*
X320771Y68232D01*
X320673Y68222D01*
X320575Y68216D01*
X320477Y68214D01*
X320477Y68213D02*
X318008Y68213D01*
X320971Y68213D02*
X322947Y64262D01*
X331797Y70930D02*
X331795Y71022D01*
X331789Y71114D01*
X331780Y71205D01*
X331767Y71296D01*
X331750Y71386D01*
X331729Y71476D01*
X331705Y71564D01*
X331677Y71652D01*
X331645Y71738D01*
X331610Y71823D01*
X331571Y71906D01*
X331529Y71988D01*
X331484Y72068D01*
X331435Y72146D01*
X331383Y72222D01*
X331328Y72295D01*
X331270Y72367D01*
X331210Y72436D01*
X331146Y72502D01*
X331080Y72566D01*
X331011Y72626D01*
X330939Y72684D01*
X330866Y72739D01*
X330790Y72791D01*
X330712Y72840D01*
X330632Y72885D01*
X330550Y72927D01*
X330467Y72966D01*
X330382Y73001D01*
X330296Y73033D01*
X330208Y73061D01*
X330120Y73085D01*
X330030Y73106D01*
X329940Y73123D01*
X329849Y73136D01*
X329758Y73145D01*
X329666Y73151D01*
X329574Y73153D01*
X329574Y73152D02*
X329468Y73150D01*
X329363Y73144D01*
X329258Y73134D01*
X329153Y73121D01*
X329049Y73103D01*
X328946Y73082D01*
X328843Y73057D01*
X328741Y73028D01*
X328641Y72995D01*
X328542Y72959D01*
X328444Y72919D01*
X328348Y72875D01*
X328253Y72828D01*
X328161Y72778D01*
X328070Y72724D01*
X327981Y72666D01*
X327895Y72606D01*
X327811Y72542D01*
X327729Y72476D01*
X327649Y72406D01*
X327573Y72333D01*
X327499Y72258D01*
X327428Y72180D01*
X327360Y72099D01*
X327294Y72016D01*
X327232Y71930D01*
X327174Y71843D01*
X327118Y71753D01*
X327066Y71661D01*
X327017Y71567D01*
X326972Y71472D01*
X326930Y71375D01*
X326892Y71276D01*
X326858Y71177D01*
X331056Y69201D02*
X331125Y69270D01*
X331191Y69340D01*
X331254Y69414D01*
X331313Y69490D01*
X331370Y69568D01*
X331424Y69648D01*
X331474Y69731D01*
X331521Y69815D01*
X331564Y69902D01*
X331604Y69990D01*
X331640Y70079D01*
X331673Y70170D01*
X331702Y70262D01*
X331727Y70356D01*
X331748Y70450D01*
X331766Y70545D01*
X331779Y70641D01*
X331789Y70737D01*
X331795Y70833D01*
X331797Y70930D01*
X331056Y69201D02*
X326858Y64262D01*
X331797Y64262D01*
D13*
X165100Y82550D02*
X165100Y44450D01*
D11*
X164626Y43834D01*
X164137Y43229D01*
X163633Y42637D01*
X163115Y42057D01*
X162583Y41490D01*
X162037Y40936D01*
X161478Y40396D01*
X160905Y39870D01*
X160320Y39357D01*
X159723Y38860D01*
X159114Y38377D01*
X158493Y37909D01*
X157860Y37456D01*
X157217Y37019D01*
X156563Y36598D01*
X155899Y36194D01*
X155226Y35805D01*
X154543Y35433D01*
X153851Y35078D01*
X153151Y34740D01*
X152443Y34419D01*
X151727Y34116D01*
X151003Y33830D01*
X150274Y33562D01*
X149537Y33312D01*
X148795Y33081D01*
X148047Y32867D01*
X147295Y32672D01*
X146537Y32495D01*
X145776Y32337D01*
X145011Y32197D01*
X144243Y32077D01*
X143472Y31975D01*
X142699Y31892D01*
X141924Y31828D01*
X141148Y31783D01*
X140371Y31757D01*
X139593Y31750D01*
X138816Y31762D01*
X138039Y31793D01*
X137263Y31844D01*
X136488Y31913D01*
X135716Y32001D01*
X134946Y32108D01*
X134178Y32234D01*
X133414Y32378D01*
X132654Y32542D01*
X131898Y32724D01*
X131147Y32924D01*
X130400Y33142D01*
X129660Y33379D01*
X128925Y33634D01*
X128197Y33907D01*
X127476Y34198D01*
X126762Y34506D01*
X126056Y34831D01*
X125358Y35174D01*
X124668Y35534D01*
X123988Y35910D01*
X123317Y36303D01*
X122656Y36713D01*
X122005Y37138D01*
X121365Y37579D01*
X120736Y38036D01*
X120118Y38508D01*
X119512Y38995D01*
X118918Y39497D01*
X118336Y40013D01*
X117767Y40543D01*
X117212Y41087D01*
X116669Y41645D01*
X116141Y42215D01*
X115627Y42798D01*
X115127Y43394D01*
X114642Y44002D01*
X114172Y44621D01*
X113718Y45252D01*
X113279Y45894D01*
X112855Y46546D01*
X112448Y47209D01*
X112057Y47881D01*
X111683Y48563D01*
X111326Y49253D01*
X110986Y49952D01*
X110662Y50660D01*
X110357Y51374D01*
X110068Y52097D01*
X109798Y52826D01*
X109546Y53561D01*
X109311Y54303D01*
X109095Y55050D01*
X108897Y55802D01*
X108718Y56558D01*
X108557Y57319D01*
X108415Y58083D01*
X108292Y58851D01*
X108188Y59622D01*
X108102Y60395D01*
X108036Y61169D01*
X107988Y61945D01*
X107960Y62722D01*
X107950Y63500D01*
X107960Y64278D01*
X107988Y65055D01*
X108036Y65831D01*
X108102Y66605D01*
X108188Y67378D01*
X108292Y68149D01*
X108415Y68917D01*
X108557Y69681D01*
X108718Y70442D01*
X108897Y71198D01*
X109095Y71950D01*
X109311Y72697D01*
X109546Y73439D01*
X109798Y74174D01*
X110068Y74903D01*
X110357Y75626D01*
X110662Y76340D01*
X110986Y77048D01*
X111326Y77747D01*
X111683Y78437D01*
X112057Y79119D01*
X112448Y79791D01*
X112855Y80454D01*
X113279Y81106D01*
X113718Y81748D01*
X114172Y82379D01*
X114642Y82998D01*
X115127Y83606D01*
X115627Y84202D01*
X116141Y84785D01*
X116669Y85355D01*
X117212Y85913D01*
X117767Y86457D01*
X118336Y86987D01*
X118918Y87503D01*
X119512Y88005D01*
X120118Y88492D01*
X120736Y88964D01*
X121365Y89421D01*
X122005Y89862D01*
X122656Y90287D01*
X123317Y90697D01*
X123988Y91090D01*
X124668Y91466D01*
X125358Y91826D01*
X126056Y92169D01*
X126762Y92494D01*
X127476Y92802D01*
X128197Y93093D01*
X128925Y93366D01*
X129660Y93621D01*
X130400Y93858D01*
X131147Y94076D01*
X131898Y94276D01*
X132654Y94458D01*
X133414Y94622D01*
X134178Y94766D01*
X134946Y94892D01*
X135716Y94999D01*
X136488Y95087D01*
X137263Y95156D01*
X138039Y95207D01*
X138816Y95238D01*
X139593Y95250D01*
X140371Y95243D01*
X141148Y95217D01*
X141924Y95172D01*
X142699Y95108D01*
X143472Y95025D01*
X144243Y94923D01*
X145011Y94803D01*
X145776Y94663D01*
X146537Y94505D01*
X147295Y94328D01*
X148047Y94133D01*
X148795Y93919D01*
X149537Y93688D01*
X150274Y93438D01*
X151003Y93170D01*
X151727Y92884D01*
X152443Y92581D01*
X153151Y92260D01*
X153851Y91922D01*
X154543Y91567D01*
X155226Y91195D01*
X155899Y90806D01*
X156563Y90402D01*
X157217Y89981D01*
X157860Y89544D01*
X158493Y89091D01*
X159114Y88623D01*
X159723Y88140D01*
X160320Y87643D01*
X160905Y87130D01*
X161478Y86604D01*
X162037Y86064D01*
X162583Y85510D01*
X163115Y84943D01*
X163633Y84363D01*
X164137Y83771D01*
X164626Y83166D01*
X165100Y82550D01*
D10*
X114300Y63500D02*
X114308Y64123D01*
X114331Y64746D01*
X114369Y65369D01*
X114422Y65990D01*
X114491Y66609D01*
X114575Y67227D01*
X114674Y67842D01*
X114788Y68455D01*
X114917Y69065D01*
X115061Y69672D01*
X115220Y70275D01*
X115394Y70873D01*
X115582Y71468D01*
X115785Y72057D01*
X116002Y72641D01*
X116233Y73220D01*
X116479Y73793D01*
X116739Y74360D01*
X117012Y74920D01*
X117299Y75473D01*
X117600Y76020D01*
X117914Y76558D01*
X118241Y77089D01*
X118581Y77611D01*
X118933Y78126D01*
X119299Y78631D01*
X119676Y79127D01*
X120066Y79614D01*
X120467Y80091D01*
X120880Y80558D01*
X121304Y81014D01*
X121739Y81461D01*
X122186Y81896D01*
X122642Y82320D01*
X123109Y82733D01*
X123586Y83134D01*
X124073Y83524D01*
X124569Y83901D01*
X125074Y84267D01*
X125589Y84619D01*
X126111Y84959D01*
X126642Y85286D01*
X127180Y85600D01*
X127727Y85901D01*
X128280Y86188D01*
X128840Y86461D01*
X129407Y86721D01*
X129980Y86967D01*
X130559Y87198D01*
X131143Y87415D01*
X131732Y87618D01*
X132327Y87806D01*
X132925Y87980D01*
X133528Y88139D01*
X134135Y88283D01*
X134745Y88412D01*
X135358Y88526D01*
X135973Y88625D01*
X136591Y88709D01*
X137210Y88778D01*
X137831Y88831D01*
X138454Y88869D01*
X139077Y88892D01*
X139700Y88900D01*
X140323Y88892D01*
X140946Y88869D01*
X141569Y88831D01*
X142190Y88778D01*
X142809Y88709D01*
X143427Y88625D01*
X144042Y88526D01*
X144655Y88412D01*
X145265Y88283D01*
X145872Y88139D01*
X146475Y87980D01*
X147073Y87806D01*
X147668Y87618D01*
X148257Y87415D01*
X148841Y87198D01*
X149420Y86967D01*
X149993Y86721D01*
X150560Y86461D01*
X151120Y86188D01*
X151673Y85901D01*
X152220Y85600D01*
X152758Y85286D01*
X153289Y84959D01*
X153811Y84619D01*
X154326Y84267D01*
X154831Y83901D01*
X155327Y83524D01*
X155814Y83134D01*
X156291Y82733D01*
X156758Y82320D01*
X157214Y81896D01*
X157661Y81461D01*
X158096Y81014D01*
X158520Y80558D01*
X158933Y80091D01*
X159334Y79614D01*
X159724Y79127D01*
X160101Y78631D01*
X160467Y78126D01*
X160819Y77611D01*
X161159Y77089D01*
X161486Y76558D01*
X161800Y76020D01*
X162101Y75473D01*
X162388Y74920D01*
X162661Y74360D01*
X162921Y73793D01*
X163167Y73220D01*
X163398Y72641D01*
X163615Y72057D01*
X163818Y71468D01*
X164006Y70873D01*
X164180Y70275D01*
X164339Y69672D01*
X164483Y69065D01*
X164612Y68455D01*
X164726Y67842D01*
X164825Y67227D01*
X164909Y66609D01*
X164978Y65990D01*
X165031Y65369D01*
X165069Y64746D01*
X165092Y64123D01*
X165100Y63500D01*
X165092Y62877D01*
X165069Y62254D01*
X165031Y61631D01*
X164978Y61010D01*
X164909Y60391D01*
X164825Y59773D01*
X164726Y59158D01*
X164612Y58545D01*
X164483Y57935D01*
X164339Y57328D01*
X164180Y56725D01*
X164006Y56127D01*
X163818Y55532D01*
X163615Y54943D01*
X163398Y54359D01*
X163167Y53780D01*
X162921Y53207D01*
X162661Y52640D01*
X162388Y52080D01*
X162101Y51527D01*
X161800Y50980D01*
X161486Y50442D01*
X161159Y49911D01*
X160819Y49389D01*
X160467Y48874D01*
X160101Y48369D01*
X159724Y47873D01*
X159334Y47386D01*
X158933Y46909D01*
X158520Y46442D01*
X158096Y45986D01*
X157661Y45539D01*
X157214Y45104D01*
X156758Y44680D01*
X156291Y44267D01*
X155814Y43866D01*
X155327Y43476D01*
X154831Y43099D01*
X154326Y42733D01*
X153811Y42381D01*
X153289Y42041D01*
X152758Y41714D01*
X152220Y41400D01*
X151673Y41099D01*
X151120Y40812D01*
X150560Y40539D01*
X149993Y40279D01*
X149420Y40033D01*
X148841Y39802D01*
X148257Y39585D01*
X147668Y39382D01*
X147073Y39194D01*
X146475Y39020D01*
X145872Y38861D01*
X145265Y38717D01*
X144655Y38588D01*
X144042Y38474D01*
X143427Y38375D01*
X142809Y38291D01*
X142190Y38222D01*
X141569Y38169D01*
X140946Y38131D01*
X140323Y38108D01*
X139700Y38100D01*
X139077Y38108D01*
X138454Y38131D01*
X137831Y38169D01*
X137210Y38222D01*
X136591Y38291D01*
X135973Y38375D01*
X135358Y38474D01*
X134745Y38588D01*
X134135Y38717D01*
X133528Y38861D01*
X132925Y39020D01*
X132327Y39194D01*
X131732Y39382D01*
X131143Y39585D01*
X130559Y39802D01*
X129980Y40033D01*
X129407Y40279D01*
X128840Y40539D01*
X128280Y40812D01*
X127727Y41099D01*
X127180Y41400D01*
X126642Y41714D01*
X126111Y42041D01*
X125589Y42381D01*
X125074Y42733D01*
X124569Y43099D01*
X124073Y43476D01*
X123586Y43866D01*
X123109Y44267D01*
X122642Y44680D01*
X122186Y45104D01*
X121739Y45539D01*
X121304Y45986D01*
X120880Y46442D01*
X120467Y46909D01*
X120066Y47386D01*
X119676Y47873D01*
X119299Y48369D01*
X118933Y48874D01*
X118581Y49389D01*
X118241Y49911D01*
X117914Y50442D01*
X117600Y50980D01*
X117299Y51527D01*
X117012Y52080D01*
X116739Y52640D01*
X116479Y53207D01*
X116233Y53780D01*
X116002Y54359D01*
X115785Y54943D01*
X115582Y55532D01*
X115394Y56127D01*
X115220Y56725D01*
X115061Y57328D01*
X114917Y57935D01*
X114788Y58545D01*
X114674Y59158D01*
X114575Y59773D01*
X114491Y60391D01*
X114422Y61010D01*
X114369Y61631D01*
X114331Y62254D01*
X114308Y62877D01*
X114300Y63500D01*
D12*
X172085Y69469D02*
X172085Y80899D01*
X175260Y80899D01*
X175371Y80897D01*
X175481Y80891D01*
X175592Y80882D01*
X175702Y80868D01*
X175811Y80851D01*
X175920Y80830D01*
X176028Y80805D01*
X176135Y80776D01*
X176241Y80744D01*
X176346Y80708D01*
X176449Y80668D01*
X176551Y80625D01*
X176652Y80578D01*
X176751Y80527D01*
X176848Y80474D01*
X176942Y80417D01*
X177035Y80356D01*
X177126Y80293D01*
X177215Y80226D01*
X177301Y80156D01*
X177384Y80083D01*
X177466Y80008D01*
X177544Y79930D01*
X177619Y79848D01*
X177692Y79765D01*
X177762Y79679D01*
X177829Y79590D01*
X177892Y79499D01*
X177953Y79406D01*
X178010Y79311D01*
X178063Y79215D01*
X178114Y79116D01*
X178161Y79015D01*
X178204Y78913D01*
X178244Y78810D01*
X178280Y78705D01*
X178312Y78599D01*
X178341Y78492D01*
X178366Y78384D01*
X178387Y78275D01*
X178404Y78166D01*
X178418Y78056D01*
X178427Y77945D01*
X178433Y77835D01*
X178435Y77724D01*
X178433Y77613D01*
X178427Y77503D01*
X178418Y77392D01*
X178404Y77282D01*
X178387Y77173D01*
X178366Y77064D01*
X178341Y76956D01*
X178312Y76849D01*
X178280Y76743D01*
X178244Y76638D01*
X178204Y76535D01*
X178161Y76433D01*
X178114Y76332D01*
X178063Y76233D01*
X178010Y76136D01*
X177953Y76042D01*
X177892Y75949D01*
X177829Y75858D01*
X177762Y75769D01*
X177692Y75683D01*
X177619Y75600D01*
X177544Y75518D01*
X177466Y75440D01*
X177384Y75365D01*
X177301Y75292D01*
X177215Y75222D01*
X177126Y75155D01*
X177035Y75092D01*
X176942Y75031D01*
X176847Y74974D01*
X176751Y74921D01*
X176652Y74870D01*
X176551Y74823D01*
X176449Y74780D01*
X176346Y74740D01*
X176241Y74704D01*
X176135Y74672D01*
X176028Y74643D01*
X175920Y74618D01*
X175811Y74597D01*
X175702Y74580D01*
X175592Y74566D01*
X175481Y74557D01*
X175371Y74551D01*
X175260Y74549D01*
X172085Y74549D01*
X175895Y74549D02*
X178435Y69469D01*
X182797Y69469D02*
X190417Y80899D01*
X182797Y80899D02*
X190417Y69469D01*
X194354Y68199D02*
X199434Y68199D01*
X204413Y69469D02*
X204413Y80899D01*
X204413Y69469D02*
X209493Y69469D01*
X214319Y69469D02*
X219399Y69469D01*
X214319Y69469D02*
X214319Y80899D01*
X219399Y80899D01*
X218129Y75819D02*
X214319Y75819D01*
X224199Y80899D02*
X224199Y69469D01*
X224199Y80899D02*
X227374Y80899D01*
X227485Y80897D01*
X227595Y80891D01*
X227706Y80882D01*
X227816Y80868D01*
X227925Y80851D01*
X228034Y80830D01*
X228142Y80805D01*
X228249Y80776D01*
X228355Y80744D01*
X228460Y80708D01*
X228563Y80668D01*
X228665Y80625D01*
X228766Y80578D01*
X228865Y80527D01*
X228962Y80474D01*
X229056Y80417D01*
X229149Y80356D01*
X229240Y80293D01*
X229329Y80226D01*
X229415Y80156D01*
X229498Y80083D01*
X229580Y80008D01*
X229658Y79930D01*
X229733Y79848D01*
X229806Y79765D01*
X229876Y79679D01*
X229943Y79590D01*
X230006Y79499D01*
X230067Y79406D01*
X230124Y79312D01*
X230177Y79215D01*
X230228Y79116D01*
X230275Y79015D01*
X230318Y78913D01*
X230358Y78810D01*
X230394Y78705D01*
X230426Y78599D01*
X230455Y78492D01*
X230480Y78384D01*
X230501Y78275D01*
X230518Y78166D01*
X230532Y78056D01*
X230541Y77945D01*
X230547Y77835D01*
X230549Y77724D01*
X230549Y72644D01*
X230547Y72533D01*
X230541Y72423D01*
X230532Y72312D01*
X230518Y72202D01*
X230501Y72093D01*
X230480Y71984D01*
X230455Y71876D01*
X230426Y71769D01*
X230394Y71663D01*
X230358Y71558D01*
X230318Y71455D01*
X230275Y71353D01*
X230228Y71252D01*
X230177Y71153D01*
X230124Y71056D01*
X230067Y70962D01*
X230006Y70869D01*
X229943Y70778D01*
X229876Y70689D01*
X229806Y70603D01*
X229733Y70520D01*
X229658Y70438D01*
X229580Y70360D01*
X229498Y70285D01*
X229415Y70212D01*
X229329Y70142D01*
X229240Y70075D01*
X229149Y70012D01*
X229056Y69951D01*
X228961Y69894D01*
X228865Y69841D01*
X228766Y69790D01*
X228665Y69743D01*
X228563Y69700D01*
X228460Y69660D01*
X228355Y69624D01*
X228249Y69592D01*
X228142Y69563D01*
X228034Y69538D01*
X227925Y69517D01*
X227816Y69500D01*
X227706Y69486D01*
X227595Y69477D01*
X227485Y69471D01*
X227374Y69469D01*
X224199Y69469D01*
D10*
X495300Y133350D02*
X495300Y146050D01*
X501650Y152400D01*
X514350Y152400D02*
X520700Y146050D01*
X501650Y152400D02*
X495300Y158750D01*
X495300Y171450D01*
X501650Y177800D01*
X514350Y177800D02*
X520700Y171450D01*
X520700Y158750D01*
X514350Y152400D01*
X514350Y127000D02*
X501650Y127000D01*
X495300Y133350D01*
X514350Y127000D02*
X520700Y133350D01*
X520700Y146050D01*
X501650Y177800D02*
X495300Y184150D01*
X495300Y196850D01*
X501650Y203200D01*
X514350Y203200D02*
X520700Y196850D01*
X520700Y184150D01*
X514350Y177800D01*
X495300Y209550D02*
X495300Y222250D01*
X501650Y228600D01*
X514350Y228600D02*
X520700Y222250D01*
X501650Y228600D02*
X495300Y234950D01*
X495300Y247650D01*
X501650Y254000D01*
X514350Y254000D02*
X520700Y247650D01*
X520700Y234950D01*
X514350Y228600D01*
X495300Y209550D02*
X501650Y203200D01*
X514350Y203200D02*
X520700Y209550D01*
X520700Y222250D01*
X501650Y254000D02*
X495300Y260350D01*
X495300Y273050D01*
X501650Y279400D01*
X514350Y279400D02*
X520700Y273050D01*
X520700Y260350D01*
X514350Y254000D01*
X514350Y279400D02*
X501650Y279400D01*
D12*
X525145Y137160D02*
X527685Y133985D01*
X525145Y137160D02*
X536575Y137160D01*
X536575Y133985D02*
X536575Y140335D01*
X484505Y260985D02*
X484505Y264795D01*
X484507Y264895D01*
X484513Y264994D01*
X484523Y265094D01*
X484536Y265192D01*
X484554Y265291D01*
X484575Y265388D01*
X484600Y265484D01*
X484629Y265580D01*
X484662Y265674D01*
X484698Y265767D01*
X484738Y265858D01*
X484782Y265948D01*
X484829Y266036D01*
X484879Y266122D01*
X484933Y266206D01*
X484990Y266288D01*
X485050Y266367D01*
X485114Y266445D01*
X485180Y266519D01*
X485249Y266591D01*
X485321Y266660D01*
X485395Y266726D01*
X485473Y266790D01*
X485552Y266850D01*
X485634Y266907D01*
X485718Y266961D01*
X485804Y267011D01*
X485892Y267058D01*
X485982Y267102D01*
X486073Y267142D01*
X486166Y267178D01*
X486260Y267211D01*
X486356Y267240D01*
X486452Y267265D01*
X486549Y267286D01*
X486648Y267304D01*
X486746Y267317D01*
X486846Y267327D01*
X486945Y267333D01*
X487045Y267335D01*
X487680Y267335D01*
X487791Y267333D01*
X487901Y267327D01*
X488012Y267318D01*
X488122Y267304D01*
X488231Y267287D01*
X488340Y267266D01*
X488448Y267241D01*
X488555Y267212D01*
X488661Y267180D01*
X488766Y267144D01*
X488869Y267104D01*
X488971Y267061D01*
X489072Y267014D01*
X489171Y266963D01*
X489268Y266910D01*
X489362Y266853D01*
X489455Y266792D01*
X489546Y266729D01*
X489635Y266662D01*
X489721Y266592D01*
X489804Y266519D01*
X489886Y266444D01*
X489964Y266366D01*
X490039Y266284D01*
X490112Y266201D01*
X490182Y266115D01*
X490249Y266026D01*
X490312Y265935D01*
X490373Y265842D01*
X490430Y265747D01*
X490483Y265651D01*
X490534Y265552D01*
X490581Y265451D01*
X490624Y265349D01*
X490664Y265246D01*
X490700Y265141D01*
X490732Y265035D01*
X490761Y264928D01*
X490786Y264820D01*
X490807Y264711D01*
X490824Y264602D01*
X490838Y264492D01*
X490847Y264381D01*
X490853Y264271D01*
X490855Y264160D01*
X490853Y264049D01*
X490847Y263939D01*
X490838Y263828D01*
X490824Y263718D01*
X490807Y263609D01*
X490786Y263500D01*
X490761Y263392D01*
X490732Y263285D01*
X490700Y263179D01*
X490664Y263074D01*
X490624Y262971D01*
X490581Y262869D01*
X490534Y262768D01*
X490483Y262669D01*
X490430Y262572D01*
X490373Y262478D01*
X490312Y262385D01*
X490249Y262294D01*
X490182Y262205D01*
X490112Y262119D01*
X490039Y262036D01*
X489964Y261954D01*
X489886Y261876D01*
X489804Y261801D01*
X489721Y261728D01*
X489635Y261658D01*
X489546Y261591D01*
X489455Y261528D01*
X489362Y261467D01*
X489268Y261410D01*
X489171Y261357D01*
X489072Y261306D01*
X488971Y261259D01*
X488869Y261216D01*
X488766Y261176D01*
X488661Y261140D01*
X488555Y261108D01*
X488448Y261079D01*
X488340Y261054D01*
X488231Y261033D01*
X488122Y261016D01*
X488012Y261002D01*
X487901Y260993D01*
X487791Y260987D01*
X487680Y260985D01*
X484505Y260985D01*
X484365Y260987D01*
X484225Y260993D01*
X484085Y261002D01*
X483946Y261016D01*
X483807Y261033D01*
X483669Y261054D01*
X483531Y261079D01*
X483394Y261108D01*
X483258Y261140D01*
X483123Y261177D01*
X482989Y261217D01*
X482856Y261260D01*
X482724Y261308D01*
X482593Y261358D01*
X482464Y261413D01*
X482337Y261471D01*
X482211Y261532D01*
X482087Y261597D01*
X481965Y261666D01*
X481845Y261737D01*
X481727Y261812D01*
X481610Y261890D01*
X481496Y261972D01*
X481385Y262056D01*
X481276Y262144D01*
X481169Y262234D01*
X481064Y262328D01*
X480963Y262424D01*
X480864Y262523D01*
X480768Y262624D01*
X480674Y262729D01*
X480584Y262836D01*
X480496Y262945D01*
X480412Y263056D01*
X480330Y263170D01*
X480252Y263287D01*
X480177Y263405D01*
X480106Y263525D01*
X480037Y263647D01*
X479972Y263771D01*
X479911Y263897D01*
X479853Y264024D01*
X479798Y264153D01*
X479748Y264284D01*
X479700Y264416D01*
X479657Y264549D01*
X479617Y264683D01*
X479580Y264818D01*
X479548Y264954D01*
X479519Y265091D01*
X479494Y265229D01*
X479473Y265367D01*
X479456Y265506D01*
X479442Y265645D01*
X479433Y265785D01*
X479427Y265925D01*
X479425Y266065D01*
X488315Y133985D02*
X488415Y133983D01*
X488514Y133977D01*
X488614Y133967D01*
X488712Y133954D01*
X488811Y133936D01*
X488908Y133915D01*
X489004Y133890D01*
X489100Y133861D01*
X489194Y133828D01*
X489287Y133792D01*
X489378Y133752D01*
X489468Y133708D01*
X489556Y133661D01*
X489642Y133611D01*
X489726Y133557D01*
X489808Y133500D01*
X489887Y133440D01*
X489965Y133376D01*
X490039Y133310D01*
X490111Y133241D01*
X490180Y133169D01*
X490246Y133095D01*
X490310Y133017D01*
X490370Y132938D01*
X490427Y132856D01*
X490481Y132772D01*
X490531Y132686D01*
X490578Y132598D01*
X490622Y132508D01*
X490662Y132417D01*
X490698Y132324D01*
X490731Y132230D01*
X490760Y132134D01*
X490785Y132038D01*
X490806Y131941D01*
X490824Y131842D01*
X490837Y131744D01*
X490847Y131644D01*
X490853Y131545D01*
X490855Y131445D01*
X490853Y131304D01*
X490848Y131163D01*
X490838Y131022D01*
X490825Y130881D01*
X490809Y130741D01*
X490788Y130601D01*
X490764Y130462D01*
X490736Y130323D01*
X490705Y130186D01*
X490670Y130049D01*
X490632Y129913D01*
X490590Y129778D01*
X490544Y129645D01*
X490495Y129512D01*
X490442Y129381D01*
X490386Y129252D01*
X490327Y129123D01*
X490264Y128997D01*
X490198Y128872D01*
X490129Y128749D01*
X490056Y128628D01*
X489980Y128509D01*
X489901Y128391D01*
X489820Y128276D01*
X489735Y128164D01*
X489647Y128053D01*
X489556Y127945D01*
X489463Y127839D01*
X489366Y127736D01*
X489267Y127635D01*
X481965Y127953D02*
X481865Y127955D01*
X481766Y127961D01*
X481666Y127971D01*
X481568Y127984D01*
X481469Y128002D01*
X481372Y128023D01*
X481276Y128048D01*
X481180Y128077D01*
X481086Y128110D01*
X480993Y128146D01*
X480902Y128186D01*
X480812Y128230D01*
X480724Y128277D01*
X480638Y128327D01*
X480554Y128381D01*
X480472Y128438D01*
X480393Y128498D01*
X480315Y128562D01*
X480241Y128628D01*
X480169Y128697D01*
X480100Y128769D01*
X480034Y128843D01*
X479970Y128921D01*
X479910Y129000D01*
X479853Y129082D01*
X479799Y129166D01*
X479749Y129252D01*
X479702Y129340D01*
X479658Y129430D01*
X479618Y129521D01*
X479582Y129614D01*
X479549Y129708D01*
X479520Y129804D01*
X479495Y129900D01*
X479474Y129997D01*
X479456Y130096D01*
X479443Y130194D01*
X479433Y130294D01*
X479427Y130393D01*
X479425Y130493D01*
X479427Y130626D01*
X479432Y130759D01*
X479442Y130892D01*
X479455Y131025D01*
X479472Y131157D01*
X479492Y131289D01*
X479516Y131420D01*
X479544Y131550D01*
X479575Y131680D01*
X479610Y131808D01*
X479649Y131936D01*
X479691Y132062D01*
X479737Y132187D01*
X479786Y132311D01*
X479838Y132434D01*
X479894Y132555D01*
X479954Y132674D01*
X480016Y132792D01*
X480082Y132907D01*
X480151Y133021D01*
X480224Y133133D01*
X480299Y133243D01*
X480378Y133351D01*
X484188Y129222D02*
X484136Y129138D01*
X484081Y129055D01*
X484022Y128975D01*
X483961Y128897D01*
X483897Y128822D01*
X483829Y128749D01*
X483759Y128678D01*
X483687Y128611D01*
X483612Y128546D01*
X483534Y128484D01*
X483454Y128425D01*
X483372Y128369D01*
X483288Y128317D01*
X483202Y128268D01*
X483114Y128222D01*
X483024Y128179D01*
X482933Y128140D01*
X482840Y128105D01*
X482746Y128073D01*
X482651Y128045D01*
X482555Y128020D01*
X482458Y128000D01*
X482360Y127982D01*
X482262Y127969D01*
X482163Y127960D01*
X482064Y127954D01*
X481965Y127952D01*
X486092Y132715D02*
X486144Y132799D01*
X486199Y132882D01*
X486258Y132962D01*
X486319Y133040D01*
X486383Y133115D01*
X486451Y133188D01*
X486521Y133259D01*
X486593Y133326D01*
X486668Y133391D01*
X486746Y133453D01*
X486826Y133512D01*
X486908Y133568D01*
X486992Y133620D01*
X487078Y133669D01*
X487166Y133715D01*
X487256Y133758D01*
X487347Y133797D01*
X487440Y133832D01*
X487534Y133864D01*
X487629Y133892D01*
X487725Y133917D01*
X487822Y133937D01*
X487920Y133955D01*
X488018Y133968D01*
X488117Y133977D01*
X488216Y133983D01*
X488315Y133985D01*
X486093Y132715D02*
X484188Y129223D01*
X479425Y138049D02*
X490855Y141859D01*
X479425Y145669D01*
X481965Y150114D02*
X479425Y153289D01*
X490855Y153289D01*
X490855Y150114D02*
X490855Y156464D01*
D13*
X88900Y82550D02*
X88900Y44450D01*
D11*
X88426Y43834D01*
X87937Y43229D01*
X87433Y42637D01*
X86915Y42057D01*
X86383Y41490D01*
X85837Y40936D01*
X85278Y40396D01*
X84705Y39870D01*
X84120Y39357D01*
X83523Y38860D01*
X82914Y38377D01*
X82293Y37909D01*
X81660Y37456D01*
X81017Y37019D01*
X80363Y36598D01*
X79699Y36194D01*
X79026Y35805D01*
X78343Y35433D01*
X77651Y35078D01*
X76951Y34740D01*
X76243Y34419D01*
X75527Y34116D01*
X74803Y33830D01*
X74074Y33562D01*
X73337Y33312D01*
X72595Y33081D01*
X71847Y32867D01*
X71095Y32672D01*
X70337Y32495D01*
X69576Y32337D01*
X68811Y32197D01*
X68043Y32077D01*
X67272Y31975D01*
X66499Y31892D01*
X65724Y31828D01*
X64948Y31783D01*
X64171Y31757D01*
X63393Y31750D01*
X62616Y31762D01*
X61839Y31793D01*
X61063Y31844D01*
X60288Y31913D01*
X59516Y32001D01*
X58746Y32108D01*
X57978Y32234D01*
X57214Y32378D01*
X56454Y32542D01*
X55698Y32724D01*
X54947Y32924D01*
X54200Y33142D01*
X53460Y33379D01*
X52725Y33634D01*
X51997Y33907D01*
X51276Y34198D01*
X50562Y34506D01*
X49856Y34831D01*
X49158Y35174D01*
X48468Y35534D01*
X47788Y35910D01*
X47117Y36303D01*
X46456Y36713D01*
X45805Y37138D01*
X45165Y37579D01*
X44536Y38036D01*
X43918Y38508D01*
X43312Y38995D01*
X42718Y39497D01*
X42136Y40013D01*
X41567Y40543D01*
X41012Y41087D01*
X40469Y41645D01*
X39941Y42215D01*
X39427Y42798D01*
X38927Y43394D01*
X38442Y44002D01*
X37972Y44621D01*
X37518Y45252D01*
X37079Y45894D01*
X36655Y46546D01*
X36248Y47209D01*
X35857Y47881D01*
X35483Y48563D01*
X35126Y49253D01*
X34786Y49952D01*
X34462Y50660D01*
X34157Y51374D01*
X33868Y52097D01*
X33598Y52826D01*
X33346Y53561D01*
X33111Y54303D01*
X32895Y55050D01*
X32697Y55802D01*
X32518Y56558D01*
X32357Y57319D01*
X32215Y58083D01*
X32092Y58851D01*
X31988Y59622D01*
X31902Y60395D01*
X31836Y61169D01*
X31788Y61945D01*
X31760Y62722D01*
X31750Y63500D01*
X31760Y64278D01*
X31788Y65055D01*
X31836Y65831D01*
X31902Y66605D01*
X31988Y67378D01*
X32092Y68149D01*
X32215Y68917D01*
X32357Y69681D01*
X32518Y70442D01*
X32697Y71198D01*
X32895Y71950D01*
X33111Y72697D01*
X33346Y73439D01*
X33598Y74174D01*
X33868Y74903D01*
X34157Y75626D01*
X34462Y76340D01*
X34786Y77048D01*
X35126Y77747D01*
X35483Y78437D01*
X35857Y79119D01*
X36248Y79791D01*
X36655Y80454D01*
X37079Y81106D01*
X37518Y81748D01*
X37972Y82379D01*
X38442Y82998D01*
X38927Y83606D01*
X39427Y84202D01*
X39941Y84785D01*
X40469Y85355D01*
X41012Y85913D01*
X41567Y86457D01*
X42136Y86987D01*
X42718Y87503D01*
X43312Y88005D01*
X43918Y88492D01*
X44536Y88964D01*
X45165Y89421D01*
X45805Y89862D01*
X46456Y90287D01*
X47117Y90697D01*
X47788Y91090D01*
X48468Y91466D01*
X49158Y91826D01*
X49856Y92169D01*
X50562Y92494D01*
X51276Y92802D01*
X51997Y93093D01*
X52725Y93366D01*
X53460Y93621D01*
X54200Y93858D01*
X54947Y94076D01*
X55698Y94276D01*
X56454Y94458D01*
X57214Y94622D01*
X57978Y94766D01*
X58746Y94892D01*
X59516Y94999D01*
X60288Y95087D01*
X61063Y95156D01*
X61839Y95207D01*
X62616Y95238D01*
X63393Y95250D01*
X64171Y95243D01*
X64948Y95217D01*
X65724Y95172D01*
X66499Y95108D01*
X67272Y95025D01*
X68043Y94923D01*
X68811Y94803D01*
X69576Y94663D01*
X70337Y94505D01*
X71095Y94328D01*
X71847Y94133D01*
X72595Y93919D01*
X73337Y93688D01*
X74074Y93438D01*
X74803Y93170D01*
X75527Y92884D01*
X76243Y92581D01*
X76951Y92260D01*
X77651Y91922D01*
X78343Y91567D01*
X79026Y91195D01*
X79699Y90806D01*
X80363Y90402D01*
X81017Y89981D01*
X81660Y89544D01*
X82293Y89091D01*
X82914Y88623D01*
X83523Y88140D01*
X84120Y87643D01*
X84705Y87130D01*
X85278Y86604D01*
X85837Y86064D01*
X86383Y85510D01*
X86915Y84943D01*
X87433Y84363D01*
X87937Y83771D01*
X88426Y83166D01*
X88900Y82550D01*
D10*
X38100Y63500D02*
X38108Y64123D01*
X38131Y64746D01*
X38169Y65369D01*
X38222Y65990D01*
X38291Y66609D01*
X38375Y67227D01*
X38474Y67842D01*
X38588Y68455D01*
X38717Y69065D01*
X38861Y69672D01*
X39020Y70275D01*
X39194Y70873D01*
X39382Y71468D01*
X39585Y72057D01*
X39802Y72641D01*
X40033Y73220D01*
X40279Y73793D01*
X40539Y74360D01*
X40812Y74920D01*
X41099Y75473D01*
X41400Y76020D01*
X41714Y76558D01*
X42041Y77089D01*
X42381Y77611D01*
X42733Y78126D01*
X43099Y78631D01*
X43476Y79127D01*
X43866Y79614D01*
X44267Y80091D01*
X44680Y80558D01*
X45104Y81014D01*
X45539Y81461D01*
X45986Y81896D01*
X46442Y82320D01*
X46909Y82733D01*
X47386Y83134D01*
X47873Y83524D01*
X48369Y83901D01*
X48874Y84267D01*
X49389Y84619D01*
X49911Y84959D01*
X50442Y85286D01*
X50980Y85600D01*
X51527Y85901D01*
X52080Y86188D01*
X52640Y86461D01*
X53207Y86721D01*
X53780Y86967D01*
X54359Y87198D01*
X54943Y87415D01*
X55532Y87618D01*
X56127Y87806D01*
X56725Y87980D01*
X57328Y88139D01*
X57935Y88283D01*
X58545Y88412D01*
X59158Y88526D01*
X59773Y88625D01*
X60391Y88709D01*
X61010Y88778D01*
X61631Y88831D01*
X62254Y88869D01*
X62877Y88892D01*
X63500Y88900D01*
X64123Y88892D01*
X64746Y88869D01*
X65369Y88831D01*
X65990Y88778D01*
X66609Y88709D01*
X67227Y88625D01*
X67842Y88526D01*
X68455Y88412D01*
X69065Y88283D01*
X69672Y88139D01*
X70275Y87980D01*
X70873Y87806D01*
X71468Y87618D01*
X72057Y87415D01*
X72641Y87198D01*
X73220Y86967D01*
X73793Y86721D01*
X74360Y86461D01*
X74920Y86188D01*
X75473Y85901D01*
X76020Y85600D01*
X76558Y85286D01*
X77089Y84959D01*
X77611Y84619D01*
X78126Y84267D01*
X78631Y83901D01*
X79127Y83524D01*
X79614Y83134D01*
X80091Y82733D01*
X80558Y82320D01*
X81014Y81896D01*
X81461Y81461D01*
X81896Y81014D01*
X82320Y80558D01*
X82733Y80091D01*
X83134Y79614D01*
X83524Y79127D01*
X83901Y78631D01*
X84267Y78126D01*
X84619Y77611D01*
X84959Y77089D01*
X85286Y76558D01*
X85600Y76020D01*
X85901Y75473D01*
X86188Y74920D01*
X86461Y74360D01*
X86721Y73793D01*
X86967Y73220D01*
X87198Y72641D01*
X87415Y72057D01*
X87618Y71468D01*
X87806Y70873D01*
X87980Y70275D01*
X88139Y69672D01*
X88283Y69065D01*
X88412Y68455D01*
X88526Y67842D01*
X88625Y67227D01*
X88709Y66609D01*
X88778Y65990D01*
X88831Y65369D01*
X88869Y64746D01*
X88892Y64123D01*
X88900Y63500D01*
X88892Y62877D01*
X88869Y62254D01*
X88831Y61631D01*
X88778Y61010D01*
X88709Y60391D01*
X88625Y59773D01*
X88526Y59158D01*
X88412Y58545D01*
X88283Y57935D01*
X88139Y57328D01*
X87980Y56725D01*
X87806Y56127D01*
X87618Y55532D01*
X87415Y54943D01*
X87198Y54359D01*
X86967Y53780D01*
X86721Y53207D01*
X86461Y52640D01*
X86188Y52080D01*
X85901Y51527D01*
X85600Y50980D01*
X85286Y50442D01*
X84959Y49911D01*
X84619Y49389D01*
X84267Y48874D01*
X83901Y48369D01*
X83524Y47873D01*
X83134Y47386D01*
X82733Y46909D01*
X82320Y46442D01*
X81896Y45986D01*
X81461Y45539D01*
X81014Y45104D01*
X80558Y44680D01*
X80091Y44267D01*
X79614Y43866D01*
X79127Y43476D01*
X78631Y43099D01*
X78126Y42733D01*
X77611Y42381D01*
X77089Y42041D01*
X76558Y41714D01*
X76020Y41400D01*
X75473Y41099D01*
X74920Y40812D01*
X74360Y40539D01*
X73793Y40279D01*
X73220Y40033D01*
X72641Y39802D01*
X72057Y39585D01*
X71468Y39382D01*
X70873Y39194D01*
X70275Y39020D01*
X69672Y38861D01*
X69065Y38717D01*
X68455Y38588D01*
X67842Y38474D01*
X67227Y38375D01*
X66609Y38291D01*
X65990Y38222D01*
X65369Y38169D01*
X64746Y38131D01*
X64123Y38108D01*
X63500Y38100D01*
X62877Y38108D01*
X62254Y38131D01*
X61631Y38169D01*
X61010Y38222D01*
X60391Y38291D01*
X59773Y38375D01*
X59158Y38474D01*
X58545Y38588D01*
X57935Y38717D01*
X57328Y38861D01*
X56725Y39020D01*
X56127Y39194D01*
X55532Y39382D01*
X54943Y39585D01*
X54359Y39802D01*
X53780Y40033D01*
X53207Y40279D01*
X52640Y40539D01*
X52080Y40812D01*
X51527Y41099D01*
X50980Y41400D01*
X50442Y41714D01*
X49911Y42041D01*
X49389Y42381D01*
X48874Y42733D01*
X48369Y43099D01*
X47873Y43476D01*
X47386Y43866D01*
X46909Y44267D01*
X46442Y44680D01*
X45986Y45104D01*
X45539Y45539D01*
X45104Y45986D01*
X44680Y46442D01*
X44267Y46909D01*
X43866Y47386D01*
X43476Y47873D01*
X43099Y48369D01*
X42733Y48874D01*
X42381Y49389D01*
X42041Y49911D01*
X41714Y50442D01*
X41400Y50980D01*
X41099Y51527D01*
X40812Y52080D01*
X40539Y52640D01*
X40279Y53207D01*
X40033Y53780D01*
X39802Y54359D01*
X39585Y54943D01*
X39382Y55532D01*
X39194Y56127D01*
X39020Y56725D01*
X38861Y57328D01*
X38717Y57935D01*
X38588Y58545D01*
X38474Y59158D01*
X38375Y59773D01*
X38291Y60391D01*
X38222Y61010D01*
X38169Y61631D01*
X38131Y62254D01*
X38108Y62877D01*
X38100Y63500D01*
D12*
X99060Y69469D02*
X99060Y80899D01*
X95885Y80899D02*
X102235Y80899D01*
X113538Y80899D02*
X105918Y69469D01*
X113538Y69469D02*
X105918Y80899D01*
X117475Y68199D02*
X122555Y68199D01*
X127533Y69469D02*
X127533Y80899D01*
X127533Y69469D02*
X132613Y69469D01*
X137439Y69469D02*
X142519Y69469D01*
X137439Y69469D02*
X137439Y80899D01*
X142519Y80899D01*
X141249Y75819D02*
X137439Y75819D01*
X147320Y80899D02*
X147320Y69469D01*
X147320Y80899D02*
X150495Y80899D01*
X150606Y80897D01*
X150716Y80891D01*
X150827Y80882D01*
X150937Y80868D01*
X151046Y80851D01*
X151155Y80830D01*
X151263Y80805D01*
X151370Y80776D01*
X151476Y80744D01*
X151581Y80708D01*
X151684Y80668D01*
X151786Y80625D01*
X151887Y80578D01*
X151986Y80527D01*
X152083Y80474D01*
X152177Y80417D01*
X152270Y80356D01*
X152361Y80293D01*
X152450Y80226D01*
X152536Y80156D01*
X152619Y80083D01*
X152701Y80008D01*
X152779Y79930D01*
X152854Y79848D01*
X152927Y79765D01*
X152997Y79679D01*
X153064Y79590D01*
X153127Y79499D01*
X153188Y79406D01*
X153245Y79312D01*
X153298Y79215D01*
X153349Y79116D01*
X153396Y79015D01*
X153439Y78913D01*
X153479Y78810D01*
X153515Y78705D01*
X153547Y78599D01*
X153576Y78492D01*
X153601Y78384D01*
X153622Y78275D01*
X153639Y78166D01*
X153653Y78056D01*
X153662Y77945D01*
X153668Y77835D01*
X153670Y77724D01*
X153670Y72644D01*
X153668Y72533D01*
X153662Y72423D01*
X153653Y72312D01*
X153639Y72202D01*
X153622Y72093D01*
X153601Y71984D01*
X153576Y71876D01*
X153547Y71769D01*
X153515Y71663D01*
X153479Y71558D01*
X153439Y71455D01*
X153396Y71353D01*
X153349Y71252D01*
X153298Y71153D01*
X153245Y71056D01*
X153188Y70962D01*
X153127Y70869D01*
X153064Y70778D01*
X152997Y70689D01*
X152927Y70603D01*
X152854Y70520D01*
X152779Y70438D01*
X152701Y70360D01*
X152619Y70285D01*
X152536Y70212D01*
X152450Y70142D01*
X152361Y70075D01*
X152270Y70012D01*
X152177Y69951D01*
X152082Y69894D01*
X151986Y69841D01*
X151887Y69790D01*
X151786Y69743D01*
X151684Y69700D01*
X151581Y69660D01*
X151476Y69624D01*
X151370Y69592D01*
X151263Y69563D01*
X151155Y69538D01*
X151046Y69517D01*
X150937Y69500D01*
X150827Y69486D01*
X150716Y69477D01*
X150606Y69471D01*
X150495Y69469D01*
X147320Y69469D01*
D15*
X105604Y216486D02*
X94298Y216486D01*
X16972Y228973D02*
X16972Y152027D01*
X94298Y163502D02*
X105773Y163502D01*
X17018Y152085D02*
X17018Y152086D01*
X17018Y228916D01*
X30515Y218014D02*
X58029Y220091D01*
X30515Y218014D02*
X30408Y218003D01*
X30302Y217990D01*
X30197Y217972D01*
X30092Y217950D01*
X29988Y217925D01*
X29885Y217896D01*
X29783Y217863D01*
X29683Y217827D01*
X29584Y217786D01*
X29486Y217743D01*
X29390Y217696D01*
X29296Y217645D01*
X29203Y217591D01*
X29113Y217534D01*
X29025Y217473D01*
X28939Y217409D01*
X28856Y217342D01*
X28775Y217273D01*
X28696Y217200D01*
X28620Y217124D01*
X28547Y217046D01*
X28477Y216965D01*
X28410Y216882D01*
X28346Y216796D01*
X28285Y216709D01*
X28228Y216618D01*
X28173Y216526D01*
X28122Y216432D01*
X28075Y216336D01*
X28031Y216239D01*
X27990Y216140D01*
X27953Y216040D01*
X27920Y215938D01*
X27855Y215716D01*
X27795Y215492D01*
X27740Y215267D01*
X27691Y215040D01*
X27647Y214813D01*
X27608Y214584D01*
X27575Y214355D01*
X27548Y214124D01*
X27526Y213894D01*
X27509Y213662D01*
X27498Y213431D01*
X27493Y213199D01*
X27493Y212967D01*
X27498Y212735D01*
X27509Y212504D01*
X27526Y212272D01*
X27548Y212042D01*
X27575Y211811D01*
X27608Y211582D01*
X27647Y211353D01*
X27691Y211126D01*
X27740Y210899D01*
X27795Y210674D01*
X27855Y210450D01*
X27920Y210228D01*
X27920Y210227D02*
X27953Y210125D01*
X27990Y210025D01*
X28031Y209926D01*
X28075Y209829D01*
X28122Y209733D01*
X28173Y209639D01*
X28228Y209547D01*
X28285Y209456D01*
X28346Y209369D01*
X28410Y209283D01*
X28477Y209200D01*
X28547Y209119D01*
X28620Y209041D01*
X28696Y208965D01*
X28775Y208892D01*
X28856Y208823D01*
X28939Y208756D01*
X29025Y208692D01*
X29113Y208631D01*
X29203Y208574D01*
X29296Y208520D01*
X29390Y208469D01*
X29486Y208422D01*
X29584Y208379D01*
X29683Y208338D01*
X29783Y208302D01*
X29885Y208269D01*
X29988Y208240D01*
X30092Y208215D01*
X30197Y208193D01*
X30302Y208175D01*
X30408Y208162D01*
X30515Y208151D01*
X58029Y205555D01*
X58029Y207632D01*
X34149Y210227D01*
X34149Y215419D01*
X58029Y218014D01*
X58029Y220091D01*
X71008Y200883D02*
X30516Y202959D01*
X71008Y200883D02*
X71100Y200876D01*
X71191Y200865D01*
X71282Y200851D01*
X71372Y200832D01*
X71461Y200810D01*
X71549Y200784D01*
X71636Y200755D01*
X71722Y200722D01*
X71806Y200685D01*
X71888Y200645D01*
X71969Y200602D01*
X72048Y200555D01*
X72125Y200505D01*
X72200Y200452D01*
X72273Y200395D01*
X72343Y200336D01*
X72410Y200274D01*
X72475Y200209D01*
X72538Y200141D01*
X72597Y200071D01*
X72653Y199998D01*
X72706Y199924D01*
X72756Y199846D01*
X72803Y199767D01*
X72847Y199687D01*
X72887Y199604D01*
X72923Y199520D01*
X72956Y199434D01*
X72986Y199347D01*
X73011Y199259D01*
X73033Y199169D01*
X73052Y199079D01*
X73066Y198989D01*
X73077Y198898D01*
X73084Y198806D01*
X30515Y202959D02*
X30427Y202957D01*
X30339Y202952D01*
X30251Y202942D01*
X30164Y202929D01*
X30078Y202912D01*
X29992Y202892D01*
X29907Y202868D01*
X29823Y202840D01*
X29741Y202809D01*
X29660Y202775D01*
X29580Y202737D01*
X29503Y202695D01*
X29427Y202651D01*
X29352Y202603D01*
X29281Y202552D01*
X29211Y202498D01*
X29143Y202441D01*
X29079Y202382D01*
X29016Y202319D01*
X28957Y202255D01*
X28900Y202187D01*
X28846Y202117D01*
X28795Y202046D01*
X28747Y201971D01*
X28703Y201895D01*
X28661Y201818D01*
X28623Y201738D01*
X28589Y201657D01*
X28558Y201575D01*
X28530Y201491D01*
X28506Y201406D01*
X28486Y201320D01*
X28469Y201234D01*
X28456Y201147D01*
X28446Y201059D01*
X28441Y200971D01*
X28439Y200883D01*
X28439Y200882D01*
X28441Y200794D01*
X28446Y200706D01*
X28456Y200618D01*
X28469Y200531D01*
X28486Y200445D01*
X28506Y200359D01*
X28530Y200274D01*
X28558Y200190D01*
X28589Y200108D01*
X28623Y200027D01*
X28661Y199947D01*
X28703Y199870D01*
X28747Y199794D01*
X28795Y199719D01*
X28846Y199648D01*
X28900Y199578D01*
X28957Y199510D01*
X29016Y199446D01*
X29079Y199383D01*
X29143Y199324D01*
X29211Y199267D01*
X29281Y199213D01*
X29352Y199162D01*
X29427Y199114D01*
X29503Y199070D01*
X29580Y199028D01*
X29660Y198990D01*
X29741Y198956D01*
X29823Y198925D01*
X29907Y198897D01*
X29992Y198873D01*
X30078Y198853D01*
X30164Y198836D01*
X30251Y198823D01*
X30339Y198813D01*
X30427Y198808D01*
X30515Y198806D01*
X64778Y196730D01*
X58029Y160911D02*
X30515Y162988D01*
X30408Y162999D01*
X30302Y163012D01*
X30197Y163030D01*
X30092Y163052D01*
X29988Y163077D01*
X29885Y163106D01*
X29783Y163139D01*
X29683Y163175D01*
X29584Y163216D01*
X29486Y163259D01*
X29390Y163306D01*
X29296Y163357D01*
X29203Y163411D01*
X29113Y163468D01*
X29025Y163529D01*
X28939Y163593D01*
X28856Y163660D01*
X28775Y163729D01*
X28696Y163802D01*
X28620Y163878D01*
X28547Y163956D01*
X28477Y164037D01*
X28410Y164120D01*
X28346Y164206D01*
X28285Y164293D01*
X28228Y164384D01*
X28173Y164476D01*
X28122Y164570D01*
X28075Y164666D01*
X28031Y164763D01*
X27990Y164862D01*
X27953Y164962D01*
X27920Y165064D01*
X27920Y165065D02*
X27855Y165287D01*
X27795Y165511D01*
X27740Y165736D01*
X27691Y165963D01*
X27647Y166190D01*
X27608Y166419D01*
X27575Y166648D01*
X27548Y166879D01*
X27526Y167109D01*
X27509Y167341D01*
X27498Y167572D01*
X27493Y167804D01*
X27493Y168036D01*
X27498Y168268D01*
X27509Y168499D01*
X27526Y168731D01*
X27548Y168961D01*
X27575Y169192D01*
X27608Y169421D01*
X27647Y169650D01*
X27691Y169877D01*
X27740Y170104D01*
X27795Y170329D01*
X27855Y170553D01*
X27920Y170775D01*
X27953Y170877D01*
X27990Y170977D01*
X28031Y171076D01*
X28075Y171173D01*
X28122Y171269D01*
X28173Y171363D01*
X28228Y171455D01*
X28285Y171546D01*
X28346Y171633D01*
X28410Y171719D01*
X28477Y171802D01*
X28547Y171883D01*
X28620Y171961D01*
X28696Y172037D01*
X28775Y172110D01*
X28856Y172179D01*
X28939Y172246D01*
X29025Y172310D01*
X29113Y172371D01*
X29203Y172428D01*
X29296Y172482D01*
X29390Y172533D01*
X29486Y172580D01*
X29584Y172623D01*
X29683Y172664D01*
X29783Y172700D01*
X29885Y172733D01*
X29988Y172762D01*
X30092Y172787D01*
X30197Y172809D01*
X30302Y172827D01*
X30408Y172840D01*
X30515Y172851D01*
X58029Y175447D01*
X58029Y173370D01*
X34149Y170775D01*
X34149Y165583D01*
X58029Y162988D01*
X58029Y160911D01*
X71008Y180119D02*
X30516Y178043D01*
X71008Y180119D02*
X71100Y180126D01*
X71191Y180137D01*
X71281Y180152D01*
X71371Y180170D01*
X71461Y180192D01*
X71549Y180218D01*
X71636Y180247D01*
X71721Y180280D01*
X71806Y180317D01*
X71888Y180357D01*
X71969Y180401D01*
X72048Y180447D01*
X72125Y180497D01*
X72200Y180551D01*
X72273Y180607D01*
X72343Y180666D01*
X72410Y180729D01*
X72475Y180794D01*
X72537Y180861D01*
X72597Y180931D01*
X72653Y181004D01*
X72706Y181079D01*
X72756Y181156D01*
X72803Y181235D01*
X72846Y181316D01*
X72886Y181398D01*
X72923Y181483D01*
X72956Y181568D01*
X72985Y181655D01*
X73011Y181743D01*
X73033Y181833D01*
X73052Y181923D01*
X73066Y182013D01*
X73077Y182104D01*
X73084Y182196D01*
X73084Y198807D01*
X30515Y178043D02*
X30427Y178045D01*
X30339Y178050D01*
X30251Y178060D01*
X30164Y178073D01*
X30078Y178090D01*
X29992Y178110D01*
X29907Y178134D01*
X29823Y178162D01*
X29741Y178193D01*
X29660Y178227D01*
X29580Y178265D01*
X29503Y178307D01*
X29427Y178351D01*
X29352Y178399D01*
X29281Y178450D01*
X29211Y178504D01*
X29143Y178561D01*
X29079Y178620D01*
X29016Y178683D01*
X28957Y178747D01*
X28900Y178815D01*
X28846Y178885D01*
X28795Y178956D01*
X28747Y179031D01*
X28703Y179107D01*
X28661Y179184D01*
X28623Y179264D01*
X28589Y179345D01*
X28558Y179427D01*
X28530Y179511D01*
X28506Y179596D01*
X28486Y179682D01*
X28469Y179768D01*
X28456Y179855D01*
X28446Y179943D01*
X28441Y180031D01*
X28439Y180119D01*
X28439Y180120D02*
X28441Y180208D01*
X28446Y180296D01*
X28456Y180384D01*
X28469Y180471D01*
X28486Y180557D01*
X28506Y180643D01*
X28530Y180728D01*
X28558Y180812D01*
X28589Y180894D01*
X28623Y180975D01*
X28661Y181055D01*
X28703Y181132D01*
X28747Y181208D01*
X28795Y181283D01*
X28846Y181354D01*
X28900Y181424D01*
X28957Y181492D01*
X29016Y181556D01*
X29079Y181619D01*
X29143Y181678D01*
X29211Y181735D01*
X29281Y181789D01*
X29352Y181840D01*
X29427Y181888D01*
X29503Y181932D01*
X29580Y181974D01*
X29660Y182012D01*
X29741Y182046D01*
X29823Y182077D01*
X29907Y182105D01*
X29992Y182129D01*
X30078Y182149D01*
X30164Y182166D01*
X30251Y182179D01*
X30339Y182189D01*
X30427Y182194D01*
X30515Y182196D01*
X64778Y184272D01*
X64778Y196732D01*
X29554Y152086D02*
X17018Y152086D01*
X17018Y228916D02*
X29553Y228915D01*
X62669Y152028D02*
X77042Y152028D01*
X78531Y228973D02*
X63177Y228972D01*
X35553Y255867D02*
X43342Y267551D01*
X35553Y267551D02*
X43342Y255867D01*
X47632Y264955D02*
X50878Y267551D01*
X50878Y255867D01*
X54123Y255867D02*
X47632Y255867D01*
M02*
