G04 EAGLE Gerber RS-274X export*
G75*
%MOMM*%
%FSLAX34Y34*%
%LPD*%
%INSoldermask Top*%
%IPPOS*%
%AMOC8*
5,1,8,0,0,1.08239X$1,22.5*%
G01*
%ADD10P,1.951982X8X202.500000*%
%ADD11P,1.951982X8X22.500000*%
%ADD12C,1.727200*%
%ADD13R,0.603200X1.703200*%
%ADD14P,1.649562X8X22.500000*%
%ADD15C,1.711200*%
%ADD16R,3.303200X0.703200*%
%ADD17C,0.959600*%


D10*
X241300Y63500D03*
X215900Y63500D03*
X444500Y139700D03*
X419100Y139700D03*
D11*
X419100Y76200D03*
X444500Y76200D03*
D12*
X203200Y271780D02*
X203200Y287020D01*
X228600Y287020D02*
X228600Y271780D01*
X254000Y271780D02*
X254000Y287020D01*
D13*
X199050Y154250D03*
X205550Y154250D03*
X212050Y154250D03*
X218550Y154250D03*
X225050Y154250D03*
X231550Y154250D03*
X238050Y154250D03*
X244550Y154250D03*
X251050Y154250D03*
X257550Y154250D03*
X264050Y154250D03*
X270550Y154250D03*
X277050Y154250D03*
X283550Y154250D03*
X283550Y226750D03*
X277050Y226750D03*
X270550Y226750D03*
X264050Y226750D03*
X257550Y226750D03*
X251050Y226750D03*
X244550Y226750D03*
X238050Y226750D03*
X231550Y226750D03*
X225050Y226750D03*
X218550Y226750D03*
X212050Y226750D03*
X205550Y226750D03*
X199050Y226750D03*
D12*
X76200Y271780D02*
X76200Y287020D01*
X101600Y287020D02*
X101600Y271780D01*
X127000Y271780D02*
X127000Y287020D01*
D14*
X304800Y88900D03*
X381000Y88900D03*
X304800Y50800D03*
X381000Y50800D03*
X127000Y63500D03*
X152400Y63500D03*
D12*
X500380Y139700D02*
X515620Y139700D01*
X515620Y165100D02*
X500380Y165100D01*
X500380Y190500D02*
X515620Y190500D01*
X515620Y215900D02*
X500380Y215900D01*
X500380Y241300D02*
X515620Y241300D01*
X515620Y266700D02*
X500380Y266700D01*
D14*
X50800Y63500D03*
X76200Y63500D03*
D15*
X53740Y227000D02*
X38660Y227000D01*
X38660Y154000D02*
X53740Y154000D01*
X86660Y227000D02*
X101740Y227000D01*
X101740Y154000D02*
X86660Y154000D01*
D16*
X106200Y206500D03*
X106200Y198500D03*
X106200Y190500D03*
X106200Y182500D03*
X106200Y174500D03*
D17*
X219075Y171450D03*
X230188Y187325D03*
X206375Y128588D03*
X223838Y111125D03*
X390525Y128588D03*
X228600Y177800D03*
X311150Y122238D03*
X428625Y112713D03*
X231775Y212725D03*
X227013Y196850D03*
X242888Y239713D03*
M02*
