M48
;GenerationSoftware,Autodesk,EAGLE,9.6.1*%
;CreationDate,2020-06-05T14:08:22Z*%
FMAT,2
ICI,OFF
METRIC,TZ,000.000
T4C0.350
T3C0.813
T2C1.000
T1C1.016
%
G90
M71
T1
X7620Y27940
X50800Y19050
X50800Y16510
X50800Y13970
X12700Y27940
X10160Y27940
X20320Y27940
X22860Y27940
X25400Y27940
X50800Y26670
X50800Y24130
X50800Y21590
T2
X9420Y15400
X4620Y22700
X4620Y15400
X9420Y22700
T3
X38100Y8890
X30480Y5080
X38100Y5080
X12700Y6350
X15240Y6350
X41910Y13970
X44450Y13970
X21590Y6350
X24130Y6350
X5080Y6350
X7620Y6350
X44450Y7620
X41910Y7620
X30480Y8890
T4
X23019Y18733
X20638Y12859
X22384Y11112
X39053Y12859
X22860Y17780
X31115Y12224
X42863Y11271
X23177Y21273
X24289Y23971
X22701Y19685
X21907Y17145
M30